/* XPM */
static char *result[] = {
/* columns rows colors chars-per-pixel */
"64 64 4 1 ",
"  c #789000",
". c #B8B800",
"X c #88B028",
"o c #C8F840",
/* pixels */
" X..X XX         ..    XXooXX.  o  XX  X   XX   ..    XX o..X   ",
"  X.. XX..    X  XX XXX X oo .X .X X.      XX X X.X   X  .     X",
"   X. XX.. X  XooX  XXX X X.. . .X  ..  o.  ..X  o.      X     X",
"    X      X X X..X XX     X. .  X  XX XoX   ..  Xo  .. X X XX X",
"       X X X XX X.X         X    X     X. X  X.  Xo...X X      X",
"  X X  X      X  X.    X  X    X   X XX X X  XX.   .. X..  ...  ",
"  X XX X  XX  X   X    X  X    X   X XX   XX X X   .X ..  ..X   ",
"        XX          XX             X  Xo   X       XX X. ..     ",
"   X XX XX   XX     X              X  o.X X  X  X. X     .....X ",
"     X  ...  ...  X X   X     X  X XX .   X   XX ..  Xo  XXXX.. ",
"   X   o.XX  ...  X XX  XX X  X  X XX X X      X X. ooX  X     X",
"XX..X o.X X      X . XX X  X  X  XX X   .X  X  X  ..oXX X. XX X ",
"X Xo. oX  XXX X  X .  X X  X X  X X X X .X XoX     ..   oX  XX  ",
"   .o.. .o. X X  X ..   X  X .. X   X X XX X.oX X  .X  .o  ooXXo",
"o  X..XXoX XXXXXXX X. X    .o.  X X   X X  XX.. oo XX XoX  XoX o",
"o    . .X  XX XXXX  X XX  .o.X  X X    X   X XX Xo    XX    .. X",
"o  XX  X   XX   ..    XX o..X    X..X XX         ..    XXooXX.  ",
".X X.      XX X X.X   X  .     X  X.. XX..    X  XX XXX X oo .X ",
".X  ..  o.  ..X  o.      X     X   X. XX.. X  XooX  XXX X X.. . ",
" X  XX XoX   ..  Xo  .. X X XX X    X      X X X..X XX     X. . ",
" X     X. X  X.  Xo...X X      X       X X X XX X.X         X   ",
"   X XX X X  XX.   .. X..  ...    X X  X      X  X.    X  X    X",
"   X XX   XX X X   .X ..  ..X     X XX X  XX  X   X    X  X    X",
"   X  Xo   X       XX X. ..             XX          XX          ",
"   X  o.X X  X  X. X     .....X    X XX XX   XX     X           ",
" X XX .   X   XX ..  Xo  XXXX..      X  ...  ...  X X   X     X ",
" X XX X X      X X. ooX  X     X   X   o.XX  ...  X XX  XX X  X ",
" XX X   .X  X  X  ..oXX X. XX X XX..X o.X X      X . XX X  X  X ",
"X X X X .X XoX     ..   oX  XX  X Xo. oX  XXX X  X .  X X  X X  ",
"X   X X XX X.oX X  .X  .o  ooXXo   .o.. .o. X X  X ..   X  X .. ",
"X X   X X  XX.. oo XX XoX  XoX oo  X..XXoX XXXXXXX X. X    .o.  ",
"X X    X   X XX Xo    XX    .. Xo    . .X  XX XXXX  X XX  .o.X  ",
" X..X XX         ..    XXooXX.  o  XX  X   XX   ..    XX o..X   ",
"  X.. XX..    X  XX XXX X oo .X .X X.      XX X X.X   X  .     X",
"   X. XX.. X  XooX  XXX X X.. . .X  ..  o.  ..X  o.      X     X",
"    X      X X X..X XX     X. .  X  XX XoX   ..  Xo  .. X X XX X",
"       X X X XX X.X         X    X     X. X  X.  Xo...X X      X",
"  X X  X      X  X.    X  X    X   X XX X X  XX.   .. X..  ...  ",
"  X XX X  XX  X   X    X  X    X   X XX   XX X X   .X ..  ..X   ",
"        XX          XX             X  Xo   X       XX X. ..     ",
"   X XX XX   XX     X              X  o.X X  X  XX.X     .....X ",
"     X  ...  ...  X X   X     X  X XX .   X   XX X.  XX  XXXX.. ",
"   X   o.XX  ...  X XX  XX X  X  X XX X X      X X. Xoo  X     X",
"XX..X o.X X      X . XX X  X  X  XX X   .X  X  X  ..ooX X. XX X ",
"X Xo. oX  XXX X  X .  X X  X X  X X X X .X XoX     ..   oX  XX  ",
"   .o.. .o. X X  X ..   X  X .. X   X X XX X.oX X  .X  .o  ooXXo",
"o  X..XXoX XXXXXXX X. X    .o.  X X   X X  XX.. oo XX XoX  XoX o",
"o    . .X  XX XXXX  X XX  .o.X  X X    X   X XX Xo    XX    .. X",
"o  XX  X   XX   ..    XX o..X    X..X XX         ..    XXooXX.  ",
".X X.      XX X X.X   X  .     X  X.. XX..    X  XX XXX X oo .X ",
".X  ..  o.  ..X  o.      X     X   X. XX.. X  XooX  XXX X X.. . ",
" X  XX XoX   ..  Xo  .. X X XX X    X      X X X..X XX     X. . ",
" X     X. X  X.  Xo...X X      X       X X X XX X.X         X   ",
"   X XX X X  XX.   .. X..  ...    X X  X      X  X.    X  X    X",
"   X XX   XX X X   .X ..  ..X     X XX X  XX  X   X    X  X    X",
"   X  Xo   X       XX X. ..             XX          XX          ",
"   X  o.X X  X  XX.X     .....X    X XX XX   XX     X           ",
" X XX .   X   XX X.  XX  XXXX..      X  ...  ...  X X   X     X ",
" X XX X X      X X. Xoo  X     X   X   o.XX  ...  X XX  XX X  X ",
" XX X   .X  X  X  ..ooX X. XX X XX..X o.X X      X . XX X  X  X ",
"X X X X .X XoX     ..   oX  XX  X Xo. oX  XXX X  X .  X X  X X  ",
"X   X X XX X.oX X  .X  .o  ooXXo   .o.. .o. X X  X ..   X  X .. ",
"X X   X X  XX.. oo XX XoX  XoX oo  X..XXoX XXXXXXX X. X    .o.  ",
"X X    X   X XX Xo    XX    .. Xo    . .X  XX XXXX  X XX  .o.X  "
};
