/* XPM */
static char *result[] = {
/* columns rows colors chars-per-pixel */
"64 64 14 1 ",
"  c #885028",
". c #B86828",
"X c #806850",
"o c #A86040",
"O c #C86040",
"+ c #A8A040",
"@ c #A08068",
"# c #98A060",
"$ c #C88050",
"% c #C8A040",
"& c #E0A040",
"* c #F8A858",
"= c #E0D078",
"- c #D8A080",
/* pixels */
"$$%$$o$$$$$$-$-$$$.$$.X$$%-$$$%$$$.$$%$$$$$$-$$$$.$-$&&&&$&$-$$$",
"$-$$$%$$$%&$%-$--$$$-$$$@$$&$$$&$&$$$$$$.$--$$#$$$$.-%&$&&$&$%--",
"$$$$.$.$.&$&$%-$--$$$--$$$$$$$$$--$$$$$..$$%---&%$%.&$&&&$&.$-&$",
"$$..$.$$&$$&$--$-$$$-$$oo$$$O$$-$-$-$$$$$$$--=*--*$*$-&$$&..$$$$",
"$$$..$...$%$%&$*=*$$$-$o+oo$$$$$$$$$$$$$$$$$.&$-*-*--&--$..$$$$$",
"$$.$..$$$..$$$$$-*$$$$$oo.$$$#$$$@$-$-$$@+$&$-%$-&-%--$%-$$$$$$$",
"$-.$.-$$$$$$$$+$$-$$--$-o$o#$$-@$$$$-$$-$$$$%$$.%-&-&-*$$$$$..$$",
"$$$$$$$%$.$$$&$&-%$$$$$$$+$$$@$..@$-$$-$$$$&$..$$-&-%$$&$$$$$$.$",
"$$$$-$$$$.$-$&&&&$%$$o$$$$$$-$-$$$$$--$o%$.$$.X$$%-$$$%$$$.$$%$$",
".$--$$#$$$$.-%&$&&$$$%$$$%&$%-$--$-&%$@o$$$$-$$$@$$&$$$&$&$$$$$$",
".$$%---&%$%.&$&&&$$$.$.$.&$&$%-$--&$*$%$$$$$$--$$$$$$$$$--$$$$$.",
"$$$--=*--*$*$-&$$&..$.$$&$$&$--$-$*-&-$$$$$$-$$oo$$$O$$-$-$-$$$$",
"$$$$.&$-*-*--&--$.$..$...$%$%&$*=*-&-&%$$.$$$-$o+oo$$$$$$$$$$$$$",
"@+$&$-%$-&-%--$%-$.$..$$$..$$$$$-*$-%$$$$$$$$$$oo.$$$#$$$@$-$-$$",
"$$$$%$$.%-&-&-*$$$.$.-$$$$$$$$+$$-*&$$$$$o$$--$-o$o#$$-@$$$$-$$-",
"$$$&$..$$-&-%$$&$$$$$$$%$.$$$&$&-%$-$-$-$+$$$$$$$+$$$@$..@$-$$-$",
"%$.$$.X$$%-$$$%$$$$$-$$$$.$-$&&&&$&$-$$$$$%$$o$$$$$$-$-$$$$$--$o",
"$$$$-$$$@$$&$$$&$&--$$#$$$$.-%&$&&$&$%--$-$$$%$$$%&$%-$--$-&%$@o",
"$$$$$--$$$$$$$$$--$%---&%$%.&$&&&$&.$-&$$$$$.$.$.&$&$%-$--&$*$%$",
"$$$$-$$oo$$$O$$-$-$--=*--*$*$-&$$&..$$$$$$..$.$$&$$&$--$-$*-&-$$",
"$-$$$-$o+oo$$$$$$$$$.&$-*-*--&--$..$$$$$$$$..$...$%$%&$*=*-&-&%$",
"--$$$$$oo.$$$#$$$@$&$-%$-&-%--$%-$$$$$$$$$.$..$$$..$$$$$-*$-%$$$",
"$&$$--$-o$o#$$-@$$$$%$$.%-&-&-*$$$$$..$$$-.$.-$$$$$$$$+$$-*&$$$$",
"$$$$$$$$$+$$$@$..@$&$..$$-&-%$$&$$$$$$.$$$$$$$$%$.$$$&$&-%$-$-$-",
".$%$$o$$$$$$-$-$$$.$$.X$$%-$$$%$$$.$$%$$$$$$-$$$$.$-$&&&&$&$-$$$",
"..$$$%$$$%&$%-$--$$$-$$$@$$&$$$&$&$$$$$$.$--$$#$$$$.-%&$&&$&$%--",
"@.$$.$.$.&$&$%-$--$$$--$$$$$$$$$--$$$$$..$$%---&%$%.&$&&&$&.$-&$",
"....$.$$&$$&$--$-$$$-$$oo$$$O$$-$-$-$$$$$$$--=*--*$*$-&$$&..$$$$",
". $..$...$%$%&$*=*$$$-$o+oo$$$$$$$$$$$$$$$$$.&$-*-*--&--$..$$$$$",
"...$..$$$..$$$$$-*$$$$$oo.$$$#$$$@$-$-$$@+$&$-%$-&-%--$%-$$$$$$$",
".o.$.-$$$$$$$$+$$-$$--$-o$o#$$-@$$$$-$$-$$$$%$$.%-&-&-*$$$$$..$$",
".+$$$$$%$.$$$&$&-%$$$$$$$+$$$@$..@$-$$-$$$$&$..$$-&-%$$&$$$$$$.$",
"..$$-$$$$.$-$&&&&$%$$o$$$$$$-$-$$$$$--$o%$.$$.X$$%-$$$%$$$.$$%$$",
".$--$$#$$$$.-%&$&&$$$%$$$%&$%-$--$-&%$@o$$$$-$$$@$$&$$$&$&$$$$$$",
"..$%---&%$%.&$&&&$$$.$.$.&$&$%-$--&$*$%$$$$$$--$$$$$$$$$--$$$$$.",
"..$--=*--*$*$-&$$&..$.$$&$$&$--$-$*-&-$$$$$$-$$oo$$$O$$-$-$-$$$$",
"..$$.&$-*-*--&--$.$..$...$%$%&$*=*-&-&%$$.$$$-$o+oo$$$$$$$$$$$$$",
"..$&$-%$-&-%--$%-$.$..$$$..$$$$$-*$-%$$$$$$$$$$oo.$$$#$$$@$-$-$$",
".$$$%$$.%-&-&-*$$$.$.-$$$$$$$$+$$-*&$$$$$o$$--$-o$o#$$-@$$$$-$$-",
"..$&$..$$-&-%$$&$$$$$$$%$.$$$&$&-%$-$-$-$+$$$$$$$+$$$@$..@$-$$-$",
"...$$.X$$%-$$$%$$$$$-$$$$.$-$&&&&$&$-$$$$$%$$o$$$$$$-$-$$$$$--$o",
" .$$-$$$@$$&$$$&$&--$$#$$$$.-%&$&&$&$%--$-$$$%$$$%&$%-$--$-&%$@o",
" .$$$--$$$$$$$$$--$%---&%$%.&$&&&$&.$-&$$$$$.$.$.&$&$%-$--&$*$%$",
"..$$-$$oo$$$O$$-$-$--=*--*$*$-&$$&..$$$$$$..$.$$&$$&$--$-$*-&-$$",
"..$$$-$o+oo$$$$$$$$$.&$-*-*--&--$..$$$$$$$$..$...$%$%&$*=*-&-&%$",
"@.$$$$$oo.$$$#$$$@$&$-%$-&-%--$%-$$$$$$$$$.$..$$$..$$$$$-*$-%$$$",
"..$$--$-o$o#$$-@$$$$%$$.%-&-&-*$$$$$..$$$-.$.-$$$$$$$$+$$-*&$$$$",
".$$$$$$$$+$$$@$..@$&$..$$-&-%$$&$$$$$$.$$$$$$$$%$.$$$&$&-%$-$-$-",
"$$%$$o$$$$$$-$-$$$.$$.X$$%-$$$%$$$.$$%$$$$$$-$$$$.$-$&&&&$&$-$$$",
"$&$$$%$$$%&$%-$--$$$-$$$@$$&$$$&$&$$$$$$.$--$$#$$$$.-%&$&&$&$%--",
"--$$.$.$.&$&$%-$--$$$--$$$$$$$$$--$$$$$..$$%---&%$%.&$&&&$&.$-&$",
"$-..$.$$&$$&$--$-$$$-$$oo$$$O$$-$-$-$$$$$$$--=*--*$*$-&$$&..$$$$",
"$$$..$...$%$%&$*=*$$$-$o+oo$$$$$$$$$$$$$$$$$.&$-*-*--&--$..$$$$$",
"$$.$..$$$..$$$$$-*$$$$$oo.$$$#$$$@$-$-$$@+$&$-%$-&-%--$%-$$$$$$$",
"$-.$.-$$$$$$$$+$$-$$--$-o$o#$$-@$$$$-$$-$$$$%$$.%-&-&-*$$$$$..$$",
"$$$$$$$%$.$$$&$&-%$$$$$$$+$$$@$..@$-$$-$$$$&$..$$-&-%$$&$$$$$$.$",
"$$$$-$$$$.$-$&&&&$%$$o$$$$$$-$-$$$$$--$o%$.$$.X$$%-$$$%$$$.$$%$$",
".$--$$#$$$$.-%&$&&$$$%$$$%&$%-$--$-&%$@o$$$$-$$$@$$&$$$&$&$$$$$$",
".$$%---&%$%.&$&&&$$$.$.$.&$&$%-$--&$*$%$$$$$$--$$$$$$$$$--$$$$$.",
"$$$--=*--*$*$-&$$&..$.$$&$$&$--$-$*-&-$$$$$$-$$oo$$$O$$-$-$-$$$$",
"$$$$.&$-*-*--&--$.$..$...$%$%&$*=*-&-&%$$.$$$-$o+oo$$$$$$$$$$$$$",
"@+$&$-%$-&-%--$%-$.$..$$$..$$$$$-*$-%$$$$$$$$$$oo.$$$#$$$@$-$-$$",
"$$$$%$$.%-&-&-*$$$.$.-$$$$$$$$+$$-*&$$$$$o$$--$-o$o#$$-@$$$$-$$-",
"$$$&$..$$-&-%$$&$$$$$$$%$.$$$&$&-%$-$-$-$+$$$$$$$+$$$@$..@$-$$-$"
};
