/* XPM */
static char *result[] = {
/* columns rows colors chars-per-pixel */
"64 64 249 2 ",
"   c #3B2B1C",
".  c #35281C",
"X  c #332416",
"o  c #1C242B",
"O  c #1A2128",
"+  c #2C2925",
"@  c #252728",
"#  c #362C24",
"$  c #3C322C",
"%  c #552E0B",
"&  c #5C320D",
"*  c #55300F",
"=  c #4C2E13",
"-  c #442C17",
";  c #4E3015",
":  c #4C321D",
">  c #46301F",
",  c #533113",
"<  c #5A3518",
"1  c #4B2B0F",
"2  c #6D3404",
"3  c #63340B",
"4  c #6B360A",
"5  c #663308",
"6  c #743501",
"7  c #793701",
"8  c #763905",
"9  c #7A3A03",
"0  c #753A0A",
"q  c #7B3D0B",
"w  c #6C3B14",
"e  c #653A18",
"r  c #753D13",
"t  c #6B2D00",
"y  c #483527",
"u  c #563A27",
"i  c #653F25",
"p  c #7E400D",
"a  c #7D4213",
"s  c #74421C",
"d  c #7C451A",
"f  c #79441B",
"g  c #6E401D",
"h  c #5E422D",
"j  c #56422E",
"k  c #6B4224",
"l  c #69442B",
"z  c #734423",
"x  c #7C4A25",
"c  c #784929",
"v  c #674833",
"b  c #744C33",
"n  c #794931",
"m  c #7A5338",
"M  c #7C502C",
"N  c #6F5A4A",
"B  c #823D04",
"V  c #82410C",
"C  c #884308",
"Z  c #834514",
"A  c #8B4915",
"S  c #814619",
"D  c #84491C",
"F  c #8A4C1B",
"G  c #884714",
"H  c #934E17",
"J  c #97521A",
"K  c #AD5E1E",
"L  c #844C24",
"P  c #8A4E23",
"I  c #844E28",
"U  c #8C5125",
"Y  c #8C522A",
"T  c #85512B",
"R  c #935424",
"E  c #9C5925",
"W  c #92552B",
"Q  c #95592C",
"!  c #9C5B2B",
"~  c #995623",
"^  c #8E5933",
"/  c #885636",
"(  c #945B33",
")  c #9C5E34",
"_  c #965A38",
"`  c #914D27",
"'  c #A35C25",
"]  c #A25E2A",
"[  c #A45D39",
"{  c #9D6135",
"}  c #9B633B",
"|  c #9E602F",
" . c #A9622A",
".. c #BB6B2C",
"X. c #B76829",
"o. c #A46334",
"O. c #A96535",
"+. c #A5653A",
"@. c #AB653C",
"#. c #A56A3E",
"$. c #AC6A3C",
"%. c #A86A30",
"&. c #B36D3C",
"*. c #B96D33",
"=. c #AD743C",
"-. c #BB713B",
";. c #B97337",
":. c #B2782C",
">. c #916E1E",
",. c #C2753C",
"<. c #C67639",
"1. c #C16E30",
"2. c #906749",
"3. c #A56B43",
"4. c #AC6D42",
"5. c #A86946",
"6. c #B26E42",
"7. c #BC6E41",
"8. c #B06647",
"9. c #AD7346",
"0. c #B47244",
"q. c #BB7445",
"w. c #BC7649",
"e. c #BD7A4C",
"r. c #B4784A",
"t. c #AA7754",
"y. c #B87C55",
"u. c #8E7161",
"i. c #C37945",
"p. c #C47C4C",
"a. c #C97D4B",
"s. c #C57944",
"d. c #C47D53",
"f. c #B8863C",
"g. c #CC843F",
"h. c #B98357",
"j. c #B48C51",
"k. c #BB8665",
"l. c #BD936D",
"z. c #CB834D",
"x. c #C88549",
"c. c #C48153",
"v. c #CB8353",
"b. c #C3845B",
"n. c #CB8559",
"m. c #CC8A5D",
"M. c #C78B58",
"N. c #D28653",
"B. c #D38C5C",
"V. c #D58A56",
"C. c #CB9253",
"Z. c #CC935C",
"A. c #C9975E",
"S. c #D3925C",
"D. c #D79B5D",
"F. c #D0894D",
"G. c #DBA15C",
"H. c #CD8C64",
"J. c #C68B67",
"K. c #D18D65",
"L. c #CE9364",
"P. c #CD946C",
"I. c #CA9B6B",
"U. c #C69769",
"Y. c #D29464",
"T. c #D39A64",
"R. c #DA9C65",
"E. c #D2936B",
"W. c #D49B6C",
"Q. c #DB9C6B",
"!. c #DA9564",
"~. c #CB9372",
"^. c #CB9B74",
"/. c #CC9C7C",
"(. c #C49875",
"). c #D49672",
"_. c #D59A74",
"`. c #DA9C74",
"'. c #D69D7C",
"]. c #D99D7B",
"[. c #D69779",
"{. c #C38D71",
"}. c #E19E67",
"|. c #D5A16C",
" X c #DCA36C",
".X c #DBA668",
"XX c #CCA275",
"oX c #D5A274",
"OX c #DCA474",
"+X c #DEAB74",
"@X c #D5A27B",
"#X c #DBA37C",
"$X c #DAAB7B",
"%X c #CFA06A",
"&X c #E4A36B",
"*X c #E2AC6C",
"=X c #EBA96B",
"-X c #EBB76C",
";X c #F3B86E",
":X c #E4A672",
">X c #E3AB74",
",X c #E3AC7B",
"<X c #EBAD7B",
"1X c #E9A974",
"2X c #E6B47C",
"3X c #EBB37D",
"4X c #E8B777",
"5X c #F3B679",
"6X c #F0AF71",
"7X c #F8C27A",
"8X c #D69E81",
"9X c #D99F82",
"0X c #CF9E81",
"qX c #CEA882",
"wX c #D6A281",
"eX c #DAA383",
"rX c #DEA984",
"tX c #DEA989",
"yX c #DBB88D",
"uX c #E2AC85",
"iX c #E3AD89",
"pX c #E2A881",
"aX c #E6B185",
"sX c #EAB584",
"dX c #ECBA84",
"fX c #E5B28A",
"gX c #EAB68B",
"hX c #EDBA8D",
"jX c #E4B887",
"kX c #F2BB84",
"lX c #F2BD8A",
"zX c #F0B781",
"xX c #E8B993",
"cX c #F1BD91",
"vX c #EBBEA0",
"bX c #F3C28D",
"nX c #F4C587",
"mX c #EAC39B",
"MX c #FCCC94",
"NX c #F6C795",
"BX c #FFD39A",
"VX c #FFD096",
"CX c #EFC286",
"ZX c #EAC5A7",
"AX c #FBD6A7",
"SX c #F4D7B5",
"DX c #EFCDB0",
"FX c #FFE4AE",
"GX c None",
/* pixels */
"GXGXGXGXGXGXGXGXGXGXGXGXGXGXGXGXGXGXGXGXGXGXGXGXGXGXGXGXGXGXGXGXGX@.@.P.@.~.).C.].8.GXGXGXGXGXGXGXGXGXGXGXGXGXGXGXGXGXGXGXGXGXGX",
"GXGXGXGXGXGXGXGXGXGXGXGXGXGX{.8.qXmXd.b.q.NX!.=.GXGXGXGXGXGX7.,X7.e.{.8./.xXd.J.yXj.!.=.e.GXGXGXGXGXGXGXGXGXGXGXGXGXGXGXGXGXGXGX",
"GXGXGXGXGXGXGXGXGXGXGXGXd.E.[.'.'.Q..Xa.Y.j.>.U.bX7.=.GXGX7.xXe.q.*.i.a.v.S..Xa.T.j.>.I.NXbX4.GXGXGXGXGXGXGXGXGXGXGXGXGXGXGXGXGX",
"GXGXGXGXGXGXGXGXGXGXGXn.L.|.L.,X-X1X*XD..XM.j.{.W.sX-X7.-.T.<XW.n.[.[._.'.P.B.B.V.x.j.U.P.<X-X:.GXGXC.0.Q +.GXGXGXGXGXGXGXGXGXGX",
"GXGXGXGXGXGXGXGXGXGX).'.P.9X'.XXdX6XR.@XeX).).T.$XY..X>X*XlX.XuXeX_.E.wXiXW.H.Q.wX].).9XoXXXlXK.C.C.C.6.@.XX+.GXGXGXGXGXGXGXGXGX",
"GXGXGXGXGXGXGXGXp.d.Z.E._.iXH.M. XQ.aXiXiXXXM._.y.J.,X>X+X XE.9X[.'.Y.).eX'.eXtXW.P.[.uXH.m.>X,X2X}.&X+X`.a.'.P.GXGXGXGXGXGXGXGX",
"GXGXGXGXGXGXv.i.z.J.XX_.W.+XC.n.n.H.W.+XsXiX#XeX_./.(.#X_.eXE._.E.9XoX[.L.fXjX#X(.W.E.W.Z.T.).>X;X<X&XT.@XE.a.d.).#.GXGXGXGXGXGX",
"GXGXGXGXGXGXd.v.*.B.>X*XR.B.OXm.E.d.H.pX_.eXeXrXcXQ.H.wXE.[.uXlXfXrX9X).W.eX4XnX&X+X@X)._.].I.@XdX&X|.eXtXM.H.L.$XxX-.GXGXGXGXGX",
"GXGXGXGXGXxX[ ,.~.d.#X@XOX).T.,X5X=X4X,XsXOXH.eXeX).).wX[.uXM.f.v.tXXXeX8X'.iX,XrXeXoXL.eX#Xn.B.|.W.hXuXuXI.@XrX#XE.0.GXGXGXGXGX",
"GXGXGXGXy.qXd.~./.~.rX(.^.T.+XT..X:X*XkX.XrX9X).E.eXeXpXuXxXR.,.M.l.XX8X(./.fXiXiXXX^._.W.Q.C.n.n.H._.*XaXfXdXsXXXJ.jXGXGXGXGXGX",
"GXGXGXFXoXc. X_.J.W.OX`.[.P.b.J.,X*X+X|.Y.8X_.'.L.).eXoX#X).eXXXI.eXqX).J./.gXsX4X5X>X-XD.}.`.L.H.a._.#X'.wX#XCXnX=Xb.GXGXGXGXGX",
"GXGXGX/.h.Q.7X1X.XY.h.W.[.rX_.0X(.#X_.eXL.`.E.9XoX[.E.oX'.C.'.`.L.oX2XgXgXpXT.$XM.|.kX6X-XCX<XdX).L.9XwXeX9X].Y..X3X=Xa.GXGXGXGX",
"GXGXGXy.M.^.3X&XOXiXeXwXwXuXcXW.H.eX~.[.rXlXaXrXwX).E.[.Y.L.[.m.W.H.4XjXbX&X}.`.T.OXZ.>X X.X3XQ.rXeXE.E.9XiX].T.OXj.=.z.GXGXGXGX",
"GXGX/.).M.m.T.W.fX$XuX'._.eXfXi.:.c.[.^.rXwXwXpXeX9X/.L.n.H.H.H.T.T.W.<X-X6X+XT.).y./.+X,X+XW.E.'.).'.L.'.9XE._.w.h.c.s.GXGXGXGX",
"GXGXi.H.S.n.m.H.E.*XpX_.E.uXxXW.,.M.(.XX/.(./.gXuXuX(.Z.K.Q.eX'.L.9XXX^.gX6XOX'.aX@X0X(.OX[.wXW.`._.@X#XW.E.eX#X+.5XV.p.GXGXGXGX",
"GXg.N.1X`.OXH.a._.eX'.'.A.eX).tXXXI.tX0XE.J.8XgXfX+X_.9XeXrX|.P.[.tXH.m. X.XrX].aXhXv.L.'.K.9XiXbXiXeX9XE.[.eX^.@.3X4.p.GXGXGXGX",
"GX,.-X7XsX4X#X).'.9XwXeXOX'.C.'.`.L.|.4XhXgXrXT.$Xr.T.fXsX@X(._._.:XC.n.n.).'.9XeXrX*.:.J.XX/.eX/.eXrXrX[.l.9.@.o.E 0 { V.GXGXGX",
"GXi.0.Z.3X!.eXeX).H.'.uX).L.P.).n.W.H.4XjXbX&X&X X|.8X#X7XnX-X*XR.V.OXm.L._.uXeXfXfXY.x.J.XX@X~.{.eXdXuXfXl.9.nXc.9 6 Q E.GXGXGX",
"GX,.|.h.J.W.[.P.@XT.9X'.eX`.H.H.H.Y.T.`.,X;X6X>XW.oX[.[.@XS.dX5X6X7X,XuXE.'.@X|.#XL.tXXX_.eXwXW.{.eXfXgXY.P.( .Xh.9 9 L 0.GXGXGX",
"GXx.NXW.r.#X,X@X9XeXH.L.sX2XOXeX'.L.wX^.XXzX=X|.@XeXP.P.U.+XT..X X+X,X@X#XE.E.eX_.Z.eXA.L..XsXlXhXOXG.^.%.r.^ Y F 4 7 L 4.GXGXGX",
"GX=X#Xh.h.J.lXiXrXwX[.@XeX3X4X+XE._.iXB.m. X|.aXaXiX%XZ.E.h.J.2X,XdXuX#XwX).[.K.H.E.K.H.W.Y.3XjXdX&X=XW.3.MXr.Z P > 9 S U GXGXGX",
"GXlX5.5.SXZ.t.eXuXuX8Xl._.K..XoX_.).OXC.n.v.K.W.+XaXiX#XuX'./.(.#X/.eXuXeX0X(.Y.n.Y.H.E.A.W._.2X;X&Xh.3.#.U F w d - S S F GXGXGX",
"GX`.[ ~.AXBXh.^.xXpXfX@X'.A.W.T.*XR.S.OXn.K.v.J.pX_.eX9XrXjXXXXX~.~.eXjXrXfXU.Y.E.#X@X[.).9XI.oX3X4.$.1X$Xa p : d 1 D S p GXGXGX",
"GXv.n.E.n.zX+Xt.dXfXx.|.E.#Xy.'.5X6XkX,XjXOXn.].eXwX'.9X@X#XeXwXW.{.eXjXgXS._.eXiXwX|.K.rX$Xn.Y.9.W.3X2XW 3 6 9 p 5 S S ! GXGXGX",
"GXv.m.n.a.6.) ) 9.I.M.wX9XfXjX@XD.T..X3X.X$XeX[.E.'.W.eXS.L..XdXhXhX`.G.^.j.`.sXjXXXXX_.L. XS.B.! +XbXW 9 . q < 5 4 Z 6 F GXGXGX",
"GX#.b.z.#.` /.bXT.3.~._.'.aXfXz.L.H.W.v._.].[.9XY.E.).).H.P.L.4XgXdX&X*X X#XeXOX4X-X*X4XG.Y.5.O.0.a } q *   , G g 0 D W F GXGXGX",
"GX$.p.d.L k.`.!.{ t.jX!.'.'.[.=.h.5.b.E.eXeXeX9XE.e.9.0.E.T.|.`.<X;X3X*XT.#Xb.y.h.h.=.R.7X9.q.c.p.8 4 5 ; = > q.q.D D c.x.P GXGX",
"GXr.$.0.^ H.v.@.3.ZX3XbX_.h.y.U.BX1X9./.[.K.eXfXe.r.e.0.y.#.3.U.$X,X4.} tX~.9.m.AXAX1X4.r.! c.] d . e 3 +   m z.v.{ T x.C.F GXGX",
"GXx.#.+.J.B.e.L r.h.6.gXdXbXVXCXDXQ.bX9.y.Z.k.h.P.MXMXNXe.v.R.3.r.E. Xe.t.6.BXjXm.DXQ.MX) ) N.U 6 5 & ; +   _ N.v.$.x { F.F GXGX",
"GXF.W { B.n.+.) a.@._ eXMXVXMXM.M.xXBXkXZ.#.W 0.NXMXNXNXT.h.AXlXq.Q.MXQ.jXD.iX#X$.b.xXBXkX{ P e & B - & @ @ M 6.e.D Y / B., GXGX",
"GXx.+.0.i.M.Y @.V.w.8.).ZXZX,X$.@.n.mXBXBXbXv.<XMXhX`.H.d.4.DXNXW.l.ZXH.#X}.$.Q Y $.n.ZX+XF 6 6 - q k &   @ x L S 7 Q z y.; GXGX",
"GX,.F.Q 3.rXi Y 6.v.eXy.D b.eXJ.0.c.v.jXgXlX&.l.DX].-.s.) $.uXP.@.} y.X.*.q.Q W W 0.z.v.y.0 7 9 * } R.b - . x Y 9 6 G r { ; GXGX",
"GXi.a.$.( t.u ` W q.].t.q E.eXc...;.z.ZXDXwXF F M.-.,.E x Y i.$.d q a ' ,.Y 9 2Xm.X.-.p.P Y 7 7 q 9.bXv.a a p G e 2 Z p c =.& GX",
"GX,.z.+.[ 5.u Q Y [ `.i.6 y.`.q.] K -.i.c.{ s f 1.S.e.p S ( p.e.L C S o.,.W 2 F r.] K ,.y.:XQ & q I +.V.-.~ oXY 2 8 D 9 f ^ ; GX",
"GXz.v.$.L } $ [ W +.).*.S J y.m.bXz.<...-.Y c ; q.M.D a Y $.V.W.V 9 q q.a.W 6 ~ 3XbXx.,.nXQ.6.e 5 P u T z r `.R.G 8 ^ p 6 L ; GX",
"GX&Xn.6.+.T @ / ) [ H.X.` t H b.VX.Xq.q.*.Y G - _ N.R q f H !.T.q A Z { v.P 6 p.lXBXR.i.R.w.P $.e d u u O % o.S.@.P $.x 0 w ; GX",
"GXH.c.e.) W n y ..' 1. .W 8 e q R.] = I e.R V L.n.p.Y U e s c.Q 9 8 o.`.W.S R ) U .XQ : aX] % k 4 9 8 > @ 2 L w.e.Y Z ) a d M GX",
"GXyXS.$.L ( 8.y L <.kXU.y.zX2.< @.! - z G L e.hXY.n.L Y p X &.0.a Z ).lX3X6.@.e.A $.' - j 6 + 1 + D 7 = o , P ) 6.D 9  .Y 6 w GX",
"GXOXv.a.F ) 8.^ 0 !.hXy.d.fX/.l G q.y 0 S a Y.NX'.c.Y Y p O > { 8 $.iXMXBX:X+.$.Y A -.> + . @ w # r S V ; ; P L q Z 9 X.` r 4 GX",
"GXa.c.p.q 6 ` F R k.r.+.[ m.].h B p.R 0 ( p jXVXNXb.L I u } v 3 6 l.ZXuXL.M.r.S p V c.R X   + k 3 Z q q e . a P , z B ..J I z GX",
"GXd.v.w.R C C ] [.u./ Y 8.0.c.( M N.~ R 0.J U.SXmXo.Y k m V.^ - 9 ] T.$.L ,.6.9 t x V.E s # y F 7 S U.r.w % r U = z V ..) c x GX",
"GXa.c.) Q ] ..`.`.v ( E 5.a.0.! E <.~ O.a.E F z.;.O.T a  .V.( % 7 @.1.E 0.v.F 7 - ! <.E F u   F : ^ OXB.R & > F : b G *.! s x GX",
"GXw.v.[ @.[ ..H.y + *.' ( w.s.U X.<.! O.X.X.Z &.i.w.I 6 o.B.[ q 8 &.M.p.q.i.q 5 k X.<.R x S + < 4 w a Q V   # H u z Z *.H 4 x GX",
"GXw.v.8.4.<.b + O 5.<. .Q q.X.Y X.a.u 0 -.1.B Q w.q.) i N K.W 7 4 f N.N.n.o.6 ; Y X.a.h c g g % 7 e F q 5 o - F w < Z a.H e x GX",
"GXw.a.b.lX!.n u u 7.d.1.' q.) o.,./ v a.n.*.q Q v.w.Q l < Q d G r.i k 0.#.9 2 y ..<./ v J z a R F 5 < F 2 @ . d V - V M.L r n GX",
"GXp.n.<XNXb.Y [ ) p.v.6.! 4.+.7.F.u b N.O.8 9 Q a.z.) I y x a o.:XOX/ : 8 8 0 L ,.N.y m p.M.oXo.& 6 > a B = @ z V * f *.Z L z GX",
"GXw.lXxXpXe.L [ d.E._.y.@.w._ O.} u c.[ q 8 3 o.n.z.( U l 2 p ,X<X`.<XQ 6 Q 6.] z.} u z.B.MXh.% = G w : J y o 3 U Q b ' x u # GX",
"GX0.lXOXa.W 0 0 _ eX`.[ Q N.c / m c v.} 9 7 e $.,.n.,.U U 5 3.BXbX'.0.Z 8 d.n.) V.m x N.v.] % @ & G p 2 A y @ # Y f @ ( i @ u GX",
"GXn.=.B.@.d 7 i + y.].w.@.^ 2.qXm M N.5.q 6 f v.;.n.-.U L 6 oXVXgX).Z a D 3.G { pXm M N.V.A 6 , 5 V p 7 p & , . Z 4 @ | ..T GXGX",
"GX`.q H Y 8 B _ u y 5.V.) u.MXhX^ M v.P I q C c.*.<.$.Y a q 2XNXeX#.9 S 4 S 8 Q.lX^ I n.( 9 6 7 2 q a 7 Z & ; & ; 5 $  .GXGXGXGX",
"GXd.0.r 0 H 2.m }.5.i d.h.bXMXXX( L v.D d 8 U n.p...X.Q q A Q.].iX! 6 , / Q #.fXpX^ L N.c - G h.+X4.Z 7 D p 4 , o : GXGXGXGXGXGX",
"GXe.) Y ! p.u h.MXd._ _ r.hXhXM.' ! z.Y Q D x a.v.a.X.W q q d.)._.o.t w <X,XlX'.B.' ! i.s 3 ; X.L.e.H . s A & o o y GXGXGXGXGXGX",
"GXGX) I v.8.n SXBX<X[ _ 9.xXh.O.] ! ..~ 1.J f @.v.c.<.~ a 6 $.M.p.D X M.BXNXeXE.a.] ] X.g p 1 & 8 , ;   - S 8 . o $ GXGXGXGXGXGX",
"GXGXL ) 0.F }.xXSXd.b v @.rXy.F $.o.-.E X.K L I &.N.q.R Q 9 D ) +.S w 3XnXzXNX{ 6.O.+.-.g U ; . V & o , + u C 1 o c GXGXGXGXGXGX",
"GXGXY 0.J ! xXaXm.! / v +.!.$.w o.&.,.Y K ;.+.I L 6.Q Y !.l < Y ] 8 E MXY.Z.1Xq o.o.4.,.Z U & . G q > ; . v J e c GXGXGXGXGXGXGX",
"GXGXL +.D J.H.Q.+.( + l 6.6. .h $.&.Q.( O.K.y.a Q #.r 0.BXI q X. .a H 3Xo.T.r.6 w.@.&.R.F L ; , k G p , O / GXGXGXGXGXGXGXGXGXGX",
"GXGXGX_ 5.:X+.i.o.u u v 5.I E i ' H h.3.&.z.} 3 ( p.Y #.VX*.L z.{ Y F n.3.:X! q *.' F h.( a     * U Z 1 o } GXGXGXGXGXGXGXGXGXGX",
"GXGXGXGX5.c.q.n./ u d.i 3.Q #.5.J L -.#.<.O.S - k.v.o.3XMXm * X.! W J n.B e.] 0 *.J F w.Y L & @ + ^ A a / GXGXGXGXGXGXGXGXGXGXGX",
"GXGXGXGXGXa.w.N.} 5.} b w.( ~.n.D T c.@.w.z - h.>Xc.0.1Xz.< l X.-.Q.W &.A c.R Z a.L T N.9 p 2 + @ *.GXGXGXGXGXGXGXGXGXGXGXGXGXGX",
"GXGXGXGXGXGX+.d.P 6.) [ w.) E.a.x M N.c ^ y N BX#XH.4.a.) 2 0 R C.:X) w.B a.J Q N.c T v.A d V X $ ;.GXGXGXGXGXGXGXGXGXGXGXGXGXGX",
"GXGXGXGXGXGXGXO.q 6.) ^ q.) #.a.J R c.$ O X 3XBXlXi.! a.#.6 7 L e.d.+.p.7 i.n ^ N.H R a.V S 9 y =.GXGXGXGXGXGXGXGXGXGXGXGXGXGXGX",
"GXGXGXGXGXGXGXGXGXZ { +.p.+.w.0.J F N.l O 1 .XAX XV a d.#.L.V L p.+.p.e.7 i.v / F.H H v.Y 8 6 R GXGXGXGXGXGXGXGXGXGXGXGXGXGXGXGX",
"GXGXGXGXGXGXGXGXGXGXGXGX$.@.c.a.' 8 q.b O y i.R.O.q I p.4.} #.D w.4.a.i.6 i.m ^ N.' q 0.q 7 GXGXGXGXGXGXGXGXGXGXGXGXGXGXGXGXGXGX",
"GXGXGXGXGXGXGXGXGXGXGXGXGXGXGXGXGXGXJ s 1 y a.q.S r I p.w.d A x ! @.c.w.8 p.M Y z.GXGXGXGXGXGXGXGXGXGXGXGXGXGXGXGXGXGXGXGXGXGXGX"
};
