/* XPM */
static char *result[] = {
/* columns rows colors chars-per-pixel */
"64 64 20 1 ",
"  c black",
". c #2E323D",
"X c #775100",
"o c #393E5E",
"O c #652A4C",
"+ c #4B3C72",
"@ c #474648",
"# c #704046",
"$ c #910833",
"% c #BA2E28",
"& c #FF6533",
"* c #E23149",
"= c #D37C4E",
"- c #D8AE3E",
"; c #4C6EAD",
": c #556BCC",
"> c #839BA8",
", c #F4C9A1",
"< c #F0F2F2",
"1 c None",
/* pixels */
"1111111111111111111111111111111111111111111111111111111111111111",
"1111111111111111111111111111111111111111111111111111111111111111",
"1111111111111111111111111111111111111111111111111111111111111111",
"1111111111111111111111111111111111111111111111111111111111111111",
"1111111111111111111111111111111111111111111111111111111111111111",
"1111111111111111111111111111111111111111111111111111111111111111",
"1111111111111111111111111111111111111111111111111111111111111111",
"1111111111111111111111111111111111111111111111111111111111111111",
"1111111111111111111111111111111111111111111111111111111111111111",
"1111111111111111111111111111111111111111111111111111111111111111",
"1111111111111111111111111111111111111111111111111111111111111111",
"1111111111111111111111111111111111111111111111111111111111111111",
"1111111111111111111111111111111111111111111111111111111111111111",
"1111111111111111111111111111111111111111111111111111111111111111",
"1111111111111111111111111111111111111111111111111111111111111111",
"1111111111111111111111111111111111111111111111111111111111111111",
"1111111111111111111111111111111111111111111111111111111111111111",
"1111111111111111111111111111111111111111111111111111111111111111",
"1111111111111111111111111111111111111111111111111111111111111111",
"111111111111111111111111111 1111111 1111111111111111111111111111",
"1111111111111111111111111111 1111111 111111111111111111111111111",
"11111111111111111111111111 11 1111111 1111       111111111111111",
"11111111111111111111111111  11 111111. 1  ......   1111111111111",
"11111111111111111111111111   1  1   1 . ......  1111111111111111",
"11111111111111111111111111      1      ...     11111111111111111",
"11111111111111111111111111       1    ..      111111111111111111",
"11111111111111111111111.111       1.. .        11111111111111111",
"111111111111111111111111.11.      ...   .....   1111111111111111",
"111111111111111111111&111. ..    ....  ........  111111111111111",
"1111111111111111111111&111. .   ..   . .........  11111111111111",
"1111111111111111111,11o&111. .  ..    .      ....  1111111111111",
"1111111111111111,111,=1o&&%%  . ==    ....      .. 1111111111111",
"11111111111111111,=11,=1o%&%%   ==    .   . 1    .. 111111111111",
"111111111111111111,=11,=;o%&%   ==  ==.    . 1 1  . 111111111111",
"111111111111111111=,=1,,;;o%&& =,, == =    .  1 11 .111111111111",
"1111111111111111111=,=,,o;;o%&==,,,=> == .  .  1 11 111111111111",
"11111111111111111=11=,==;o;o%&==,,,>< ==. . ..  1111111111111111",
"111111111111111111=1=,,##;oo%&==,,,<<@@= . . ..  111111111111111",
"1111111111111111111==,,#%&%%%&o,=,,,,,=   . ....   1111111111111",
"1111111111111111111++++#%%&%%&;o,=,,,=#=  1.    1111111111111111",
"1111111111111111111:::++#%%&%&o;oo==###1= 11.1111111111111111111",
"11111111111111111,11::++#%%%&&&o;&##++=#1=111.111111111111111111",
"111111111111111111,=1,,,,##%&&&&&O===&==#1=111.11111111111111111",
"1111111111111111111,=,,,=,#:%%%:OOOOOO&=#11111111111111111111111",
"11111111111111111111,,,,,=#:::::%%%%%OO&OO1111111111111111111111",
"111111111111111111111,,,,,#%%%%%:&&&&&&&&&O111111111111111111111",
"1111111111111111111&11####%%%%%&%:&&%&&&&&&111111111111111111111",
"11111111111111111111&%1%&%%&%%%%&%&&&%&11&&111111111111111111111",
"111111111111111;11111&%1%&%&&&&%%&%%%&%&111&11111111111111111111",
"1111111111111111;11%11&%1%&%&&&OO%&%%%&%&111&1111111111111111111",
"11111111111111111;11%1%&%1&&%&&O1%%&%%%&%&1111111111111111111111",
"111111111111111;11;o1%%%&&&&&&&O1&&&&%%%&%1111111111111111111111",
"1111111111111111;11;o%%%%%1&&&&O1oo&&&%%11%111111111111111111111",
"1111111111111111-;oo;o&%%%&1&&&%1Xo$OO&%111%11111111111111111111",
"111111111111111;o-;oo;&%%%&&11111oX$O1O&%11111111111111111111111",
"111111111111111;oo-**%&%%&&&&11ooooXO11O1%1111111111111111111111",
"111111111111111;;*OOOO%&%%%O1111oooo$O11111111111111111111111111",
"111111111111111;;*O111OO&&O111111oooo$O1111111111111111111111111",
"1111111111111111;;*O1111OO11111111111111111111111111111111111111",
"1111111111111111111111111111111111111111111111111111111111111111",
"1111111111111111111111111111111111111111111111111111111111111111",
"1111111111111111111111111111111111111111111111111111111111111111",
"1111111111111111111111111111111111111111111111111111111111111111",
"1111111111111111111111111111111111111111111111111111111111111111"
};
