/* XPM */
static char *result[] = {
/* columns rows colors chars-per-pixel */
"64 64 21 1 ",
"  c black",
". c #2E323D",
"X c #775100",
"o c #393E5E",
"O c #652A4C",
"+ c #4B3C72",
"@ c #474648",
"# c #704046",
"$ c #910833",
"% c #BA2E28",
"& c #FF6533",
"* c #E23149",
"= c #D37C4E",
"- c #D8AE3E",
"; c #4C6EAD",
": c #556BCC",
"> c #839BA8",
", c #F4C9A1",
"< c #FFCBA3",
"1 c #F0F2F2",
"2 c None",
/* pixels */
"2222222222222222222222222222222222222222222222222222222222222222",
"2222222222222222222222222222222222222222222222222222222222222222",
"2222222222222222222222222222222222222222222222222222222222222222",
"2222222222222222222222222222222222222222222222222222222222222222",
"2222222222222222222222222222222222222222222222222222222222222222",
"2222222222222222222222222222222222222222222222222222222222222222",
"2222222222222222222222222222222222222222222222222222222222222222",
"2222222222222222222222222222222222222222222222222222222222222222",
"2222222222222222222222222222222222222222222222222222222222222222",
"2222222222222222222222222222222222222222222222222222222222222222",
"2222222222222222222222222222222222222222222222222222222222222222",
"2222222222222222222222222222222222222222222222222222222222222222",
"2222222222222222222222222222222222222222222222222222222222222222",
"2222222222222222222222222222222222222222222222222222222222222222",
"2222222222222222222222222222222222222222222222222222222222222222",
"2222222222222222222222222222222222222222222222222222222222222222",
"2222222222222222222222222222222222222222222222222222222222222222",
"2222222222222222222222222222222222222222222222222222222222222222",
"222222222222222222222222222222 222222222222222222222222222222222",
"222222222222222222222222222222 222222222222222222222222222222222",
"2222222222222222222222222 2222  22222222222222222222222222222222",
"2222222222222222222222222  222 .222222222       2222222222222222",
"2222222222222222222222222   22 . 2222222  .....   22222222222222",
"22222222222222222222222222 . 2 ..222222 ....   22222222222222222",
"22222222222222222222222222  .  ..2   2 ..     222222222222222222",
"22222222222222222222222 222  .  .     .      2222222222222222222",
"222222222222222222222222 22   . .    .         22222222222222222",
"2222222222222222222222222  2   ..         ......2222222222222222",
"2222222222222222222222222       .  ..       .... 222222222222222",
"22222222222222222222222222        .  .         .. 22222222222222",
"22222222222222222222222222       .   . ..        . 2222222222222",
"222222222222222222222222222    ==    .   .  ....  . 222222222222",
"22222222222222222222222        =#         .     .   222222222222",
"222222222222222222222  o;&%&   ##  ==     . .. 222  222222222222",
"222222222222222222   =,;o;&%& #== =# =    . ..  222 222222222222",
"22222222222222222 ,,#==;;o;&%=#===#> ==  . .  . 2222222222222222",
"22222222222222222 ,,#,,;;o;&&=#===11 == .  .   . 222222222222222",
"222222222222222222 =##  oo&%&=#===11@@=.   .    .222222222222222",
"222222222222222222 =,, %&&%&&o=#,,,,,=    .22    222222222222222",
"2222222222222222222 ,, %%%&&&;o=#,,,= 22  22222  222222222222222",
"2222222222222222222 :: %&&&%&o;oo##   22 2222222 222222222222222",
"2222222222222222222 ::+  &&%%&oo&  ++< 222222222 222222222222222",
"22222222222222222222 <<<< %%%%&& 2 <<=< 222222222222222222222222",
"22222222222222222222 <<#= +++++     ==< 222222222222222222222222",
"22222222222222222222 <<=# ::::&O&&%%     22222222222222222222222",
"222222222222222222222  << %%&%&O&%&&&&&&& 2222222222222222222222",
"22222222222222222222222  &%&&%&O%&&&&&&&& 2222222222222222222222",
"22222222222222222222222 &%&&&%&O&%%%%&&&& 2222222222222222222222",
"22222222222222222222222 %&&&&%OO%%&&&&&&% 2222222222222222222222",
"22222222222222222222222 &&&&&%   O%OOOOO 22222222222222222222222",
"222222222222222222222   &%&&&& 2 OO%OO% 222222222222222222222222",
"22222222222222222222 OO%&%&&&& 2 ooO%%O 222222222222222222222222",
"2222222222222222222  O%O%%&&&% 22 oo   2222222222222222222222222",
"222222222222222222 ;;%OO%%&&% 222 o$ 222222222222222222222222222",
"2222222222222222  ;;O%OOO%%%& 222 X 2222222222222222222222222222",
"222222222222222 o-**O%OOOOO  222 o$ 2222222222222222222222222222",
"22222222222222 ;*    O%OOO 22222 oo$ 222222222222222222222222222",
"22222222222222 ;* 222  %% 222222 ooo$ 22222222222222222222222222",
"222222222222222;;* 2222  222222222222222222222222222222222222222",
"2222222222222222222222222222222222222222222222222222222222222222",
"2222222222222222222222222222222222222222222222222222222222222222",
"2222222222222222222222222222222222222222222222222222222222222222",
"2222222222222222222222222222222222222222222222222222222222222222",
"2222222222222222222222222222222222222222222222222222222222222222"
};
