/* XPM */
static char *result[] = {
/* columns rows colors chars-per-pixel */
"64 64 24 1 ",
"  c black",
". c #2E323D",
"X c #393E5E",
"o c #652A4C",
"O c #4B3C72",
"+ c #474648",
"@ c #704046",
"# c #8F1635",
"$ c #BA2E28",
"% c #FF6533",
"& c #E23149",
"* c #D37C4E",
"= c #D8AE3E",
"- c #BB8D6D",
"; c #4C6EAD",
": c #556BCC",
"> c #839BA8",
", c #929BB7",
"< c #D5BD8E",
"1 c #F4C9A1",
"2 c #FFFEB9",
"3 c #EDEFEF",
"4 c #F0F2F2",
"5 c None",
/* pixels */
"5555555555555555555555555555555555555555555555555555555555555555",
"5555555555555555555555555555555555555555555555555555555555555555",
"5555555555555555555555555555555555555555555555555555555555555555",
"5555555555555555555555555555555555555555555555555555555555555555",
"5555555555555555555555555555555555555555555555555555555555555555",
"5555555555555555555555555555555555555555555555555555555555555555",
"5555555555555555555555555555555555555555555555555555555555555555",
"5555555555555555555555555555555555555555555555555555555555555555",
"55555555555555555555555    5555555555555555555555555555555555555",
"5555555555555555555555 .  55555555555555555555555555555555555555",
"555555555555555555555 .  555555555555555555555555555555555555555",
"55555555555555555555 .   55      5555555555555555555555555555555",
"5555555555 55555555 ..  55 ......   5555555555555555555555555555",
"5555555555 55555555 ..  5 ....    555555555555555555555555555555",
"5555555555  555555 ..    ...     5555555555555555555555555555555",
"5555555555  555555 ..   ...   . 55555555555555555555555555555555",
"555555 555 . 55555 ..  ...   . 555555555555555555555555555555555",
"555555  55 . 55        ..   . 555 555555555555555555555555555555",
"555555 . 5 ..5 .           .  55  555555555555555555555555555555",
"555555  .  .. .           ....  . 555555555555555555555555555555",
"5555555  .  . .              ...  555555555555555555555555555555",
"5555555   . .      ...           5555555555555555555555555555555",
"55555555   ..  .  .   .  ....   55555555555555555555555555555555",
"555555555   . .   .    .     . 555555555555555555555555555555555",
"555555        .   ..    .     . 55555555555555555555555555555555",
"55555555      .   **.   .        5555555555555555555555555555555",
"555555555     *.  ****  *    55555555555555555555555555555555555",
"55555555555   **.    ** *  5555555555555555555555555555555555555",
"555555555555  **@. @> *** 55555555555555555555555555555555555555",
"55555555555    @@**@44 * 555555555555555555555555555555555555555",
"55555555   $%*@******4+1 555555555555555555555555555555555555555",
"5555555 %%%$%@@*@***111  555555555555555555555555555555555555555",
"5555555 ;;;%$%*1*@**11 $ 555555555555555555555555555555555555555",
"555555 11;;X%$;;1*@@@@%$ 555555555555555555555555555555555555555",
"555555 11*;X%%%;;111@1% * 555   55555555555555555555555555555555",
"55555 @@**1X$%%%X;;;;;% **   1@1 5555555555555555555555555555555",
"5555 *1@     %%$%XXXXX3 **::@1@*1 555555555555555555555555555555",
"555 111  **1 %%%$%XXX;, **::*@@11 555555555555555555555555555555",
"555 1::1111* %%%$$%%%% 5    *1** 5555555555555555555555555555555",
"5555 ::11**1   $   $$ 555555  11 5555555555555555555555555555555",
"55555  11** 55  %%$ O    55555  55555555555555555555555555555555",
"5555555 11 55 %%%%%% %%%%  5555555555555555555555555555555555555",
"55555555  555 %%%%%%$ %%%%$   5555555555555555555555555555555555",
"5555555555555 $%%%%%$ %%%%%%%% 555555555555555555555555555555555",
"5555555555555 %$%%%%$o $$%%%%%$ 55555555555555555555555555555555",
"55555555555555 %$$%%$o$ %$%%%%% 55555555555555555555555555555555",
"555555555555555 ooo$$oo$ %$%%%%$ 5555555555555555555555555555555",
"5555555555555555 $ooooo$  oo$%%$o 555555555555555555555555555555",
"5555555555555555 o$$oo$ 55 $o$$$o$ 55555555555555555555555555555",
"55555555555555555   $$& 55 $$oooo$ 55555555555555555555555-55555",
"55555555555555555555 ;& 55 $$$oo$o 5555555555555555<5555<-555555",
"555555555555555555555 ;& 55 oo$$o 5555555555555<55<-55<<-5555555",
"555555555555555555555 == 555  XX# 555555555555<<5<<<<<<--5555555",
"5555555555555555555555 ;& 5555 X# 55555555555<<<<<<2<<--55555555",
"5555555555555555555555 ;;& 555 XX# 555555555<2<<<22<<<<<<<<<--55",
"555555555555555555555555;& 5555 == 55555555<2<<222<<<<<<<<--5555",
"5555555555555555555555555555555 ;&; 555555<222222<22<<<<--555555",
"55555555555555555555555555555555;;& 5555<222222<222<2<<-55555555",
"555555555555555555555555555555555;;& 5<<22<<22<222<2<<----555555",
"5555555555555555555555555555555555555555555555555555555555555555",
"5555555555555555555555555555555555555555555555555555555555555555",
"5555555555555555555555555555555555555555555555555555555555555555",
"5555555555555555555555555555555555555555555555555555555555555555",
"5555555555555555555555555555555555555555555555555555555555555555"
};
