/* XPM */
static char *result[] = {
/* columns rows colors chars-per-pixel */
"64 64 22 1 ",
"  c black",
". c #2E323D",
"X c #775100",
"o c #393E5E",
"O c #652A4C",
"+ c #4B3C72",
"@ c #474648",
"# c #704046",
"$ c #910833",
"% c #BA2E28",
"& c #FF6533",
"* c #E23149",
"= c #D37C4E",
"- c #D8AE3E",
"; c #4C6EAD",
": c #556BCC",
"> c #839BA8",
", c #F4C9A1",
"< c #EDEFEF",
"1 c #F0F2F2",
"2 c #FFFFFE",
"3 c None",
/* pixels */
"3333333333333333333333333333333333333333333333333333333333333333",
"3333333333333333333333333333333333333333333333333333333333333333",
"3333333333333333333333333333333333333333333333333333333333333333",
"3333333333333333333333333333333333333333333333333333333333333333",
"3333333333333333333333333333333333333333333333333333333333333333",
"3333333333333333333333333333333333333333333333333333333333333333",
"3333333333333333333333333333333333333333333333333333333333333333",
"3333333333333333333333333333333333333333333333333333333333333333",
"3333333333333333333333333333333333333333333333333333333333333333",
"3333333333333333333333333333333333333333333333333333333333333333",
"3333333333333333333333333333333333333333333333333333333333333333",
"3333333333333333333333333333333333333333333333333333333333333333",
"3333333333333333333333333333333333333333333333333333333333333333",
"3333333333333333333333333333333333333333333333333333333333333333",
"3333333333333333333333333333333333333333333333333333333333333333",
"3333333333333333333333333333333333333333333333333333333333333333",
"3333333333333333333333333333333333333333.   33333333333333333333",
"33333333333333333333333333333333333333 .  3333333333333333333333",
"3333333333333333333333333333333333333 .  33333333333333333333333",
"333333333333333333333333333333333333 .   33333333333333333333333",
"33333333333333333333333333333333333 ..  33      3333333333333333",
"33333333333333333333333333333333333 .   3 ...... 333333333333333",
"3333333333333333333333333333333333 ..   ....    . 33333333333333",
"3333333333333333333333333333333333 ..   ..    .. . 3333333333333",
"3333333333333333333333333333333333 ..   .    .  3333333333333333",
"33333333333333333333333333333333            .  33333333333333333",
"33333333333333333333333    3333        ..       3333333333333333",
"3333333333333333333333333     3       .  .  .... 333333333333333",
"33333333333333333333333333         .. .   .   . . 33333333333333",
"333333333333333333333333333       .        .   . . 3333333333333",
"3333333333333333333333    ...  .  .  ===   .        333333333333",
"333333333333333333333 ,,=#  ....  .    =,  ,    3333333333333333",
"333333333333333333333 ,,,###       . #> ,, , 3  3333333333333333",
"333333333333333333333 =,,#=,,=   =# .#11  , 333 3333333333333333",
"3333333333333333333333 =::  =,;; ==#===1@=, 33333333333333333333",
"33333333333333333333333 ::,,  ;; ==#====,,,, 3333333333333333333",
"333333333333333333333333 ,,=,, %%###====,,, 33333333333333333333",
"333333333333333333333333 =,,=, %%==##===,, 333333333333333333333",
"333333333333333333333333 ,=,  %&o==###=,, 3333333333333333333333",
"33333333333333333333333 &   %%&%o;##     33333333333333333333333",
"3333333333333333333333 &%%+:%&%oo;;% 333333333333333333333333333",
"333333333333333333333 &%&&&+%&;oo%%  333333333333333333333333333",
"333333333333333333333 %&&&&&+&&&<  ,= 33333333333333333333333333",
"333333333333333333333 %&&&&&%    =#,=, 3333333333333333333333333",
"3333333333333333333333 O&&&&%  3 =##,, 3333333333333333333333333",
"333333333333333333333  O&&&&&&  3 =,  33333333333333333333333333",
"33333333333333333333 %OO%&&&&&  33  3333333333333333333333333333",
"3333333333333333    %OOO&%&&&&O& 3333333333333333333333333333333",
"333333333333333;;-;;%OOO%&%&&&O& 3333333333333333333323333333333",
"33333333333333;;-***%OOOO%%%%O&&& 333333333333333333333333333333",
"33333333333333**    %%OOOO   %&&& 333333333333333333333333333333",
"33333333333333  3333 %%%% %O%&&&& 333333333333333333333333333333",
"333333333333333333333    %OO%&&& 3333333333333333333333333333333",
"333333333333333333    oo%OOO%%% 33333333333333333333333333333333",
"333333333333333333ooXooo%OOOO  333333333333333333333333333333333",
"333333333333333333o$X$   %%% 33333333333333333333333333333333333",
"33333333333333333o$o  333   333333333333333333333333333333333333",
"33333333333333333$o 33333333333333333333333333333333333333333333",
"33333333333333333  333333333333333333333333333333333333333333333",
"3333333333333333333333333333333333333333333333333333333333333333",
"3333333333333333333333333333333333333333333333333333333333333333",
"3333333333333333333333333333333333333333333333333333333333333333",
"3333333333333333333333333333333333333333333333333333333333333333",
"3333333333333333333333333333333333333333333333333333333333333333"
};
