/* XPM */
static char *result[] = {
/* columns rows colors chars-per-pixel */
"64 64 16 1 ",
"  c black",
". c #2E323D",
"X c #393E5E",
"o c #652A4C",
"O c #4B3C72",
"+ c #704046",
"@ c #BA2E28",
"# c #FF6533",
"$ c #E23149",
"% c #D37C4E",
"& c #D8AE3E",
"* c #4C6EAD",
"= c #556BCC",
"- c #F4C9A1",
"; c #EDEFEF",
": c None",
/* pixels */
"::::::::::::::::::::::::::::::::::::::::::::::::::::::::::::::::",
"::::::::::::::::::::::::::::::::::::::::::::::::::::::::::::::::",
"::::::::::::::::::::::::::::::::::::::::::::::::::::::::::::::::",
"::::::::::::::::::::::::::::::::::::::::::::::::::::::::::::::::",
"::::::::::::::::::::::::::::::::::::::::::::::::::::::::::::::::",
"::::::::::::::::::::::::::::::::::::::::::::::::::::::::::::::::",
"::::::::::::::::::::::::::::::::::::::::::::::::::::::::::::::::",
"::::::::::::::::::::::::::::::::::::::::::::::::::::::::::::::::",
"::::::::::::::::::::::::::::::::::::::::::::::::::::::::::::::::",
"::::::::::::::::::::::::::::::::::::::::::::::::::::::::::::::::",
"::::::::::::::::::::::::::::::::::::::::::::::::::::::::::::::::",
"::::::::::::::::::::::::::::::::::::::::::::::::::::::::::::::::",
"::::::::::::::::::::::::::::::::::::::::::::::::::::::::::::::::",
"::::::::::::::::::::::::::::::::::::::::::::::::::::::::::::::::",
"::::::::::::::::::::::::::::::::::::::::::::::::::::::::::::::::",
":::::::::::::::::::::::::::::::: :::::::::::::::::::::::::::::::",
":::::::::::::::::::::::::::::::: :::::::::::::::::::::::::::::::",
"::::::::::::::::::::::::::: ::::  ::::::::::::::::::::::::::::::",
":::::::::::::::::::::::::::  ::: .:::::::::       ::::::::::::::",
":::::::::::::::::::::::::::   :: . :::::::  .....   ::::::::::::",
":::::::::::::::::::::::::::: . : ..:::::: ....   :::::::::::::::",
"::::::::::::::::::::::::::::  .  ..:   : ..     ::::::::::::::::",
"::::::::::::::::::::::::: :::  .  .     .      :::::::::::::::::",
":::::::::::::::::::::::::: ::   . .    .         :::::::::::::::",
":::::::::::::::::::::::::::  :   ..         ......::::::::::::::",
":::::::::::::::::::::::::::       .           .... :::::::::::::",
":::::::::::::::::::::::::: ---                   .. ::::::::::::",
":::::::::::::::::::::::::: ---+          ..        . :::::::::::",
"::::::::::::::::::::::::: %-%%+            .  ....  . ::::::::::",
"::::::::::::::::::::::::: --%%++            .     .   ::::::::::",
":::::::::::::::::::::::: ==O  -%+           . .. :::  ::::::::::",
":::::::::::::::::::::::: ==   --+           . ..  ::: ::::::::::",
"::::::::::::::::::::::: --    --+%    -%   . .  . ::::::::::::::",
":::::::::::::::::::::: -%- @@X*++%   --%% .  .   . :::::::::::::",
"::::::::::::::::::::: %-%%- @*X**X  +-%%-.   .    .:::::::::::::",
"::::::::::::::::::::: -%  - #@*XXX# ++%-    .::    :::::::::::::",
"::::::::::::::::::::: - :   ####### %-- ::  :::::  :::::::::::::",
":::::::::::::::::::::  :: ;.##@####    ::: ::::::: :::::::::::::",
"::::::::::::::::::::::::: @@@@@#### :::::::::::::: :::::::::::::",
"::::::::::::::::::::::::: OOO=@##@# ::::::::::::::::::::::::::::",
":::::::::::::::::::::::: #@@=O=@@# :::::::::::::::::::::::::::::",
"::::::::::::::::::::::: #@###@O   % ::::::::::::::::::::::::::::",
"::::::::::::::::::::::: @####### %XX  ::::::::::::::::::::::::::",
"::::::::::::::::::::::: @#####@@@ XX--  ::::::::::::::::::::::::",
":::::::::::::::::::::: @o#########  -%-- :::::::::::::::::::::::",
":::::::::::::::::::::: @o@########## -%- :::::::::::::::::::::::",
"::::::::::::::::::::: @##ooooooo@### ++ ::::::::::::::::::::::::",
"::::::::::::::::::   ####@ooo@@oo@##@  :::::::::::::::::::::::::",
"::::::::::::::::: @o@###@#oo  o@oo@@@ ::::::::::::::::::::::::::",
":::::::::::::::: @oo@##@#   $$X@ooo@# ::::::::::::::::::::::::::",
":::::::::::::::: @oooooo &$$&XX@ooo# :::::::::::::::::::::::::::",
":::::::::::::::: $@ooooo &**&  o@@@ ::::::::::::::::::::::::::::",
"::::::::::::::: $XX@oo@ &&*  ::    :::::::::::::::::::::::::::::",
":::::::::::::  $&XX@@@@ &* :::::::::::::::::::::::::::::::::::::",
":::::::::::: &&*&  ooo  & ::::::::::::::::::::::::::::::::::::::",
":::::::::::: &&* ::   :  :::::::::::::::::::::::::::::::::::::::",
":::::::::::: &* ::::::::::::::::::::::::::::::::::::::::::::::::",
"::::::::::: && :::::::::::::::::::::::::::::::::::::::::::::::::",
"::::::::::: & ::::::::::::::::::::::::::::::::::::::::::::::::::",
"::::::::::::::::::::::::::::::::::::::::::::::::::::::::::::::::",
"::::::::::::::::::::::::::::::::::::::::::::::::::::::::::::::::",
"::::::::::::::::::::::::::::::::::::::::::::::::::::::::::::::::",
"::::::::::::::::::::::::::::::::::::::::::::::::::::::::::::::::",
"::::::::::::::::::::::::::::::::::::::::::::::::::::::::::::::::"
};
