/* XPM */
static char *result[] = {
/* columns rows colors chars-per-pixel */
"64 64 19 1 ",
"  c black",
". c #2E323D",
"X c #76500E",
"o c #3A3F5D",
"O c #652A4C",
"+ c #4B3E71",
"@ c #6F4148",
"# c #8F1635",
"$ c #BA2E28",
"% c #FF6533",
"& c #E0344E",
"* c #D17C53",
"= c #D7AD49",
"- c #4E6FAB",
"; c #576EC9",
": c #929BB7",
"> c #F3C8A3",
", c #EDEFEF",
"< c None",
/* pixels */
"<<<<<<<<<<<<<<<<<<<<<<<<<<<<<<<<<<<<<<<<<<<<<<<<<<<<<<<<<<<<<<<<",
"<<<<<<<<<<<<<<<<<<<<<<<<<<<<<<<<<<<<<<<<<<<<<<<<<<<<<<<<<<<<<<<<",
"<<<<<<<<<<<<<<<<<<<<<<<<<<<<<<<<<<<<<<<<<<<<<<<<<<<<<<<<<<<<<<<<",
"<<<<<<<<<<<<<<<<<<<<<<<<<<<<<<<<<<<<<<<<<<<<<<<<<<<<<<<<<<<<<<<<",
"<<<<<<<<<<<<<<<<<<<<<<<<<<<<<<<<<<<<<<<<<<<<<<<<<<<<<<<<<<<<<<<<",
"<<<<<<<<<<<<<<<<<<<<<<<<<<<<<<<<<<<<<<<<<<<<<<<<<<<<<<<<<<<<<<<<",
"<<<<<<<<<<<<<<<<<<<<<<<<<<<<<<<<<<<<<<<<<<<<<<<<<<<<<<<<<<<<<<<<",
"<<<<<<<<<<<<<<<<<<<<<<<<<<<<<<<<<<<<<<<<<<<<<<<<<<<<<<<<<<<<<<<<",
"<<<<<<<<<<<<<<<<<<<<<<<<<<<<<<<<<<<<<<<<<<<<<<<<<<<<<<<<<<<<<<<<",
"<<<<<<<<<<<<<<<<<<<<<<<<<<<<<<<<<<<<<<<<<<<<<<<<<<<<<<<<<<<<<<<<",
"<<<<<<<<<<<<<<<<<<<<<<<<<<<<<<<<<<    <<<<<<<<<<<<<<<<<<<<<<<<<<",
"<<<<<<<<<<<<<<<<<<<<<<<<<<<<<<<<< .  <<<<<<<<<<<<<<<<<<<<<<<<<<<",
"<<<<<<<<<<<<<<<<<<<<<<<<<<<<<<<< .  <<<<<<<<<<<<<<<<<<<<<<<<<<<<",
"<<<<<<<<<<<<<<<<<<<<<<<<<<<<<<< .   <<      <<<<<<<<<<<<<<<<<<<<",
"<<<<<<<<<<<<<<<<<<<<< <<<<<<<< ..  << ......   <<<<<<<<<<<<<<<<<",
"<<<<<<<<<<<<<<<<<<<<< <<<<<<<< ..  < ....    <<<<<<<<<<<<<<<<<<<",
"<<<<<<<<<<<<<<<<<<<<<  <<<<<< ..    ...     <<<<<<<<<<<<<<<<<<<<",
"<<<<<<<<<<<<<<<<<<<<<  <<<<<< ..   ...   . <<<<<<<<<<<<<<<<<<<<<",
"<<<<<<<<<<<<<<<<< <<< . <<<<< ..  ...   . <<<<<<<<<<<<<<<<<<<<<<",
"<<<<<<<<<<<<<<<<<  << . <<        ..   . <<< <<<<<<<<<<<<<<<<<<<",
"<<<<<<<<<<<<<<<<< . < ..< .           .  <<  <<<<<<<<<<<<<<<<<<<",
"<<<<<<<<<<<<<<<<<  .  .. .           ....  . <<<<<<<<<<<<<<<<<<<",
"<<<<<<<<<<<<<<<<<<  .  . .      ...     ...  <<<<<<<<<<<<<<<<<<<",
"<<<<<<<<<<<<<<<<<<   . .       ..  .        <<<<<<<<<<<<<<<<<<<<",
"<<<<<<<<<<<<<<<<<<<   ..       ..          <<<<<<<<<<<<<<<<<<<<<",
"<<<<<<<<<<<<<<<<<<<<   .       ..         <<<<<<<<<<<<<<<<<<<<<<",
"<<<<<<<<<<<<<<<<<               ..       <<<<<<<<<<<<<<<<<<<<<<<",
"<<<<<<<<<<<<<<<<<<<              ..         <<<<<<<<<<<<<<<<<<<<",
"<<<<<<<<<<<<<<<<<<<<             > .      <<<<<<<<<<<<<<<<<<<<<<",
"<<<<<<<<<<<<<<<<<<<<<<           > >    <<<<<<<<<<<<<<<<<<<<<<<<",
"<<<<<<<<<<<<<<<<<<<<<<<          **> <<<<<<<<<<<<<<<<<<<<<<<<<<<",
"<<<<<<<<<<<<<<<<<<<<<<<<<        *> <<<<<<<<<<<<<<<<<<<<<<<<<<<<",
"<<<<<<<<<<<<<<<<<<<<<<<<<<<     *> <<<<<<<<<<<<<<<<<<<<<<<<<<<<<",
"<<<<<<<<<<<<<<<<<<<<<<<<    ***** <<<<<<<<<<<<<<<<<<<<<<<<<<<<<<",
"<<<<<<<<<<<<<<<<<<<<<<< o%%----$%  <<<<<<<<<<<<<<<<<<<<<<<<<<<<<",
"<<<<<<<<<<<<<<<<<<<<<<< o%%%%%$%%%$ <<<<<<<<<<<<<<<<<<<<<<<<<<<<",
"<<<<<<<<<<<<<<<<<<<<<< oo%%..%%o--% <<<<<<<<<<<<<<<<<<<<<<<<<<<<",
"<<<<<<<<<<<<<<<<<<<<<< * %.,,:o---% <<<<    <<<<<<<<<<<<<<<<<<<<",
"<<<<<<<<<<<<<<<<<<<<< @* %.::,o-*>$ <<   %%%  <<<<<<<<<<<<<<<<<<",
"<<<<<<<<<<<<<<<<<<<<< *@@ .,:. >>*$ < >*> %%%% <<<<<<<<<<<<<<<<<",
"<<<<<<<<<<<<<<<<<<<<< *** %..$ >>@    *>> %%%% <<<<<<<<<<<<<<<<<",
"<<<<<<<<<<<<<<<<<<<<< ****  $$$ >@**>;;>> %%%% <<<<<<<<<<<<<<<<<",
"<<<<<<<<<<<<<<<<<<<<<<    < ++++ >>>>;;  %$%%$ <<<<<<<<<<<<<<<<<",
"<<<<<<<<<<<<<<<<<<<<<<<<<<<< --- >>*   %%$%$$$% <<<<<<<<<<<<<<<<",
"<<<<<<<<<<<<<<<<<<<<<<<<<<<< $O%%   %%%%$%$OO$% <<<<<<<<<<<<<<<<",
"<<<<<<<<<<<<<<<<<<<<<<<<<<<<< $O%%%%$$$$OOOOO$% <<<<<<<<<<<<<<<<",
"<<<<<<<<<<<<<<<<<<<<<<<<<<<<< $O$%%%$$   $OO$$ <<<<<<<<<<<<<<<<<",
"<<<<<<<<<<<<<<<<<<<<<<<<<<<<<<  O$%%OO$$ $$$$ <<<<<<<<<<<<<<<<<<",
"<<<<<<<<<<<<<<<<<<<<<<<<<<<<<<<<  OO$$$$$ -&- <<<<<<<<<<<<<<<<<<",
"<<<<<<<<<<<<<<<<<<<<<<<<<<<<<<<<<<   O$$$O &- <<<<<<<<<<<<<<<<<<",
"<<<<<<<<<<<<<<<<<<<<<<<<<<<<<<<<<<<<< OOOO == <<<<<<<<<<<<<<<<<<",
"<<<<<<<<<<<<<<<<<<<<<<<<<<<<<<<<<<<<<< OOOO &-   <<<<<<<<<<<<<<<",
"<<<<<<<<<<<<<<<<<<<<<<<<<<<<<<<<<<<<<< $OOO &--- <<<<<<<<<<<<<<<",
"<<<<<<<<<<<<<<<<<<<<<<<<<<<<<<<<<<<<<< O$$$ &-  <<<<<<<<<<<<<<<<",
"<<<<<<<<<<<<<<<<<<<<<<<<<<<<<<<<<<<<<<<   #o  <<<<<<<<<<<<<<<<<<",
"<<<<<<<<<<<<<<<<<<<<<<<<<<<<<<<<<<<<<<<<<< XX   <<<<<<<<<<<<<<<<",
"<<<<<<<<<<<<<<<<<<<<<<<<<<<<<<<<<<<<<<<<<<< #oo <<<<<<<<<<<<<<<<",
"<<<<<<<<<<<<<<<<<<<<<<<<<<<<<<<<<<<<<<<<<<< #o <<<<<<<<<<<<<<<<<",
"<<<<<<<<<<<<<<<<<<<<<<<<<<<<<<<<<<<<<<<<<<<   <<<<<<<<<<<<<<<<<<",
"<<<<<<<<<<<<<<<<<<<<<<<<<<<<<<<<<<<<<<<<<<<<<<<<<<<<<<<<<<<<<<<<",
"<<<<<<<<<<<<<<<<<<<<<<<<<<<<<<<<<<<<<<<<<<<<<<<<<<<<<<<<<<<<<<<<",
"<<<<<<<<<<<<<<<<<<<<<<<<<<<<<<<<<<<<<<<<<<<<<<<<<<<<<<<<<<<<<<<<",
"<<<<<<<<<<<<<<<<<<<<<<<<<<<<<<<<<<<<<<<<<<<<<<<<<<<<<<<<<<<<<<<<",
"<<<<<<<<<<<<<<<<<<<<<<<<<<<<<<<<<<<<<<<<<<<<<<<<<<<<<<<<<<<<<<<<"
};
