/* XPM */
static char *result[] = {
/* columns rows colors chars-per-pixel */
"64 64 22 1 ",
"  c black",
". c #2E323D",
"X c #68393F",
"o c #393E5E",
"O c #652A4C",
"+ c #4B3C72",
"@ c #474648",
"# c #704046",
"$ c #910833",
"% c #BA2E28",
"& c #B76E14",
"* c #FF6533",
"= c #E23149",
"- c #D37C4E",
"; c #4C6EAD",
": c #556BCC",
"> c #839BA8",
", c #929BB7",
"< c #F4C9A1",
"1 c #EDEFEF",
"2 c #F0F2F2",
"3 c None",
/* pixels */
"3333333333333333333333333333333333333333333333333333333333333333",
"3333333333333333333333333333333333333333333333333333333333333333",
"3333333333333333333333333333333333333333333333333333333333333333",
"3333333333333333333333333333333333333333333333333333333333333333",
"3333333333333333333333333333333333333333333333333333333333333333",
"3333333333333333333333333333333333333333333333333333333333333333",
"333333333333333333333333333333333333.   333333333333333333333333",
"3333333333333333333333333333333333 .  33333333333333333333333333",
"333333333333333333333333333333333 .  333333333333333333333333333",
"33333333333333333333333333333333 .   333333333333333333333333333",
"3333333333333333333333333333333 ..  33      33333333333333333333",
"3333333333333333333333333333333 .   3 ...... 3333333333333333333",
"333333333333333333333333333333 ..   ....    . 333333333333333333",
"333333333333333333333333333333 ..   ..    .. . 33333333333333333",
"333333333333333333333333333333 ..   .    .  33333333333333333333",
"3333333333333333333333333333            . 3333333333333333333333",
"33333333333333333333  33333              33333333333333333333333",
"333333333333333333333   .33       ..  ..... 33333333333333333333",
"3333333333333333333333   .   ..  .  .  .  ... 333333333333333333",
"33333333333333333333333   . ..   .   .  .    . 33333333333333333",
"33333333333333333   ....  . ..        .  .      3333333333333333",
"3333333333333333333    .... ..  --     .  .333333333333333333333",
"333333333333333333333        .  ---    <   333333333333333333333",
"33333333333333333333333       . ---<   -<  333333333333333333333",
"33333333333333333333       -  -.  -<<  -< 3333333333333333333333",
"3333333333333333333333     -- --X>  <<  << 333333333333333333333",
"3333333333333333333333333  --X--X22@ < XX<< 33333333333333333333",
"33333333333333333333333333   X----2@2< -X<< 33333333333333333333",
"33333333333333333333333333333 X---<<<    <<+ 3333333333333333333",
"33333333333333333333333333    -X-<<<X  33 :: 3333333333333333333",
"33333333333333333333333   %%*---XXXX%%*   ::< 333333333333333333",
"33333333333333333333333 ;;;*%*<<<-X<<*%oo##<< 333333333333333333",
"33333333333333333333333 ooo;*%%<<<<X<;*o;<--<< 33333333333333333",
"33333333333333333333333 ;;oo***;;;;;;;*o;<<-<< 33333333333333333",
"3333333333333333333333 --<< **%*oooooo1    -<< 33333333333333333",
"3333333333333333333333 XX<< %%*%*;oooo, 333   333333333333333333",
"3333333333333333333333 -X<  %%*%%*;;;* 3333333333333333333333333",
"333333333333333333333 -<X 33   %%***** 3333333333333333333333333",
"333333333333333333333 << 33333 ::%%%% 33333333333333333333333333",
"333333333333333333333 :: 33333 ++++++ 33333333333333333333333333",
"33333333333333333333 +:: 3333 *%%::::% 3333333333333333333333333",
"33333333333333333333 -<<< 333 *%**%*O* 3333333333333333333333333",
"33333333333333333333 <<-X< 3 *%***%*O** 333333333333333333333333",
"33333333333333333333 <<-X   %*****%*O** 333333333333333333333333",
"333333333333333333333  << 3 ******%%O**% 33333333333333333333333",
"33333333333333333333333  3 %****%%OOO*** 33333333333333333333333",
"3333333333333333333333333  %***%*  *%*** 33333333333333333333333",
"333333333333333333333333 %O%**%* 3 %*%**O 3333333333333333333333",
"33333333333333333333333 %OO%%%% 33 OO*%%O% 333333333333333333333",
"33333333333333333333333 %OO%%OO 33 OOOOOO% 333333333333333333333",
"33333333333333333333333 %OOOOO% 33 O%OOO%O 333333333333333333333",
"33333333333333333333333 O%OOO%O 333 O%%%O 3333333333333333333333",
"333333333333333333333333 ;%%%O 33333 o$  33333333333333333333333",
"333333333333333333333333 ;=;  333333 o$ 333333333333333333333333",
"333333333333333333333333 ;=; 3333333 o 3333333333333333333333333",
"333333333333333333333333 =o 33333333 & 3333333333333333333333333",
"33333333333333333333333    333333333 o$  33333333333333333333333",
"33333333333333333333333 = 3333333333 oo$$ 3333333333333333333333",
"3333333333333333333333 =; 33333333333333333333333333333333333333",
"3333333333333333333333333333333333333333333333333333333333333333",
"3333333333333333333333333333333333333333333333333333333333333333",
"3333333333333333333333333333333333333333333333333333333333333333",
"3333333333333333333333333333333333333333333333333333333333333333",
"3333333333333333333333333333333333333333333333333333333333333333"
};
