/* XPM */
static char *result[] = {
/* columns rows colors chars-per-pixel */
"64 64 33 1 ",
"  c black",
". c #2E323D",
"X c #393D5E",
"o c #652A4D",
"O c #4B3C72",
"+ c #474648",
"@ c #704046",
"# c #BA2E28",
"$ c #FF6533",
"% c #E23149",
"& c #D37C4E",
"* c #D8AE3E",
"= c #BB8D6D",
"- c #C09678",
"; c #C19679",
": c #4C6EAD",
"> c #556BCC",
", c #839BA8",
"< c #929BB7",
"1 c #D5BD8E",
"2 c #D6BF91",
"3 c #D7C195",
"4 c #D8C296",
"5 c #D8C297",
"6 c #F4C9A1",
"7 c #FFFEB9",
"8 c #FFFEBC",
"9 c #FFFEBD",
"0 c #EDEFEF",
"q c #F0F2F2",
"w c #FFFFFE",
"e c white",
"r c None",
/* pixels */
"rrrrrrrrrrrrrrrrrrrrrrrrrrrrrrrrrrrrrrrrrrrrrrrrrrrrrrrrrrrrrrrr",
"rrrrrrrrrrrrrrrrrrrrrrrrrrrrrrrrrrrrrrrrrrrrrrrrrrrrrrrrrrrrrrrr",
"rrrrrrrrrrrrrrrrrrrrrrrrrrrrrrrrrrrrrrrrrrrrrrrrrrrrrrrrrrrrrrrr",
"rrrrrrrrrrrrrrrrrrrrrrrrrrrrrrrrrrrrrrrrrrrrrrrrrrrrrrrrrrrrrrrr",
"rrrrrrrrrrrrrrrrrrrrrrrrrrrrrrrrrrrrrrrrrrrrrrrrrrrrrrrrrrrrrrrr",
"rrrrrrrrrrrrrrrrrrrrrrrrrrrrrrrrrrrrrrrrrrrrrrrrrrrrrrrrrrrrrrrr",
"rrrrrrrrrrrrrrrrrrrrrrrrrrrrrrrrrrrrrrrrrrrrrrrrrrrrrrrrrrrrrrrr",
"rrrrrrrrrrrrrrrrrrrrrrrrrrrrrrrrrrrrrrrrrrrrrrrrrrrrrrrrrrrrrrrr",
"rrrrrrrrrrrrrrrrrrrrrrrrrrrrrrrrrrrrrrrrrrrrrrrrrrrrrrrrrrrrrrrr",
"rrrrrrrrrrrrrrrrrrrrrrrrrrrrrrrrrrrrrrrrrrrrrrrrrrrrrrrrrrrrrrrr",
"rrrrrrrrrrrrrrrrrrrrrrrrrrrrrrrrrrrrrrrrrrrrrrrrrrrrrrrrrrrrrrrr",
"rrrrrrrrrrrrrrrrrrrrrrrrrrrrrrrrrrrrrrrrrrrrrrrrrrrrrrrrrrrrrrrr",
"rrrrrrrrrrrrrrrrrrrrrrrrrrrrrrrrrrrrrrrrrrrrrrrrrrrrrrrrrrrrrrrr",
"rrrrrrrrrrrrrrrrrrrrrrrrrrrrrrrrrrrrrrrrrrrrrrrrrrrrrrrrrrrrrrrr",
"rrrrrrrrrrrrrrrrrrrrrrrrrrrrrrrrrrrrrrrrrrrrrrrrrrrrrrrrrrrrrrrr",
"rrrrrrrrrrrrrrrrrrrrrrrrrrrrrrrrrrrrrrrrrrrrrrrrrrrrrrrrrrrrrrrr",
"rrrrrrrrrrrrrrrrrrrrrrrrrrrrrrrrrrrrrrrrrrrrrrrrrrrrrrrrrrrrrrrr",
"rrrrrrrrrrrrrrrrrrrrrrrrrrrrrrrrrrrrrrrrrrrrrrrrrrrrrrrrrrrrrrrr",
"rrrrrrrrrrrrrrrrrrrrrrrrrrrrrrrrrrrrrrrrrrrrrrrrrrrrrrrrrrrrrrrr",
"rrrrrrrrrrrrrrrrrrrrrrrrrrrrrrrrrrrrrrrrrrrrrrrrrrrrrrrrrrrrrrrr",
"rrrrrrrrrrrrrrrrrrrrrrrrrrrrrrrrrrrrrrrrrrrrrrrrrrrrrrrrrrrrrrrr",
"rrrrrrrrrrrrrrrrrrrrrrrrrrrrrrrrrrrrrrrrrrrrrrrrrrrrrrrrrrrrrrrr",
"rrrrrrrrrrrrrrrrrrrrrrrrrrrrrrrrrrrrrrrrrrrrrrrrr rrrrrr rrrrrrr",
"rrrrrrrrrrrrrrrrrrrrrrrrrrrrrrrrrrrrrrrrrrrrrrrrrr rrrrr  rrrrrr",
"rrrrrrrrrrrrrrrrrrrrrrrrrrrrrrrrrrrrrrrrrrrrrrrrrr  rrrr . rrrrr",
"rrrrrrrrrrrrrrrrrrrrrrrrrrrrrrrrrrrrrrrrrrrrrrrrrrr  rrr .. rrrr",
"rrrrrrrrrrrrrrrrrrrrrrrrrrrrrrrrrrrrrrrrrrrrrrrrrrr . rr .. rrrr",
"rrrrrrrrrrrrrrrrrrrrrrrrrrrrrrrrrrr rrrrrrrrrrrrrrr . r . .. rrr",
"rrrrrrrrrrrrrrrrrrrrrrrrrrrrrrrrrrrr  rrrrrrrrrrrrr  .  . .. rrr",
"rrrrrrrrrrrrrrrrrrrrrrrrrrrrrrrrrrrrr   rrrrrrrrrrr  . .  .. rrr",
"rrrrrrrrrrrrrrrrrrrrrrrrrrrrrrrrrrrrrr    rrrr    r   ..  .. rr ",
"rrrrrrrrrrrrrrrrrrrrrrrrrrrrrrrrrrrrrrr     r         .   .. rr ",
"rrrrrrrrrrrrrrrrrrrrrrrrrrrrrrrrrrr                   .   . rr  ",
"rrrrrrrrrrrrrrrrrrrrrrrrrrrrrrrrrrrrrr            ..      . r . ",
"rrrrrrrrrrrrrrrrrrrrrrrrrrrrrrrrrrrrrrrr      .. .  .    .   .  ",
"rrrrrrrrrrrrrrrrrrrrrrrrrrrrrrrrrrrr         .   .   .  .....   ",
"rrrrrrrrrrrrrrrrrrrrrrrrrrrrrrrrrrr          .   .    .        r",
"rrrrrrrrrrrrrrrrrrrrrrrrrrrrrrrrrr 66@@     & .  &    .       rr",
"rrrrrrrrrrrrrrrrrrrrrrrrrrrrrrrrr &&@&66::  && .  &   .      rrr",
"rrrrrrrrrrrrrrrrrrrrrrrrrrrrrrrr 66&@66:::X &&@ ., &  &     rrrr",
"rrrrrrrrrrrrrrrrrrrrrrrrrrrrrr  >6&    :$##  @&&@q && &  ...   r",
"rrrrrrrrrrrrrrrrrrrrrrrrrrrrr 6>>  rrr $#$$$ @&&&q+ && ...   rrr",
"rrrrrrrrrrrrrrrrrrrrrrrrrrrr 66&& rrr <.$$$$$ &&&6+q&     rrrrrr",
"rrrrrrrrrrrrrrrrrrrrrrrrrrrr     & rr 0.$##$$ &&6666 rrrrrrrrrrr",
"rrrrrrrrrrrrrrrrrrrrrrrrrrrrrrrrr  rr .$#$$#$$ &666 rrrrrrrrrrrr",
"rrrrrrrrrrrrrrrrrrrrrrrrrrrrrrrrrrrr .# XX:$#$     rrrrrrrrrrrrr",
"rrrr1==rrrrrrrrrrrrrrrrrrrrrrrrrrrrr ## ::X:$$ rrrrrrrrrrrrrrrrr",
"errerr1=wrrrrrrrrrrrrrrrrrrrrrrrrrr OO 6@6:X$ rrrrrrrrrrrrrrrrrr",
"rrrrrrrrrrrrrrrrrrrrrrrrrrrrrrrrrr $$ &&@6XX$ rrrrrrrrrrrrrrrrrr",
"rrr2893rrrrrrrrrrrrrrrrrrrrr   rr $$ 66&@ #  6 rrrrrrrrrrrrrrrrr",
"r=177771rrrr1rrrrrrrrrrrrrr oo$  #$$ 6666   &&6 rrrrrrrrrrrrrrrr",
"r17771==11rr=1rrrrrrrrrrrr #oo$#$$$$$  &>>6&66  rrrrrrrrrrrrrrrr",
"-7771===11rrr=rrrrrrrrrrr o#oo#$#$$$$##  >66&6 $ rrrrrrrrrrrrrrr",
"57771===11=rrrrrrrrrrrr  %:#oo##$####oo#o   6 $$ rrrrrrrrrrrrrrr",
"47771====71=rrrrrrrr   *%::#ooo####   o#oo## $$$ rrrrrrrrrrrrrrr",
";1771====11=rrrrrrr**::*::oo#ooo    rr  o$##$$$ rrrrrrrrrrrrrrrr",
"r117711r==11=rrrrr**::    ooo## r  rrrrr #$#$$ rrrrrrrrrrrrrrrrr",
"r=11111rr=====rrr**   rrrr     rrrrrrrrrr #$  rrrrrrrrrrrrrrrrrr",
"rr=1111rrrrrr===r  rrrrrrrrrrrrrrrrrrrrrrr  rrrrrrrrrrrrrrrrrrrr",
"5rrr=111rrrrrrrrrrrrrrrrrrrrrrrrrrrrrrrrrrrrrrrrrrrrrrrrrrrrrrrr",
"r11rrrrrr=rrrrrrrrrrrrrrrrrrrrrrrrrrrrrrrrrrrrrrrrrrrrrrrrrrrrrr",
"rr11=rrrrrrrrrrrrrrrrrrrrrrrrrrrrrrrrrrrrrrrrrrrrrrrrrrrrrrrrrrr",
"rrr11==rrrrrrrrrrrrrrrrrrrrrrrrrrrrrrrrrrrrrrrrrrrrrrrrrrrrrrrrr",
"rrrrrrrrrrrrrrrrrrrrrrrrrrrrrrrrrrrrrrrrrrrrrrrrrrrrrrrrrrrrrrrr"
};
