/* XPM */
static char *result[] = {
/* columns rows colors chars-per-pixel */
"64 64 22 1 ",
"  c black",
". c #2E323D",
"X c #68393F",
"o c #393E5E",
"O c #652A4C",
"+ c #4B3C72",
"@ c #474648",
"# c #704046",
"$ c #910833",
"% c #BA2E28",
"& c #B76E14",
"* c #FF6533",
"= c #E23149",
"- c #D37C4E",
"; c #4C6EAD",
": c #556BCC",
"> c #839BA8",
", c #929BB7",
"< c #F4C9A1",
"1 c #EDEFEF",
"2 c #F0F2F2",
"3 c None",
/* pixels */
"3333333333333333333333333333333333333333333333333333333333333333",
"3333333333333333333333333333333333333333333333333333333333333333",
"3333333333333333333333333333333333333333333333333333333333333333",
"3333333333333333333333333333333333333333333333333333333333333333",
"3333333333333333333333333333333333333333333333333333333333333333",
"3333333333333333333333333333333333333333333333333333333333333333",
"33333333333333333333333333333333333.   3333333333333333333333333",
"333333333333333333333333333333333 .  333333333333333333333333333",
"33333333333333333333333333333333 .  3333333333333333333333333333",
"3333333333333333333333333333333 .   3333333333333333333333333333",
"333333333333333333333333333333 ..  33      333333333333333333333",
"333333333333333333333333333333 .   3 ...... 33333333333333333333",
"33333333333333333333333333333 ..   ....    . 3333333333333333333",
"33333333333333333333333333333 ..   ..    .. . 333333333333333333",
"33333333333333333333333333333 ..   .    .  333333333333333333333",
"333333333333333333333333333            . 33333333333333333333333",
"3333333333333333333  33333              333333333333333333333333",
"33333333333333333333   .33       ..  ..... 333333333333333333333",
"333333333333333333333   .   ..  .  .  .  ... 3333333333333333333",
"3333333333333333333333   . ..   .   .  .    . 333333333333333333",
"3333333333333333   ....  . ..        .  .      33333333333333333",
"333333333333333333    .... ..  --     .  .3333333333333333333333",
"33333333333333333333        .  ---    <   3333333333333333333333",
"3333333333333333333333       . ---<   -<  3333333333333333333333",
"3333333333333333333       -  -.  -<<  -< 33333333333333333333333",
"333333333333333333333     -- --X>  <<  << 3333333333333333333333",
"333333333333333333333333  --X--X22@ < XX<< 333333333333333333333",
"3333333333333333333333333   X----2@2< -X<< 333333333333333333333",
"3333333333333333333333333333 X---<<<    <<+ 33333333333333333333",
"3333333333333333333333333    -X-<<<X  33 :: 33333333333333333333",
"3333333333333333333333   %%*---XXXX%%*   ::< 3333333333333333333",
"3333333333333333333333 ;;;*%*<<<-X<<*%oo##<< 3333333333333333333",
"3333333333333333333333 ooo;*%%<<<<X<;*o;<--<< 333333333333333333",
"3333333333333333333333 ;;oo***;;;;;;;*o;<<-<< 333333333333333333",
"333333333333333333333 --<< **%*oooooo1    -<< 333333333333333333",
"333333333333333333333 XX<< %%*%*;oooo, 333   3333333333333333333",
"333333333333333333333 -X<  %%*%%*;;;* 33333333333333333333333333",
"33333333333333333333 -<X 33   %%***** 33333333333333333333333333",
"33333333333333333333 << 33333 ::%%%% 333333333333333333333333333",
"33333333333333333333 :: 33333 ++++++ 333333333333333333333333333",
"3333333333333333333 +:: 3333 *%%::::% 33333333333333333333333333",
"3333333333333333333 -<<< 333 *%**%*O* 33333333333333333333333333",
"3333333333333333333 <<-X< 3 *%***%*O** 3333333333333333333333333",
"3333333333333333333 <<-X   %*****%*O** 3333333333333333333333333",
"33333333333333333333  << 3 ******%%O**% 333333333333333333333333",
"3333333333333333333333  3 %****%%OOO*** 333333333333333333333333",
"333333333333333333333333  %***%*  *%*** 333333333333333333333333",
"33333333333333333333333 %O%**%* 3 %*%**O 33333333333333333333333",
"3333333333333333333333 %OO%%%% 33 OO*%%O% 3333333333333333333333",
"3333333333333333333333 %OO%%OO 33 OOOOOO% 3333333333333333333333",
"3333333333333333333333 %OOOOO% 33 O%OOO%O 3333333333333333333333",
"3333333333333333333333 O%OOO%O 333 O%%%O 33333333333333333333333",
"33333333333333333333333 ;%%%O 33333 o$  333333333333333333333333",
"33333333333333333333333 ;=;  333333 o$ 3333333333333333333333333",
"33333333333333333333333 ;=; 3333333 o 33333333333333333333333333",
"33333333333333333333333 =o 33333333 & 33333333333333333333333333",
"3333333333333333333333    333333333 o$  333333333333333333333333",
"3333333333333333333333 = 3333333333 oo$$ 33333333333333333333333",
"333333333333333333333 =; 333333333333333333333333333333333333333",
"3333333333333333333333333333333333333333333333333333333333333333",
"3333333333333333333333333333333333333333333333333333333333333333",
"3333333333333333333333333333333333333333333333333333333333333333",
"3333333333333333333333333333333333333333333333333333333333333333",
"3333333333333333333333333333333333333333333333333333333333333333"
};
