/* XPM */
static char *result[] = {
/* columns rows colors chars-per-pixel */
"64 64 10 1 ",
"  c black",
". c #474648",
"X c #FF6533",
"o c #D37C4E",
"O c #4C6EAD",
"+ c #556BCC",
"@ c #839BA8",
"# c #F4C9A1",
"$ c #F0F2F2",
"% c None",
/* pixels */
"%%%%%%%%%%%%%%%%%%%%%%%%%%%%%%%%%%%%%%%%%%%%%%%%%%%%%%%%%%%%%%%%",
"%%%%%%%%%%%%%%%%%%%%%%%%%%%%%%%%%%%%%%%%%%%%%%%%%%%%%%%%%%%%%%%%",
"%%%%%%%%%%%%%%%%%%%%%%%%%%%%%%%%%%%%%%%%%%%%%%%%%%%%%%%%%%%%%%%%",
"%%%%%%%%%%%%%%%%%%%%%%%%%%%%%%%%%%%%%%%%%%%%%%%%%%%%%%%%%%%%%%%%",
"%%%%%%%%%%%%%%%%%%%%%%%%%%%%%%%%%%%%%%%%%%%%%%%%%%%%%%%%%%%%%%%%",
"%%%%%%%%%%%%%%%%%%%%%%%%%%%%%%%%%%%%%%%%%%%%%%%%%%%%%%%%%%%%%%%%",
"%%%%%%%%%%%%%%%%%%%%%%%%%%%%%%%%%%%    %%%%%%%%%%%%%%%%%%%%%%%%%",
"%%%%%%%%%%%%%%%%%%%%%%%%%%%%%%%%%    %%%%%%%%%%%%%%%%%%%%%%%%%%%",
"%%%%%%%%%%%%%%%%%%%%%%%%%%%%%%%%    %%%% %%%%%%%%%%%%%%%%%%%%%%%",
"%%%%%%%%%%%%%%%%%%%%%%%%%%%%%%%  %  %%%% %%%%%%%%%%%%%%%%%%%%%%%",
"%%%%%%%%%%%%%%%%%%%%%%%%%%%%%%   % %%      %%%%%%%%%%%%%%%%%%%%%",
"%%%%%%%%%%%%%%%%%%%%%%%%%%%%%%   % %        %%%%%%%%%%%%%%%%%%%%",
"%%%%%%%%%%%%%%%%%%%%%%%%%%% %%   %           %%%%%%%%%%%%%%%%%%%",
"%%%%%%%%%%%%%%%%%%%%%%%%%%% %%   %            %%%%%%%%%%%%%%%%%%",
"%%%%%%%%%%%%%%%%%%%%%%%%%%% %%   %         %%%%%%%%%%%%%%%%%%%%%",
"%%%%%%%%%%%%%%%%%%%%%%%%%%%  %   %       %%%%%%%%%%%%%%%%%%%%%%%",
"%%%%%%%%%%%%%%%%%%%  %% %%   %   %      %%%%%%%%%%%%%%%%%%%%%%%%",
"%%%%%%%%%%%%%%%%%%%%    %%   %   %       % %%%%%%%%%%%%%%%%%%%%%",
"%%%%%%%%%%%%%%%%%%%%%   %    %   %       %   %%%%%%%%%%%%%%%%%%%",
"%%%%%%%%%%%%%%%%%%%%%%  %    %   %       %    %%%%%%%%%%%%%%%%%%",
"%%%%%%%%%%%%%%%%        %    %   %       %     %%%%%%%%%%%%%%%%%",
"%%%%%%%%%%%%%%%%%%      %    % ##%       % %%%%%%%%%%%%%%%%%%%%%",
"%%%%%%%%%%%%%%%%%%%%    %      ##%    #  % %%%%%%%%%%%%%%%%%%%%%",
"%%%%%%%%%%%%%%%%%%%%%%  %      ##%#   ## %%%%%%%%%%%%%%%%%%%%%%%",
"%%%%%%%%%%%%%%%%%%%     % #  #   %##  ## %%%%%%%%%%%%%%%%%%%%%%%",
"%%%%%%%%%%%%%%%%%%%%%   % ## ##o@% ##  ##% %%%%%%%%%%%%%%%%%%%%%",
"%%%%%%%%%%%%%%%%%%%%%%% % ##o##o$%. # oo#% %%%%%%%%%%%%%%%%%%%%%",
"%%%%%%%%%%%%%%%%%%%%%%%%%   o####%.$# #o#% %%%%%%%%%%%%%%%%%%%%%",
"%%%%%%%%%%%%%%%%%%%%%%%O%%%% o###%##%   #%+ %%%%%%%%%%%%%%%%%%%%",
"%%%%%%%%%%%%%%%%%%%%%%%O%    #o##%#o% %% %+ %%%%%%%%%%%%%%%%%%%%",
"%%%%%%%%%%%%%%%%%%%%%% O%XXX###oo%oX%X   %+# %%%%%%%%%%%%%%%%%%%",
"%%%%%%%%%%%%%%%%%%%%%% O%OXXX#X##%##%XOOo%## %%%%%%%%%%%%%%%%%%%",
"%%%%%%%%%%%%%%%%%%%%%% O%OOXXXX##%o#%XOO#%### %%%%%%%%%%%%%%%%%%",
"%%%%%%%%%%%%%%%%%%%%%% OOOOXXXXOO%OO%XOO#%### %%%%%%%%%%%%%%%%%%",
"%%%%%%%%%%%%%%%%%%%%o%###% X%XXOO%OO%X O %### %%%%%%%%%%%%%%%%%%",
"%%%%%%%%%%%%%%%%%%%%o%oo#% X%XXXO%OO%X O%%#  %%%%%%%%%%%%%%%%%%%",
"%%%%%%%%%%%%%%%%%%%%o%#o#% X%XXXX%OO% %O%%#%%%%%%%%%%%%%%%%%%%%%",
"%%%%%%%%%%%%%%%%%%%% %#o %%X% X+X%XX% %O%%#%%%%%%%%%%%%%%%%%%%%%",
"%%%%%%%%%%%%%%%%%%%% %# %%%X% ++X%XX%%%%%%%%%%%%%%%%%%%%%%%%%%%%",
"%%%%%%%%%%%%%%%%%%%% %+ %%%%% +++%++%%%%%%%%%%%%%%%%%%%%%%%%%%%%",
"%%%%%%%%%%%%%%%%%%% +%+ %%%%%XX++%++% %%%%%%%%%%%%%%%%%%%%%%%%%%",
"%%%%%%%%%%%%%%%%%%% #%## %X%%XX+X%XX% %%%%%%%%%%%%%%%%%%%%%%%%%%",
"%%%%%%%%%%%%%%%%%%% #%#o#%X%XXX+X%XX%X %%%%%%%%%%%%%%%%%%%%%%%%%",
"%%%%%%%%%%%%%%%%%%% ###o %XXXXXXX%XX%X %%%%%%%%%%%%%%%%%%%%%%%%%",
"%%%%%%%%%%%%%%%%%%%% ### %XXXXXXX%XX%XX%%%%%%%%%%%%%%%%%%%%%%%%%",
"%%%%%%%%%%%%%%%%%%%%%#  %%XXXXXXXXXX%XX%X%%%%%%%%%%%%%%%%%%%%%%%",
"%%%%%%%%%%%%%%%%%%%%%#%% %XXX%XX  XX%XX%X%%%%%%%%%%%%%%%%%%%%%%%",
"%%%%%%%%%%%%%%%%%%%%%%% X%XXX%X % XX%XX%X%%%%%%%%%%%%%%%%%%%%%%%",
"%%%%%%%%%%%%%%%%%%%%%% XX%XXX% %% XX%XX%X %%%%%%%%%%%%%%%%%%%%%%",
"%%%%%%%%%%%%%%%%%%%%%% XX%XXX% %% XOXXX%X %%%%%%%%%%%%%%%%%%%%%%",
"%%%%%%%%%%%%%%%%%%%%%% XX%OXX% %% XOXXX%X %%%%%%%%%%%%%%%%%%%%%%",
"%%%%%%%%%%%%%%%%%%%%%% XX%OXX% %%%XOXXX% %%%%%%%%%%%%%%%%%%%%%%%",
"%%%%%%%%%%%%%%%%%%%%%%% O%OXX%%%%%XOOO %%%%%%%%%%%%%%%%%%%%%%%%%",
"%%%%%%%%%%%%%%%%%%%%%%% O%O  %%%%%X OO %%%%%%%%%%%%%%%%%%%%%%%%%",
"%%%%%%%%%%%%%%%%%%%%%%% O%O %%%%%%% O %%%%%%%%%%%%%%%%%%%%%%%%%%",
"%%%%%%%%%%%%%%%%%%%%%%% O% %%%%%%%% O %O%%%%%%%%%%%%%%%%%%%%%%%%",
"%%%%%%%%%%%%%%%%%%%%%% OO%%%%%%%%%% OO O%%%%%%%%%%%%%%%%%%%%%%%%",
"%%%%%%%%%%%%%%%%%%%%%% O %%%%%%%%%% OOOO %%%%%%%%%%%%%%%%%%%%%%%",
"%%%%%%%%%%%%%%%%%%%%% OO %%%%%%%%%%%%%%%%%%%%%%%%%%%%%%%%%%%%%%%",
"%%%%%%%%%%%%%%%%%%%%%%%%%%%%%%%%%%%%%%%%%%%%%%%%%%%%%%%%%%%%%%%%",
"%%%%%%%%%%%%%%%%%%%%%%%%%%%%%%%%%%%%%%%%%%%%%%%%%%%%%%%%%%%%%%%%",
"%%%%%%%%%%%%%%%%%%%%%%%%%%%%%%%%%%%%%%%%%%%%%%%%%%%%%%%%%%%%%%%%",
"%%%%%%%%%%%%%%%%%%%%%%%%%%%%%%%%%%%%%%%%%%%%%%%%%%%%%%%%%%%%%%%%",
"%%%%%%%%%%%%%%%%%%%%%%%%%%%%%%%%%%%%%%%%%%%%%%%%%%%%%%%%%%%%%%%%"
};
