/* XPM */
static char *result[] = {
/* columns rows colors chars-per-pixel */
"64 64 6 1 ",
"  c black",
". c #FF6533",
"X c #4C6EAD",
"o c #556BCC",
"O c #F4C9A1",
"+ c None",
/* pixels */
"++++++++++++++++++++++++++++++++++++++++++++++++++++++++++++++++",
"++++++++++++++++++++++++++++++++++++++++++++++++++++++++++++++++",
"++++++++++++++++++++++++++++++++++++++++++++++++++++++++++++++++",
"++++++++++++++++++++++++++++++++++++++++++++++++++++++++++++++++",
"++++++++++++++++++++++++++++++++++++++++++++++++++++++++++++++++",
"++++++++++++++++++++++++++++++++++++++++++++++++++++++++++++++++",
"++++++++++++++++++++++++++++++++++++++++++++++++++++++++++++++++",
"++++++++++++++++++++++++++++++++++++++++++++++++++++++++++++++++",
"++++++++++++++++++++++++++++++  ++++++++++++++++++++++++++++++++",
"++++++++++++++++++++++++++++++  ++++++++++++++++++++++++++++++++",
"++++++++++++++++++++++++++++++  ++++++++++++++++++++++++++++++++",
"++++++++++++++++++++++++++++++  ++++++++++++++++++++++++++++++++",
"++++++++++++++++++++++++++++++  ++++++++++++++++++++++++++++++++",
"++++++++++++++++++++++++++++++  ++++++++++++++++++++++++++++++++",
"++++++++++++++++++++++++++++++ +++++++++++++++++++++++++++++++++",
"++++++++++++++++++++++++++O+++ +++++++++++++O+++++++++++++++++++",
"++++++++++++++++++++++++++O+++ ++++X++++++++O+++++++++++++++++++",
"++++++++++++++++++++O+++++O+++ ++++X++++.+++O+++++++++++++++++++",
"++++++++++++++++++++O+++++O+++ ++++X+.++.+++O+++++++++++++++++++",
"++++++++++++++++++++O+++O+O+++ ++++X+.++.+++O+++++++++++++++++++",
"++++++++++++++++++++O+++O+O+++ ++++X+.++.+++O+++++++++++++++++++",
"++++++++++++++++++++O+++O+O++++ +++X+.++..++O+++++++++++++++++++",
"++++++++++++++++++++O+++O+O++++ +++X+.++..++O+++++++++++++++++++",
"++++++++++++++++++++OO++O+O++++ +++X+.++..++O+++++++++++++++++++",
"++++++++++++++++++++OO++O+O++++ +++X+.++..++O+++++++++++++++++++",
"++++++++++++++++++++OO++O+O++++ +++X+.+...++O+++++++++++++++++++",
"++++++++++++++++++++OO++O+O++++o+++X+.+...++O+++++++++++++++++++",
"++++++++++++++++++++OO++O+O++++o+++X+.+...++O+++++++++++++++++++",
"++++++++++++++++++++OO++O+O++++o+++X+.+...++O+++++++++++++++++++",
"++++++++++++++++++++OO++O+O++++o+++X+.+...++O+++++++++++++++++++",
"++++++++++++++++++++++O+O+O++o+o+++X+.+...++O+++++++++++++++++++",
"++++++++++++++++++++++++O+.++o+o++++..+...++O+++++++++++++++++++",
"++++++++++++++++++++++++O+.++o+o++++..+...++++++++++++++++++++++",
"++++++++++++++++++++++++O+.++o+o++++..+...++++++++++++++++++++++",
"++++++++++++++++++++++++O+.++o+o++++..+...++++++++++++++++++++++",
"+++++++++++++++++++O++++O+.++o+o+++++.+...++++++++++++++++++++++",
"+++++++++++++++++++O++++O+.++o+o+++++.+...++++++++++++++++++++++",
"+++++++++++++++++++O++++O+.++o+o+++++.+...+++O++++++++++++++++++",
"+++++++++++++++++++O++++++.++++o+++++.+...+++O++++++++++++++++++",
"+++++++++++++++++++O++++++.++++o+++++.+...+++O++++++++++++++++++",
"+++++++++++++++++++O++++++.++++o+++++++.X.+++O++++++++++++++++++",
"+++++++++++++++++++O++++++.++.+o+++++++.X.+++O++++++++++++++++++",
"+++++++++++++++++++O++++++.++.+o+++++++.X.++++++++++++++++++++++",
"++++++++++++++++++++++++++.++.+o+++++++.X.++++++++++++++++++++++",
"++++++++++++++++++++++++++.++.+o+++++++.+.++++++++++++++++++++++",
"++++++++++++++++++++++++++.++.+oo++++++.+.++++++++++++++++++++++",
"++++++++++++++++++++++++++.++.+oo++++++.+.++++++++++++++++++++++",
"++++++++++++++++++++++++++.++.+oo++++++.+.++++++++++++++++++++++",
"++++++++++++++++++++++++++.++.++o++++++++.++++++++++++++++++++++",
"++++++++++++++++++++++++++.++.++o++++++++.++++++++++++++++++++++",
"++++++++++++++++++++++++++.++.+++++++++++.++++++++++++++++++++++",
"++++++++++++++++++++++++++.++.++++++++++++++++++++++++++++++++++",
"++++++++++++++++++++++++++.++.++++++++++++++++++++++++++++++++++",
"++++++++++++++++++++++++++.++.++++++++++++++++++++++++++++++++++",
"++++++++++++++++++++++++++.++.+++++o++++++++++++++++++++++++++++",
"++++++++++++++++++++++++++.++.+++++o++++++++++++++++++++++++++++",
"++++++++++++++++++++++++++.++.+++++o++++++++++++++++++++++++++++",
"++++++++++++++++++++++++++.++.++++++++++++++++++++++++++++++++++",
"++++++++++++++++++++++++++.+++++++++++++++++++++++++++++++++++++",
"++++++++++++++++++++++++++++++++++++++++++++++++++++++++++++++++",
"++++++++++++++++++++++++++++++++++++++++++++++++++++++++++++++++",
"++++++++++++++++++++++++++++++++++++++++++++++++++++++++++++++++",
"++++++++++++++++++++++++++++++++++++++++++++++++++++++++++++++++",
"++++++++++++++++++++++++++++++++++++++++++++++++++++++++++++++++"
};
