/* XPM */
static char *result[] = {
/* columns rows colors chars-per-pixel */
"64 64 22 1 ",
"  c black",
". c #2E323D",
"X c #775100",
"o c #393E5E",
"O c #652A4C",
"+ c #4B3C72",
"@ c #474648",
"# c #704046",
"$ c #910833",
"% c #BA2E28",
"& c #FF6533",
"* c #E23149",
"= c #D37C4E",
"- c #D8AE3E",
"; c #4C6EAD",
": c #556BCC",
"> c #839BA8",
", c #929BB7",
"< c #F4C9A1",
"1 c #EDEFEF",
"2 c #F0F2F2",
"3 c None",
/* pixels */
"3333333333333333333333333333333333333333333333333333333333333333",
"3333333333333333333333333333333333333333333333333333333333333333",
"3333333333333333333333333333333333333333333333333333333333333333",
"3333333333333333333333333333333333333333333333333333333333333333",
"3333333333333333333333333333333333333333333333333333333333333333",
"3333333333333333333333333333333333333333333333333333333333333333",
"3333333333333333333333333333333333333333333333333333333333333333",
"3333333333333333333333333333333333333333333333333333333333333333",
"3333333333333333333333333333333333333333333333333333333333333333",
"3333333333333333333333333333333333333333333333333333333333333333",
"3333333333333333333333333333333333333333333333333333333333333333",
"3333333333333333333333333333333333333333333333333333333333333333",
"33333333333333333333333333333333333  ..  33333333333333333333333",
"3333333333333333333333333333333333 ..  3333333333333333333333333",
"333333333333333333333333333333333 ..  33333333333333333333333333",
"33333333333333333333333333333333 ..   3 ... 33333333333333333333",
"33333333333333333333333333333333 ..  3 ..... 3333333333333333333",
"3333333333333333333333333333333 ..    ...   . 333333333333333333",
"3333333333333333333333333333333 ..   ..      . 33333333333333333",
"3333333333333333333333333333    ..  ..    ... . 3333333333333333",
"33333333333333333333  .3333     ..  .    . 333333333333333333333",
"333333333333333333333  .  3              .. 33333333333333333333",
"3333333333333333333333  ..            ..   . 3333333333333333333",
"33333333333333333333333  ..  ...  .. .  .   . 333333333333333333",
"33333333333333333    .... . ..   .  .    .   . 33333333333333333",
"3333333333333333333    .... ..   .   .    .    33333333333333333",
"333333333333333333333       ..   .    .    33  33333333333333333",
"33333333333333333333333     ..  ==    .    333 33333333333333333",
"333333333333333333333      = .  ===   = 3  333333333333333333333",
"33333333333333333333333    ==#.   ==  = 33 333333333333333333333",
"3333333333333333333333333  ==#=.#> == = 333333333333333333333333",
"333333333333333333333        #==#22  = 3333333333333333333333333",
"333333333333333333333 oo;&%&=#====2@2<  333333333333333333333333",
"333333333333333333333 ;;o;&%==#===<<< o 333333333333333333333333",
"33333333333333333333 #==;o&&%==#=<<< &o 333333333333333333333333",
"33333333333333333333 #<<;;&&&;==####;&o 333333333333333333333333",
"3333333333333333333 =#<< %&%&;;;;;;;;1 3333333333333333333333333",
"333333333333333333 <<==  %&&%&oooooo, = 3   33333333333333333333",
"333333333333333333 <<=< 3 &&%%&oooo&& ++  << 3333333333333333333",
"3333333333333333333 <::  3  %%%&&&&  =++<##== 333333333333333333",
"33333333333333333333 ::<<   ::%%%% 33  +<=<<< 333333333333333333",
"33333333333333333333 +<##== ++++++ 3333 =<=< 3333333333333333333",
"333333333333333333333 <#<<= %%::::   333 << 33333333333333333333",
"333333333333333333333 <<<=< %&&%&&O%%  33  333333333333333333333",
"3333333333333333333333 <=< &%&&%&&O&&&&   3333333333333333333333",
"33333333333333333333333   &%&&&%&%O&&&&&%& 333333333333333333333",
"333333333333333333333333 %%&&&%%OOO%&&&&&% 333333333333333333333",
"33333333333333333333333 O%&&&&     &%&&&&& 333333333333333333333",
"333333333333333333333   O%&&&& 333 O&%&&&& 333333333333333333333",
"33333333333333333333 OO%O%&&&% 33 %O%&%%% 3333333333333333333333",
"33333333333333333333 O%OO%%%%& 33 %OOOOO 33333333333333333333333",
"33333333333333333333 %OOO%%%&% 33 O%OOO% 33333333333333333333333",
"3333333333333333333 ;%OOOOO   3333 o%%%O 33333333333333333333333",
"3333333333333333333 ;O%OOO 3333333 oo$  333333333333333333333333",
"333333333333333333 ;*;O%%% 3333333 o$ 33333333333333333333333333",
"333333333333333333 *;;    33333333 X 333333333333333333333333333",
"33333333333333333 --  33333333333 oo$ 33333333333333333333333333",
"33333333333333333 * 3333333333333 ooo$ 3333333333333333333333333",
"3333333333333333 *; 33333333333333333333333333333333333333333333",
"3333333333333333333333333333333333333333333333333333333333333333",
"3333333333333333333333333333333333333333333333333333333333333333",
"3333333333333333333333333333333333333333333333333333333333333333",
"3333333333333333333333333333333333333333333333333333333333333333",
"3333333333333333333333333333333333333333333333333333333333333333"
};
