/* XPM */
static char *result[] = {
/* columns rows colors chars-per-pixel */
"64 64 20 1 ",
"  c black",
". c #2E323D",
"X c #393E5E",
"o c #652A4C",
"O c #4B3C72",
"+ c #474648",
"@ c #704046",
"# c #BA2E28",
"$ c #FF6533",
"% c #E23149",
"& c #D37C4E",
"* c #D8AE3E",
"= c #4C6EAD",
"- c #556BCC",
"; c #839BA8",
": c #929BB7",
"> c #F4C9A1",
", c #EDEFEF",
"< c #F0F2F2",
"1 c None",
/* pixels */
"1111111111111111111111111111111111111111111111111111111111111111",
"1111111111111111111111111111111111111111111111111111111111111111",
"1111111111111111111111111111111111111111111111111111111111111111",
"1111111111111111111111111111111111111111111111111111111111111111",
"1111111111111111111111111111111111111111111111111111111111111111",
"1111111111111111111111111111111111111111111111111111111111111111",
"1111111111111111111111111111111111111111111111111111111111111111",
"1111111111111111111111111111111111111111111111111111111111111111",
"111111111111111111111111111111111111.   111111111111111111111111",
"1111111111111111111111111111111111 .  11111111111111111111111111",
"111111111111111111111111111111111 .  111111111111111111111111111",
"11111111111111111111111111111111 .   111111111111111111111111111",
"1111111111111111111111111111111 ..  11      11111111111111111111",
"1111111111111111111111111111111 .   1 ...... 1111111111111111111",
"111111111111111111111111111111 ..   ....    . 111111111111111111",
"111111111111111111111111111111 ..   ..    .. . 11111111111111111",
"111111111111111111111111111111 ..   .    .  11111111111111111111",
"1111111111111111111111111111            . 1111111111111111111111",
"11111111111111111111  11111              11111111111111111111111",
"111111111111111111111   .11       ..  ..... 11111111111111111111",
"1111111111111111111111   .   ..  .  .  .  ... 111111111111111111",
"11111111111111111111111   . ..   .   .  .    . 11111111111111111",
"11111111111111111   ....  . ..        .  .      1111111111111111",
"1111111111111111111    .... ..  &&    .   .111111111111111111111",
"111111111111111111111        .  &&&   &    111111111111111111111",
"11111111111111111111111       .   &>  >    111111111111111111111",
"11111111111111111111       &  &.@;  > > 1  111111111111111111111",
"1111111111111111111111     && &&@<<+ > 111 111111111111111111111",
"1111111111111111111111111  &&@&&&&<+<> 1111111111111111111111111",
"111111111111111111111111     @&&&&>>>> 1111111111111111111111111",
"11111111111111111111111 ==X#$#@&&&>>>      111111111111111111111",
"1111111111111111111111 &&X=#$$&@&>>>@&$#$$ 111111111111111111111",
"11111111111111111111  @>>X=#$$>&@@@@&&#$=XX 11111111111111111111",
"1111111111111111111 >>@>>XX#$$=>>@&>>>$$X== 11111111111111111111",
"1111111111111111111 &>@@    $$X=>@>>>=$$X&&& 1111111111111111111",
"11111111111111111111 --O  1 #$=X=====,:# >>&@ 111111111111111111",
"11111111111111111111 -- >>  $#$=XXXX$:,$ >>&>> 11111111111111111",
"111111111111111111111  >@@>> $#$XXX$$#$$   &>> 11111111111111111",
"111111111111111111111 &>>  >   $$$$$$#  >& -- 111111111111111111",
"111111111111111111111 >&> 1  1 -####-  >&>>-- 111111111111111111",
"1111111111111111111111 > 11111 OOOOOO   >>&& 1111111111111111111",
"11111111111111111111111  111  $#----##  >&>> 1111111111111111111",
"1111111111111111111111111   ###$o$#$$#$$  > 11111111111111111111",
"111111111111111111111111 $#$$$$$o$#$$$#$#  111111111111111111111",
"111111111111111111111111 #$$$$$$o$#$$$$$$#$ 11111111111111111111",
"111111111111111111111111 $$$$$##o$###$$$$$# 11111111111111111111",
"11111111111111111111111 #$$$$#$#oo#$$#$$$$$ 11111111111111111111",
"1111111111111111111111 o#$$$#$       $#$$$$o 1111111111111111111",
"111111111111111111111 #o####$# 111111 $####o# 111111111111111111",
"111111111111111111111 #o###oo 1111111 o$###o# 111111111111111111",
"111111111111111111111 #ooooo# 1111111 #ooooo# 111111111111111111",
"111111111111111111111 #oooo#o 1111111 o#ooo#o 111111111111111111",
"111111111111111111111 X####  111111111  ###o 1111111111111111111",
"111111111111111111111 %X   1111111111111 =%= 1111111111111111111",
"111111111111111111111 %X 111111111111111 =%= 1111111111111111111",
"11111111111111111111 X% 11111111111111111 X% 1111111111111111111",
"11111111111111111111 ** 111111111111111111 ** 111111111111111111",
"11111111111111111111 % 11111111111111111111 % 111111111111111111",
"1111111111111111111 %= 11111111111111111111 =% 11111111111111111",
"1111111111111111111111111111111111111111111111111111111111111111",
"1111111111111111111111111111111111111111111111111111111111111111",
"1111111111111111111111111111111111111111111111111111111111111111",
"1111111111111111111111111111111111111111111111111111111111111111",
"1111111111111111111111111111111111111111111111111111111111111111"
};
