/* XPM */
static char *result[] = {
/* columns rows colors chars-per-pixel */
"64 64 21 1 ",
"  c black",
". c #2E323D",
"X c #393E5E",
"o c #652A4C",
"O c #4B3C72",
"+ c #474648",
"@ c #704046",
"# c #8F1635",
"$ c #BA2E28",
"% c #FF6533",
"& c #E23149",
"* c #D37C4E",
"= c #D8AE3E",
"- c #4C6EAD",
"; c #556BCC",
": c #839BA8",
"> c #929BB7",
", c #F4C9A1",
"< c #EDEFEF",
"1 c #F0F2F2",
"2 c None",
/* pixels */
"2222222222222222222222222222222222222222222222222222222222222222",
"2222222222222222222222222222222222222222222222222222222222222222",
"2222222222222222222222222222222222222222222222222222222222222222",
"2222222222222222222222222222222222222222222222222222222222222222",
"2222222222222222222222222222222222222222222222222222222222222222",
"2222222222222222222222222222222222222222222222222222222222222222",
"2222222222222222222222222222222222222222222222222222222222222222",
"2222222222222222222222222222222222222222222222222222222222222222",
"2222222222222222222222222222222222222222222222222222222222222222",
"2222222222222222222222222222222222222222222222222222222222222222",
"222222222222222222222222222222222222.   222222222222222222222222",
"2222222222222222222222222222222222 .  22222222222222222222222222",
"222222222222222222222222222222222 .  222222222222222222222222222",
"22222222222222222222222222222222 .   222222222222222222222222222",
"2222222222222222222222222222222 ..  22      22222222222222222222",
"2222222222222222222222222222222 .   2 ...... 2222222222222222222",
"222222222222222222222222222222 ..   ....    . 222222222222222222",
"222222222222222222222222222222 ..   ..    .. . 22222222222222222",
"222222222222222222222222222222 ..   .    .  22222222222222222222",
"2222222222222222222222222222            . 2222222222222222222222",
"22222222222222222222  22222              22222222222222222222222",
"222222222222222222222   .22       ..  ..... 22222222222222222222",
"2222222222222222222222   .   ..  .  .  .  ... 222222222222222222",
"22222222222222222222222   . ..   .   .  .    . 22222222222222222",
"22222222222222222   ....  . ..        .  .      2222222222222222",
"2222222222222222222    .... ..  **    .   .222222222222222222222",
"222222222222222222222        .  ***   *    222222222222222222222",
"22222222222222222222222       . ***,  ,    222222222222222222222",
"22222222222222222222       *  *.  *,, , 2  222222222222222222222",
"2222222222222222222222     ** **@:  ,, 222 222222222222222222222",
"222222222222222222222222   **@**@11+ , 2222222222222222222222222",
"2222222222222222222222  XXX  @****1+1, 2222222222222222222222222",
"2222222222222222222   @**XX$$*@***,,,@    2222222222222222222222",
"222222222222222222 ,**@@@  $X,*@*,,,@%$%% 2222222222222222222222",
"222222222222222222 *,,;; ,, X*,@@@@@%$%-X-  22222222222222222222",
"2222222222222222222 ,,;; **@ -*@*,,-$%%X-,,@  222222222222222222",
"22222222222222222222  O ,,*@, -----%%%%X-***,, 22222222222222222",
"2222222222222222222222 ,*,  , XXXX%<>%   O;;,, 22222222222222222",
"2222222222222222222222 ,,*   %XXX%$>< ,*,,;;* 222222222222222222",
"22222222222222222222222   222 %%%$$% ,*,*,,  2222222222222222222",
"22222222222222222222222222222 ;$$$;;  ,**,, 22222222222222222222",
"222222222222222222222222222   OOOOOO% ,  ,* 22222222222222222222",
"22222222222222222222222    %%$$;;;;$%  2 , 222222222222222222222",
"2222222222222222222222 $%%%%%$%$o%%%$% 2  2222222222222222222222",
"2222222222222222222222 %%%%%%$%$o%%%%$$ 222222222222222222222222",
"222222222222222222222 $%%%%$$$$%o%%%%%% 222222222222222222222222",
"22222222222222222222 o$%%%$%%    $$%%%%$  2222222222222222222222",
"2222222222222222222 $o$$$oo  2222 %$%%%$o$ 222222222222222222222",
"2222222222222222222 $ooooo$ 22222 $%$$$$o$o 22222222222222222222",
"2222222222222222222 o$oooo$ 222222  o$$$oo$ 22222222222222222222",
"22222222222222222222 o$$$$o 22222222 ooooo$ 22222222222222222222",
"222222222222222222222 X$$o 222222222 $ooo$o 22222222222222222222",
"222222222222222222222 #X  2222222222 o$$$oXX 2222222222222222222",
"222222222222222222222 #X 222222222222    X&X 2222222222222222222",
"22222222222222222222 X# 22222222222222222 X& 2222222222222222222",
"22222222222222222222 = 2222222222222222222 == 222222222222222222",
"22222222222222222222 & 22222222222222222222 &- 22222222222222222",
"2222222222222222222 &- 22222222222222222222 -& 22222222222222222",
"22222222222222222222222222222222222222222222 & 22222222222222222",
"2222222222222222222222222222222222222222222222222222222222222222",
"2222222222222222222222222222222222222222222222222222222222222222",
"2222222222222222222222222222222222222222222222222222222222222222",
"2222222222222222222222222222222222222222222222222222222222222222",
"2222222222222222222222222222222222222222222222222222222222222222"
};
