/* XPM */
static char *result[] = {
/* columns rows colors chars-per-pixel */
"64 64 20 1 ",
"  c black",
". c #2E323D",
"X c #393E5E",
"o c #652A4C",
"O c #4B3C72",
"+ c #474648",
"@ c #704046",
"# c #910833",
"$ c #BA2E28",
"% c #FF6533",
"& c #E23149",
"* c #D37C4E",
"= c #D8AE3E",
"- c #4C6EAD",
"; c #556BCC",
": c #929BB7",
"> c #F4C9A1",
", c #EDEFEF",
"< c #F0F2F2",
"1 c None",
/* pixels */
"1111111111111111111111111111111111111111111111111111111111111111",
"1111111111111111111111111111111111111111111111111111111111111111",
"1111111111111111111111111111111111111111111111111111111111111111",
"1111111111111111111111111111111111111111111111111111111111111111",
"1111111111111111111111111111111111111111111111111111111111111111",
"1111111111111111111111111111111111111111111111111111111111111111",
"1111111111111111111111111111111111111111111111111111111111111111",
"1111111111111111111111111111111111111111111111111111111111111111",
"1111111111111111111111111111111111111111111111111111111111111111",
"111111111111111111111111111111111 .  111111111111111111111111111",
"11111111111111111111111111111111 .  1111111111111111111111111111",
"1111111111111111111111111111111 .  11111111111111111111111111111",
"111111111111111111111111111111 ..  111      11111111111111111111",
"111111111111111111111111111111 ..  11 ...... 1111111111111111111",
"11111111111111111111111111111 ..   1 ...    . 111111111111111111",
"11111111111111111111111111111 ..    ...    . . 11111111111111111",
"11111111111111111111111111111 ..   ...    . 11111111111111111111",
"111111111111111111111111111  ...   ..    . 111111111111111111111",
"11111111111111111111111111   ...   .    .    1111111111111111111",
"11111111111111111111   111              ..... 111111111111111111",
"111111111111111111111  .        ...  ...    .. 11111111111111111",
"1111111111111111111111  ..     ..  . .  .     . 1111111111111111",
"11111111111111111111111  ...   ..    .   . 111111111111111111111",
"1111111111111111   .....  ..   ..         . 11111111111111111111",
"111111111111111111    ......    .   *     .  1111111111111111111",
"11111111111111111111             .  **    .   111111111111111111",
"1111111111111111111111           *.  *    1111111111111111111111",
"11111111111111111111           > **.<  1  1111111111111111111111",
"1111111111111111111111         >>***<+ 11 1111111111111111111111",
"111111111111111111111111       >>***>> 111   1111111111111111111",
"11111111111111111111111111     @@***>> 11 >>> 111111111111111111",
"1111111111111111111111111 %%$%%%@***> 1  *>*  111111111111111111",
"1111111111111111111111111 $$%XX-%@*>   ;;>>* 1111111111111111111",
"111111111111111111111111 %%%X--X-%  **   >>>> 111111111111111111",
"111111111111111111111111 :, *>>-X% ** >>     1111111111111111111",
"111111111111111111111111 , >>@@@ $$  >>* 11111111111111111111111",
"111111111111111111111111 , >>@*>>   >>>>> 1111111111111111111111",
"111111111111111111111111 .  *@>>>>;;>>**> 1111111111111111111111",
"111111111111111111111111 %..   *>>;;>>*> 11111111111111111111111",
"1111111111111111111111111  $$$$         111111111111111111111111",
"111111111111111111111111111 -$$$;; 11111111111111111111111111111",
"111111111111111111111111111 OOOOOO   111111111111111111111111111",
"11111111111111111111111111 %;;;;;%%$%  1111111111111111111111111",
"11111111111111111111111111 %%$%%%%%%$$$    111111111111111111111",
"11111111111111111111111111 $%$%%%%%%%%%%%%% 11111111111111111111",
"1111111111111111111111111 o$$$o$$$%%%$%%%%% 11111111111111111111",
"111111111111111111111111 oo$$$$o$$$$$%$%%%% 11111111111111111111",
"11111111111111111111111 $oo$$$$    $$%%$%%%o 1111111111111111111",
"11111111111111111111111 $oo$$$$ 111   $%$$$o$ 111111111111111111",
"11111111111111111111111 $ooooo 111111 oooo$o$ 111111111111111111",
"11111111111111111111111 o$ooo$ 111111 $ooooo$ 111111111111111111",
"111111111111111111111111 o$$$$ 111111 o$$oo$ 1111111111111111111",
"111111111111111111111111 X#   11111111  -$$ 11111111111111111111",
"11111111111111111111111 X#X 11111111111 &-- 11111111111111111111",
"11111111111111111111111 #X 111111111111 &- 111111111111111111111",
"11111111111111111111111 = 1111111111111 & 1111111111111111111111",
"1111111111111111111111 &- 111111111111 == 1111111111111111111111",
"1111111111111111111111 &- 111111111111 &- 1111111111111111111111",
"11111111111111111111111111111111111111 &-- 111111111111111111111",
"1111111111111111111111111111111111111111111111111111111111111111",
"1111111111111111111111111111111111111111111111111111111111111111",
"1111111111111111111111111111111111111111111111111111111111111111",
"1111111111111111111111111111111111111111111111111111111111111111",
"1111111111111111111111111111111111111111111111111111111111111111"
};
