/* XPM */
static char *result[] = {
/* columns rows colors chars-per-pixel */
"64 64 20 1 ",
"  c black",
". c #2E323D",
"X c #393E5E",
"o c #652A4C",
"O c #4B3C72",
"+ c #474648",
"@ c #704046",
"# c #BA2E28",
"$ c #F91B3C",
"% c #FF6533",
"& c #D37C4E",
"* c #D8AE3E",
"= c #4C6EAD",
"- c #556BCC",
"; c #839BA8",
": c #929BB7",
"> c #F4C9A1",
", c #EDEFEF",
"< c #F0F2F2",
"1 c None",
/* pixels */
"1111111111111111111111111111111111111111111111111111111111111111",
"1111111111111111111111111111111111111111111111111111111111111111",
"1111111111111111111111111111111111111111111111111111111111111111",
"1111111111111111111111111111111111111111111111111111111111111111",
"1111111111111111111111111111111111111111111111111111111111111111",
"11111111111111111111111111111   11111111111111111111111111111111",
"111111111111111111111111111111   1111111111111111111111111111111",
"1111111111111111111111111111111 . 111111111111111111111111111111",
"11111111111111111111111    1111  . 11111111111111111111111111111",
"111111111111111111111  .....  11 .. 1111111111111111111111111111",
"11111111111111111111 ..   .... 1  . 1111111111111111111111111111",
"1111111111111111111 .  .    ...   .. 111111111111111111111111111",
"1111111111111111111111  .    ...  .. 111111111111111111111111111",
"111111111111111111111111 .    ..  .. 111111111111111111111111111",
"1111111111111111111111111 .    .  ...  1111111111111111111111111",
"11111111111111111111111111 .            1111 .  1111111111111111",
"1111111111111111111111                   1 ..  11111111111111111",
"11111111111111111111  ......      ..      ..  111111111111111111",
"1111111111111111111 ..      ..   .  . .. ..  1111111111111111111",
"111111111111111111 .       ..   .    .  . ....   111111111111111",
"111111111111111111111      ..   .    .  .      11111111111111111",
"11111111111111111111111    ..   .       .    1111111111111111111",
"111111111111111111111111    .   &   >  .    11111111111111111111",
"1111111111111111111111      &.  &  >& .>       11111111111111111",
"111111111111111111111111    &@; & >& ; >     1111111111111111111",
"11111111111111111111111111  &@<< >> <<&> 11111111111111111111111",
"1111111111111111111111111111  &<+&&+<>  111111111111111111111111",
"11111111111111111111111111111 &&&>>>>& 1111111111111111111111111",
"111111111111111111111111111   @&&>>>&@   11111111111111111111111",
"111111111111111111111111   ##X&@&>>&@>=%#   11111111111111111111",
"111111111111111111111111 ==##X@@@@@@&&=#%== 11111111111111111111",
"111111111111111111111111 XX=%X&&&>&>>>=%=XX 11111111111111111111",
"111111111111111111111111 ==X#%X=======%%X== 11111111111111111111",
"11111111111111111111111 &&&=%#%XXXXXX,:%=&&& 1111111111111111111",
"11111111111111111111111 &>> %%#%XXXX%:,% >>& 1111111111111111111",
"11111111111111111111111 @>> %%##%%%%##%% >>@ 1111111111111111111",
"11111111111111111111111 @& 1  #######%  1 &@ 1111111111111111111",
"1111111111111111111111 &@ 1111 -####- 1111 @> 111111111111111111",
"1111111111111111111111 && 1111 OOOOOO 1111 >> 111111111111111111",
"1111111111111111111111 -- 111 %#----#% 111 -- 111111111111111111",
"1111111111111111111111 --  11 ##%o%#%# 11  -- 111111111111111111",
"1111111111111111111111 >>> 1 #%%%o%#%%# 1 >>> 111111111111111111",
"1111111111111111111111 >&& 1 %%%%o%#%%% 1 &&> 111111111111111111",
"1111111111111111111111 >&>  #%%%%o%#%%%#  >&> 111111111111111111",
"1111111111111111111111 >> 1 #%%%%o##%%%# 1 >> 111111111111111111",
"11111111111111111111111  1 o#%%%%oo%%%%#o 1  1111111111111111111",
"1111111111111111111111111 #o#%%%#  #%%%#o# 111111111111111111111",
"111111111111111111111111 ##o#%%#%  %#%%#o## 11111111111111111111",
"111111111111111111111111 #oo###% 11 %###oo# 11111111111111111111",
"111111111111111111111111 #oo##oo 11 oo##oo# 11111111111111111111",
"111111111111111111111111 #ooooo# 11 #ooooo# 11111111111111111111",
"1111111111111111111111111 #oo##o 11 o##oo# 111111111111111111111",
"1111111111111111111111111 o##o  1111  o##o 111111111111111111111",
"1111111111111111111111111 =$= 11111111 =$= 111111111111111111111",
"1111111111111111111111111 =$ 1111111111 $= 111111111111111111111",
"1111111111111111111111111 $= 1111111111 =$ 111111111111111111111",
"111111111111111111111111 ** 111111111111 ** 11111111111111111111",
"111111111111111111111111 $= 111111111111 =$ 11111111111111111111",
"11111111111111111111111 =$ 11111111111111 $= 1111111111111111111",
"1111111111111111111111111111111111111111111111111111111111111111",
"1111111111111111111111111111111111111111111111111111111111111111",
"1111111111111111111111111111111111111111111111111111111111111111",
"1111111111111111111111111111111111111111111111111111111111111111",
"1111111111111111111111111111111111111111111111111111111111111111"
};
