/* XPM */
static char *result[] = {
/* columns rows colors chars-per-pixel */
"64 64 22 1 ",
"  c black",
". c #2E323D",
"X c #775100",
"o c #393E5E",
"O c #652A4C",
"+ c #4B3C72",
"@ c #474648",
"# c #704046",
"$ c #910833",
"% c #BA2E28",
"& c #FF6533",
"* c #E23149",
"= c #D37C4E",
"- c #D8AE3E",
"; c #4C6EAD",
": c #556BCC",
"> c #839BA8",
", c #929BB7",
"< c #F4C9A1",
"1 c #EDEFEF",
"2 c #F0F2F2",
"3 c None",
/* pixels */
"3333333333333333333333333333333333333333333333333333333333333333",
"3333333333333333333333333333333333333333333333333333333333333333",
"3333333333333333333333333333333333333333333333333333333333333333",
"3333333333333333333333333333333333333333333333333333333333333333",
"3333333333333333333333333333333333333333333333333333333333333333",
"3333333333333333333333333333333333333333333333333333333333333333",
"3333333333333333333333333333333333333333333333333333333333333333",
"3333333333333333333333333333333333333333333333333333333333333333",
"333333333333333333333333333333333333.   333333333333333333333333",
"3333333333333333333333333333333333 .  33333333333333333333333333",
"333333333333333333333333333333333 .  333333333333333333333333333",
"33333333333333333333333333333333 .   333333333333333333333333333",
"3333333333333333333333333333333 ..  33      33333333333333333333",
"3333333333333333333333333333333 .   3 ...... 3333333333333333333",
"333333333333333333333333333333 ..   ....    . 333333333333333333",
"333333333333333333333333333333 ..   ..    .. . 33333333333333333",
"333333333333333333333333333333 ..   .    .  33333333333333333333",
"3333333333333333333333333333            . 3333333333333333333333",
"33333333333333333333  33333              33333333333333333333333",
"333333333333333333333   .33       ..  ..... 33333333333333333333",
"3333333333333333333333   .   ..  .  .  .  ... 333333333333333333",
"33333333333333333333333   . ..   .   .  .    . 33333333333333333",
"33333333333333333   ....  . ..        .  .      3333333333333333",
"3333333333333333333    .... ..  ==    .   .333333333333333333333",
"333333333333333333333        .  ===   =    333333333333333333333",
"33333333333333333333333       . ===<  < 3  333333333333333333333",
"33333333333333333333       =  =.   << < 33 333333333333333333333",
"3333333333333333333333     == ==#2> << 3333   333333333333333333",
"3333333333333333333333333  ==#===22@ < 333 <=< 33333333333333333",
"333333333333333333333333333  #====2@2< 333 <#=< 3333333333333333",
"3333333333333333333333333  %==#===<<<# 333 ##<= 3333333333333333",
"33333333333333333333333  &&%&==#=<<<#%  33 <=< 33333333333333333",
"3333333333333333333333 ;;%&&%&==####o% <  ;;< 333333333333333333",
"3333333333333333333  3 oo;%&&%&;====o% <=<;; 3333333333333333333",
"333333333333333333 <<  ;;o;&&&&&;;;;1 <==<< 33333333333333333333",
"333333333333333333 =<  <<;o&&%&&&ooo,  #    33333333333333333333",
"33333333333333333 <==##<<=;&&&%&&&;; 3  %&&& 3333333333333333333",
"33333333333333333 =<<=<#<= %&&%%&&&&  &&&&&& 3333333333333333333",
"333333333333333333 <=<<#= 3  %%%%%:+%&&&&&&& 3333333333333333333",
"3333333333333333333 <<:= 3333 :::++&&&%&&&&& 3333333333333333333",
"33333333333333333333 :: 3333  +++:O&&%&&%%%OO 333333333333333333",
"333333333333333333333  33333 &%%%&O&%&OOOOOO% 333333333333333333",
"3333333333333333333333333333 &%&%&O%%OO%OOOO% 333333333333333333",
"333333333333333333333333333 &%&&%&OOOOOO%%%%O 333333333333333333",
"333333333333333333333333333 %&&&%%O    ;O%%O 3333333333333333333",
"33333333333333333333333333 &&&&&%  333 ;;O  33333333333333333333",
"33333333333333333333333333 &&&&&O 333 -;* 3333333333333333333333",
"33333333333333333333333333 &&&&%O% 33 -* 33333333333333333333333",
"33333333333333333333333333 %&&&%O% 3 ;* 333333333333333333333333",
"333333333333333333333333333 %%%%O% 3 ;* 333333333333333333333333",
"3333333333333333333333333333 OOOO% 33;* 333333333333333333333333",
"3333333333333333333333333333 %OO%O 333;* 33333333333333333333333",
"3333333333333333333333333333 O%%Oo 33333333333333333333333333333",
"33333333333333333333333333333  o$o 33333333333333333333333333333",
"3333333333333333333333333333333 XX 33333333333333333333333333333",
"33333333333333333333333333333333 $; 3333333333333333333333333333",
"33333333333333333333333333333333 ;* 3333333333333333333333333333",
"333333333333333333333333333333333 * 3333333333333333333333333333",
"3333333333333333333333333333333333 33333333333333333333333333333",
"3333333333333333333333333333333333333333333333333333333333333333",
"3333333333333333333333333333333333333333333333333333333333333333",
"3333333333333333333333333333333333333333333333333333333333333333",
"3333333333333333333333333333333333333333333333333333333333333333",
"3333333333333333333333333333333333333333333333333333333333333333"
};
