/* XPM */
static char *result[] = {
/* columns rows colors chars-per-pixel */
"64 64 176 2 ",
"   c #F83302",
".  c #F83C00",
"X  c #F83E00",
"o  c #F84300",
"O  c #F84400",
"+  c #F84504",
"@  c #F84B03",
"#  c #F85400",
"$  c #F85405",
"%  c #F85800",
"&  c #F85900",
"*  c #F86500",
"=  c #F86600",
"-  c #F86700",
";  c #F76B03",
":  c #F76E00",
">  c #F86B00",
",  c #F86C00",
"<  c #F86D00",
"1  c #F86E00",
"2  c #F86F00",
"3  c #F77500",
"4  c #F77600",
"5  c #F77601",
"6  c #F87000",
"7  c #F87100",
"8  c #F87300",
"9  c #F87002",
"0  c #F87400",
"q  c #F87600",
"w  c #FA7700",
"e  c #F77D02",
"r  c #F87800",
"t  c #FA7B01",
"y  c #F87C00",
"u  c #F87E00",
"i  c #F87F00",
"p  c #FA7F00",
"a  c #FE7C00",
"s  c #F8760E",
"d  c #F87724",
"f  c #F8723C",
"g  c #F78200",
"h  c #F88100",
"j  c #F88200",
"k  c #F88300",
"l  c #FD8100",
"z  c #FF8300",
"x  c #F88400",
"c  c #F88500",
"v  c #FD8500",
"b  c #FD8700",
"n  c #F88800",
"m  c #F88A00",
"M  c #F88B00",
"N  c #FF8900",
"B  c #FD8A00",
"V  c #FD8B00",
"C  c #FF8A00",
"Z  c #F88C00",
"A  c #F88F00",
"S  c #FE8C00",
"D  c #FF8D00",
"F  c #F98807",
"G  c #F7820B",
"H  c #F1810E",
"J  c #F18D09",
"K  c #F78D0F",
"L  c #FA8B0B",
"P  c #FB8F0F",
"I  c #F89000",
"U  c #F89100",
"Y  c #F89200",
"T  c #FD9000",
"R  c #FF9200",
"E  c #FF9300",
"W  c #F89400",
"Q  c #F89600",
"!  c #F89700",
"~  c #F79B01",
"^  c #F89800",
"/  c #F89A00",
"(  c #F89B00",
")  c #FF9900",
"_  c #FF9B00",
"`  c #F89C00",
"'  c #F89F00",
"]  c #F99F03",
"[  c #FA8315",
"{  c #FF8C19",
"}  c #F39417",
"|  c #F89118",
" . c #FE901A",
".. c #FF981F",
"X. c #FA9E1C",
"o. c #F7A101",
"O. c #F8A000",
"+. c #FEA000",
"@. c #FFA300",
"#. c #F8A400",
"$. c #F8A500",
"%. c #F8A502",
"&. c #F8A800",
"*. c #F8AA00",
"=. c #F8AB00",
"-. c #F8AA01",
";. c #F8AB03",
":. c #F8AF00",
">. c #FFAF03",
",. c #FDAE0A",
"<. c #F8B100",
"1. c #F8B300",
"2. c #F8BB00",
"3. c #F8B803",
"4. c #F7B40D",
"5. c #F8B20A",
"6. c #F8B70A",
"7. c #F8BB0A",
"8. c #F8BE0B",
"9. c #F8B311",
"0. c #F8B217",
"q. c #F8BB15",
"w. c #F8B519",
"e. c #F8B918",
"r. c #F19C20",
"t. c #FBA422",
"y. c #F8AD25",
"u. c #FFB92A",
"i. c #F8C101",
"p. c #F8C804",
"a. c #F7C110",
"s. c #F8C715",
"d. c #F8CE10",
"f. c #FDC21B",
"g. c #F8C51C",
"h. c #F8C423",
"j. c #F9C524",
"k. c #F8C732",
"l. c #FFC335",
"z. c #F7C834",
"x. c #F8CA3B",
"c. c #F8D439",
"v. c #F8A152",
"b. c #FAD24C",
"n. c #F8D24E",
"m. c #F7CE51",
"M. c #F8CF52",
"N. c #F8D75F",
"B. c #F8DD5B",
"V. c #F8D861",
"C. c #FDE473",
"Z. c #FAE574",
"A. c #F8E679",
"S. c #F8DB84",
"D. c #F8DA89",
"F. c #F8E187",
"G. c #FEEE85",
"H. c #FEE58D",
"J. c #F7E792",
"K. c #F8E39A",
"L. c #F8E99B",
"P. c #F8EF9C",
"I. c #F8DAA6",
"U. c #F8D7A9",
"Y. c #F8E2A0",
"T. c #F8EAA4",
"R. c #F8EDA4",
"E. c #FDF1AC",
"W. c #FDF3AD",
"Q. c #F8E6BC",
"!. c #F7EFBB",
"~. c #F8ECB9",
"^. c #F8EEBD",
"/. c #F8EBC7",
"(. c #F8F2CA",
"). c None",
/* pixels */
").).).).).).).).).).).).).).).).).).).).).).).).).).).).).).).).).).).).).).).).).).).).).).).).).).).).).).).).).).).).).).).).",
").).).).).).).).).).).).).).).).).).).).).).).).).).).).).).).).).).).).).).).).).).).).).).).).).).).).).).).).).).).).).).).).",
").).).).).).).).).).).).).).).).).).).).).).).).).).).).).).).).).).).).).).).).).).).).).).).).).).).).).).).).).).).).).).).).",
").).).).).).).).).).).).).).).).).).).).).).).).).).).).).).).).).).).).).).).).).).).).).).).).).).).).).).).).).).).).).).).).",
").).).).).).).).).).).).).).).).).).).).).).).).).).).).).).).).).).).).).).).).).).).).).).).).).).).).).).).).).).).).).).).).",
").).).).).).).).).).).).).).).).).).).).).).).).).).).).).).).).).).).).).).).).).).).).).).).).).).).).).).).).).).).).).).).).",
").).).).).).).).).).).).).).).).).).).).).).).).).).).).).).).).).).).).).).).).).).).).).).).).).).).).).).).).).).).).).).).).",
").).).).).).).).).).).).).).).).).).).).).).).).).).).).).).).).).).).).).).).).).).).).).).).).).).).).).).).).).).).).).).).).",
").).).).).).).).).).).).).).).).).).).).).).).).).).).).).).).).).).).).).).).).).).).).).).).).).).).).).).).).).).).).).).).).",
").).).).).).).).).).).).).).).).).).).).).).).).).).).).).).).).).).).).).).).).).).).).).).).).).).).).).).).).).).).).).).).).",
").).).).).).).).).).).).).).).).).).).).).).).).).).).).).).).).).).).).).).).).).).).).).).).).).).).).).).).).).).).).).).).).",
").).).).).).).).).).).).).).).).).).).).).).).).).).).).).).).).).).).).).).).).).).).).).).).).).).).).).).).).).).).).).).).).",
").).).).).).).).).).).).).).).).).).).).).).).).).).).).).).).).).).).).).).).).).).).).).).).).).).).).).).).).).).).).).).).).",
").).).).).).).).).).).).).).).).).).).).).).).).).).).).).).).).).).).).).).).).).).).).).).).).).).).).).).).).).).).).).).).).",
").).).).).).).).).).).).).).).).).).).).).).).).).).).).).).).).).).).).).).).).).).).).).).).).).).).).).).).).).).).).).).).).",
").).).).).).).).).).).).).).).).).).).).).).).).).).).).).).).).).).).).).).).).).).).).).).).).).).).).).).).).).).).).).).).).",
").).).).).).).).).).).).).).).).).).).).).).).).).).).).).).).).).).).).).).).).).).).).).).).).).).).).).).).).).).).).).).).).",
").).).).).).).).).).).).).).).).).).).).).).).).).).).).).).).).).).).).).).).).).).).).).).).).).).).).).).).).).).).).).).).).",
").).).).).).).).).).).).).).).).).).).).).).).).).).).).).).).).).).).).).).).).).).).).).).).).).).).).).).).).).).).).).).).).",
").).).).).).).).).).).).).).).).).).).).).).).).).).).).).).).).).).).).).).).).).).).).).).).).).).).).).).).).).).).).).).).).",
").).).).).).).).).).).).).).).).).).).).).).).).).).).).).).).).).).).).).).).).).).).).).).).).).).).).).).).).).).).).).).).).",
").).).).).).).).).).).).).).).).).).).).).).).).).).).).).).).).).).).).).).).).).).).).).).).).).).).).).).).).).).).).).).).).",
").).).).).).).).).).).).).).).).).).).).).).).).).).).).).G G G G G ).).).).).).).).).).).).).).).).).).).).).).).).).).).).).).",
").).).).).).).).).).).).).).).).).).).).).).).).).).).G G @.) _ E C G G ).).).).).).).).).).).).).).).).).).).).).).).).).).).).",
").).).).).).).).).).).).).).).).).).).).).).).).).G G t.l.b.z.a.4.~ L { G G ).).).).).).).).).).).).).).).).).).).).).).).).).).",
").).).).).).).).).).).).).).).).).).).).).).).).G V u.H.T.Y.D.x.q.' k s  ...G ).).).).).).).).).).).).).).).).).).).).).).).).).",
").).).).).).).).).).).).).).).).).).).).).).).).G >.Z.!./.^.L.N.h.:.Y < g X. .).).).).).).).).).).).).).).).).).).).).).).).).).",
").).).).).).).).).).).).).).).).).).).).).).).G J f.J.(.I.Q.P.V.e.<.! i M o.,. .).).).).).).).).).).).).).).).).).).).).).).).).",
").).).).).).).).).).).).).).).).).).).).).).).G R g.A.U.f v.S.n.p.1.` W ` 6.c.,.).).).).).).).).).).).).).).).).).).).).).).).).",
").).).).).).).).).).).).).).).).).).).).).).G G +.7.k.d   + y.s.2.&./ / 5.M.K.G.,.).).).).).).).).).).).).).).).).).).).).).).).",
").).).).).).).).).).).).).).).).).).).).).).G V V #.d.| @ $ 8.i.*.^ n ^ w.F.~.W.,.).).).).).).).).).).).).).).).).).).).).).).).",
").).).).).).).).).).).).).).).).).).).).).).G l T ^ -.;.=.%.3.=.I m U ( 9.B.R.E...).).).).).).).).).).).).).).).).).).).).).).).",
").).).).).).).).).).).).).).).).).).).).).).G l b A Y Q O.$.' ^ I U j Z ' 0.m.C...).).).).).).).).).).).).).).).).).).).).).).).",
").).).).).).).).).).).).).).).).).).).).).).G z B h k j x A A m k k > # Z M ] j...).).).).).).).).).).).).).).).).).).).).).).).",
").).).).).).).).).).).).).).).).).).).).).).).G S c u r 8 8 8 7 r = o . % j F G } ).).).).).).).).).).).).).).).).).).).).).).).",
").).).).).).).).).).).).).).).).).).).).).).).G N n q y 7 < 2 2 1 > O X & j K G ).).).).).).).).).).).).).).).).).).).).).).).).",
").).).).).).).).).).).).).).).).).).).).).).).).H v 3 < 6 6 6 6 6 7 * - = e G r.).).).).).).).).).).).).).).).).).).).).).).).).",
").).).).).).).).).).).).).).).).).).).).).).).).G N p : 1 6 6 6 6 6 0 1 ; [ G ).).).).).).).).).).).).).).).).).).).).).).).).).",
").).).).).).).).).).).).).).).).).).).).).).).).).G G a 6 1 < < < < , 9 G G ).).).).).).).).).).).).).).).).).).).).).).).).).).",
").).).).).).).).).).).).).).).).).).).).).).).).).).).G G w 4 4 4 5 t G P ).).).).).).).).).).).).).).).).).).).).).).).).).).).",
").).).).).).).).).).).).).).).).).).).).).).).).).).).).).G G G G G D ).).).).).).).).).).).).).).).).).).).).).).).).).).).).).",
").).).).).).).).).).).).).).).).).).).).).).).).).).).).).).).).).).).).).).).).).).).).).).).).).).).).).).).).).).).).).).).).",
").).).).).).).).).).).).).).).).).).).).).).).).).).).).).).).).).).).).).).).).).).).).).).).).).).).).).).).).).).).).).).).).",
").).).).).).).).).).).).).).).).).).).).).).).).).).).).).).).).).).).).).).).).).).).).).).).).).).).).).).).).).).).).).).).).",
").).).).).).).).).).).).).).).).).).).).).).).).).).).).).).).).).).).).).).).).).).).).).).).).).).).).).).).).).).).).).).).).",
").).).).).).).).).).).).).).).).).).).).).).).).).).).).).).).).).).).).).).).).).).).).).).).).).).).).).).).).).).).).).).).).",
").).).).).).).).).).).).).).).).).).).).).).).).).).).).).).).).).).).).).).).).).).).).).).).).).).).).).).).).).).).).).).).).",
").).).).).).).).).).).).).).).).).).).).).).).).).).).).).).).).).).).).).).).).).).).).).).).).).).).).).).).).).).).).).).).).",
").).).).).).).).).).).).).).).).).).).).).).).).).).).).).).).).).).).).).).).).).).).).).).).).).).).).).).).).).).).).).).).).",
").).).).).).).).).).).).).).).).).).).).).).).).).).).).).).).).).).).).).).).).).).).).).).).).).).).).).).).).).).).).).).).).",
").).).).).).).).).).).).).).).).).).).).).).).).).).).).).).).).).).).).).).).).).).).).).).).).).).).).).).).).).).).).).).).).",
").).).).).).).).).).).).).).).).).).).).).).).).).).).).).).).).).).).).).).).).).).).).).).).).).).).).).).).).).).).).).).).).",
").).).).).).).).).).).).).).).).).).).).).).).).).).).).).).).).).).).).).).).).).).).).).).).).).).).).).).).).).).).).).).).).",
").).).).).).).).).).).).).).).).).).).).).).).).).).).).).).).).).).).).).).).).).).).).).).).).).).).).).).).).).).).).).).).).",
").).).).).).).).).).).).).).).).).).).).).).).).).).).).).).).).).).).).).).).).).).).).).).).).).).).).).).).).).).).).).).).).",
").).).).).).).).).).).).).).).).).).).).).).).).).).).).).).).).).).).).).).).).).).).).).).).).).).).).).).).).).).).).).).).).",
").).).).).).).).).).).).).).).).).).).).).).).).).).).).).).).).).).).).).).).).).).).).).).).).).).).).).).).).).).).).).).).).",
").).).).).).).).).).).).).).).).).).).).).).).).).).).).).).).).).).).).).).).).).).).).).).).).).).).).).).).).).).).).).).).).",
").).).).).).).).).).).).).).).).).).).).).).).).).).).).).).).).).).).).).).).).).).).).).).).).).).).).).).).).).).).).).).).).",
").).).).).).).).).).).).).).).).).).).).).).).).).).).).).).).).).).).).).).).).).).).).).).).).).).).).).).).).).).).).).).).).",
").).).).).).).).).).).).).).).).).).).).).).).).).).).).).).).).).).).).).).).).).).).).).).).).).).).).).).).).).).).).).).).).",
").).).).).).).).).).).).).).).).).).).).).).).).).).).).).).).).).).).).).).).).).).).).).).).).).).).).).).).).).).).).).).).).",
").).).).).).).).).).).).).).).).).).).).).).).).).).).).).).).).).).).).).).).).).).).).).).).).).).).).).).).).).).).).).).).).",
").).).).).).).).).).).).).).).).).).).).).).).).).).).).).).).).).).).).).).).).).).).).).).).).).).).).).).).).).).).).).).).)."
};
