/* XPM */
static char *result[] = {
/* columns rows colors chars-per-pixel */
"64 64 21 1 ",
"  c #F83800",
". c #F84800",
"X c #F87000",
"o c #F89800",
"O c #F8A000",
"+ c #F8B800",
"@ c #F8B818",
"# c #F8D800",
"$ c #F8A040",
"% c #E0B840",
"& c #F8A078",
"* c #F8D040",
"= c #F8D078",
"- c #F8E878",
"; c #F8D0A8",
": c #F8E8A8",
"> c #F8F8A8",
", c #F8D0C8",
"< c #F8E8C8",
"1 c #F8F8C8",
"2 c None",
/* pixels */
"2222222222222222222222222222222222222222222222222222222222222222",
"2222222222222222222222222222222222222222222222222222222222222222",
"2222222222222222222222222222222222222222222222222222222222222222",
"2222222222222222222222222222222222222222222222222222222222222222",
"2222222222222222222222222222222222222222222222222222222222222222",
"2222222222222222222222222222222222222222222222222222222222222222",
"2222222222222222222222222222222222222222222222222222222222222222",
"2222222222222222222222222222222222222222222222222222222222222222",
"2222222222222222222222222222222222222222222222222222222222222222",
"2222222222222222222222222222222222222222222222222222222222222222",
"2222222222222222222222222222222222222222222222222222222222222222",
"2222222222222222222222222222222222222222222222222222222222222222",
"2222222222222222222222222222222222222222222222222222222222222222",
"2222222222222222222222222222222222222222222222222222222222222222",
"2222222222222222222222222222222222222222222222222222222222222222",
"2222222222222222222222222222222222222222222222222222222222222222",
"2222222222222222222222222222222222222222222222222222222222222222",
"2222222222222222222222222222222222222222222222222222222222222222",
"2222222222222222222222222222222222222222222222222222222222222222",
"2222222222222222222222222222XXXXXXXX2222222222222222222222222222",
"22222222222222222222222222XX++O+OOo$XX22222222222222222222222222",
"222222222222222222222222XX@**@@+@ooo$$XX222222222222222222222222",
"22222222222222222222222X@=-===*@@OoXX$$$X22222222222222222222222",
"2222222222222222222222X@=:::::=*@+ooXXo$$X2222222222222222222222",
"222222222222222222222X+*-:<<::-**+OoXXXo$*X222222222222222222222",
"222222222222222222222X@*:<><1:-=@++oXoooO$X222222222222222222222",
"22222222222222222222XO@*::,$;:-*@+OoXXoO+@*X22222222222222222222",
"22222222222222222222XO+*-:& $-=*#++X XO+***X22222222222222222222",
"2222222222222222222Xoo+@*... X*+++. ..X*=:--X2222222222222222222",
"2222222222222222222XooO+@*  .@#++Oo   @=:::-X2222222222222222222",
"2222222222222222222XoXo++@.o.@++Ooo.X.@-::::X2222222222222222222",
"2222222222222222222XooooO++++++OoXoooO@*-::-X2222222222222222222",
"2222222222222222222XoXooooOOOOoooooXooo@*=-=X2222222222222222222",
"2222222222222222222XooXoXoXoooooXoXoXoooo@**X2222222222222222222",
"2222222222222222222XoXoXoXoXoXoXoXoXoXoXoo@%X2222222222222222222",
"2222222222222222222XooXoXXXXXXXX.XXoXXXoXo$@X2222222222222222222",
"22222222222222222222XooXXoXXXXX...XXXXXXoX@X22222222222222222222",
"22222222222222222222XoXoXXXXXX.....XXXXoX$@X22222222222222222222",
"222222222222222222222XoXXXXXXXX   XXXXXXX@X222222222222222222222",
"222222222222222222222XooXXXXXXX.X.XXXXXX$@X222222222222222222222",
"2222222222222222222222XooXXXXXXXXXXXXXX$@X2222222222222222222222",
"22222222222222222222222XooXXXXXXXXXXXX$@X22222222222222222222222",
"222222222222222222222222XXooXXXXXXXXo@XX222222222222222222222222",
"22222222222222222222222222XXooooooo@XX22222222222222222222222222",
"2222222222222222222222222222XXXXXXXX2222222222222222222222222222",
"2222222222222222222222222222222222222222222222222222222222222222",
"2222222222222222222222222222222222222222222222222222222222222222",
"2222222222222222222222222222222222222222222222222222222222222222",
"2222222222222222222222222222222222222222222222222222222222222222",
"2222222222222222222222222222222222222222222222222222222222222222",
"2222222222222222222222222222222222222222222222222222222222222222",
"2222222222222222222222222222222222222222222222222222222222222222",
"2222222222222222222222222222222222222222222222222222222222222222",
"2222222222222222222222222222222222222222222222222222222222222222",
"2222222222222222222222222222222222222222222222222222222222222222",
"2222222222222222222222222222222222222222222222222222222222222222",
"2222222222222222222222222222222222222222222222222222222222222222",
"2222222222222222222222222222222222222222222222222222222222222222",
"2222222222222222222222222222222222222222222222222222222222222222",
"2222222222222222222222222222222222222222222222222222222222222222",
"2222222222222222222222222222222222222222222222222222222222222222",
"2222222222222222222222222222222222222222222222222222222222222222",
"2222222222222222222222222222222222222222222222222222222222222222",
"2222222222222222222222222222222222222222222222222222222222222222"
};
