/* XPM */
static char *result[] = {
/* columns rows colors chars-per-pixel */
"64 64 20 1 ",
"  c #F83800",
". c #F84800",
"X c #F87000",
"o c #F89800",
"O c #F8A000",
"+ c #F8B800",
"@ c #F8B818",
"# c #F8D800",
"$ c #F8A040",
"% c #E0B840",
"& c #F8A078",
"* c #F8B878",
"= c #F8D040",
"- c #F8D078",
"; c #F8E878",
": c #F8D0A8",
"> c #F8E8A8",
", c #F8F8A8",
"< c #F8E8C8",
"1 c None",
/* pixels */
"1111111111111111111111111111111111111111111111111111111111111111",
"1111111111111111111111111111111111111111111111111111111111111111",
"1111111111111111111111111111111111111111111111111111111111111111",
"1111111111111111111111111111111111111111111111111111111111111111",
"1111111111111111111111111111111111111111111111111111111111111111",
"1111111111111111111111111111111111111111111111111111111111111111",
"1111111111111111111111111111111111111111111111111111111111111111",
"1111111111111111111111111111111111111111111111111111111111111111",
"1111111111111111111111111111111111111111111111111111111111111111",
"1111111111111111111111111111111111111111111111111111111111111111",
"1111111111111111111111111111111111111111111111111111111111111111",
"1111111111111111111111111111111111111111111111111111111111111111",
"1111111111111111111111111111111111111111111111111111111111111111",
"1111111111111111111111111111111111111111111111111111111111111111",
"1111111111111111111111111111111111111111111111111111111111111111",
"1111111111111111111111111111111111111111111111111111111111111111",
"1111111111111111111111111111111111111111111111111111111111111111",
"1111111111111111111111111111111111111111111111111111111111111111",
"1111111111111111111111111111111111111111111111111111111111111111",
"1111111111111111111111111111XXXXXXXX1111111111111111111111111111",
"11111111111111111111111111XX++O+OOo$XX11111111111111111111111111",
"111111111111111111111111XX@==@@+@ooo$$XX111111111111111111111111",
"11111111111111111111111X@-;---=@@OoXX$$$X11111111111111111111111",
"1111111111111111111111X@->>:$:-=@+oo.Xo$$X1111111111111111111111",
"111111111111111111111X+=;><&.$;==+OX..Xo$=X111111111111111111111",
"111111111111111111111X@=><.   X-@+. ..XoO$X111111111111111111111",
"11111111111111111111XO@=>><. .;=@+O   oO+@=X11111111111111111111",
"11111111111111111111XO+=;>,.*.-=#++.X.O+===X11111111111111111111",
"1111111111111111111Xoo+@=;>>;-=+++OooO+=->;;X1111111111111111111",
"1111111111111111111XooO+@====@#+XooooO@->>>;X1111111111111111111",
"1111111111111111111XoXo+X@#@#@+X.XoXoO@-$:>>X1111111111111111111",
"1111111111111111111XoooX.X++++ .. XooO@$ $>;X1111111111111111111",
"1111111111111111111XoX. ..XoOOo  .oXoo  . X-X1111111111111111111",
"1111111111111111111XooX   Xoooo.X XoXoo  .==X1111111111111111111",
"1111111111111111111XoXo.X.oXoXoXoXoXoXo.X.@%X1111111111111111111",
"1111111111111111111XooXoXXXXXXXXXXXoXXXoXo$@X1111111111111111111",
"11111111111111111111XooXXoXX.XXXXXXX.XXXoX@X11111111111111111111",
"11111111111111111111XoXoXXX...XXXXX...XoX$@X11111111111111111111",
"111111111111111111111XoXXX.....XXX.....XX@X111111111111111111111",
"111111111111111111111XooXXX   XXXXX   XX$@X111111111111111111111",
"1111111111111111111111XooXX.X XXXXX.X X$@X1111111111111111111111",
"11111111111111111111111XooXXXXXXXXXXXX$@X11111111111111111111111",
"111111111111111111111111XXooXXXXXXXXo@XX111111111111111111111111",
"11111111111111111111111111XXooooooo@XX11111111111111111111111111",
"1111111111111111111111111111XXXXXXXX1111111111111111111111111111",
"1111111111111111111111111111111111111111111111111111111111111111",
"1111111111111111111111111111111111111111111111111111111111111111",
"1111111111111111111111111111111111111111111111111111111111111111",
"1111111111111111111111111111111111111111111111111111111111111111",
"1111111111111111111111111111111111111111111111111111111111111111",
"1111111111111111111111111111111111111111111111111111111111111111",
"1111111111111111111111111111111111111111111111111111111111111111",
"1111111111111111111111111111111111111111111111111111111111111111",
"1111111111111111111111111111111111111111111111111111111111111111",
"1111111111111111111111111111111111111111111111111111111111111111",
"1111111111111111111111111111111111111111111111111111111111111111",
"1111111111111111111111111111111111111111111111111111111111111111",
"1111111111111111111111111111111111111111111111111111111111111111",
"1111111111111111111111111111111111111111111111111111111111111111",
"1111111111111111111111111111111111111111111111111111111111111111",
"1111111111111111111111111111111111111111111111111111111111111111",
"1111111111111111111111111111111111111111111111111111111111111111",
"1111111111111111111111111111111111111111111111111111111111111111",
"1111111111111111111111111111111111111111111111111111111111111111"
};
