/* XPM */
static char *result[] = {
/* columns rows colors chars-per-pixel */
"52 52 176 2 ",
"   c #161200",
".  c #2F080B",
"X  c #340000",
"o  c #2A0914",
"O  c #1C2F02",
"+  c #382505",
"@  c #332800",
"#  c #223307",
"$  c #1D002E",
"%  c #071828",
"&  c #190A31",
"*  c #180039",
"=  c #0B1036",
"-  c #11103C",
";  c #300D25",
":  c #2E0033",
">  c #2D1B33",
",  c #132F33",
"<  c #212524",
"1  c #480D05",
"2  c #5C0700",
"3  c #5C000C",
"4  c #5E011E",
"5  c #6F0205",
"6  c #6C130F",
"7  c #5F3411",
"8  c #6D1C21",
"9  c #542424",
"0  c #592925",
"q  c #334120",
"w  c #394B35",
"e  c #474B0E",
"r  c #7E5601",
"t  c #766400",
"y  c #7F6700",
"u  c #2E1C44",
"i  c #333856",
"p  c #393C5D",
"a  c #2D3363",
"s  c #373066",
"d  c #242A74",
"f  c #481945",
"g  c #3B484E",
"h  c #575B67",
"j  c #A81C1D",
"k  c #97290E",
"l  c #B83F00",
"z  c #803A21",
"x  c #A43B26",
"c  c #F80000",
"v  c #EA1100",
"b  c #F01A00",
"n  c #D02700",
"m  c #C23000",
"M  c #CB2E1B",
"N  c #A84E08",
"B  c #AB4C0A",
"V  c #B7521A",
"C  c #A36005",
"Z  c #8F4828",
"A  c #C45800",
"S  c #DB5607",
"D  c #F94103",
"F  c #E85100",
"G  c #E05A00",
"H  c #FF5900",
"J  c #EA5F10",
"K  c #C26700",
"L  c #DC6200",
"P  c #D86400",
"I  c #D26C00",
"U  c #C67800",
"Y  c #DE7E00",
"T  c #DC7D09",
"R  c #D66310",
"E  c #D47E11",
"W  c #ED6300",
"Q  c #F76802",
"!  c #FB6B00",
"~  c #E17300",
"^  c #E77200",
"/  c #FF7A0A",
"(  c #F46018",
")  c #F87614",
"_  c #CF5B22",
"`  c #C64630",
"'  c #C7493A",
"]  c #FF5C34",
"[  c #D57A21",
"{  c #FF702E",
"}  c #E4783A",
"|  c #F87036",
" . c #CA8900",
".. c #DF8702",
"X. c #DE890C",
"o. c #E18500",
"O. c #E38500",
"+. c #ED9108",
"@. c #F59500",
"#. c #F79601",
"$. c #CFA300",
"%. c #CBA400",
"&. c #DFA300",
"*. c #D6A90E",
"=. c #C9B100",
"-. c #D4B503",
";. c #DEB700",
":. c #D7BD08",
">. c #E6A100",
",. c #F7A300",
"<. c #F4AE00",
"1. c #F6AB07",
"2. c #F9AC00",
"3. c #EDB400",
"4. c #E1BB00",
"5. c #FFB103",
"6. c #FFB007",
"7. c #FFB504",
"8. c #F0BB00",
"9. c #FFBB00",
"0. c #FDB70A",
"q. c #E8AF1A",
"w. c #E6B010",
"e. c #EDB11F",
"r. c #F1B111",
"t. c #FFB214",
"y. c #F5BF15",
"u. c #FFBD11",
"i. c #FFB919",
"p. c #FF8F2E",
"a. c #FC9E20",
"s. c #FF902F",
"d. c #FFBA20",
"f. c #FFBB21",
"g. c #F7BA2C",
"h. c #EEA03B",
"j. c #F2B737",
"k. c #DBC812",
"l. c #D9DC13",
"z. c #E5C700",
"x. c #E7CB06",
"c. c #FFC200",
"v. c #FDC400",
"b. c #FCC707",
"n. c #F2CB00",
"m. c #FAC800",
"M. c #FACF04",
"N. c #FFCC0A",
"B. c #EDC21D",
"V. c #ECCD1B",
"C. c #FFCD10",
"Z. c #FFC31E",
"A. c #EBE700",
"S. c #FFE314",
"D. c #FDC321",
"F. c #F0CE22",
"G. c #FCC52C",
"H. c #FFCB28",
"J. c #FFDE26",
"K. c #F0DE34",
"L. c #FFD63F",
"P. c #E4E934",
"I. c #888B46",
"U. c #A2914B",
"Y. c #FFCB41",
"T. c #FFFF48",
"R. c #FFFA56",
"E. c #F2F05B",
"W. c #FFD163",
"Q. c #F2DD6A",
"!. c #FFE26A",
"~. c #FFFF71",
"^. c #F4F396",
"/. c #FFF994",
"(. c #FCFFC8",
"). c None",
/* pixels */
").).).).).).).).).).).).).).).).).).).).).).).).).).).).).).).).).).).).).).).).).).).).).).).).).).).).",
").).).).).).).).).).).).).).).).).).).).).).).).).).).).).).).).).).).).).).).).).).).).).).).).).).).).",
").).).).).).).).).).).).).).).).).).).).).).).).).).).).).).).).).).).).).).).).).).).).).).).).).).).).",
").).).).).).).).).).).).).).).).).).).).).).).).).).).).).).).).).).).).).).).).).).).).).).).).).).).).",
").).).).).).).).).).).).).).).).).).).).).).).).).).).).).).).).).).).).).).).).).).).).).).).).).).).).",
").).).).).).).).).).).).).).).).).).).).).).).).).).).).).).).).).).).).).).).).).).).).).).).).).).).).",
").).).).).).).).).).).).).).).).).).).).).).).).).).).).).).).).).).).).).).).).).).).).).).).).).).).).",
").).).).).).).).).).).).).).).).).).).).).).).).).).).).).).).).).).).).).).).).).).).).).).).).).).).).",
").).).).).).).).).).).).).).).).).).).).).).).).).).).).).).).).).).).).).).).).).).).).).).).).).).).).",
").).).).).).).).).).).).).).).).).).).).).).).).).).).).).).).).).).).).).).).).).).).).).).).).).).).).",
").).).).).).).).).).).).).).).).).).).).).).).).).).).).).).).).).).).).).).).).).).).).).).).).).).).).",
").).).).).).).).).).).).).).).).).).).).).).).).).).).).).).).).).).).).).).).).).).).).).).).).).).).).",
").).).).).).).).).).).).).).).).).).).).).).).).).).).).).).).).).).).).).).).).).).).).).).).).).).).).",
").).).).).).).).).).).).).).).).).).).).).).).).).).).).).).).).).).).).).).).).).).).).).).).).).).).).",
").).).).).).).).).).).).).).).).).).).).).).).).).).).).).).).).).).).).).).).).).).).).).).).).).).).).",
").).).).).).).).).).).).).).).).).).).).).).).).).).).).).).).).).).).).).).).).).).).).).).).).).).).).",
").).).).).).).).).).).).).).).).).).).).).).).).).).).).).).).).).).).).).).).).).).).).).).).).).).).).",
").).).).).).).).).).).).).).).).).).).).).).).).).).).).).).).).).).).).).).).).).).).).).).).).).).).).",
").).).).).).).).).).).).).).).).).).).).).).).i q # O w ).).).).).).).).).).).).).).).).).).).).).).).).",
").).).).).).).).).).).).).).).).).).).).).p + y K.R.~.Q.e , ).).).).).).).).).).).).).).).).).).).).).).",
").).).).).).).).).).).).).).).).).).).).= t J.S.$.0.Y !./.(.g ).).).).).).).).).).).).).).).).).).).).).",
").).).).).).).).).).).).).).).).).).).d U.;.3.8.M./ n m j.E.^.h ).).).).).).).).).).).).).).).).).).).).",
").).).).).).).).).).).).).).).).).).).  :.v.i.G.x.{ b D t.A.T.I.).).).).).).).).).).).).).).).).).).).).",
").).).).).).).).).).).).).).).).).).% r d.&.l.P.*.C.%.g.Z.z.4.W.@ ).).).).).).).).).).).).).).).).).).).",
").).).).).).).).).).).).).).).).).).< C ,.c.6.! H 9.F.q.u.n.b.h.7 ).).).).).).).).).).).).).).).).).).).",
").).).).).).).).).).).).).).).).).).* x E Y.s.v c >.V.w.7.m.2.R 2 ).).).).).).).).).).).).).).).).).).).",
").).).).).).).).).).).).).).).).).).$ k T y.r.~ J <.-.D.5.N.#.| 5 ).).).).).).).).).).).).).).).).).).).",
").).).).).).).).).).).).).).).).).).s 6 S O.=.k.L.H.B.f.@.1.I ` 4 ).).).).).).).).).).).).).).).).).).).",
").).).).).).).).).).).).).).).).).).).: j ( .. .a.+.e.o.^ X.N 3 ).).).).).).).).).).).).).).).).).).).).",
").).).).).).).).).).).).).).).).).).).).0 _ Q G L A U P W [ Z f ).).).).).).).).).).).).).).).).).).).).",
").).).).).).).).).).).).).).).).).).).).).9 M ] } p.K ) F B 1 ).).).).).).).).).).).).).).).).).).).).).",
").).).).).).).).).).).).).).).).).).).).).).& 8 ' l V z o - ).).).).).).).).).).).).).).).).).).).).).).",
").).).).).).).).).).).).).).).).).).).).).).).u ; X . > a ).).).).).).).).).).).).).).).).).).).).).).).",
").).).).).).).).).).).).).).).).).).).).).).).).).).).).).).).).).).).).).).).).).).).).).).).).).).).).",
").).).).).).).).).).).).).).).).).).).).).).).).).).).).).).).).).).).).).).).).).).).).).).).).).).).).",
").).).).).).).).).).).).).).).).).).).).).).).).).).).).).).).).).).).).).).).).).).).).).).).).).).).).",
").).).).).).).).).).).).).).).).).).).).).).).).).).).).).).).).).).).).).).).).).).).).).).).).).).).).",
").).).).).).).).).).).).).).).).).).).).).).).).).).).).).).).).).).).).).).).).).).).).).).).).).).).).",
").).).).).).).).).).).).).).).).).).).).).).).).).).).).).).).).).).).).).).).).).).).).).).).).).).).).",
").).).).).).).).).).).).).).).).).).).).).).).).).).).).).).).).).).).).).).).).).).).).).).).).).).).).",
").).).).).).).).).).).).).).).).).).).).).).).).).).).).).).).).).).).).).).).).).).).).).).).).).).).).",
").).).).).).).).).).).).).).).).).).).).).).).).).).).).).).).).).).).).).).).).).).).).).).).).).).).).",
").).).).).).).).).).).).).).).).).).).).).).).).).).).).).).).).).).).).).).).).).).).).).).).).).).).).",
").).).).).).).).).).).).).).).).).).).).).).).).).).).).).).).).).).).).).).).).).).).).).).).).).).).).",
").).).).).).).).).).).).).).).).).).).).).).).).).).).).).).).).).).).).).).).).).).).).).).).).).).).).",
").).).).).).).).).).).).).).).).).).).).).).).).).).).).).).).).).).).).).).).).).).).).).).).).).).).).",
").).).).).).).).).).).).).).).).).).).).).).).).).).).).).).).).).).).).).).).).).).).).).).).).).).).).",
").).).).).).).).).).).).).).).).).).).).).).).).).).).).).).).).).).).).).).).).).).).).).).).).).).).).",
").).).).).).).).).).).).).).).).).).).).).).).).).).).).).).).).).).).).).).).).).).).).).).).).).).).).",
").).).).).).).).).).).).).).).).).).).).).).).).).).).).).).).).).).).).).).).).).).).).).).).).).).).).",
").).).).).).).).).).).).).).).).).).).).).).).).).).).).).).).).).).).).).).).).).).).).).).).).).).).).",
").).).).).).).).).).).).).).).).).).).).).).).).).).).).).).).).).).).).).).).).).).).).).).).).).).).)."
};
