/* XPM */
static char *result[] = {
/* columns rows colors chars-per-pixel */
"52 52 178 2 ",
"   c #0F0F00",
".  c #190900",
"X  c #380B0E",
"o  c #321007",
"O  c #351F0A",
"+  c #1A2B19",
"@  c #0E0023",
"#  c #06032E",
"$  c #110E39",
"%  c #1D123A",
"&  c #281729",
"*  c #221A32",
"=  c #2E1E39",
"-  c #361C35",
";  c #341938",
":  c #202C3C",
">  c #4E0E0F",
",  c #580001",
"<  c #431402",
"1  c #4C1D15",
"2  c #431B19",
"3  c #531A13",
"4  c #781E00",
"5  c #631418",
"6  c #482319",
"7  c #6B2E00",
"8  c #6D2914",
"9  c #46162E",
"0  c #491734",
"q  c #441138",
"w  c #6F1C26",
"e  c #74342B",
"r  c #4D582D",
"t  c #0B0041",
"y  c #000E4C",
"u  c #091346",
"i  c #011D4D",
"p  c #00105A",
"a  c #261945",
"s  c #293855",
"d  c #233D5E",
"f  c #23346A",
"g  c #333D60",
"h  c #604041",
"j  c #8E2600",
"k  c #8E2706",
"l  c #852A0F",
"z  c #8F351B",
"x  c #A63200",
"c  c #B03A16",
"v  c #DE0002",
"b  c #F40000",
"n  c #F20B00",
"m  c #ED1200",
"M  c #E61900",
"N  c #FF1200",
"B  c #FB1B00",
"V  c #FF1800",
"C  c #D92F00",
"Z  c #DB3300",
"A  c #D33609",
"S  c #F92100",
"D  c #F12E00",
"F  c #F1200A",
"G  c #E43806",
"H  c #E53A0E",
"J  c #FB3700",
"K  c #FF321E",
"L  c #FF0F2A",
"P  c #FF1034",
"I  c #AA4B0B",
"U  c #BF4A00",
"Y  c #A9451F",
"T  c #B37800",
"R  c #B55C22",
"E  c #BD503B",
"W  c #906135",
"Q  c #B36E33",
"!  c #DD4000",
"~  c #DE4D0E",
"^  c #DF5B00",
"/  c #C24914",
"(  c #CD5B1F",
")  c #FB4500",
"_  c #FF5200",
"`  c #F05B00",
"'  c #FF5F00",
"]  c #FF4C18",
"[  c #FF5F15",
"{  c #DC6A0A",
"}  c #D77000",
"|  c #DC7808",
" . c #CF6311",
".. c #D06714",
"X. c #D66614",
"o. c #DF6A1A",
"O. c #D8701B",
"+. c #DF741A",
"@. c #E46D00",
"#. c #FA6200",
"$. c #F5650F",
"%. c #F37300",
"&. c #FC7100",
"*. c #FF7200",
"=. c #FE7400",
"-. c #E06F13",
";. c #FF6415",
":. c #FF6516",
">. c #F0621A",
",. c #EA7B1F",
"<. c #CF5C23",
"1. c #C65C28",
"2. c #E75B28",
"3. c #E85829",
"4. c #F15A2F",
"5. c #F9582C",
"6. c #E47323",
"7. c #E86B35",
"8. c #B08D00",
"9. c #BA9D00",
"0. c #C18400",
"q. c #CF8100",
"w. c #D09500",
"e. c #E78301",
"r. c #EF8108",
"t. c #F5870C",
"y. c #EC9900",
"u. c #F19E00",
"i. c #F19E1C",
"p. c #CAB100",
"a. c #E9AF00",
"s. c #FCA600",
"d. c #F7AE07",
"f. c #E6BB00",
"g. c #EABD00",
"h. c #F1B107",
"j. c #FFB600",
"k. c #FFA41A",
"l. c #FFA31E",
"z. c #FFB81D",
"x. c #FF8921",
"c. c #F88032",
"v. c #F8A930",
"b. c #FFBA31",
"n. c #D6CC00",
"m. c #D1D600",
"M. c #EDCC01",
"N. c #E8C10A",
"B. c #F5C200",
"V. c #F5C700",
"C. c #F3D900",
"Z. c #E0C617",
"A. c #ECCB1A",
"S. c #FFCE1F",
"D. c #E1D21D",
"F. c #F8D311",
"G. c #F7FA00",
"H. c #D0CC23",
"J. c #FBCC24",
"K. c #E7C83A",
"L. c #F8CE3A",
"P. c #FFD43C",
"I. c #ECED2F",
"U. c #FAF527",
"Y. c #9A887A",
"T. c #E68E4E",
"R. c #F09C53",
"E. c #9FC173",
"W. c #FFD147",
"Q. c #FFF64A",
"!. c #DFEF72",
"~. c #FFED61",
"^. c #FBFC72",
"/. c #506288",
"(. c #E4EE8B",
"). c #B5C5D2",
"_. c #ECECC6",
"`. c None",
/* pixels */
"`.`.`.`.`.`.`.`.`.`.`.`.`.`.`.`.`.`.`.`.`.`.`.`.`.`.`.`.`.`.`.`.`.`.`.`.`.`.`.`.`.`.`.`.`.`.`.`.`.`.`.`.",
"`.`.`.`.`.`.`.`.`.`.`.`.`.`.`.`.`.`.`.`.`.`.`.`.`.`.`.`.`.`.`.`.`.`.`.`.`.`.`.`.`.`.`.`.`.`.`.`.`.`.`.`.",
"`.`.`.`.`.`.`.`.`.`.`.`.`.`.`.`.`.`.`.`.`.`.`.`.`.`.`.`.`.`.`.`.`.`.`.`.`.`.`.`.`.`.`.`.`.`.`.`.`.`.`.`.",
"`.`.`.`.`.`.`.`.`.`.`.`.`.`.`.`.`.`.`.`.`.`.`.`.`.`.`.`.`.`.`.`.`.`.`.`.`.`.`.`.`.`.`.`.`.`.`.`.`.`.`.`.",
"`.`.`.`.`.`.`.`.`.`.`.`.`.`.`.`.`.`.`.`.`.`.`.`.`.`.`.`.`.`.`.`.`.`.`.`.`.`.`.`.`.`.`.`.`.`.`.`.`.`.`.`.",
"`.`.`.`.`.`.`.`.`.`.`.`.`.`.`.`.`.`.`.`.`.`.`.`.`.`.`.`.`.`.`.`.`.`.`.`.`.`.`.`.`.`.`.`.`.`.`.`.`.`.`.`.",
"`.`.`.`.`.`.`.`.`.`.`.`.`.`.`.`.`.`.`.`.`.`.`.`.`.`.`.`.`.`.`.`.`.`.`.`.`.`.`.`.`.`.`.`.`.`.`.`.`.`.`.`.",
"`.`.`.`.`.`.`.`.`.`.`.`.`.`.`.`.`.`.`.`.`.`.`.`.`.`.`.`.`.`.`.`.`.`.`.`.`.`.`.`.`.`.`.`.`.`.`.`.`.`.`.`.",
"`.`.`.`.`.`.`.`.`.`.`.`.`.`.`.`.`.`.`.`.`.`.`.`.`.`.`.`.`.`.`.`.`.`.`.`.`.`.`.`.`.`.`.`.`.`.`.`.`.`.`.`.",
"`.`.`.`.`.`.`.`.`.`.`.`.`.`.`.`.`.`.`.`.`.`.`.`.`.`.`.`.`.`.`.`.`.`.`.`.`.`.`.`.`.`.`.`.`.`.`.`.`.`.`.`.",
"`.`.`.`.`.`.`.`.`.`.`.`.`.`.`.`.`.`.`.`.`.`.`.`.`.`.`.`.`.`.`.`.`.`.`.`.`.`.`.`.`.`.`.`.`.`.`.`.`.`.`.`.",
"`.`.`.`.`.`.`.`.`.`.`.`.`.`.`.`.`.`.`.`.`.`.`.`.`.`.`.`.`.`.`.`.`.`.`.`.`.`.`.`.`.`.`.`.`.`.`.`.`.`.`.`.",
"`.`.`.`.`.`.`.`.`.`.`.`.`.`.`.`.`.`.`.`.`.`.`.`.`.`.`.`.`.`.`.`.`.`.`.`.`.`.`.`.`.`.`.`.`.`.`.`.`.`.`.`.",
"`.`.`.`.`.`.`.`.`.`.`.`.`.`.`.`.`.`.`.`.`.`.`.`.`.`.`.`.`.`.`.`.`.`.`.`.`.`.`.`.`.`.`.`.`.`.`.`.`.`.`.`.",
"`.`.`.`.`.`.`.`.`.`.`.`.`.`.`.`.`.`.`.`.`.`.`.`.`.`.`.`.`.`.`.`.`.`.`.`.`.`.`.`.`.`.`.`.`.`.`.`.`.`.`.`.",
"`.`.`.`.`.`.`.`.`.`.`.`.`.`.`.`.`.`.`.`.`.`.`.`.`.`.`.`.`.`.`.`.`.`.`.`.`.`.`.`.`.`.`.`.`.`.`.`.`.`.`.`.",
"`.`.`.`.`.`.`.`.`.`.`.`.`.`.`.`.`.`.`.`.`.`.`.`.`.`.`.`.`.`.`.`.`.`.`.`.`.`.`.`.`.`.`.`.`.`.`.`.`.`.`.`.",
"`.`.`.`.`.`.`.`.`.`.`.`.`.`.`.`.`.`.`.`.`.`.`.`.`.`.`.`.`.`.`.`.`.`.`.`.`.`.`.`.`.`.`.`.`.`.`.`.`.`.`.`.",
"`.`.`.`.`.`.`.`.`.`.`.`.`.`.`.`.`.`.`.`.`.`.`.`.  + y p `.`.`.`.`.`.`.`.`.`.`.`.`.`.`.`.`.`.`.`.`.`.`.`.",
"`.`.`.`.`.`.`.`.`.`.`.`.`.`.`.`.`.`.`.`.`.d @ W 8.H.(._.. i `.`.`.`.`.`.`.`.`.`.`.`.`.`.`.`.`.`.`.`.`.`.",
"`.`.`.`.`.`.`.`.`.`.`.`.`.`.`.`.`.`.`.`.`.r D.a.S.C.G.U.~.)./.`.`.`.`.`.`.`.`.`.`.`.`.`.`.`.`.`.`.`.`.`.",
"`.`.`.`.`.`.`.`.`.`.`.`.`.`.`.`.`.`.`.g h R.) D v.g.*.M T.^.E.s `.`.`.`.`.`.`.`.`.`.`.`.`.`.`.`.`.`.`.`.",
"`.`.`.`.`.`.`.`.`.`.`.`.`.`.`.`.`.`.`.& 8 6.B N c.N.%.m F I.!.Y.t `.`.`.`.`.`.`.`.`.`.`.`.`.`.`.`.`.`.`.",
"`.`.`.`.`.`.`.`.`.`.`.`.`.`.`.`.`.`.f 3 / 9.z.| K.m.M.q.b.n.Q.Q 0 `.`.`.`.`.`.`.`.`.`.`.`.`.`.`.`.`.`.`.",
"`.`.`.`.`.`.`.`.`.`.`.`.`.`.`.`.`.`.# l ;.p.j.u.P.} d.F.B.V.h.U w `.`.`.`.`.`.`.`.`.`.`.`.`.`.`.`.`.`.`.",
"`.`.`.`.`.`.`.`.`.`.`.`.`.`.`.`.`.`.% k _ ] x.J.e.V n l.f.k.t.~ , `.`.`.`.`.`.`.`.`.`.`.`.`.`.`.`.`.`.`.",
"`.`.`.`.`.`.`.`.`.`.`.`.`.`.`.`.`.`.$ z [ K Z A.Z.C H W.y.G >.2.5 `.`.`.`.`.`.`.`.`.`.`.`.`.`.`.`.`.`.`.",
"`.`.`.`.`.`.`.`.`.`.`.`.`.`.`.`.`.`.u e 7.x b J s.i.L.w.S v A <.1 `.`.`.`.`.`.`.`.`.`.`.`.`.`.`.`.`.`.`.",
"`.`.`.`.`.`.`.`.`.`.`.`.`.`.`.`.`.`.`.X Y 4.P 3.0.#.&.T E L 5.4 O `.`.`.`.`.`.`.`.`.`.`.`.`.`.`.`.`.`.`.",
"`.`.`.`.`.`.`.`.`.`.`.`.`.`.`.`.`.`.`.`.9 o.X. ...O.+.-.{ =.R = `.`.`.`.`.`.`.`.`.`.`.`.`.`.`.`.`.`.`.`.",
"`.`.`.`.`.`.`.`.`.`.`.`.`.`.`.`.`.`.`.`.; c ( ,.r.@.^ ` :.1.> `.`.`.`.`.`.`.`.`.`.`.`.`.`.`.`.`.`.`.`.`.",
"`.`.`.`.`.`.`.`.`.`.`.`.`.`.`.`.`.`.`.`.`.: 6 j ! ' $.I 7 q `.`.`.`.`.`.`.`.`.`.`.`.`.`.`.`.`.`.`.`.`.`.",
"`.`.`.`.`.`.`.`.`.`.`.`.`.`.`.`.`.`.`.`.`.`.`.* o < 2 - a `.`.`.`.`.`.`.`.`.`.`.`.`.`.`.`.`.`.`.`.`.`.`.",
"`.`.`.`.`.`.`.`.`.`.`.`.`.`.`.`.`.`.`.`.`.`.`.`.`.`.`.`.`.`.`.`.`.`.`.`.`.`.`.`.`.`.`.`.`.`.`.`.`.`.`.`.",
"`.`.`.`.`.`.`.`.`.`.`.`.`.`.`.`.`.`.`.`.`.`.`.`.`.`.`.`.`.`.`.`.`.`.`.`.`.`.`.`.`.`.`.`.`.`.`.`.`.`.`.`.",
"`.`.`.`.`.`.`.`.`.`.`.`.`.`.`.`.`.`.`.`.`.`.`.`.`.`.`.`.`.`.`.`.`.`.`.`.`.`.`.`.`.`.`.`.`.`.`.`.`.`.`.`.",
"`.`.`.`.`.`.`.`.`.`.`.`.`.`.`.`.`.`.`.`.`.`.`.`.`.`.`.`.`.`.`.`.`.`.`.`.`.`.`.`.`.`.`.`.`.`.`.`.`.`.`.`.",
"`.`.`.`.`.`.`.`.`.`.`.`.`.`.`.`.`.`.`.`.`.`.`.`.`.`.`.`.`.`.`.`.`.`.`.`.`.`.`.`.`.`.`.`.`.`.`.`.`.`.`.`.",
"`.`.`.`.`.`.`.`.`.`.`.`.`.`.`.`.`.`.`.`.`.`.`.`.`.`.`.`.`.`.`.`.`.`.`.`.`.`.`.`.`.`.`.`.`.`.`.`.`.`.`.`.",
"`.`.`.`.`.`.`.`.`.`.`.`.`.`.`.`.`.`.`.`.`.`.`.`.`.`.`.`.`.`.`.`.`.`.`.`.`.`.`.`.`.`.`.`.`.`.`.`.`.`.`.`.",
"`.`.`.`.`.`.`.`.`.`.`.`.`.`.`.`.`.`.`.`.`.`.`.`.`.`.`.`.`.`.`.`.`.`.`.`.`.`.`.`.`.`.`.`.`.`.`.`.`.`.`.`.",
"`.`.`.`.`.`.`.`.`.`.`.`.`.`.`.`.`.`.`.`.`.`.`.`.`.`.`.`.`.`.`.`.`.`.`.`.`.`.`.`.`.`.`.`.`.`.`.`.`.`.`.`.",
"`.`.`.`.`.`.`.`.`.`.`.`.`.`.`.`.`.`.`.`.`.`.`.`.`.`.`.`.`.`.`.`.`.`.`.`.`.`.`.`.`.`.`.`.`.`.`.`.`.`.`.`.",
"`.`.`.`.`.`.`.`.`.`.`.`.`.`.`.`.`.`.`.`.`.`.`.`.`.`.`.`.`.`.`.`.`.`.`.`.`.`.`.`.`.`.`.`.`.`.`.`.`.`.`.`.",
"`.`.`.`.`.`.`.`.`.`.`.`.`.`.`.`.`.`.`.`.`.`.`.`.`.`.`.`.`.`.`.`.`.`.`.`.`.`.`.`.`.`.`.`.`.`.`.`.`.`.`.`.",
"`.`.`.`.`.`.`.`.`.`.`.`.`.`.`.`.`.`.`.`.`.`.`.`.`.`.`.`.`.`.`.`.`.`.`.`.`.`.`.`.`.`.`.`.`.`.`.`.`.`.`.`.",
"`.`.`.`.`.`.`.`.`.`.`.`.`.`.`.`.`.`.`.`.`.`.`.`.`.`.`.`.`.`.`.`.`.`.`.`.`.`.`.`.`.`.`.`.`.`.`.`.`.`.`.`.",
"`.`.`.`.`.`.`.`.`.`.`.`.`.`.`.`.`.`.`.`.`.`.`.`.`.`.`.`.`.`.`.`.`.`.`.`.`.`.`.`.`.`.`.`.`.`.`.`.`.`.`.`.",
"`.`.`.`.`.`.`.`.`.`.`.`.`.`.`.`.`.`.`.`.`.`.`.`.`.`.`.`.`.`.`.`.`.`.`.`.`.`.`.`.`.`.`.`.`.`.`.`.`.`.`.`.",
"`.`.`.`.`.`.`.`.`.`.`.`.`.`.`.`.`.`.`.`.`.`.`.`.`.`.`.`.`.`.`.`.`.`.`.`.`.`.`.`.`.`.`.`.`.`.`.`.`.`.`.`.",
"`.`.`.`.`.`.`.`.`.`.`.`.`.`.`.`.`.`.`.`.`.`.`.`.`.`.`.`.`.`.`.`.`.`.`.`.`.`.`.`.`.`.`.`.`.`.`.`.`.`.`.`.",
"`.`.`.`.`.`.`.`.`.`.`.`.`.`.`.`.`.`.`.`.`.`.`.`.`.`.`.`.`.`.`.`.`.`.`.`.`.`.`.`.`.`.`.`.`.`.`.`.`.`.`.`."
};
