/* XPM */
static char *result[] = {
/* columns rows colors chars-per-pixel */
"52 52 189 2 ",
"   c #030004",
".  c #1B000E",
"X  c #140212",
"o  c #11091E",
"O  c #220000",
"+  c #390900",
"@  c #391000",
"#  c #230B19",
"$  c #2B181C",
"%  c #1C2100",
"&  c #000021",
"*  c #000A2D",
"=  c #070D2F",
"-  c #00152A",
";  c #03153D",
":  c #3A1A2F",
">  c #201138",
",  c #21293E",
"<  c #332234",
"1  c #400800",
"2  c #43170A",
"3  c #52110D",
"4  c #680313",
"5  c #5F3213",
"6  c #602618",
"7  c #6D2C1A",
"8  c #441F26",
"9  c #592927",
"0  c #57212E",
"q  c #493C29",
"w  c #4C3138",
"e  c #662A20",
"r  c #0E1A40",
"t  c #0C1B45",
"y  c #001652",
"u  c #2E1F48",
"i  c #0F3F43",
"p  c #142654",
"a  c #1B2258",
"s  c #28224E",
"d  c #242A4E",
"f  c #2C2C52",
"g  c #2C1B69",
"h  c #192C64",
"j  c #1F2877",
"k  c #213568",
"l  c #253568",
"z  c #233879",
"x  c #343474",
"c  c #3D406B",
"v  c #264875",
"b  c #2F497C",
"n  c #646754",
"m  c #606B63",
"M  c #9A0D04",
"N  c #861704",
"B  c #832303",
"V  c #882B00",
"C  c #863615",
"Z  c #A42100",
"A  c #C20500",
"S  c #CF170D",
"D  c #CE170F",
"F  c #C1190E",
"G  c #DD1C00",
"H  c #D31308",
"J  c #FF0E1C",
"K  c #E81411",
"L  c #D62803",
"P  c #DE2E00",
"I  c #D93B00",
"U  c #FB2200",
"Y  c #E43D00",
"T  c #C10A3A",
"R  c #C7113A",
"E  c #C53421",
"W  c #994612",
"Q  c #A6481A",
"!  c #B65810",
"~  c #BC5D1D",
"^  c #826100",
"/  c #896500",
"(  c #8A7210",
")  c #847B1C",
"_  c #AB5824",
"`  c #BB5022",
"'  c #856131",
"]  c #A76930",
"[  c #BD6D32",
"{  c #C5440A",
"}  c #D74605",
"|  c #D65300",
" . c #D84A1A",
".. c #F94C00",
"X. c #FF5B00",
"o. c #F05310",
"O. c #C16900",
"+. c #CD6B06",
"@. c #C2640A",
"#. c #CD7800",
"$. c #D27E01",
"%. c #C66D13",
"&. c #D46815",
"*. c #FF6100",
"=. c #F16B0A",
"-. c #F76B0A",
";. c #EB7900",
":. c #FC7600",
">. c #E86411",
",. c #F06D1D",
"<. c #FD691F",
"1. c #EF711C",
"2. c #FF7B15",
"3. c #F47E1D",
"4. c #FF7E19",
"5. c #C6572C",
"6. c #D7522F",
"7. c #C1403B",
"8. c #C1423B",
"9. c #EA5723",
"0. c #F65C26",
"q. c #E45E31",
"w. c #E16424",
"e. c #F9612F",
"r. c #E66B38",
"t. c #E37A38",
"y. c #FF7834",
"u. c #FF7E53",
"i. c #B99A0B",
"p. c #BF9F16",
"a. c #918B37",
"s. c #DA9607",
"d. c #C8911A",
"f. c #FF8406",
"g. c #F5870E",
"h. c #E79600",
"j. c #F49C00",
"k. c #FF9B00",
"l. c #D9BF00",
"z. c #FFA20A",
"x. c #F8AF08",
"c. c #FFAC08",
"v. c #E0BE00",
"b. c #E1BC0C",
"n. c #EFBA0C",
"m. c #FFB800",
"M. c #FFBE00",
"N. c #FFBC02",
"B. c #FFB60C",
"V. c #FFA611",
"C. c #FFB112",
"Z. c #FFB410",
"A. c #DC952B",
"S. c #F88729",
"D. c #ED9C29",
"F. c #FFAE3B",
"G. c #FFB238",
"H. c #D2C200",
"J. c #E9C201",
"K. c #F3C900",
"L. c #FFCC00",
"P. c #ECD50B",
"I. c #E8D715",
"U. c #F1D710",
"Y. c #F1D512",
"T. c #D0EA00",
"R. c #FFE600",
"E. c #E8F900",
"W. c #E6E710",
"Q. c #FFC921",
"!. c #E5DB22",
"~. c #E9D32F",
"^. c #F6C832",
"/. c #FFC53E",
"(. c #FFE52D",
"). c #F6EA32",
"_. c #FFF232",
"`. c #908F4F",
"'. c #FF9043",
"]. c #E88951",
"[. c #F6BC41",
"{. c #FFB95D",
"}. c #FFD95D",
"|. c #FCDA5D",
" X c #FFD770",
".X c #364085",
"XX c #FFF098",
"oX c #E7DFAC",
"OX c None",
/* pixels */
"OXOXOXOXOXOXOXOXOXOXOXOXOXOXOXOXOXOXOXOXOXOXOXOXOXOXOXOXOXOXOXOXOXOXOXOXOXOXOXOXOXOXOXOXOXOXOXOXOXOXOXOX",
"OXOXOXOXOXOXOXOXOXOXOXOXOXOXOXOXOXOXOXOXOXOXOXOXOXOXOXOXOXOXOXOXOXOXOXOXOXOXOXOXOXOXOXOXOXOXOXOXOXOXOXOX",
"OXOXOXOXOXOXOXOXOXOXOXOXOXOXOXOXOXOXOXOXOXOXOXOXOXOXOXOXOXOXOXOXOXOXOXOXOXOXOXOXOXOXOXOXOXOXOXOXOXOXOXOX",
"OXOXOXOXOXOXOXOXOXOXOXOXOXOXOXOXOXOXOXOXOXOXOXOXOXOXOXOXOXOXOXOXOXOXOXOXOXOXOXOXOXOXOXOXOXOXOXOXOXOXOXOX",
"OXOXOXOXOXOXOXOXOXOXOXOXOXOXOXOXOXOXOXOXOXOXOXOXOXOXOXOXOXOXOXOXOXOXOXOXOXOXOXOXOXOXOXOXOXOXOXOXOXOXOXOX",
"OXOXOXOXOXOXOXOXOXOXOXOXOXOXOXOXOXOXOXOXOXOXOXOXOXOXOXOXOXOXOXOXOXOXOXOXOXOXOXOXOXOXOXOXOXOXOXOXOXOXOXOX",
"OXOXOXOXOXOXOXOXOXOXOXOXOXOXOXOXOXOXOXOXOXOXOXOXOXOXOXOXOXOXOXOXOXOXOXOXOXOXOXOXOXOXOXOXOXOXOXOXOXOXOXOX",
"OXOXOXOXOXOXOXOXOXOXOXOXOXOXOXOXOXOXOXOXOXOXOXOXOXOXOXOXOXOXOXOXOXOXOXOXOXOXOXOXOXOXOXOXOXOXOXOXOXOXOXOX",
"OXOXOXOXOXOXOXOXOXOXOXOXOXOXOXOXOXOXOXOXOXOXOXOXOXOXOXOXOXOXOXOXOXOXOXOXOXOXOXOXOXOXOXOXOXOXOXOXOXOXOXOX",
"OXOXOXOXOXOXOXOXOXOXOXOXOXOXOXOXOXOXOXOXOXOXOXOXOXOXOXOXOXOXOXOXOXOXOXOXOXOXOXOXOXOXOXOXOXOXOXOXOXOXOXOX",
"OXOXOXOXOXOXOXOXOXOXOXOXOXOXOXOXOXOXOXOXOXOXOXOXOXOXOXOXOXOXOXOXOXOXOXOXOXOXOXOXOXOXOXOXOXOXOXOXOXOXOXOX",
"OXOXOXOXOXOXOXOXOXOXOXOXOXOXOXOXOXOXOXOXOXOXOXOXOXOXOXOXOXOXOXOXOXOXOXOXOXOXOXOXOXOXOXOXOXOXOXOXOXOXOXOX",
"OXOXOXOXOXOXOXOXOXOXOXOXOXOXOXOXOXOXOXOXOXOXOXOXOXOXOXOXOXOXOXOXOXOXOXOXOXOXOXOXOXOXOXOXOXOXOXOXOXOXOXOX",
"OXOXOXOXOXOXOXOXOXOXOXOXOXOXOXOXOXOXOXOXOXOXOXOXOXOXOXOXOXOXOXOXOXOXOXOXOXOXOXOXOXOXOXOXOXOXOXOXOXOXOXOX",
"OXOXOXOXOXOXOXOXOXOXOXOXOXOXOXOXOXOXOXOXOXOXOXOXOXOXOXOXOXOXOXOXOXOXOXOXOXOXOXOXOXOXOXOXOXOXOXOXOXOXOXOX",
"OXOXOXOXOXOXOXOXOXOXOXOXOXOXOXOXOXOXOXOXOXOXOXOXOXOXOXOXOXOXOXOXOXOXOXOXOXOXOXOXOXOXOXOXOXOXOXOXOXOXOXOX",
"OXOXOXOXOXOXOXOXOXOXOXOXOXOXOXOXOXOXOXOXOXOXOXOXOXOXOXOXOXOXOXOXOXOXOXOXOXOXOXOXOXOXOXOXOXOXOXOXOXOXOXOX",
"OXOXOXOXOXOXOXOXOXOXOXOXOXOXOXOXOXOXOXOXOXOXOXOXOXOXOXOXOXOXOXOXOXOXOXOXOXOXOXOXOXOXOXOXOXOXOXOXOXOXOXOX",
"OXOXOXOXOXOXOXOXOXOXOXOXOXOXOXOXOXOXOXOXOXOXOXa   u s t OXOXOXOXOXOXOXOXOXOXOXOXOXOXOXOXOXOXOXOXOXOXOXOX",
"OXOXOXOXOXOXOXOXOXOXOXOXOXOXOXOXOXOXOXOXOXv * a.~./ ( `.& OXOXOXOXOXOXOXOXOXOXOXOXOXOXOXOXOXOXOXOXOXOXOX",
"OXOXOXOXOXOXOXOXOXOXOXOXOXOXOXOXOXOXOXOX- n }.U.j.W.E.K.A.^ y OXOXOXOXOXOXOXOXOXOXOXOXOXOXOXOXOXOXOXOXOX",
"OXOXOXOXOXOXOXOXOXOXOXOXOXOXOXOXOXOXOXz m |._.l.^.J 4.k.(.V.) i OXOXOXOXOXOXOXOXOXOXOXOXOXOXOXOXOXOXOXOX",
"OXOXOXOXOXOXOXOXOXOXOXOXOXOXOXOXOXOXOX, oXp.Y Y.*.S U N.9...s.% OXOXOXOXOXOXOXOXOXOXOXOXOXOXOXOXOXOXOXOX",
"OXOXOXOXOXOXOXOXOXOXOXOXOXOXOXOXOXOXh q XXB K 2.Q.P !.c.D A S.5 g OXOXOXOXOXOXOXOXOXOXOXOXOXOXOXOXOXOXOX",
"OXOXOXOXOXOXOXOXOXOXOXOXOXOXOXOXOXOX= '  X].X.P.b.F./.I.h.:.'._ + OXOXOXOXOXOXOXOXOXOXOXOXOXOXOXOXOXOXOX",
"OXOXOXOXOXOXOXOXOXOXOXOXOXOXOXOXOXOXo ] {.).L.T.H.Z.x.J.R.z.q.5.1 OXOXOXOXOXOXOXOXOXOXOXOXOXOXOXOXOXOXOX",
"OXOXOXOXOXOXOXOXOXOXOXOXOXOXOXOXOXOXX W y.i.D.n.L.m.v.B.G.} F 8.@ OXOXOXOXOXOXOXOXOXOXOXOXOXOXOXOXOXOXOX",
"OXOXOXOXOXOXOXOXOXOXOXOXOXOXOXOXOXOX# Q e.R T $.M.[.d.C.g.H G 7.$ OXOXOXOXOXOXOXOXOXOXOXOXOXOXOXOXOXOXOX",
"OXOXOXOXOXOXOXOXOXOXOXOXOXOXOXOXOXOX.X3 w.L I -.,.6.M E u.*.r.0 d OXOXOXOXOXOXOXOXOXOXOXOXOXOXOXOXOXOXOX",
"OXOXOXOXOXOXOXOXOXOXOXOXOXOXOXOXOXOXOX. C t.+.O.#.%.~ ! @.=.V : k OXOXOXOXOXOXOXOXOXOXOXOXOXOXOXOXOXOXOX",
"OXOXOXOXOXOXOXOXOXOXOXOXOXOXOXOXOXOXOXl < ` &.;.f.| >.1.3.[ 2 c OXOXOXOXOXOXOXOXOXOXOXOXOXOXOXOXOXOXOXOX",
"OXOXOXOXOXOXOXOXOXOXOXOXOXOXOXOXOXOXOXOXOX4 N { <.o.0. .Z w f OXOXOXOXOXOXOXOXOXOXOXOXOXOXOXOXOXOXOXOXOX",
"OXOXOXOXOXOXOXOXOXOXOXOXOXOXOXOXOXOXOXOXOXx > 8 6 7 e 9 O j OXOXOXOXOXOXOXOXOXOXOXOXOXOXOXOXOXOXOXOXOXOX",
"OXOXOXOXOXOXOXOXOXOXOXOXOXOXOXOXOXOXOXOXOXOXOXOXp r ; b OXOXOXOXOXOXOXOXOXOXOXOXOXOXOXOXOXOXOXOXOXOXOXOX",
"OXOXOXOXOXOXOXOXOXOXOXOXOXOXOXOXOXOXOXOXOXOXOXOXOXOXOXOXOXOXOXOXOXOXOXOXOXOXOXOXOXOXOXOXOXOXOXOXOXOXOXOX",
"OXOXOXOXOXOXOXOXOXOXOXOXOXOXOXOXOXOXOXOXOXOXOXOXOXOXOXOXOXOXOXOXOXOXOXOXOXOXOXOXOXOXOXOXOXOXOXOXOXOXOXOX",
"OXOXOXOXOXOXOXOXOXOXOXOXOXOXOXOXOXOXOXOXOXOXOXOXOXOXOXOXOXOXOXOXOXOXOXOXOXOXOXOXOXOXOXOXOXOXOXOXOXOXOXOX",
"OXOXOXOXOXOXOXOXOXOXOXOXOXOXOXOXOXOXOXOXOXOXOXOXOXOXOXOXOXOXOXOXOXOXOXOXOXOXOXOXOXOXOXOXOXOXOXOXOXOXOXOX",
"OXOXOXOXOXOXOXOXOXOXOXOXOXOXOXOXOXOXOXOXOXOXOXOXOXOXOXOXOXOXOXOXOXOXOXOXOXOXOXOXOXOXOXOXOXOXOXOXOXOXOXOX",
"OXOXOXOXOXOXOXOXOXOXOXOXOXOXOXOXOXOXOXOXOXOXOXOXOXOXOXOXOXOXOXOXOXOXOXOXOXOXOXOXOXOXOXOXOXOXOXOXOXOXOXOX",
"OXOXOXOXOXOXOXOXOXOXOXOXOXOXOXOXOXOXOXOXOXOXOXOXOXOXOXOXOXOXOXOXOXOXOXOXOXOXOXOXOXOXOXOXOXOXOXOXOXOXOXOX",
"OXOXOXOXOXOXOXOXOXOXOXOXOXOXOXOXOXOXOXOXOXOXOXOXOXOXOXOXOXOXOXOXOXOXOXOXOXOXOXOXOXOXOXOXOXOXOXOXOXOXOXOX",
"OXOXOXOXOXOXOXOXOXOXOXOXOXOXOXOXOXOXOXOXOXOXOXOXOXOXOXOXOXOXOXOXOXOXOXOXOXOXOXOXOXOXOXOXOXOXOXOXOXOXOXOX",
"OXOXOXOXOXOXOXOXOXOXOXOXOXOXOXOXOXOXOXOXOXOXOXOXOXOXOXOXOXOXOXOXOXOXOXOXOXOXOXOXOXOXOXOXOXOXOXOXOXOXOXOX",
"OXOXOXOXOXOXOXOXOXOXOXOXOXOXOXOXOXOXOXOXOXOXOXOXOXOXOXOXOXOXOXOXOXOXOXOXOXOXOXOXOXOXOXOXOXOXOXOXOXOXOXOX",
"OXOXOXOXOXOXOXOXOXOXOXOXOXOXOXOXOXOXOXOXOXOXOXOXOXOXOXOXOXOXOXOXOXOXOXOXOXOXOXOXOXOXOXOXOXOXOXOXOXOXOXOX",
"OXOXOXOXOXOXOXOXOXOXOXOXOXOXOXOXOXOXOXOXOXOXOXOXOXOXOXOXOXOXOXOXOXOXOXOXOXOXOXOXOXOXOXOXOXOXOXOXOXOXOXOX",
"OXOXOXOXOXOXOXOXOXOXOXOXOXOXOXOXOXOXOXOXOXOXOXOXOXOXOXOXOXOXOXOXOXOXOXOXOXOXOXOXOXOXOXOXOXOXOXOXOXOXOXOX",
"OXOXOXOXOXOXOXOXOXOXOXOXOXOXOXOXOXOXOXOXOXOXOXOXOXOXOXOXOXOXOXOXOXOXOXOXOXOXOXOXOXOXOXOXOXOXOXOXOXOXOXOX",
"OXOXOXOXOXOXOXOXOXOXOXOXOXOXOXOXOXOXOXOXOXOXOXOXOXOXOXOXOXOXOXOXOXOXOXOXOXOXOXOXOXOXOXOXOXOXOXOXOXOXOXOX",
"OXOXOXOXOXOXOXOXOXOXOXOXOXOXOXOXOXOXOXOXOXOXOXOXOXOXOXOXOXOXOXOXOXOXOXOXOXOXOXOXOXOXOXOXOXOXOXOXOXOXOXOX",
"OXOXOXOXOXOXOXOXOXOXOXOXOXOXOXOXOXOXOXOXOXOXOXOXOXOXOXOXOXOXOXOXOXOXOXOXOXOXOXOXOXOXOXOXOXOXOXOXOXOXOXOX"
};
