/* XPM */
static char *ca217f45b7a4456fc9f42c8ac3a963a5CHiQAdd1nuFL7owI[] = {
/* columns rows colors chars-per-pixel */
"52 52 182 2 ",
"   c None",
".  c #000500",
"X  c #030708",
"o  c #000A0E",
"O  c #141D0C",
"+  c #380C03",
"@  c #301D00",
"#  c #2E0011",
"$  c #36001B",
"%  c #301E1C",
"&  c #00122B",
"*  c #020434",
"=  c #000A33",
"-  c #001530",
";  c #0D1D37",
":  c #0E163B",
">  c #1C1737",
",  c #39152E",
"<  c #143022",
"1  c #142B3B",
"2  c #2A2627",
"3  c #410008",
"4  c #451405",
"5  c #420612",
"6  c #590912",
"7  c #621800",
"8  c #6E1213",
"9  c #65141D",
"0  c #5E2416",
"q  c #430224",
"w  c #7D1F37",
"e  c #482939",
"r  c #64382D",
"t  c #7E2B33",
"y  c #574513",
"u  c #000442",
"i  c #001148",
"p  c #01114F",
"a  c #15244D",
"s  c #0F235E",
"d  c #162453",
"f  c #18285B",
"g  c #2A2045",
"h  c #2D3E58",
"j  c #332F62",
"k  c #432973",
"l  c #31407B",
"z  c #575E4E",
"x  c #8B0800",
"c  c #88000A",
"v  c #B51D18",
"b  c #8F2608",
"n  c #843304",
"m  c #91231C",
"M  c #A9281B",
"N  c #E21700",
"B  c #FF1B00",
"V  c #FE1D00",
"C  c #CB3B00",
"Z  c #E32704",
"A  c #B84C0E",
"S  c #BF5700",
"D  c #B65216",
"F  c #D15E00",
"G  c #C7541D",
"H  c #CD5F18",
"J  c #DE5F10",
"K  c #EC4600",
"L  c #FF5418",
"P  c #CA6300",
"I  c #C66804",
"U  c #C1610A",
"Y  c #CC640B",
"T  c #DF6D00",
"R  c #D46A08",
"E  c #D07206",
"W  c #DB7400",
"Q  c #DB7D00",
"!  c #C07710",
"~  c #EC6900",
"^  c #F9650B",
"/  c #E07100",
"(  c #FB7400",
")  c #FF7600",
"_  c #F8601D",
"`  c #F87616",
"'  c #FC7218",
"]  c #C04F25",
"[  c #DA4028",
"{  c #D94D2C",
"}  c #CF522A",
"|  c #D45635",
" . c #EF6325",
".. c #FC7A24",
"X. c #FA7E28",
"o. c #E0653B",
"O. c #E36E38",
"+. c #FA7434",
"@. c #9E3E42",
"#. c #B94D5B",
"$. c #BBB716",
"%. c #CC8109",
"&. c #D68C00",
"*. c #DC8D00",
"=. c #C79C1C",
"-. c #DD9D15",
";. c #EF9000",
":. c #E39B08",
">. c #F39300",
",. c #F69705",
"<. c #FF9B00",
"1. c #EF8513",
"2. c #FF8D14",
"3. c #DEB304",
"4. c #EBAE00",
"5. c #E4A70E",
"6. c #FEA606",
"7. c #FFAA0C",
"8. c #E2B300",
"9. c #E1B105",
"0. c #EBB800",
"q. c #E9BD00",
"w. c #F9B000",
"e. c #FBB900",
"r. c #FFBE00",
"t. c #F9BB08",
"y. c #FFA713",
"u. c #FFA813",
"i. c #FFAD10",
"p. c #FFAD19",
"a. c #EEBE16",
"s. c #FFB115",
"d. c #FFBB1A",
"f. c #FDBC18",
"g. c #FFBC1B",
"h. c #D19736",
"j. c #F59036",
"k. c #FFA526",
"l. c #FDB928",
"z. c #FFBD2E",
"x. c #FFBD2F",
"c. c #E1BE3C",
"v. c #CAC400",
"b. c #D4C200",
"n. c #E6CE00",
"m. c #E8C804",
"M. c #EBCA09",
"N. c #F6C000",
"B. c #F0C500",
"V. c #FBC000",
"C. c #FFC000",
"Z. c #FECF00",
"A. c #FFCF00",
"S. c #F2C60D",
"D. c #FFC00F",
"F. c #F8CB0E",
"G. c #E7D800",
"H. c #FFD008",
"J. c #EAC215",
"K. c #EAC618",
"L. c #EFC41F",
"P. c #F2CB14",
"I. c #F6CD1D",
"U. c #FFCE18",
"Y. c #FFCC1E",
"T. c #F0D71A",
"R. c #ECE500",
"E. c #EBEE01",
"W. c #FFE715",
"Q. c #FFC22D",
"!. c #FBEB26",
"~. c #FFFF3D",
"^. c #CAAD43",
"/. c #FFE84A",
"(. c #F0FF57",
"). c #FFFF68",
"_. c #FFFF83",
"`. c #FFFF86",
"'. c #FFE898",
"]. c #F6F791",
"[. c #E9FAAC",
"{. c #FFF6B3",
/* pixels */
"                                                                                                        ",
"                                                                                                        ",
"                                                                                                        ",
"                                                                                                        ",
"                                                                                                        ",
"                                                                                                        ",
"                                                                                                        ",
"                                                                                                        ",
"                                                                                                        ",
"                                                                                                        ",
"                                                                                                        ",
"                                                                                                        ",
"                                                                                                        ",
"                                                                                                        ",
"                                                                                                        ",
"                                                                                                        ",
"                                                                                                        ",
"                                                                                                        ",
"                                                                                                        ",
"                                                : . o -                                                 ",
"                                            > y ^.c.).].z p                                             ",
"                                          O $.n.A.w.K./.`.[.<                                           ",
"                                        @ %.3.U.<.V.y.G.(.{.h.2                                         ",
"                                      * n k.D.F.S.T.H.I.b.~.'.! #                                       ",
"                                      $ H i.C.m.J.,.>.Q.4.R._./ c l                                     ",
"                                    i t I 0.q.M.p.B N 6.f.l.E.U M u                                     ",
"                                    a 8 S t.N.P.z.V Z *.d.z.v.j.x f                                     ",
"                                    d 6  .( s.a.L.u.f.5.r.B.=.) v &                                     ",
"                                    s e | K 2.:.9.!.W.Y.e.&.O.C @.=                                     ",
"                                      1 7 +.E Q 7.8.;.A.-.[ L #.X                                       ",
"                                      k 9 A 1.W F ` R P T ' { w j                                       ",
"                                        h r ] _ ^ ~ J ..X.D 0 g                                         ",
"                                            q m G Y o.} b +                                             ",
"                                              ; % 4 3 5 ,                                               ",
"                                                                                                        ",
"                                                                                                        ",
"                                                                                                        ",
"                                                                                                        ",
"                                                                                                        ",
"                                                                                                        ",
"                                                                                                        ",
"                                                                                                        ",
"                                                                                                        ",
"                                                                                                        ",
"                                                                                                        ",
"                                                                                                        ",
"                                                                                                        ",
"                                                                                                        ",
"                                                                                                        ",
"                                                                                                        ",
"                                                                                                        ",
"                                                                                                        "
};
