/* XPM */
static char *result[] = {
/* columns rows colors chars-per-pixel */
"52 52 184 2 ",
"   c black",
".  c #05000C",
"X  c #180000",
"o  c #190507",
"O  c #001303",
"+  c #001E06",
"@  c #0B0F12",
"#  c #2A0000",
"$  c #2B0500",
"%  c #320100",
"&  c #39060B",
"*  c #3D011B",
"=  c #17291D",
"-  c #23351F",
";  c #060020",
":  c #12032C",
">  c #2E3839",
",  c #4F120F",
"<  c #601711",
"1  c #70240C",
"2  c #4B1836",
"3  c #6C1235",
"4  c #6C1E34",
"5  c #49223F",
"6  c #655108",
"7  c #001A40",
"8  c #0C134A",
"9  c #000055",
"0  c #0F0057",
"q  c #022042",
"w  c #102D4D",
"e  c #002358",
"r  c #01295A",
"t  c #001D65",
"y  c #210E77",
"u  c #222F64",
"i  c #3E3761",
"p  c #4F1547",
"a  c #401C4A",
"s  c #0B4050",
"d  c #224A6E",
"f  c #774550",
"g  c #5F764A",
"h  c #5D7858",
"j  c #667C4D",
"k  c #627D50",
"l  c #830000",
"z  c #970216",
"x  c #913A0F",
"c  c #A42500",
"v  c #CB0B00",
"b  c #DD0800",
"n  c #D51D00",
"m  c #D0130D",
"M  c #EE0000",
"N  c #EE0906",
"B  c #FB0000",
"V  c #FF000B",
"C  c #C83000",
"Z  c #D93E08",
"A  c #E42F00",
"S  c #FF2605",
"D  c #FF2408",
"F  c #F72A0D",
"G  c #FD3300",
"H  c #FF3604",
"J  c #F42E14",
"K  c #E9351C",
"L  c #F70020",
"P  c #FE0427",
"I  c #FF0A25",
"U  c #DB2029",
"Y  c #CB3537",
"T  c #80501F",
"R  c #A64900",
"E  c #B85605",
"W  c #B15719",
"Q  c #966500",
"!  c #BD6803",
"~  c #A17009",
"^  c #CE4000",
"/  c #DB4000",
"(  c #DF4801",
")  c #C75A00",
"_  c #D6491C",
"`  c #F24600",
"'  c #F04005",
"]  c #FF5600",
"[  c #FF4F18",
"{  c #E75114",
"}  c #FB5217",
"|  c #F1551C",
" . c #D66300",
".. c #D66500",
"X. c #DF6500",
"o. c #D56907",
"O. c #DF6F01",
"+. c #D86804",
"@. c #C17000",
"#. c #DF7B03",
"$. c #DD6C10",
"%. c #FF6700",
"&. c #FF6D00",
"*. c #EA7A00",
"=. c #E97309",
"-. c #FA7B08",
";. c #FF6412",
":. c #EB7010",
">. c #FF7D12",
",. c #DA552A",
"<. c #C4483E",
"1. c #E34128",
"2. c #FF4820",
"3. c #F84C34",
"4. c #FF5730",
"5. c #BC5E45",
"6. c #B8AE35",
"7. c #D78309",
"8. c #DC8C09",
"9. c #D18A18",
"0. c #F38900",
"q. c #FD8D00",
"w. c #E89500",
"e. c #E99902",
"r. c #FF9300",
"t. c #FF950C",
"y. c #E98918",
"u. c #E69A13",
"i. c #EA941D",
"p. c #CCAC0B",
"a. c #DDA007",
"s. c #DFB316",
"d. c #E8A308",
"f. c #EDAF0C",
"g. c #FFA100",
"h. c #FFA704",
"j. c #FAAB04",
"k. c #FFBE04",
"l. c #EDA81D",
"z. c #FFA91C",
"x. c #EB832C",
"c. c #E99622",
"v. c #FF823C",
"b. c #FF9E3C",
"n. c #FFAE3B",
"m. c #D8C400",
"M. c #D6D400",
"N. c #DDD40B",
"B. c #E4C400",
"V. c #E8C509",
"C. c #F2C303",
"Z. c #F4C000",
"A. c #FFC600",
"S. c #FFCB00",
"D. c #F7D500",
"F. c #FFCA19",
"G. c #FFD611",
"H. c #F5E800",
"J. c #EAF600",
"K. c #F5F91C",
"L. c #F0C42F",
"P. c #FFCB2C",
"I. c #EDD827",
"U. c #FFDA3D",
"Y. c #F8DE3F",
"T. c #FFE924",
"R. c #FFFB27",
"E. c #FFF029",
"W. c #8D894C",
"Q. c #8A9E63",
"!. c #AFA67B",
"~. c #FFBE5C",
"^. c #FFCC4D",
"/. c #F6E056",
"(. c #DACD6F",
"). c #C6E365",
"_. c #FCEA60",
"`. c #F3EB6C",
"'. c #FFFF65",
"]. c #FFF86E",
"[. c #3E1385",
"{. c #2C4387",
"}. c #FFF9AE",
"|. c None",
/* pixels */
"|.|.|.|.|.|.|.|.|.|.|.|.|.|.|.|.|.|.|.|.|.|.|.|.|.|.|.|.|.|.|.|.|.|.|.|.|.|.|.|.|.|.|.|.|.|.|.|.|.|.|.|.",
"|.|.|.|.|.|.|.|.|.|.|.|.|.|.|.|.|.|.|.|.|.|.|.|.|.|.|.|.|.|.|.|.|.|.|.|.|.|.|.|.|.|.|.|.|.|.|.|.|.|.|.|.",
"|.|.|.|.|.|.|.|.|.|.|.|.|.|.|.|.|.|.|.|.|.|.|.|.|.|.|.|.|.|.|.|.|.|.|.|.|.|.|.|.|.|.|.|.|.|.|.|.|.|.|.|.",
"|.|.|.|.|.|.|.|.|.|.|.|.|.|.|.|.|.|.|.|.|.|.|.|.|.|.|.|.|.|.|.|.|.|.|.|.|.|.|.|.|.|.|.|.|.|.|.|.|.|.|.|.",
"|.|.|.|.|.|.|.|.|.|.|.|.|.|.|.|.|.|.|.|.|.|.|.|.|.|.|.|.|.|.|.|.|.|.|.|.|.|.|.|.|.|.|.|.|.|.|.|.|.|.|.|.",
"|.|.|.|.|.|.|.|.|.|.|.|.|.|.|.|.|.|.|.|.|.|.|.|.|.|.|.|.|.|.|.|.|.|.|.|.|.|.|.|.|.|.|.|.|.|.|.|.|.|.|.|.",
"|.|.|.|.|.|.|.|.|.|.|.|.|.|.|.|.|.|.|.|.|.|.|.|.|.|.|.|.|.|.|.|.|.|.|.|.|.|.|.|.|.|.|.|.|.|.|.|.|.|.|.|.",
"|.|.|.|.|.|.|.|.|.|.|.|.|.|.|.|.|.|.|.|.|.|.|.|.|.|.|.|.|.|.|.|.|.|.|.|.|.|.|.|.|.|.|.|.|.|.|.|.|.|.|.|.",
"|.|.|.|.|.|.|.|.|.|.|.|.|.|.|.|.|.|.|.|.|.|.|.|.|.|.|.|.|.|.|.|.|.|.|.|.|.|.|.|.|.|.|.|.|.|.|.|.|.|.|.|.",
"|.|.|.|.|.|.|.|.|.|.|.|.|.|.|.|.|.|.|.|.|.|.|.|.|.|.|.|.|.|.|.|.|.|.|.|.|.|.|.|.|.|.|.|.|.|.|.|.|.|.|.|.",
"|.|.|.|.|.|.|.|.|.|.|.|.|.|.|.|.|.|.|.|.|.|.|.|.|.|.|.|.|.|.|.|.|.|.|.|.|.|.|.|.|.|.|.|.|.|.|.|.|.|.|.|.",
"|.|.|.|.|.|.|.|.|.|.|.|.|.|.|.|.|.|.|.|.|.|.|.|.|.|.|.|.|.|.|.|.|.|.|.|.|.|.|.|.|.|.|.|.|.|.|.|.|.|.|.|.",
"|.|.|.|.|.|.|.|.|.|.|.|.|.|.|.|.|.|.|.|.|.|.|.|.|.|.|.|.|.|.|.|.|.|.|.|.|.|.|.|.|.|.|.|.|.|.|.|.|.|.|.|.",
"|.|.|.|.|.|.|.|.|.|.|.|.|.|.|.|.|.|.|.|.|.|.|.|.|.|.|.|.|.|.|.|.|.|.|.|.|.|.|.|.|.|.|.|.|.|.|.|.|.|.|.|.",
"|.|.|.|.|.|.|.|.|.|.|.|.|.|.|.|.|.|.|.|.|.|.|.|.|.|.|.|.|.|.|.|.|.|.|.|.|.|.|.|.|.|.|.|.|.|.|.|.|.|.|.|.",
"|.|.|.|.|.|.|.|.|.|.|.|.|.|.|.|.|.|.|.|.|.|.|.|.|.|.|.|.|.|.|.|.|.|.|.|.|.|.|.|.|.|.|.|.|.|.|.|.|.|.|.|.",
"|.|.|.|.|.|.|.|.|.|.|.|.|.|.|.|.|.|.|.|.|.|.|.|.|.|.|.|.|.|.|.|.|.|.|.|.|.|.|.|.|.|.|.|.|.|.|.|.|.|.|.|.",
"|.|.|.|.|.|.|.|.|.|.|.|.|.|.|.|.|.|.|.|.|.|.|.|.|.|.|.|.|.|.|.|.|.|.|.|.|.|.|.|.|.|.|.|.|.|.|.|.|.|.|.|.",
"|.|.|.|.|.|.|.|.|.|.|.|.|.|.|.|.|.|.|.|.|.|.|.u y 0 9 {.|.|.|.|.|.|.|.|.|.|.|.|.|.|.|.|.|.|.|.|.|.|.|.|.",
"|.|.|.|.|.|.|.|.|.|.|.|.|.|.|.|.|.|.|.|.|.  + Q.W.!.).j = t |.|.|.|.|.|.|.|.|.|.|.|.|.|.|.|.|.|.|.|.|.|.",
"|.|.|.|.|.|.|.|.|.|.|.|.|.|.|.|.|.|.|.|.  h 6._.'.J.T.R.(.k e |.|.|.|.|.|.|.|.|.|.|.|.|.|.|.|.|.|.|.|.|.",
"|.|.|.|.|.|.|.|.|.|.|.|.|.|.|.|.|.|.|.|.g /.F.K w.P.%.' U.}.f d |.|.|.|.|.|.|.|.|.|.|.|.|.|.|.|.|.|.|.|.",
"|.|.|.|.|.|.|.|.|.|.|.|.|.|.|.|.|.|.|.> `.E.) M ^ n.U n i.N.].- |.|.|.|.|.|.|.|.|.|.|.|.|.|.|.|.|.|.|.|.",
"|.|.|.|.|.|.|.|.|.|.|.|.|.|.|.|.|.|.i T L.C.k.-.#.~.u.+.q.f.K.6 8 |.|.|.|.|.|.|.|.|.|.|.|.|.|.|.|.|.|.|.",
"|.|.|.|.|.|.|.|.|.|.|.|.|.|.|.|.|.|.* E l.p.I.m.^.a.H.A.H F c.~ : |.|.|.|.|.|.|.|.|.|.|.|.|.|.|.|.|.|.|.",
"|.|.|.|.|.|.|.|.|.|.|.|.|.|.|.|.|.|.$ 2.V S r.M.;.B } b.C v v.Z % |.|.|.|.|.|.|.|.|.|.|.|.|.|.|.|.|.|.|.",
"|.|.|.|.|.|.|.|.|.|.|.|.|.|.|.|.|.|.# 1.b / d.s.4.N X.G.j.=.x.,.X |.|.|.|.|.|.|.|.|.|.|.|.|.|.|.|.|.|.|.",
"|.|.|.|.|.|.|.|.|.|.|.|.|.|.|.|.|.|.a <.{ y.Y.B.z.t.Z.D.h.>. .5.. |.|.|.|.|.|.|.|.|.|.|.|.|.|.|.|.|.|.|.",
"|.|.|.|.|.|.|.|.|.|.|.|.|.|.|.|.|.|.|.< $.0.e.*.g.S.V.o.J [ ..& |.|.|.|.|.|.|.|.|.|.|.|.|.|.|.|.|.|.|.|.",
"|.|.|.|.|.|.|.|.|.|.|.|.|.|.|.|.|.|.|.o R &.` L A @.! m P 3.Q ; |.|.|.|.|.|.|.|.|.|.|.|.|.|.|.|.|.|.|.|.",
"|.|.|.|.|.|.|.|.|.|.|.|.|.|.|.|.|.|.|.|., _ ] I | 7.O.G D Y 2 |.|.|.|.|.|.|.|.|.|.|.|.|.|.|.|.|.|.|.|.|.",
"|.|.|.|.|.|.|.|.|.|.|.|.|.|.|.|.|.|.|.|.|.p x W 9.8.:.( c 4 [.|.|.|.|.|.|.|.|.|.|.|.|.|.|.|.|.|.|.|.|.|.",
"|.|.|.|.|.|.|.|.|.|.|.|.|.|.|.|.|.|.|.|.|.|.O 5 1 l z 3 @ s |.|.|.|.|.|.|.|.|.|.|.|.|.|.|.|.|.|.|.|.|.|.",
"|.|.|.|.|.|.|.|.|.|.|.|.|.|.|.|.|.|.|.|.|.|.|.w q 7 r   |.|.|.|.|.|.|.|.|.|.|.|.|.|.|.|.|.|.|.|.|.|.|.|.",
"|.|.|.|.|.|.|.|.|.|.|.|.|.|.|.|.|.|.|.|.|.|.|.|.|.|.|.|.|.|.|.|.|.|.|.|.|.|.|.|.|.|.|.|.|.|.|.|.|.|.|.|.",
"|.|.|.|.|.|.|.|.|.|.|.|.|.|.|.|.|.|.|.|.|.|.|.|.|.|.|.|.|.|.|.|.|.|.|.|.|.|.|.|.|.|.|.|.|.|.|.|.|.|.|.|.",
"|.|.|.|.|.|.|.|.|.|.|.|.|.|.|.|.|.|.|.|.|.|.|.|.|.|.|.|.|.|.|.|.|.|.|.|.|.|.|.|.|.|.|.|.|.|.|.|.|.|.|.|.",
"|.|.|.|.|.|.|.|.|.|.|.|.|.|.|.|.|.|.|.|.|.|.|.|.|.|.|.|.|.|.|.|.|.|.|.|.|.|.|.|.|.|.|.|.|.|.|.|.|.|.|.|.",
"|.|.|.|.|.|.|.|.|.|.|.|.|.|.|.|.|.|.|.|.|.|.|.|.|.|.|.|.|.|.|.|.|.|.|.|.|.|.|.|.|.|.|.|.|.|.|.|.|.|.|.|.",
"|.|.|.|.|.|.|.|.|.|.|.|.|.|.|.|.|.|.|.|.|.|.|.|.|.|.|.|.|.|.|.|.|.|.|.|.|.|.|.|.|.|.|.|.|.|.|.|.|.|.|.|.",
"|.|.|.|.|.|.|.|.|.|.|.|.|.|.|.|.|.|.|.|.|.|.|.|.|.|.|.|.|.|.|.|.|.|.|.|.|.|.|.|.|.|.|.|.|.|.|.|.|.|.|.|.",
"|.|.|.|.|.|.|.|.|.|.|.|.|.|.|.|.|.|.|.|.|.|.|.|.|.|.|.|.|.|.|.|.|.|.|.|.|.|.|.|.|.|.|.|.|.|.|.|.|.|.|.|.",
"|.|.|.|.|.|.|.|.|.|.|.|.|.|.|.|.|.|.|.|.|.|.|.|.|.|.|.|.|.|.|.|.|.|.|.|.|.|.|.|.|.|.|.|.|.|.|.|.|.|.|.|.",
"|.|.|.|.|.|.|.|.|.|.|.|.|.|.|.|.|.|.|.|.|.|.|.|.|.|.|.|.|.|.|.|.|.|.|.|.|.|.|.|.|.|.|.|.|.|.|.|.|.|.|.|.",
"|.|.|.|.|.|.|.|.|.|.|.|.|.|.|.|.|.|.|.|.|.|.|.|.|.|.|.|.|.|.|.|.|.|.|.|.|.|.|.|.|.|.|.|.|.|.|.|.|.|.|.|.",
"|.|.|.|.|.|.|.|.|.|.|.|.|.|.|.|.|.|.|.|.|.|.|.|.|.|.|.|.|.|.|.|.|.|.|.|.|.|.|.|.|.|.|.|.|.|.|.|.|.|.|.|.",
"|.|.|.|.|.|.|.|.|.|.|.|.|.|.|.|.|.|.|.|.|.|.|.|.|.|.|.|.|.|.|.|.|.|.|.|.|.|.|.|.|.|.|.|.|.|.|.|.|.|.|.|.",
"|.|.|.|.|.|.|.|.|.|.|.|.|.|.|.|.|.|.|.|.|.|.|.|.|.|.|.|.|.|.|.|.|.|.|.|.|.|.|.|.|.|.|.|.|.|.|.|.|.|.|.|.",
"|.|.|.|.|.|.|.|.|.|.|.|.|.|.|.|.|.|.|.|.|.|.|.|.|.|.|.|.|.|.|.|.|.|.|.|.|.|.|.|.|.|.|.|.|.|.|.|.|.|.|.|.",
"|.|.|.|.|.|.|.|.|.|.|.|.|.|.|.|.|.|.|.|.|.|.|.|.|.|.|.|.|.|.|.|.|.|.|.|.|.|.|.|.|.|.|.|.|.|.|.|.|.|.|.|.",
"|.|.|.|.|.|.|.|.|.|.|.|.|.|.|.|.|.|.|.|.|.|.|.|.|.|.|.|.|.|.|.|.|.|.|.|.|.|.|.|.|.|.|.|.|.|.|.|.|.|.|.|.",
"|.|.|.|.|.|.|.|.|.|.|.|.|.|.|.|.|.|.|.|.|.|.|.|.|.|.|.|.|.|.|.|.|.|.|.|.|.|.|.|.|.|.|.|.|.|.|.|.|.|.|.|."
};
