/* XPM */
static char *result[] = {
/* columns rows colors chars-per-pixel */
"52 52 179 2 ",
"   c #17000D",
".  c #000010",
"X  c #00091C",
"o  c #1D0915",
"O  c #141319",
"+  c #2D0007",
"@  c #23000B",
"#  c #340100",
"$  c #2F120E",
"%  c #3A091F",
"&  c #393303",
"*  c #3D3500",
"=  c #0A052E",
"-  c #1C1E2D",
";  c #190930",
":  c #290827",
">  c #37002D",
",  c #2C1823",
"<  c #2E1228",
"1  c #2F1A2B",
"2  c #211E31",
"3  c #2C163C",
"4  c #3A202D",
"5  c #501703",
"6  c #44111A",
"7  c #620901",
"8  c #641C1D",
"9  c #711A20",
"0  c #64232B",
"q  c #772C27",
"w  c #3A5832",
"e  c #424019",
"r  c #626300",
"t  c #6C6B19",
"y  c #646426",
"u  c #171E52",
"i  c #042B54",
"p  c #1D2B5C",
"a  c #2E214F",
"s  c #362C44",
"d  c #39234A",
"f  c #36345C",
"g  c #181F67",
"h  c #10404E",
"j  c #3B4453",
"k  c #6D5C4A",
"l  c #AA1500",
"z  c #B81200",
"x  c #BC2B0C",
"c  c #BD2E0E",
"v  c #A02C1F",
"b  c #BA2511",
"n  c #8E2B2D",
"m  c #B83E26",
"M  c #C51404",
"N  c #ED1D00",
"B  c #FF1B00",
"V  c #C62300",
"C  c #DB2F09",
"Z  c #C72916",
"A  c #F9092E",
"S  c #BF4F0F",
"D  c #AA431A",
"F  c #B1511F",
"G  c #886801",
"H  c #BF4B24",
"J  c #B35A2E",
"K  c #B96A27",
"L  c #BF7F28",
"P  c #B96C34",
"I  c #C64200",
"U  c #DA4F0E",
"Y  c #C65F00",
"T  c #D24819",
"R  c #FD4A00",
"E  c #FF440F",
"W  c #EE5200",
"Q  c #F25D00",
"!  c #FF5C01",
"~  c #E6591B",
"^  c #FF5B14",
"/  c #DF690F",
"(  c #DB7200",
")  c #DA7700",
"_  c #D97C12",
"`  c #EC6900",
"'  c #F96700",
"]  c #FB6904",
"[  c #EC7B00",
"{  c #F37D00",
"}  c #E86110",
"|  c #F36114",
" . c #FA6811",
".. c #EE7019",
"X. c #EC7A1A",
"o. c #FF7710",
"O. c #D35322",
"+. c #E3573E",
"@. c #FF6824",
"#. c #FF6E2F",
"$. c #BB900D",
"%. c #D08100",
"&. c #DD890D",
"*. c #DC9600",
"=. c #DE9700",
"-. c #D08E13",
";. c #ED8000",
":. c #E88305",
">. c #E18806",
",. c #F38100",
"<. c #F08700",
"1. c #FF890A",
"2. c #E79606",
"3. c #E69E00",
"4. c #F1951B",
"5. c #C6AE04",
"6. c #D8B800",
"7. c #CAB315",
"8. c #E2AC00",
"9. c #E2AF04",
"0. c #FFAC00",
"q. c #E2B700",
"w. c #EAB203",
"e. c #FFB100",
"r. c #FFB300",
"t. c #F5BB02",
"y. c #F7BF00",
"u. c #FABA00",
"i. c #FFBB00",
"p. c #FFB608",
"a. c #F0BB09",
"s. c #EBA319",
"d. c #EFA818",
"f. c #FFAA17",
"g. c #F6AB1C",
"h. c #FFA81B",
"j. c #E4BA10",
"k. c #E4BB15",
"l. c #E8BA1C",
"z. c #FFB216",
"x. c #FFB715",
"c. c #FFB81A",
"v. c #FFBA1F",
"b. c #E18A20",
"n. c #E6863A",
"m. c #FFB82A",
"M. c #F8B135",
"N. c #DCC100",
"B. c #DFC500",
"V. c #D7D703",
"C. c #D8D10E",
"Z. c #EAC200",
"A. c #E9CE00",
"S. c #F4C207",
"D. c #FFCE00",
"F. c #E9D70B",
"G. c #FFD000",
"H. c #E6C216",
"J. c #FFC710",
"K. c #FFC116",
"L. c #FFCC1F",
"P. c #E2D610",
"I. c #FFEC07",
"U. c #F3E61C",
"Y. c #FEEE1D",
"T. c #FCF01E",
"R. c #FFCE21",
"E. c #FBC436",
"W. c #EFD334",
"Q. c #FFE83B",
"!. c #BA8E4D",
"~. c #8FA75B",
"^. c #FFCB4E",
"/. c #FFD444",
"(. c #FFF475",
"). c #FFFF75",
"_. c #CCD89A",
"`. c #FFFF88",
"'. c None",
/* pixels */
"'.'.'.'.'.'.'.'.'.'.'.'.'.'.'.'.'.'.'.'.'.'.'.'.'.'.'.'.'.'.'.'.'.'.'.'.'.'.'.'.'.'.'.'.'.'.'.'.'.'.'.'.",
"'.'.'.'.'.'.'.'.'.'.'.'.'.'.'.'.'.'.'.'.'.'.'.'.'.'.'.'.'.'.'.'.'.'.'.'.'.'.'.'.'.'.'.'.'.'.'.'.'.'.'.'.",
"'.'.'.'.'.'.'.'.'.'.'.'.'.'.'.'.'.'.'.'.'.'.'.'.'.'.'.'.'.'.'.'.'.'.'.'.'.'.'.'.'.'.'.'.'.'.'.'.'.'.'.'.",
"'.'.'.'.'.'.'.'.'.'.'.'.'.'.'.'.'.'.'.'.'.'.'.'.'.'.'.'.'.'.'.'.'.'.'.'.'.'.'.'.'.'.'.'.'.'.'.'.'.'.'.'.",
"'.'.'.'.'.'.'.'.'.'.'.'.'.'.'.'.'.'.'.'.'.'.'.'.'.'.'.'.'.'.'.'.'.'.'.'.'.'.'.'.'.'.'.'.'.'.'.'.'.'.'.'.",
"'.'.'.'.'.'.'.'.'.'.'.'.'.'.'.'.'.'.'.'.'.'.'.'.'.'.'.'.'.'.'.'.'.'.'.'.'.'.'.'.'.'.'.'.'.'.'.'.'.'.'.'.",
"'.'.'.'.'.'.'.'.'.'.'.'.'.'.'.'.'.'.'.'.'.'.'.'.'.'.'.'.'.'.'.'.'.'.'.'.'.'.'.'.'.'.'.'.'.'.'.'.'.'.'.'.",
"'.'.'.'.'.'.'.'.'.'.'.'.'.'.'.'.'.'.'.'.'.'.'.'.'.'.'.'.'.'.'.'.'.'.'.'.'.'.'.'.'.'.'.'.'.'.'.'.'.'.'.'.",
"'.'.'.'.'.'.'.'.'.'.'.'.'.'.'.'.'.'.'.'.'.'.'.'.'.'.'.'.'.'.'.'.'.'.'.'.'.'.'.'.'.'.'.'.'.'.'.'.'.'.'.'.",
"'.'.'.'.'.'.'.'.'.'.'.'.'.'.'.'.'.'.'.'.'.'.'.'.'.'.'.'.'.'.'.'.'.'.'.'.'.'.'.'.'.'.'.'.'.'.'.'.'.'.'.'.",
"'.'.'.'.'.'.'.'.'.'.'.'.'.'.'.'.'.'.'.'.'.'.'.'.'.'.'.'.'.'.'.'.'.'.'.'.'.'.'.'.'.'.'.'.'.'.'.'.'.'.'.'.",
"'.'.'.'.'.'.'.'.'.'.'.'.'.'.'.'.'.'.'.'.'.'.'.'.'.'.'.'.'.'.'.'.'.'.'.'.'.'.'.'.'.'.'.'.'.'.'.'.'.'.'.'.",
"'.'.'.'.'.'.'.'.'.'.'.'.'.'.'.'.'.'.'.'.'.'.'.'.'.'.'.'.'.'.'.'.'.'.'.'.'.'.'.'.'.'.'.'.'.'.'.'.'.'.'.'.",
"'.'.'.'.'.'.'.'.'.'.'.'.'.'.'.'.'.'.'.'.'.'.'.'.'.'.'.'.'.'.'.'.'.'.'.'.'.'.'.'.'.'.'.'.'.'.'.'.'.'.'.'.",
"'.'.'.'.'.'.'.'.'.'.'.'.'.'.'.'.'.'.'.'.'.'.'.'.'.'.'.'.'.'.'.'.'.'.'.'.'.'.'.'.'.'.'.'.'.'.'.'.'.'.'.'.",
"'.'.'.'.'.'.'.'.'.'.'.'.'.'.'.'.'.'.'.'.'.'.'.'.'.'.'.'.'.'.'.'.'.'.'.'.'.'.'.'.'.'.'.'.'.'.'.'.'.'.'.'.",
"'.'.'.'.'.'.'.'.'.'.'.'.'.'.'.'.'.'.'.'.'.'.'.'.'.'.'.'.'.'.'.'.'.'.'.'.'.'.'.'.'.'.'.'.'.'.'.'.'.'.'.'.",
"'.'.'.'.'.'.'.'.'.'.'.'.'.'.'.'.'.'.'.'.'.'.'.'.'.'.'.'.'.'.'.'.'.'.'.'.'.'.'.'.'.'.'.'.'.'.'.'.'.'.'.'.",
"'.'.'.'.'.'.'.'.'.'.'.'.'.'.'.'.'.'.'.'.'.'.- e y t r w X '.'.'.'.'.'.'.'.'.'.'.'.'.'.'.'.'.'.'.'.'.'.'.",
"'.'.'.'.'.'.'.'.'.'.'.'.'.'.'.'.'.'.'.'.'.k G 5.U.T.Y.).~.h '.'.'.'.'.'.'.'.'.'.'.'.'.'.'.'.'.'.'.'.'.'.",
"'.'.'.'.'.'.'.'.'.'.'.'.'.'.'.'.'.'.'.'.* 9.J.L.q.6.I.v.(._.j '.'.'.'.'.'.'.'.'.'.'.'.'.'.'.'.'.'.'.'.'.",
"'.'.'.'.'.'.'.'.'.'.'.'.'.'.'.'.'.'.'.s $.i.` X.R.D.t.#._ `.!.1 '.'.'.'.'.'.'.'.'.'.'.'.'.'.'.'.'.'.'.'.",
"'.'.'.'.'.'.'.'.'.'.'.'.'.'.'.'.'.'.'.$ M.1.M x e.y.s.A l f.^.# '.'.'.'.'.'.'.'.'.'.'.'.'.'.'.'.'.'.'.'.",
"'.'.'.'.'.'.'.'.'.'.'.'.'.'.'.'.'.'.6 c &.h.R ;.k.c.G. .I Q.g.C o '.'.'.'.'.'.'.'.'.'.'.'.'.'.'.'.'.'.'.",
"'.'.'.'.'.'.'.'.'.'.'.'.'.'.'.'.'.'.+ T d.H.m.x./.4.V.E.j.C.2.V % '.'.'.'.'.'.'.'.'.'.'.'.'.'.'.'.'.'.'.",
"'.'.'.'.'.'.'.'.'.'.'.'.'.'.'.'.'.'.@ S *.P.K.z.Q N ) a.F.Z.{ O.  '.'.'.'.'.'.'.'.'.'.'.'.'.'.'.'.'.'.'.",
"'.'.'.'.'.'.'.'.'.'.'.'.'.'.'.'.'.'.: F [ S.8.p.W B ] r.A.0.o.J . '.'.'.'.'.'.'.'.'.'.'.'.'.'.'.'.'.'.'.",
"'.'.'.'.'.'.'.'.'.'.'.'.'.'.'.'.'.'.a n ^ <.w.B.W.b.l.u.N.( @.5 f '.'.'.'.'.'.'.'.'.'.'.'.'.'.'.'.'.'.'.",
"'.'.'.'.'.'.'.'.'.'.'.'.'.'.'.'.'.'.'.> Z ..:.=.7.-.3.,.>.} m O '.'.'.'.'.'.'.'.'.'.'.'.'.'.'.'.'.'.'.'.",
"'.'.'.'.'.'.'.'.'.'.'.'.'.'.'.'.'.'.'.g 9 P U ! Y / ' | ~ +.0 '.'.'.'.'.'.'.'.'.'.'.'.'.'.'.'.'.'.'.'.'.",
"'.'.'.'.'.'.'.'.'.'.'.'.'.'.'.'.'.'.'.'.4 & H E n.L %.K D 7 2 '.'.'.'.'.'.'.'.'.'.'.'.'.'.'.'.'.'.'.'.'.",
"'.'.'.'.'.'.'.'.'.'.'.'.'.'.'.'.'.'.'.'.'.p < 8 v b z q , i '.'.'.'.'.'.'.'.'.'.'.'.'.'.'.'.'.'.'.'.'.'.",
"'.'.'.'.'.'.'.'.'.'.'.'.'.'.'.'.'.'.'.'.'.'.'.u = ; 3 d '.'.'.'.'.'.'.'.'.'.'.'.'.'.'.'.'.'.'.'.'.'.'.'.",
"'.'.'.'.'.'.'.'.'.'.'.'.'.'.'.'.'.'.'.'.'.'.'.'.'.'.'.'.'.'.'.'.'.'.'.'.'.'.'.'.'.'.'.'.'.'.'.'.'.'.'.'.",
"'.'.'.'.'.'.'.'.'.'.'.'.'.'.'.'.'.'.'.'.'.'.'.'.'.'.'.'.'.'.'.'.'.'.'.'.'.'.'.'.'.'.'.'.'.'.'.'.'.'.'.'.",
"'.'.'.'.'.'.'.'.'.'.'.'.'.'.'.'.'.'.'.'.'.'.'.'.'.'.'.'.'.'.'.'.'.'.'.'.'.'.'.'.'.'.'.'.'.'.'.'.'.'.'.'.",
"'.'.'.'.'.'.'.'.'.'.'.'.'.'.'.'.'.'.'.'.'.'.'.'.'.'.'.'.'.'.'.'.'.'.'.'.'.'.'.'.'.'.'.'.'.'.'.'.'.'.'.'.",
"'.'.'.'.'.'.'.'.'.'.'.'.'.'.'.'.'.'.'.'.'.'.'.'.'.'.'.'.'.'.'.'.'.'.'.'.'.'.'.'.'.'.'.'.'.'.'.'.'.'.'.'.",
"'.'.'.'.'.'.'.'.'.'.'.'.'.'.'.'.'.'.'.'.'.'.'.'.'.'.'.'.'.'.'.'.'.'.'.'.'.'.'.'.'.'.'.'.'.'.'.'.'.'.'.'.",
"'.'.'.'.'.'.'.'.'.'.'.'.'.'.'.'.'.'.'.'.'.'.'.'.'.'.'.'.'.'.'.'.'.'.'.'.'.'.'.'.'.'.'.'.'.'.'.'.'.'.'.'.",
"'.'.'.'.'.'.'.'.'.'.'.'.'.'.'.'.'.'.'.'.'.'.'.'.'.'.'.'.'.'.'.'.'.'.'.'.'.'.'.'.'.'.'.'.'.'.'.'.'.'.'.'.",
"'.'.'.'.'.'.'.'.'.'.'.'.'.'.'.'.'.'.'.'.'.'.'.'.'.'.'.'.'.'.'.'.'.'.'.'.'.'.'.'.'.'.'.'.'.'.'.'.'.'.'.'.",
"'.'.'.'.'.'.'.'.'.'.'.'.'.'.'.'.'.'.'.'.'.'.'.'.'.'.'.'.'.'.'.'.'.'.'.'.'.'.'.'.'.'.'.'.'.'.'.'.'.'.'.'.",
"'.'.'.'.'.'.'.'.'.'.'.'.'.'.'.'.'.'.'.'.'.'.'.'.'.'.'.'.'.'.'.'.'.'.'.'.'.'.'.'.'.'.'.'.'.'.'.'.'.'.'.'.",
"'.'.'.'.'.'.'.'.'.'.'.'.'.'.'.'.'.'.'.'.'.'.'.'.'.'.'.'.'.'.'.'.'.'.'.'.'.'.'.'.'.'.'.'.'.'.'.'.'.'.'.'.",
"'.'.'.'.'.'.'.'.'.'.'.'.'.'.'.'.'.'.'.'.'.'.'.'.'.'.'.'.'.'.'.'.'.'.'.'.'.'.'.'.'.'.'.'.'.'.'.'.'.'.'.'.",
"'.'.'.'.'.'.'.'.'.'.'.'.'.'.'.'.'.'.'.'.'.'.'.'.'.'.'.'.'.'.'.'.'.'.'.'.'.'.'.'.'.'.'.'.'.'.'.'.'.'.'.'.",
"'.'.'.'.'.'.'.'.'.'.'.'.'.'.'.'.'.'.'.'.'.'.'.'.'.'.'.'.'.'.'.'.'.'.'.'.'.'.'.'.'.'.'.'.'.'.'.'.'.'.'.'.",
"'.'.'.'.'.'.'.'.'.'.'.'.'.'.'.'.'.'.'.'.'.'.'.'.'.'.'.'.'.'.'.'.'.'.'.'.'.'.'.'.'.'.'.'.'.'.'.'.'.'.'.'.",
"'.'.'.'.'.'.'.'.'.'.'.'.'.'.'.'.'.'.'.'.'.'.'.'.'.'.'.'.'.'.'.'.'.'.'.'.'.'.'.'.'.'.'.'.'.'.'.'.'.'.'.'.",
"'.'.'.'.'.'.'.'.'.'.'.'.'.'.'.'.'.'.'.'.'.'.'.'.'.'.'.'.'.'.'.'.'.'.'.'.'.'.'.'.'.'.'.'.'.'.'.'.'.'.'.'.",
"'.'.'.'.'.'.'.'.'.'.'.'.'.'.'.'.'.'.'.'.'.'.'.'.'.'.'.'.'.'.'.'.'.'.'.'.'.'.'.'.'.'.'.'.'.'.'.'.'.'.'.'."
};
