/* XPM */
static char *result[] = {
/* columns rows colors chars-per-pixel */
"52 52 185 2 ",
"   c black",
".  c #0B0000",
"X  c #0F0200",
"o  c #03060B",
"O  c #170001",
"+  c #1F0B0A",
"@  c #000E13",
"#  c #0D0A11",
"$  c #00001B",
"%  c #160013",
"&  c #200003",
"*  c #210F1F",
"=  c #3C1711",
"-  c #3E1C11",
";  c #3C1F11",
":  c #3C351B",
">  c #0E0020",
",  c #000F35",
"<  c #1D0131",
"1  c #0F1D38",
"2  c #230039",
"3  c #31103D",
"4  c #1D2321",
"5  c #193026",
"6  c #48160D",
"7  c #45250E",
"8  c #433E00",
"9  c #6F261F",
"0  c #7F271B",
"q  c #763725",
"w  c #7F3033",
"e  c #644E14",
"r  c #776920",
"t  c #131745",
"y  c #131B42",
"u  c #001A54",
"i  c #162647",
"p  c #1A214D",
"a  c #092650",
"s  c #21244F",
"d  c #3C3F4E",
"f  c #002864",
"g  c #2F2665",
"h  c #353571",
"j  c #491752",
"k  c #2F4668",
"l  c #726F42",
"z  c #725D66",
"x  c #687A6E",
"c  c #7C7F74",
"v  c #822600",
"b  c #BD2E00",
"n  c #B62F0F",
"m  c #B23400",
"M  c #BB3706",
"N  c #9B2636",
"B  c #9A2F39",
"V  c #B2322F",
"C  c #AE3437",
"Z  c #DB1900",
"A  c #F90800",
"S  c #F80008",
"D  c #FF0B0A",
"F  c #FF120F",
"G  c #FF0611",
"H  c #EB2301",
"J  c #FF3100",
"K  c #E73E15",
"L  c #E6341D",
"P  c #B34600",
"I  c #A25A0E",
"U  c #BB5000",
"Y  c #A04B14",
"T  c #AD4B1C",
"R  c #9A4B20",
"E  c #A54431",
"W  c #AE4E36",
"Q  c #CA4800",
"!  c #C05700",
"~  c #D1550F",
"^  c #DA560E",
"/  c #CF4D11",
"(  c #EA4C00",
")  c #ED4F06",
"_  c #E8420E",
"`  c #EC5100",
"'  c #E65E00",
"]  c #F05B00",
"[  c #F04511",
"{  c #DC6000",
"}  c #DF6400",
"|  c #D4670C",
" . c #C37400",
".. c #C57600",
"X. c #DB7000",
"o. c #DB7300",
"O. c #DC6F10",
"+. c #D77011",
"@. c #E36000",
"#. c #ED660C",
"$. c #F96700",
"%. c #FF6A0F",
"&. c #FF7200",
"*. c #FF7E00",
"=. c #FF7F07",
"-. c #F46312",
";. c #FF661F",
":. c #FE681C",
">. c #F47919",
",. c #F0483D",
"<. c #F06E28",
"1. c #F76B2D",
"2. c #EB7D26",
"3. c #FC7C21",
"4. c #FF7A35",
"5. c #BE7B47",
"6. c #7F8539",
"7. c #9A8C00",
"8. c #AD9800",
"9. c #B99000",
"0. c #D48B00",
"q. c #C29D00",
"w. c #DC9B01",
"e. c #EC810D",
"r. c #F08D04",
"t. c #FF8712",
"y. c #FC8715",
"u. c #FE8915",
"i. c #E99018",
"p. c #CDBB00",
"a. c #E2BA00",
"s. c #F9B500",
"d. c #FFB600",
"f. c #FAB900",
"g. c #FFBB03",
"h. c #F9BC00",
"j. c #E9A216",
"k. c #F3A31E",
"l. c #FFB714",
"z. c #FFBD19",
"x. c #DAA825",
"c. c #FFB426",
"v. c #F9A634",
"b. c #FFAB32",
"n. c #AEE500",
"m. c #BEE10B",
"M. c #D2CA00",
"N. c #DEDD00",
"B. c #EFC20F",
"V. c #F6C403",
"C. c #FFC100",
"Z. c #FFC500",
"A. c #FFC501",
"S. c #F3C108",
"D. c #FAD100",
"F. c #FFD500",
"G. c #F9C61D",
"H. c #ECDC15",
"J. c #FFD01C",
"K. c #DEEB00",
"L. c #EFE20A",
"P. c #F0E71E",
"I. c #FCF31A",
"U. c #FFFF1A",
"Y. c #FFD423",
"T. c #FFC537",
"R. c #FFD23F",
"E. c #FFDF3C",
"W. c #B58464",
"Q. c #FF934B",
"!. c #DAA241",
"~. c #E6B348",
"^. c #FFCC40",
"/. c #FFCD4D",
"(. c #FFD143",
"). c #F3DE45",
"_. c #C4FF51",
"`. c #FFFF4A",
"'. c #FFFF58",
"]. c #FFD67B",
"[. c #FAF768",
"{. c #E1ED77",
"}. c #FAE474",
"|. c #FEFFAD",
" X c None",
/* pixels */
" X X X X X X X X X X X X X X X X X X X X X X X X X X X X X X X X X X X X X X X X X X X X X X X X X X X X",
" X X X X X X X X X X X X X X X X X X X X X X X X X X X X X X X X X X X X X X X X X X X X X X X X X X X X",
" X X X X X X X X X X X X X X X X X X X X X X X X X X X X X X X X X X X X X X X X X X X X X X X X X X X X",
" X X X X X X X X X X X X X X X X X X X X X X X X X X X X X X X X X X X X X X X X X X X X X X X X X X X X",
" X X X X X X X X X X X X X X X X X X X X X X X X X X X X X X X X X X X X X X X X X X X X X X X X X X X X",
" X X X X X X X X X X X X X X X X X X X X X X X X X X X X X X X X X X X X X X X X X X X X X X X X X X X X",
" X X X X X X X X X X X X X X X X X X X X X X X X X X X X X X X X X X X X X X X X X X X X X X X X X X X X",
" X X X X X X X X X X X X X X X X X X X X X X X X X X X X X X X X X X X X X X X X X X X X X X X X X X X X",
" X X X X X X X X X X X X X X X X X X X X X X X X X X X X X X X X X X X X X X X X X X X X X X X X X X X X",
" X X X X X X X X X X X X X X X X X X X X X X X X X X X X X X X X X X X X X X X X X X X X X X X X X X X X",
" X X X X X X X X X X X X X X X X X X X X X X X X X X X X X X X X X X X X X X X X X X X X X X X X X X X X",
" X X X X X X X X X X X X X X X X X X X X X X X X X X X X X X X X X X X X X X X X X X X X X X X X X X X X",
" X X X X X X X X X X X X X X X X X X X X X X X X X X X X X X X X X X X X X X X X X X X X X X X X X X X X",
" X X X X X X X X X X X X X X X X X X X X X X X X X X X X X X X X X X X X X X X X X X X X X X X X X X X X",
" X X X X X X X X X X X X X X X X X X X X X X X X X X X X X X X X X X X X X X X X X X X X X X X X X X X X",
" X X X X X X X X X X X X X X X X X X X X X X X X X X X X X X X X X X X X X X X X X X X X X X X X X X X X",
" X X X X X X X X X X X X X X X X X X X X X X X X X X X X X X X X X X X X X X X X X X X X X X X X X X X X",
" X X X X X X X X X X X X X X X X X X X X X X X X X X X X X X X X X X X X X X X X X X X X X X X X X X X X",
" X X X X X X X X X X X X X X X X X X X X X X X X      u  X X X X X X X X X X X X X X X X X X X X X X X X",
" X X X X X X X X X X X X X X X X X X X X X X  1 c l 8 r : s  X X X X X X X X X X X X X X X X X X X X X X",
" X X X X X X X X X X X X X X X X X X X X Xa x 6.[.P.U.F.9.e d  X X X X X X X X X X X X X X X X X X X X X",
" X X X X X X X X X X X X X X X X X X X Xt z |.].1.l.m.;.} `.7.X  X X X X X X X X X X X X X X X X X X X X",
" X X X X X X X X X X X X X X X X X X Xf W.{._.^ S $.p.D [  .^.5. X X X X X X X X X X X X X X X X X X X X",
" X X X X X X X X X X X X X X X X X X X@ !.'.n.t.A *.J.J b T.Y.b..  X X X X X X X X X X X X X X X X X X X",
" X X X X X X X X X X X X X X X X X Xk 6 }.).D.s.R.V.B.f.z.H.M.d.I ,  X X X X X X X X X X X X X X X X X X",
" X X X X X X X X X X X X X X X X X Xi 9 ~.(.Z.g.j.S.G.L.c.w.N.C.~ >  X X X X X X X X X X X X X X X X X X",
" X X X X X X X X X X X X X X X X X Xp = ' 0.I.` F @.E.i.H K /.! n <  X X X X X X X X X X X X X X X X X X",
" X X X X X X X X X X X X X X X X X Xh * _ u.8.) G =.a.y.Z L m <.0 y  X X X X X X X X X X X X X X X X X X",
" X X X X X X X X X X X X X X X X X X X3 V ,.+.v.>.A.K.h.r.P 3./ -  X X X X X X X X X X X X X X X X X X X",
" X X X X X X X X X X X X X X X X X X Xg 7 { &.o...k.q.x.e.( :.R o  X X X X X X X X X X X X X X X X X X X",
" X X X X X X X X X X X X X X X X X X X X4 v -.O.| #.X.U Q Q.T ;  X X X X X X X X X X X X X X X X X X X X",
" X X X X X X X X X X X X X X X X X X X X Xj B Y 2.%.] 4.M W &  X X X X X X X X X X X X X X X X X X X X X",
" X X X X X X X X X X X X X X X X X X X X X X2 O q C N E w %  X X X X X X X X X X X X X X X X X X X X X X",
" X X X X X X X X X X X X X X X X X X X X X X X X5 + # $    X X X X X X X X X X X X X X X X X X X X X X X",
" X X X X X X X X X X X X X X X X X X X X X X X X X X X X X X X X X X X X X X X X X X X X X X X X X X X X",
" X X X X X X X X X X X X X X X X X X X X X X X X X X X X X X X X X X X X X X X X X X X X X X X X X X X X",
" X X X X X X X X X X X X X X X X X X X X X X X X X X X X X X X X X X X X X X X X X X X X X X X X X X X X",
" X X X X X X X X X X X X X X X X X X X X X X X X X X X X X X X X X X X X X X X X X X X X X X X X X X X X",
" X X X X X X X X X X X X X X X X X X X X X X X X X X X X X X X X X X X X X X X X X X X X X X X X X X X X",
" X X X X X X X X X X X X X X X X X X X X X X X X X X X X X X X X X X X X X X X X X X X X X X X X X X X X",
" X X X X X X X X X X X X X X X X X X X X X X X X X X X X X X X X X X X X X X X X X X X X X X X X X X X X",
" X X X X X X X X X X X X X X X X X X X X X X X X X X X X X X X X X X X X X X X X X X X X X X X X X X X X",
" X X X X X X X X X X X X X X X X X X X X X X X X X X X X X X X X X X X X X X X X X X X X X X X X X X X X",
" X X X X X X X X X X X X X X X X X X X X X X X X X X X X X X X X X X X X X X X X X X X X X X X X X X X X",
" X X X X X X X X X X X X X X X X X X X X X X X X X X X X X X X X X X X X X X X X X X X X X X X X X X X X",
" X X X X X X X X X X X X X X X X X X X X X X X X X X X X X X X X X X X X X X X X X X X X X X X X X X X X",
" X X X X X X X X X X X X X X X X X X X X X X X X X X X X X X X X X X X X X X X X X X X X X X X X X X X X",
" X X X X X X X X X X X X X X X X X X X X X X X X X X X X X X X X X X X X X X X X X X X X X X X X X X X X",
" X X X X X X X X X X X X X X X X X X X X X X X X X X X X X X X X X X X X X X X X X X X X X X X X X X X X",
" X X X X X X X X X X X X X X X X X X X X X X X X X X X X X X X X X X X X X X X X X X X X X X X X X X X X",
" X X X X X X X X X X X X X X X X X X X X X X X X X X X X X X X X X X X X X X X X X X X X X X X X X X X X",
" X X X X X X X X X X X X X X X X X X X X X X X X X X X X X X X X X X X X X X X X X X X X X X X X X X X X"
};
