/* XPM */
static char *result[] = {
/* columns rows colors chars-per-pixel */
"52 52 235 2 ",
"   c #010707",
".  c #151806",
"X  c #00091C",
"o  c #280009",
"O  c #2F120E",
"+  c #301D00",
"@  c #2E0011",
"#  c #301E1C",
"$  c #37060F",
"%  c #1C2F02",
"&  c #362703",
"*  c #3B3402",
"=  c #223307",
"-  c #04152A",
";  c #010734",
":  c #0A1636",
">  c #171131",
",  c #2E1727",
"<  c #271A37",
"1  c #330A2B",
"2  c #143022",
"3  c #142D37",
"4  c #262626",
"5  c #3A202D",
"6  c #410008",
"7  c #4D0C0D",
"8  c #621800",
"9  c #68161A",
"0  c #620901",
"q  c #5F3411",
"w  c #5E2416",
"e  c #430224",
"r  c #711A20",
"t  c #7D1F37",
"y  c #482939",
"u  c #6F2D2D",
"i  c #334120",
"p  c #3A5234",
"a  c #424019",
"s  c #4F4811",
"d  c #7E5601",
"f  c #626300",
"g  c #7B6600",
"h  c #6C6B19",
"j  c #646426",
"k  c #000442",
"l  c #01114C",
"z  c #171E52",
"x  c #0A2759",
"c  c #192859",
"v  c #15244D",
"b  c #2C214A",
"n  c #382847",
"m  c #363A5A",
"M  c #2D3E58",
"N  c #181F67",
"B  c #332F62",
"V  c #242A74",
"C  c #432973",
"Z  c #10404E",
"A  c #3B4651",
"S  c #31407B",
"D  c #575E4E",
"F  c #6D5C4A",
"G  c #575B67",
"H  c #8A0405",
"J  c #B81200",
"K  c #B0190C",
"L  c #8C290D",
"P  c #BD2D0D",
"I  c #A52A1D",
"U  c #BA2511",
"Y  c #8E2B2D",
"T  c #B83E26",
"R  c #C51404",
"E  c #F80000",
"W  c #E81700",
"Q  c #FF1C00",
"!  c #F01A00",
"~  c #D02700",
"^  c #C73600",
"/  c #C72916",
"(  c #E32704",
")  c #F9092E",
"_  c #BC4E0F",
"`  c #BF5700",
"'  c #B4521B",
"]  c #AA431A",
"[  c #886801",
"{  c #A36005",
"}  c #BF4B24",
"|  c #BF7F28",
" . c #B96B2E",
".. c #C64200",
"X. c #DA4F0E",
"o. c #C65F00",
"O. c #D15E00",
"+. c #CA5A1B",
"@. c #DE5F10",
"#. c #D24819",
"$. c #FC4506",
"%. c #EE5200",
"&. c #FF5B01",
"*. c #F25D00",
"=. c #E85C16",
"-. c #FF5816",
";. c #EC4600",
":. c #C76406",
">. c #DB6B08",
",. c #DB7400",
"<. c #DD7E00",
"1. c #D07206",
"2. c #C07710",
"3. c #D97C12",
"4. c #EC6900",
"5. c #FA6804",
"6. c #E17200",
"7. c #EC7B00",
"8. c #FD7500",
"9. c #FF7A0A",
"0. c #E86110",
"q. c #F76316",
"w. c #ED751A",
"e. c #FA7417",
"r. c #C04F25",
"t. c #DA472A",
"y. c #CF522A",
"u. c #D45635",
"i. c #E3573E",
"p. c #FF6E2F",
"a. c #FC7829",
"s. c #E26A3A",
"d. c #F56C2D",
"f. c #9E3E42",
"g. c #B94D5B",
"h. c #BB900D",
"j. c #BBB716",
"k. c #D88903",
"l. c #DD9700",
"z. c #D08E13",
"x. c #D09313",
"c. c #E78404",
"v. c #F28400",
"b. c #FF890A",
"n. c #E89803",
"m. c #F89702",
"M. c #FF8D14",
"N. c #F08D17",
"B. c #CBA701",
"V. c #DBA607",
"C. c #DBB803",
"Z. c #CAB315",
"A. c #E5AA04",
"S. c #FBA904",
"D. c #E2B402",
"F. c #EABB00",
"G. c #E8B601",
"H. c #FEB102",
"J. c #F4BC01",
"K. c #FDBB00",
"L. c #FEB709",
"P. c #F5BB09",
"I. c #ECAC19",
"U. c #EBA319",
"Y. c #FFAA13",
"T. c #FFAB1A",
"R. c #FBA918",
"E. c #E7B915",
"W. c #FFB315",
"Q. c #FFBA1B",
"!. c #F8B711",
"~. c #D19736",
"^. c #E18A20",
"/. c #FF902F",
"(. c #EE8B38",
"). c #FFBB2C",
"_. c #FBBA26",
"`. c #EEA03B",
"'. c #E1BE3C",
"]. c #F5B436",
"[. c #FFA526",
"{. c #DEC300",
"}. c #D4C200",
"|. c #D8D409",
" X c #D5CD0C",
".X c #E7CD03",
"XX c #E9CB02",
"oX c #E9C603",
"OX c #F3C202",
"+X c #FDC301",
"@X c #FECF01",
"#X c #F7C70B",
"$X c #E8D806",
"%X c #FFD004",
"&X c #EDC51C",
"*X c #E9C617",
"=X c #FFC413",
"-X c #FFCD1C",
";X c #FACA18",
":X c #E9D715",
">X c #ECE600",
",X c #EBEE01",
"<X c #FFE515",
"1X c #F9EA1D",
"2X c #FCF01E",
"3X c #FFEC07",
"4X c #FBC927",
"5X c #FFDE26",
"6X c #EFD334",
"7X c #F8DA3A",
"8X c #FBC436",
"9X c #FFFF3D",
"0X c #F5E932",
"qX c #888B46",
"wX c #AE904C",
"eX c #8FA75B",
"rX c #CAAD43",
"tX c #FFCB48",
"yX c #FFD444",
"uX c #FFFF48",
"iX c #F6F858",
"pX c #FFE84A",
"aX c #F9D767",
"sX c #FFE26A",
"dX c #FFFF68",
"fX c #FFFF73",
"gX c #FFF475",
"hX c #CCD89A",
"jX c #FFFF85",
"kX c #FFFF88",
"lX c #F8F694",
"zX c #FFE898",
"xX c #F4F8B0",
"cX c #FCFFC8",
"vX c None",
/* pixels */
"vXvXvXvXvXvXvXvXvXvXvXvXvXvXvXvXvXvXvXvXvXvXvXvXvXvXvXvXvXvXvXvXvXvXvXvXvXvXvXvXvXvXvXvXvXvXvXvXvXvXvXvX",
"vXvXvXvXvXvXvXvXvXvXvXvXvXvXvXvXvXvXvXvXvXvXvXvXvXvXvXvXvXvXvXvXvXvXvXvXvXvXvXvXvXvXvXvXvXvXvXvXvXvXvXvX",
"vXvXvXvXvXvXvXvXvXvXvXvXvXvXvXvXvXvXvXvXvXvXvXvXvXvXvXvXvXvXvXvXvXvXvXvXvXvXvXvXvXvXvXvXvXvXvXvXvXvXvXvX",
"vXvXvXvXvXvXvXvXvXvXvXvXvXvXvXvXvXvXvXvXvXvXvXvXvXvXvXvXvXvXvXvXvXvXvXvXvXvXvXvXvXvXvXvXvXvXvXvXvXvXvXvX",
"vXvXvXvXvXvXvXvXvXvXvXvXvXvXvXvXvXvXvXvXvXvXvXvXvXvXvXvXvXvXvXvXvXvXvXvXvXvXvXvXvXvXvXvXvXvXvXvXvXvXvXvX",
"vXvXvXvXvXvXvXvXvXvXvXvXvXvXvXvXvXvXvXvXvXvXvXvXvXvXvXvXvXvXvXvXvXvXvXvXvXvXvXvXvXvXvXvXvXvXvXvXvXvXvXvX",
"vXvXvXvXvXvXvXvXvXvXvXvXvXvXvXvXvXvXvXvXvXvXvXvXvXvXvXvXvXvXvXvXvXvXvXvXvXvXvXvXvXvXvXvXvXvXvXvXvXvXvXvX",
"vXvXvXvXvXvXvXvXvXvXvXvXvXvXvXvXvXvXvXvXvXvXvXvXvXvXvXvXvXvXvXvXvXvXvXvXvXvXvXvXvXvXvXvXvXvXvXvXvXvXvXvX",
"vXvXvXvXvXvXvXvXvXvXvXvXvXvXvXvXvXvXvXvXvXvXvXvXvXvXvXvXvXvXvXvXvXvXvXvXvXvXvXvXvXvXvXvXvXvXvXvXvXvXvXvX",
"vXvXvXvXvXvXvXvXvXvXvXvXvXvXvXvXvXvXvXvXvXvXvXvXvXvXvXvXvXvXvXvXvXvXvXvXvXvXvXvXvXvXvXvXvXvXvXvXvXvXvXvX",
"vXvXvXvXvXvXvXvXvXvXvXvXvXvXvXvXvXvXvXvXvXvXvXvXvXvXvXvXvXvXvXvXvXvXvXvXvXvXvXvXvXvXvXvXvXvXvXvXvXvXvXvX",
"vXvXvXvXvXvXvXvXvXvXvXvXvXvXvXvXvXvXvXvXvXvXvXvXvXvXvXvXvXvXvXvXvXvXvXvXvXvXvXvXvXvXvXvXvXvXvXvXvXvXvXvX",
"vXvXvXvXvXvXvXvXvXvXvXvXvXvXvXvXvXvXvXvXvXvXvXvXvXvXvXvXvXvXvXvXvXvXvXvXvXvXvXvXvXvXvXvXvXvXvXvXvXvXvXvX",
"vXvXvXvXvXvXvXvXvXvXvXvXvXvXvXvXvXvXvXvXvXvXvXvXvXvXvXvXvXvXvXvXvXvXvXvXvXvXvXvXvXvXvXvXvXvXvXvXvXvXvXvX",
"vXvXvXvXvXvXvXvXvXvXvXvXvXvXvXvXvXvXvXvXvXvXvXvXvXvXvXvXvXvXvXvXvXvXvXvXvXvXvXvXvXvXvXvXvXvXvXvXvXvXvXvX",
"vXvXvXvXvXvXvXvXvXvXvXvXvXvXvXvXvXvXvXvXvXvXvXvXvXm i = % p vXvXvXvXvXvXvXvXvXvXvXvXvXvXvXvXvXvXvXvXvXvX",
"vXvXvXvXvXvXvXvXvXvXvXvXvXvXvXvXvXvXvXvXvXvXvXm & [ 6XiXfXaXs 3 vXvXvXvXvXvXvXvXvXvXvXvXvXvXvXvXvXvXvXvX",
"vXvXvXvXvXvXvXvXvXvXvXvXvXvXvXvXvXvXvXvXvXvX: g 5X<XB.L.k.aXlXcXA vXvXvXvXvXvXvXvXvXvXvXvXvXvXvXvXvXvXvX",
"vXvXvXvXvXvXvXvXvXvXvXvXvXvXvXvXvXvXvXvXvXV wXC.G.J.@X9.~ P ].iXlXG vXvXvXvXvXvXvXvXvXvXvXvXvXvXvXvXvXvX",
"vXvXvXvXvXvXvXvXvXvXvXvXvXvXvXvXvXvXvXvXvX. C.+XQ.8XoXp.! $.W.>XuXqXvXvXvXvXvXvXvXvXvXvXvXvXvXvXvXvXvXvX",
"vXvXvXvXvXvXvXvXvXvXvXvXvXvXvXvXvXvXvXvX- [ Q.l.|.0XV.=XB.).4XoXD.aX& vXvXvXvXvXvXvXvXvXvXvXvXvXvXvXvXvX",
"vXvXvXvXvXvXvXvXvXvXvXvXvXvXvXvXvXvXvXvX4 { S.+X!.5.&.K.&XE.L.oX#X`.q vXvXvXvXvXvXvXvXvXvXvXvXvXvXvXvXvX",
"vXvXvXvXvXvXvXvXvXvXvXvXvXvXvXvX4 i j h f p X yX/.W E A.;XI.:     - 0 vXvXvXvXvXvXvXvXvXvXvXvXvXvXvXvXvX",
"vXvXvXvXvXvXvXvXvXvXvXvXvXvXvXF [ B.1X2X1XgXeXZ !.,.=.J.> s rX'.dXlXD x vXvXvXvXvXvXvXvXvXvXvXvXvXvXvXvX",
"vXvXvXvXvXvXvXvXvXvXvXvXvXvX* D.%X4XD.C.3XQ.gXhXA  XyX. j..X@XH.*XpXjXxX2 vXvXvXvXvXvXvXvXvXvXvXvXvXvXvX",
"vXvXvXvXvXvXvXvXvXvXvXvXvXn h.K.4.w.-X@XP.p.3.kXwX, + k.C.;Xm.J.Y.$XiXxX~.4 vXvXvXvXvXvXvXvXvXvXvXvXvXvX",
"vXvXvXvXvXvXvXvXvXvXvXvXvXO ].b.R P H.OXU.) K Y.tX; L [.=X#X#X:X@X4X}.9XzX2.@ vXvXvXvXvXvXvXvXvXvXvXvXvX",
"vXvXvXvXvXvXvXvXvXvXvXvX7 P z.T.$.v.E.Q.@Xq...0X[.1 +.H.+XoX&Xm.m.).G.>XjX,.H V vXvXvXvXvXvXvXvXvXvXvXvX",
"vXvXvXvXvXvXvXvXvXvXvXvXo #.I.*X).W.yXN.|.8XE. Xl t :.G.F.oXW.Q W S._.).,X` I k vXvXvXvXvXvXvXvXvXvXvXvX",
"vXvXvXvXvXvXvXvXvXvXvXvXo _ l.:X=XW.4.! <.P.$XoXv 9 ` P.OX;X).Q ( k.Q.). X/.H c vXvXvXvXvXvXvXvXvXvXvXvX",
"vXvXvXvXvXvXvXvXvXvXvXvX1 ' 7.OXV.L.%.Q 5.H.XXS.v 7 d.8.T.&X&XT.=XA.+XXXZ.5.U ; vXvXvXvXvXvXvXvXvXvXvXvX",
"vXvXvXvXvXvXvXvXvXvXvXvXb Y -.v.G.oX6X^.E.K.{.,.c y u.;.M.n.A.2X<X4XK.k.s.^ f.; vXvXvXvXvXvXvXvXvXvXvXvX",
"vXvXvXvXvXvXvXvXvXvXvXvXvX1 / q.7.l.Z.x.A.7.k.=.T v 0 p.1.,.S.D.m.@Xx.t.-.g.  vXvXvXvXvXvXvXvXvXvXvXvXvX",
"vXvXvXvXvXvXvXvXvXvXvXvXvXN r  .=.5.o.@.5.q.@.i.u B 9 _ N.6.O.e.>.o.6.e.t.t B vXvXvXvXvXvXvXvXvXvXvXvXvX",
"vXvXvXvXvXvXvXvXvXvXvXvXvXvX5 * } ( (.| <. .] 0 < vXM u r.d.5.4.=.M.a.' w b vXvXvXvXvXvXvXvXvXvXvXvXvXvX",
"vXvXvXvXvXvXvXvXvXvXvXvXvXvXvXN , 9 I / J u # x vXvXvXvXe L r.:.s.#.L $ vXvXvXvXvXvXvXvXvXvXvXvXvXvXvXvX",
"vXvXvXvXvXvXvXvXvXvXvXvXvXvXvXvXvXz ; > b n vXvXvXvXvXvXvX3 # 7 $ 6 5 vXvXvXvXvXvXvXvXvXvXvXvXvXvXvXvXvX",
"vXvXvXvXvXvXvXvXvXvXvXvXvXvXvXvXvXvXvXvXvXvXvXvXvXvXvXvXvXvXvXvXvXvXvXvXvXvXvXvXvXvXvXvXvXvXvXvXvXvXvXvX",
"vXvXvXvXvXvXvXvXvXvXvXvXvXvXvXvXvXvXvXvXvXvXvXvXvXvXvXvXvXvXvXvXvXvXvXvXvXvXvXvXvXvXvXvXvXvXvXvXvXvXvXvX",
"vXvXvXvXvXvXvXvXvXvXvXvXvXvXvXvXvXvXvXvXvXvXvXvXvXvXvXvXvXvXvXvXvXvXvXvXvXvXvXvXvXvXvXvXvXvXvXvXvXvXvXvX",
"vXvXvXvXvXvXvXvXvXvXvXvXvXvXvXvXvXvXvXvXvXvXvXvXvXvXvXvXvXvXvXvXvXvXvXvXvXvXvXvXvXvXvXvXvXvXvXvXvXvXvXvX",
"vXvXvXvXvXvXvXvXvXvXvXvXvXvXvXvXvXvXvXvXvXvXvXvXvXvXvXvXvXvXvXvXvXvXvXvXvXvXvXvXvXvXvXvXvXvXvXvXvXvXvXvX",
"vXvXvXvXvXvXvXvXvXvXvXvXvXvXvXvXvXvXvXvXvXvXvXvXvXvXvXvXvXvXvXvXvXvXvXvXvXvXvXvXvXvXvXvXvXvXvXvXvXvXvXvX",
"vXvXvXvXvXvXvXvXvXvXvXvXvXvXvXvXvXvXvXvXvXvXvXvXvXvXvXvXvXvXvXvXvXvXvXvXvXvXvXvXvXvXvXvXvXvXvXvXvXvXvXvX",
"vXvXvXvXvXvXvXvXvXvXvXvXvXvXvXvXvXvXvXvXvXvXvXvXvXvXvXvXvXvXvXvXvXvXvXvXvXvXvXvXvXvXvXvXvXvXvXvXvXvXvXvX",
"vXvXvXvXvXvXvXvXvXvXvXvXvXvXvXvXvXvXvXvXvXvXvXvXvXvXvXvXvXvXvXvXvXvXvXvXvXvXvXvXvXvXvXvXvXvXvXvXvXvXvXvX",
"vXvXvXvXvXvXvXvXvXvXvXvXvXvXvXvXvXvXvXvXvXvXvXvXvXvXvXvXvXvXvXvXvXvXvXvXvXvXvXvXvXvXvXvXvXvXvXvXvXvXvXvX",
"vXvXvXvXvXvXvXvXvXvXvXvXvXvXvXvXvXvXvXvXvXvXvXvXvXvXvXvXvXvXvXvXvXvXvXvXvXvXvXvXvXvXvXvXvXvXvXvXvXvXvXvX",
"vXvXvXvXvXvXvXvXvXvXvXvXvXvXvXvXvXvXvXvXvXvXvXvXvXvXvXvXvXvXvXvXvXvXvXvXvXvXvXvXvXvXvXvXvXvXvXvXvXvXvXvX",
"vXvXvXvXvXvXvXvXvXvXvXvXvXvXvXvXvXvXvXvXvXvXvXvXvXvXvXvXvXvXvXvXvXvXvXvXvXvXvXvXvXvXvXvXvXvXvXvXvXvXvXvX",
"vXvXvXvXvXvXvXvXvXvXvXvXvXvXvXvXvXvXvXvXvXvXvXvXvXvXvXvXvXvXvXvXvXvXvXvXvXvXvXvXvXvXvXvXvXvXvXvXvXvXvXvX",
"vXvXvXvXvXvXvXvXvXvXvXvXvXvXvXvXvXvXvXvXvXvXvXvXvXvXvXvXvXvXvXvXvXvXvXvXvXvXvXvXvXvXvXvXvXvXvXvXvXvXvXvX"
};
