/* XPM */
static char *result[] = {
/* columns rows colors chars-per-pixel */
"52 52 254 2 ",
"   c #050405",
".  c #1A0404",
"X  c #031705",
"o  c #020718",
"O  c #0F1119",
"+  c #260504",
"@  c #261900",
"#  c #270019",
"$  c #3A141A",
"%  c #380005",
"&  c #142C07",
"*  c #3B2403",
"=  c #373607",
"-  c #2D3410",
";  c #000324",
":  c #02092A",
">  c #160823",
",  c #000336",
"<  c #04183A",
"1  c #0A112A",
"2  c #34112F",
"3  c #092D34",
"4  c #342D2F",
"5  c #430004",
"6  c #5B0302",
"7  c #4A1607",
"8  c #5C1304",
"9  c #521418",
"0  c #750205",
"q  c #6E1302",
"w  c #720F10",
"e  c #452701",
"r  c #52320B",
"t  c #742501",
"y  c #683608",
"u  c #723619",
"i  c #470D27",
"p  c #68142B",
"a  c #522F2D",
"s  c #753231",
"d  c #3B4604",
"f  c #365217",
"g  c #266800",
"h  c #374826",
"j  c #544E15",
"k  c #6E4A15",
"l  c #486A1A",
"z  c #7C6703",
"x  c #747106",
"c  c #58593A",
"v  c #7C5831",
"b  c #5B6139",
"n  c #7A6935",
"m  c #0B104E",
"M  c #310D50",
"N  c #022E58",
"B  c #253451",
"V  c #0C0966",
"C  c #201F65",
"Z  c #1A326C",
"A  c #263669",
"S  c #6F1A52",
"D  c #4D2F46",
"F  c #6D3246",
"G  c #4A0B40",
"H  c #244242",
"J  c #6F7551",
"K  c #57674A",
"L  c #910E08",
"P  c #BD1705",
"I  c #A6091A",
"U  c #86350B",
"Y  c #B22E07",
"T  c #962337",
"R  c #8F2B2A",
"E  c #B52D2D",
"W  c #DA0204",
"Q  c #DB1218",
"!  c #CD1105",
"~  c #EA0101",
"^  c #FC0B02",
"/  c #E51900",
"(  c #FE1D01",
")  c #FC1505",
"_  c #FF151D",
"`  c #EB0A16",
"'  c #D73402",
"]  c #D2300E",
"[  c #E82900",
"{  c #F83506",
"}  c #F13506",
"|  c #D50E2D",
" . c #FF0725",
".. c #EC1133",
"X. c #C83936",
"o. c #C72F28",
"O. c #F42C30",
"+. c #8C4E0C",
"@. c #A7490A",
"#. c #BF5809",
"$. c #AE5405",
"%. c #B87703",
"&. c #BB6F12",
"*. c #AE6E16",
"=. c #914221",
"-. c #AD4C26",
";. c #897436",
":. c #8B7C07",
">. c #C45800",
",. c #D85604",
"<. c #D14D17",
"1. c #E54805",
"2. c #FC4503",
"3. c #E95405",
"4. c #FA5803",
"5. c #F44717",
"6. c #FD5A15",
"7. c #E54E19",
"8. c #C26607",
"9. c #C97400",
"0. c #D37200",
"q. c #C8791A",
"w. c #D26911",
"e. c #E86703",
"r. c #FE6D01",
"t. c #F86804",
"y. c #E87701",
"u. c #FA7B04",
"i. c #FF6A14",
"p. c #E8781A",
"a. c #FA7814",
"s. c #E86417",
"d. c #CD512F",
"f. c #FD5132",
"g. c #CF7639",
"h. c #D36E2A",
"j. c #FF6628",
"k. c #FB7526",
"l. c #E5722D",
"z. c #AB184A",
"x. c #AC2255",
"c. c #CA0B47",
"v. c #CC0067",
"b. c #BC4B48",
"n. c #AB6748",
"m. c #FF5348",
"M. c #F24545",
"N. c #C97049",
"B. c #F36659",
"V. c #799914",
"C. c #AA9400",
"Z. c #BF9800",
"A. c #ABB610",
"S. c #8E8E2B",
"D. c #99A628",
"F. c #9F941D",
"G. c #DA8900",
"H. c #C89708",
"J. c #D59617",
"K. c #D09109",
"L. c #E88902",
"P. c #FF8300",
"I. c #F78903",
"U. c #E89702",
"Y. c #F69502",
"T. c #FA8B1A",
"R. c #FF9819",
"E. c #E88D16",
"W. c #CBA100",
"Q. c #D8A704",
"!. c #D8B503",
"~. c #CBAD0D",
"^. c #E8A604",
"/. c #FEA301",
"(. c #F7AB02",
"). c #E3B301",
"_. c #ECB704",
"`. c #FEB301",
"'. c #FEBC01",
"]. c #F9B808",
"[. c #F7A417",
"{. c #EEB615",
"}. c #FDB31B",
"|. c #FBB917",
" X c #FA8A28",
".X c #FC9528",
"XX c #FF9837",
"oX c #E8942C",
"OX c #CEBE25",
"+X c #D0AB2B",
"@X c #FEAA25",
"#X c #FFAA34",
"$X c #F3B92D",
"%X c #DA8A29",
"&X c #96CE2B",
"*X c #CDCE08",
"=X c #DAC607",
"-X c #D9D604",
";X c #CAD108",
":X c #E9C902",
">X c #F3C402",
",X c #FDC501",
"<X c #FCC901",
"1X c #F8C60B",
"2X c #E9DA03",
"3X c #FDD301",
"4X c #F8D904",
"5X c #FDC618",
"6X c #FAD617",
"7X c #DAFF1B",
"8X c #EAE902",
"9X c #F9E207",
"0X c #F6F806",
"qX c #FEE516",
"wX c #FDF514",
"eX c #EDF70D",
"rX c #D0CC2D",
"tX c #FCC526",
"yX c #FBD52A",
"uX c #FCC93A",
"iX c #FCD735",
"pX c #E7CD33",
"aX c #FEF72A",
"sX c #FBE838",
"dX c #F2E527",
"fX c #B99F42",
"gX c #9B975E",
"hX c #F19248",
"jX c #F5B44E",
"kX c #BDC55E",
"lX c #F4C753",
"zX c #CEE551",
"xX c #F9FC47",
"cX c #FDFF52",
"vX c #EBE84A",
"bX c #CAD769",
"nX c #F9F567",
"mX c #F5F06D",
"MX c #2F4996",
"NX c #5C4883",
"BX c #56A482",
"VX c #A4A194",
"CX c #E8B7A9",
"ZX c #D7F483",
"AX c #F7F38C",
"SX c #F9F19C",
"DX c #EEF196",
"FX c #D1F1B2",
"GX c #FCFCB7",
"HX c #E4EBAC",
"JX c #A1CEC8",
"KX c #F8F2CC",
"LX c #FBEAE0",
"PX c None",
/* pixels */
"PXPXPXPXPXPXPXPXPXPXPXPXPXPXPXPXPXPXPXPXPXPXPXPXPXPXPXPXPXPXPXPXPXPXPXPXPXPXPXPXPXPXPXPXPXPXPXPXPXPXPXPX",
"PXPXPXPXPXPXPXPXPXPXPXPXPXPXPXPXPXPXPXPXPXPXPXPXPXPXPXPXPXPXPXPXPXPXPXPXPXPXPXPXPXPXPXPXPXPXPXPXPXPXPXPX",
"PXPXPXPXPXPXPXPXPXPXPXPXPXPXPXPXPXPXPXPXPXPXPXPXPXPXPXPXPXPXPXPXPXPXPXPXPXPXPXPXPXPXPXPXPXPXPXPXPXPXPXPX",
"PXPXPXPXPXPXPXPXPXPXPXPXPXPXPXPXPXPXPXPXPXPXPXPXPXPXPXPXPXPXPXPXPXPXPXPXPXPXPXPXPXPXPXPXPXPXPXPXPXPXPXPX",
"PXPXPXPXPXPXPXPXPXPXPXPXPXPXPXPXPXPXPXPXPXPXPXPXPXPXPXPXPXPXPXPXPXPXPXPXPXPXPXPXPXPXPXPXPXPXPXPXPXPXPXPX",
"PXPXPXPXPXPXPXPXPXPXPXPXPXPXPXPXPXPXPXPXPXPXPXPXPXPXPXPXPXPXPXPXPXPXPXPXPXPXPXPXPXPXPXPXPXPXPXPXPXPXPXPX",
"PXPXPXPXPXPXPXPXPXPXPXPXPXPXPXPXPXPXPXPXPXPXPXPXPXPXPXPXPXPXPXPXPXPXPXPXPXPXPXPXPXPXPXPXPXPXPXPXPXPXPXPX",
"PXPXPXPXPXPXPXPXPXPXPXPXPXPXPXPXPXPXPXPXPXPXPXPXPXPXPXPXPXPXPXPXPXPXPXPXPXPXPXPXPXPXPXPXPXPXPXPXPXPXPXPX",
"PXPXPXPXPXPXPXPXPXPXPXPXPXPXPXPXPXPXPXPXPXPXPXPXPXPXPXPXPXPXPXPXPXPXPXPXPXPXPXPXPXPXPXPXPXPXPXPXPXPXPXPX",
"PXPXPXPXPXPXPXPXPXPXPXPXPXPXPXPXPXPXPXPXPXPXPXPXPXPXPXPXPXPXPXPXPXPXPXPXPXPXPXPXPXPXPXPXPXPXPXPXPXPXPXPX",
"PXPXPXPXPXPXPXPXPXPXPXPXPXPXPXPXPXPXPXPXPXPXPXPXPXPXPXPXPXPXPXPXPXPXPXPXPXPXPXPXPXPXPXPXPXPXPXPXPXPXPXPX",
"PXPXPXPXPXPXPXPXPXPXPXPXPXPXPXPXPXPXPXPXPXPXPXPXPXPXPXPXPXPXPXPXPXPXPXPXPXPXPXPXPXPXPXPXPXPXPXPXPXPXPXPX",
"PXPXPXPXPXPXPXPXPXPXPXPXPXPXPXPXPXPXPXPXPXPXPXPXm : o o PXPXPXPXPXPXPXPXPXPXPXPXPXPXPXPXPXPXPXPXPXPXPXPX",
"PXPXPXPXPXPXPXPXPXPXPXPXPXPX; o & o PXPXPXPX; - F.rXC.+Xr ; PXPXPX< ; < m PXPXPXPXPXPXPXPXPXPXPXPXPXPXPX",
"PXPXPXPXPXPXPXPXPXPXPXPX4 @ fXlXrXmXJ : PXo DXvX3X(.yX_.Q.lX@ 1 j GXbXAXDXh : PXPXPXPXPXPXPXPXPXPXPXPXPX",
"PXPXPXPXPXPXPXPXPXPXPXB S.iX:X,XwXnXGXKX= zXaX9X].p.Y #X>X4X+X2 cX-XwXwXaXnXHX- PXPXPXPXPXPXPXPXPXPXPXPX",
"PXPXPXPXPXPXPXPXPXPXM &.<X:X5X(.yX!.cX= fXsX! P.Y.^ Q L..X .t.%.> ) (.*X( } 0XKXh PXPXPXPXPXPXPXPXPXPXPX",
"PXPXPXPXPXPXPXPXPXPX+.U.@X+X4X<X{.].wX$ CXd.Q 5.sXp.t.-Xi.c.O.>.r W a.T.~ ..yXdXhX1 PXPXPXPXPXPXPXPXPXPX",
"PXPXPXPXPXPXPXPXPXD @.5X~.pXtXu. X[.= 2 KXqX0.jX3X/.eX].:Xr.jXR.S & eXE.^.tXQ.@XI.e PXPXPXPXPXPXPXPXPXPX",
"PXPXPXPXPXPXPXPXPX5 9.W.8X8X[.{ ) U.V.S %XvXqX!.|.{./.rX(.<Xl.8.T l `.L.dX5.( L.$Xp PXPXPXPXPXPXPXPXPXPX",
"PXPXPXPXPXPXPXPXPXV i y F r oXe.! _.c 6 6.Y.6.`.-X}.1X).aX5.| ] L G ^ ( W.}.0 > & $ PXPXPXPXPXPXPXPXPXPX",
"PXPXPXPXPXPXPXPX2 * A.;XD.VX= 4 ].<Xz 2 p.o.v.E W.#Xa.Y._.4.! k.k X 3.O.v X bXC.&XbXJ > PXPXPXPXPXPXPXPX",
"PXPXPXPXPXPXH - T.].qX*XxXmXFXJXr uX*Xk F N.z.*.s.l.| L l.9.3.T o iX1Xk x +XY.#X;XcXmXAXf PXPXPXPXPXPXPX",
"PXPXPXPXPXA j OX1X].!.#X' I.9XDXVXu *X8 0 0.4.r.w.H.<.{ l.N.y.I 9 } ;.h ].1.Y.OX].,.' mXFXM PXPXPXPXPXPX",
"PXPXPXPXPXX @XiX`.R.rXP.! ~ yXeXSXBX% (.a S 2.K.S.3.f.p.s.j.x.8 ^ z.+ ,.3.` / :XU.) ~ +XnXKXB PXPXPXPXPX",
"PXPXPXPXPX= (._.<X4X*X,Xj./.>X].nX;.7 :.a % T U 8.6.3.C.s 7   c Y 6 u 5.jXt.T.tXaXu.t.3X:XjXF PXPXPXPXPX",
"PXPXPXPXC g.1X_.@X_.U.9XT.).qX^.;.z A K r a . 2 t # p U m @ :.g l - q 7.Q.4X=X_.Q.6X_.2XqXY.L M PXPXPXPX",
"PXPXPXPX; ] _.<X X( / }.|.3XJ.x n A.mXAXdXeXx r o MXV r -.uX~.xXnXZXJ R %X<XY.2.W E.5XlXQ.G.>.# PXPXPXPX",
"PXPXPXPX; P K.}.!.{  .U.:XdXj VXFXiXoX6X'.y.3XlX@.3 K ,X8X2XI.).`.8XZXJX@ z nXM.) .X.Xf.7.e.h.> PXPXPXPX",
"PXPXPXPXV b.0.E.*X5XXX<X}.d VXDXzXW [ J.4. .! |.,Xe d 6X3.XX_.qXlXL.9.GXVX& :.tXy.].e.W _ 2.U m PXPXPXPX",
"PXPXPXPXPX$ Y h.J.!.,X4XoXO LX9X=X4.! yX/...u.'.2XF.v l.| [ Y.-Xp._ ) I. X6 -.Z.~.0.e.1.[ 7.u PXPXPXPXPX",
"PXPXPXPXPXo P XX7.2.q.y.r *.DXwX}.Q.sXJ.8X$X'.,X{._.* n.{ u.5XpX,X6.' 7X1XU 0 n.h.3.k.8.8.$.  PXPXPXPXPX",
"PXPXPXPXPXPX4 8 t.u.p.B.+ +.6X3X:XpX=X/.`.5X!.4XOX}.* *.<X=XiX`.`.2X,X'.^.] X g.y.0.i.l.v 3 PXPXPXPXPXPX",
"PXPXPXPXPXPXPXD w Y s.B.. E y.1X XO.' ,XqXk.Q i.`.' 7 x !.{.t.[ t.{.{.|.T.X.o b.i.h.o.L i PXPXPXPXPXPXPX",
"PXPXPXPXPXPXPXPXm 7 q s # E <.J.P._ ) U.=X6.~ 2.y.i.i j 8X|.5.! L.].5XU.[.X.4 6 0 7 9 2 PXPXPXPXPXPXPXPX",
"PXPXPXPXPXPXPXPXPXPXC Z B 8 d.q.q. XY.'.1X].w.<.>.b.i *.'.1X|.l.}.6XQ.L.$.R PXPXPXPXPXPXPXPXPXPXPXPXPXPX",
"PXPXPXPXPXPXPXPXPXPXPXPXPX> +.T.3.K.H.[.I.U.q.%Xd.8 r r.P.Q.K.[.Y.G.oXs.d.# PXPXPXPXPXPXPXPXPXPXPXPXPXPX",
"PXPXPXPXPXPXPXPXPXPXPXPXPXPX9 >.r.3.>.9.,.4.1.L.o.. 4 j.3.&.e.3.%.t.5.f.s PXPXPXPXPXPXPXPXPXPXPXPXPXPXPX",
"PXPXPXPXPXPXPXPXPXPXPXPXPXPXPX= E d.t.L.y.i.d.k 5 PXN t b.N.4.m.9.4.E q 4 PXPXPXPXPXPXPXPXPXPXPXPXPXPXPX",
"PXPXPXPXPXPXPXPXPXPXPXPXPXPXPXPX, S Y X.R Y i ; PXPXPXM % =.P -.o.w 3 PXPXPXPXPXPXPXPXPXPXPXPXPXPXPXPXPX",
"PXPXPXPXPXPXPXPXPXPXPXPXPXPXPXPXPXZ m , m N MXPXPXPXPXPXPXN : o m PXPXPXPXPXPXPXPXPXPXPXPXPXPXPXPXPXPXPX",
"PXPXPXPXPXPXPXPXPXPXPXPXPXPXPXPXPXPXPXPXPXPXPXPXPXPXPXPXPXPXPXPXPXPXPXPXPXPXPXPXPXPXPXPXPXPXPXPXPXPXPXPX",
"PXPXPXPXPXPXPXPXPXPXPXPXPXPXPXPXPXPXPXPXPXPXPXPXPXPXPXPXPXPXPXPXPXPXPXPXPXPXPXPXPXPXPXPXPXPXPXPXPXPXPXPX",
"PXPXPXPXPXPXPXPXPXPXPXPXPXPXPXPXPXPXPXPXPXPXPXPXPXPXPXPXPXPXPXPXPXPXPXPXPXPXPXPXPXPXPXPXPXPXPXPXPXPXPXPX",
"PXPXPXPXPXPXPXPXPXPXPXPXPXPXPXPXPXPXPXPXPXPXPXPXPXPXPXPXPXPXPXPXPXPXPXPXPXPXPXPXPXPXPXPXPXPXPXPXPXPXPXPX",
"PXPXPXPXPXPXPXPXPXPXPXPXPXPXPXPXPXPXPXPXPXPXPXPXPXPXPXPXPXPXPXPXPXPXPXPXPXPXPXPXPXPXPXPXPXPXPXPXPXPXPXPX",
"PXPXPXPXPXPXPXPXPXPXPXPXPXPXPXPXPXPXPXPXPXPXPXPXPXPXPXPXPXPXPXPXPXPXPXPXPXPXPXPXPXPXPXPXPXPXPXPXPXPXPXPX",
"PXPXPXPXPXPXPXPXPXPXPXPXPXPXPXPXPXPXPXPXPXPXPXPXPXPXPXPXPXPXPXPXPXPXPXPXPXPXPXPXPXPXPXPXPXPXPXPXPXPXPXPX",
"PXPXPXPXPXPXPXPXPXPXPXPXPXPXPXPXPXPXPXPXPXPXPXPXPXPXPXPXPXPXPXPXPXPXPXPXPXPXPXPXPXPXPXPXPXPXPXPXPXPXPXPX",
"PXPXPXPXPXPXPXPXPXPXPXPXPXPXPXPXPXPXPXPXPXPXPXPXPXPXPXPXPXPXPXPXPXPXPXPXPXPXPXPXPXPXPXPXPXPXPXPXPXPXPXPX",
"PXPXPXPXPXPXPXPXPXPXPXPXPXPXPXPXPXPXPXPXPXPXPXPXPXPXPXPXPXPXPXPXPXPXPXPXPXPXPXPXPXPXPXPXPXPXPXPXPXPXPXPX",
"PXPXPXPXPXPXPXPXPXPXPXPXPXPXPXPXPXPXPXPXPXPXPXPXPXPXPXPXPXPXPXPXPXPXPXPXPXPXPXPXPXPXPXPXPXPXPXPXPXPXPXPX"
};
