/* XPM */
static char *result[] = {
/* columns rows colors chars-per-pixel */
"52 52 244 2 ",
"   c #000100",
".  c #090705",
"X  c #1C0A05",
"o  c #151806",
"O  c #040618",
"+  c #160013",
"@  c #250007",
"#  c #360607",
"$  c #321906",
"%  c #3D1E11",
"&  c #330915",
"*  c #1B2D0E",
"=  c #362703",
"-  c #3B3402",
";  c #2F3411",
":  c #0B0228",
">  c #010A35",
",  c #180635",
"<  c #0A1636",
"1  c #1D1539",
"2  c #15122C",
"3  c #2C1629",
"4  c #291A38",
"5  c #330F30",
"6  c #14302B",
"7  c #262626",
"8  c #2D2635",
"9  c #5B0204",
"0  c #461818",
"q  c #510F11",
"w  c #671618",
"e  c #741003",
"r  c #4E320E",
"t  c #722A10",
"y  c #471436",
"u  c #46162E",
"i  c #741C2A",
"p  c #7B3030",
"a  c #374C2D",
"s  c #4B4513",
"d  c #71520B",
"f  c #7B6600",
"g  c #67670D",
"h  c #6E6723",
"j  c #4D582D",
"k  c #060747",
"l  c #03154B",
"z  c #131944",
"x  c #001557",
"c  c #171E52",
"v  c #261945",
"b  c #1A2858",
"n  c #0F254F",
"m  c #28234F",
"M  c #382847",
"N  c #263B5A",
"B  c #363A5A",
"V  c #3C3F4E",
"C  c #181F67",
"Z  c #002864",
"A  c #29346A",
"S  c #10404E",
"D  c #3B4651",
"F  c #575E4E",
"G  c #674E46",
"H  c #726F42",
"J  c #575B67",
"K  c #725D66",
"L  c #727D71",
"P  c #B11400",
"I  c #8B2807",
"U  c #8A3410",
"Y  c #BB2E0A",
"T  c #B73603",
"R  c #AC2F12",
"E  c #952932",
"W  c #A9382F",
"Q  c #D50F02",
"!  c #F80604",
"~  c #E91800",
"^  c #FE1B00",
"/  c #FA1505",
"(  c #D52B00",
")  c #D73505",
"_  c #C52D0B",
"`  c #E72503",
"'  c #F42503",
"]  c #E5390A",
"[  c #FD3400",
"{  c #E73919",
"}  c #FF321E",
"|  c #FC0C2C",
" . c #FF1034",
".. c #BB4A05",
"X. c #BD5400",
"o. c #AB481E",
"O. c #B4521B",
"+. c #A6530D",
"@. c #886801",
"#. c #AB6C03",
"$. c #9A4B20",
"%. c #AA4934",
"&. c #BB522B",
"*. c #906135",
"=. c #B66D34",
"-. c #BF7F28",
";. c #C84500",
":. c #DC4909",
">. c #C35B00",
",. c #D9570A",
"<. c #C94B13",
"1. c #CD5D1C",
"2. c #D24819",
"3. c #FC4505",
"4. c #F85B00",
"5. c #F84915",
"6. c #FF5A16",
"7. c #EC4F00",
"8. c #DB6906",
"9. c #DB7602",
"0. c #D76715",
"q. c #DB7518",
"w. c #C66E09",
"e. c #E86703",
"r. c #F96500",
"t. c #FA680B",
"y. c #E67600",
"u. c #FE7200",
"i. c #FC7B04",
"p. c #FC6618",
"a. c #EC771B",
"s. c #EE7116",
"d. c #DA472A",
"f. c #CB5C26",
"g. c #C64630",
"h. c #F5592E",
"j. c #E85A29",
"k. c #F76D2C",
"l. c #FE7628",
"z. c #E66D37",
"x. c #FC7536",
"c. c #E47323",
"v. c #BE7B47",
"b. c #7F8539",
"n. c #9A8C00",
"m. c #BA9404",
"M. c #B08D00",
"N. c #BBB716",
"B. c #C98203",
"V. c #D88903",
"C. c #DA9700",
"Z. c #CE9911",
"A. c #EB8205",
"S. c #F58907",
"D. c #E99C00",
"F. c #F69801",
"G. c #FE8714",
"H. c #F19A1C",
"J. c #E99018",
"K. c #CBA701",
"L. c #DBA607",
"P. c #CCB600",
"I. c #DBB803",
"U. c #CAB315",
"Y. c #E6AD04",
"T. c #FAA803",
"R. c #E7B900",
"E. c #FDB401",
"W. c #F4BC01",
"Q. c #FDBB01",
"!. c #F8B708",
"~. c #EBA718",
"^. c #FEA819",
"/. c #E5BA16",
"(. c #FFB515",
"). c #FFBA1B",
"_. c #FFBD11",
"`. c #F0862B",
"'. c #DAA825",
"]. c #FFBB2C",
"[. c #FCB826",
"{. c #FCAA31",
"}. c #F8B634",
"|. c #EFAC34",
" X c #D19736",
".X c #B6E306",
"XX c #D7C700",
"oX c #D8D704",
"OX c #D2D00A",
"+X c #E9C806",
"@X c #F4C302",
"#X c #FEC301",
"$X c #FDCD01",
"%X c #F8C70A",
"&X c #FDD200",
"*X c #F9D504",
"=X c #E8C517",
"-X c #FFCD1D",
";X c #FBC817",
":X c #E5D716",
">X c #F8D318",
",X c #E7D800",
"<X c #DEEB00",
"1X c #ECE703",
"2X c #F8E81B",
"3X c #FEF81C",
"4X c #FBF304",
"5X c #D0CC23",
"6X c #FBC926",
"7X c #FFD925",
"8X c #FBC838",
"9X c #FBD93B",
"0X c #EBCE37",
"qX c #F5F034",
"wX c #888B46",
"eX c #AE904C",
"rX c #8FA75B",
"tX c #9A887A",
"yX c #B58464",
"uX c #F2944F",
"iX c #D2A842",
"pX c #9FC173",
"aX c #FFCC49",
"sX c #FFD346",
"dX c #C4FF51",
"fX c #FFFC49",
"gX c #F8FA58",
"hX c #FFE84A",
"jX c #F9D767",
"kX c #FFD67B",
"lX c #DFEF72",
"zX c #FFE866",
"xX c #FDFB68",
"cX c #FEFC73",
"vX c #E1ED77",
"bX c #506288",
"nX c #CCD89A",
"mX c #FFFF86",
"MX c #F8F694",
"NX c #F2EB92",
"BX c #F7FAAF",
"VX c #B5C5D2",
"CX c #F4F6C7",
"ZX c None",
/* pixels */
"ZXZXZXZXZXZXZXZXZXZXZXZXZXZXZXZXZXZXZXZXZXZXZXZXZXZXZXZXZXZXZXZXZXZXZXZXZXZXZXZXZXZXZXZXZXZXZXZXZXZXZXZX",
"ZXZXZXZXZXZXZXZXZXZXZXZXZXZXZXZXZXZXZXZXZXZXZXZXZXZXZXZXZXZXZXZXZXZXZXZXZXZXZXZXZXZXZXZXZXZXZXZXZXZXZXZX",
"ZXZXZXZXZXZXZXZXZXZXZXZXZXZXZXZXZXZXZXZXZXZXZXZXZXZXZXZXZXZXZXZXZXZXZXZXZXZXZXZXZXZXZXZXZXZXZXZXZXZXZXZX",
"ZXZXZXZXZXZXZXZXZXZXZXZXZXZXZXZXZXZXZXZXZXZXZXZXZXZXZXZXZXZXZXZXZXZXZXZXZXZXZXZXZXZXZXZXZXZXZXZXZXZXZXZX",
"ZXZXZXZXZXZXZXZXZXZXZXZXZXZXZXZXZXZXZXZXZXZXZXZXZXZXZXZXZXZXZXZXZXZXZXZXZXZXZXZXZXZXZXZXZXZXZXZXZXZXZXZX",
"ZXZXZXZXZXZXZXZXZXZXZXZXZXZXZXZXZXZXZXZXZXZXZXZXZXZXZXZXZXZXZXZXZXZXZXZXZXZXZXZXZXZXZXZXZXZXZXZXZXZXZXZX",
"ZXZXZXZXZXZXZXZXZXZXZXZXZXZXZXZXZXZXZXZXZXZXZXZXZXZXZXZXZXZXZXZXZXZXZXZXZXZXZXZXZXZXZXZXZXZXZXZXZXZXZXZX",
"ZXZXZXZXZXZXZXZXZXZXZXZXZXZXZXZXZXZXZXZXZXZXZXZXZXZXZXZXZXZXZXZXZXZXZXZXZXZXZXZXZXZXZXZXZXZXZXZXZXZXZXZX",
"ZXZXZXZXZXZXZXZXZXZXZXZXZXZXZXZXZXZXZXZXZXZXZXZXZXZXZXZXZXZXZXZXZXZXZXZXZXZXZXZXZXZXZXZXZXZXZXZXZXZXZXZX",
"ZXZXZXZXZXZXZXZXZXZXZXZXZXZXZXZXZXZXZXZXZXZXZXZXZXZXZXZXZXZXZXZXZXZXZXZXZXZXZXZXZXZXZXZXZXZXZXZXZXZXZXZX",
"ZXZXZXZXZXZXZXZXZXZXZXZXZXZXZXZXZXZXZXZXZXZXZXZXZXZXZXZXZXZXZXZXZXZXZXZXZXZXZXZXZXZXZXZXZXZXZXZXZXZXZXZX",
"ZXZXZXZXZXZXZXZXZXZXZXZXZXZXZXZXZXZXZXZXZXZXZXZXZXZXZXZXZXZXZXZXZXZXZXZXZXZXZXZXZXZXZXZXZXZXZXZXZXZXZXZX",
"ZXZXZXZXZXZXZXZXZXZXZXZXZXZXZXZXZXZXZXZXZXZXZXZXZXZXZXZXZXZXZXZXZXZXZXZXZXZXZXZXZXZXZXZXZXZXZXZXZXZXZXZX",
"ZXZXZXZXZXZXZXZXZXZXZXZXZXZXZXZXZXZXZXZXZXZXZXZXZXZXZXZXZXZXZXZXZXZXZXZXZXZXZXZXZXZXZXZXZXZXZXZXZXZXZXZX",
"ZXZXZXZXZXZXZXZXZXZXZXZXZXZXZXZXZXZXZXZXZXZXZXZXZXZXZXZXZXZXZXZXZXZXZXZXZXZXZXZXZXZXZXZXZXZXZXZXZXZXZXZX",
"ZXZXZXZXZXZXZXZXZXZXZXZXZXZXZXZXZXZXZX<   . < ZXZXZXZXZXZXZXZXZXZXZXZXZXZXZXZXZXZXZXZXZXZXZXZXZXZXZXZXZX",
"ZXZXZXZXZXZXZXZXZXZXZXZXZXZXZXZXZX1 s iX|.xXMXF x ZXZXZXZXZXZXa * * s B ZXZXZXZXZXZXZXZXZXZXZXZXZXZXZXZX",
"ZXZXZXZXZXZXZXZXZXZXZXZXZXZXZXZXo N.,X*XE.=XhXmXBX6 ZXZXZX6 s jXcXgXqXf = B ZXZXZXZXZXZXZXZXZXZXZXZXZXZX",
"ZXZXZXZXZXZXZXZXZXZXZXZXZXZXZX= 9.I.-XF.W.^.,XgXBX X8 ZXD CXMXzX9.(.K.2X7Xf > ZXZXZXZXZXZXZXZXZXZXZXZXZX",
"ZXZXZXZXZXZXZXZXZXZXZXZXZXZX> U {._.>X%X>X*X-XXXqXMXw.J MXgX}._ ( i.$XR.R.R.eXA ZXZXZXZXZXZXZXZXZXZXZXZX",
"ZXZXZXZXZXZXZXZXZXZXZXZXZXZX& 1.!.Q.+X=XF.F.6XY.1XmXe.wXgX1X(.[ ~ x.+X6X).#XI.X ZXZXZXZXZXZXZXZXZXZXZXZX",
"ZXZXZXZXZXZXZXZXZXZXZXZXZXl E X.R.R.+X^.^ ~ T.[.[.1X= jXXX+X;X].K.>XL.qXoXL.).d < ZXZXZXZXZXZXZXZXZXZXZX",
"ZXZXZXZXZXZXZXZXZXZXZXZXZXn w X.Q.@X=X6X^ ( A.).].XXr |.$X@X_.~.0X.   . x $XT.#.7 ZXZXZXZXZXZXZXZXZXZXZX",
"ZXZXZXZXZXZXZXZXZXZXZXZXZXb 6 r h h g a O ).Y.#X+XZ.9 0.T.$X!.  n *.H s h ; c W , ZXZXZXZXZXZXZXZXZXZXZX",
"ZXZXZXZXZXZXZXZXZXZXZXZXZXH @.P.2X2X3XcXrXn -XW.V.z.e x.S.%Xn L wXzX2X3X*Xm.d B , ZXZXZXZXZXZXZXZXZXZXZX",
"ZXZXZXZXZXZXZXZXZXZXZXZX- L.%X6XR.I.4X[.cXnXD ~.d.6.q g.8.z K BXkXk.!..Xp.e.fXn.. ZXZXZXZXZXZXZXZXZXZXZX",
"ZXZXZXZXZXZXZXZXZXZXZXM m.Q.e.a.6X$XW.k.V.MXeX5 s.d.E 9 Z yXvXdX,.! r.P.! 5.w.9Xv.ZXZXZXZXZXZXZXZXZXZXZX",
"ZXZXZXZXZXZXZXZXZXZXZX& }.G.Q Y E.W.~. .P ^.aX# O.. 6 k x iXgX.XG.! S.-X[ Y 8X-X{.. ZXZXZXZXZXZXZXZXZXZX",
"ZXZXZXZXZXZXZXZXZXZX0 _ V.^.3.A./.(.&Xp.;.9XN : *.M.5XNXCXX l *XE.9X#X=XE.;X:XXXE.+.> ZXZXZXZXZXZXZXZXZX",
"ZXZXZXZXZXZXZXZXZXZX@ 2.~.=X[.(.sXH.oX8X/.OXj :XY.>X,X4X2XzXVXbX!.~.!.;X1X[.C.oXQ.,.: ZXZXZXZXZXZXZXZXZX",
"ZXZXZXZXZXZXZXZXZXZX@ O.D.:X;X^.r.~ 9.W.N G uX3.' {.+Xu.Q uXcXpXB ! e.9XJ.' { aX>.R , ZXZXZXZXZXZXZXZXZX",
"ZXZXZXZXZXZXZXZXZXZX5 O.y.@XY.!.7.^ r.E.3 t c.^ / `.R.u.~ ` qXlXtXk S.R.G.Q { T k.U z ZXZXZXZXZXZXZXZXZX",
"ZXZXZXZXZXZXZXZXZXZXm E 6.A.Y.+X8X`./.A q <.m.[.y.0XOX+XB.].XXfX=.u #X<XW.S...l.<.% ZXZXZXZXZXZXZXZXZXZX",
"ZXZXZXZXZXZXZXZXZXZXZX5 _ s.A.D.U.Z.C.> U p.K.!.T.9X9.T.>X@X@X!...i H.K.'.i.7.p.$.. ZXZXZXZXZXZXZXZXZXZX",
"ZXZXZXZXZXZXZXZXZXZXZXC w =.:.4.>.q.r.z I 4.5.G.6Xy.^ ~ ^.Y.^.S.:.9 e.8.>.;.uXo.% ZXZXZXZXZXZXZXZXZXZXZX",
"ZXZXZXZXZXZXZXZXZXZXZXZX8 - g.5.`.-.B., U 6.} ) :X=X( ] aXD.] p.j.w t.4.`._ %.@ ZXZXZXZXZXZXZXZXZXZXZXZX",
"ZXZXZXZXZXZXZXZXZXZXZXZXZXb 5 w W Y P k p z.I ! [ T.H.0XC.' Q ) f.0 W E %.E + ZXZXZXZXZXZXZXZXZXZXZXZXZX",
"ZXZXZXZXZXZXZXZXZXZXZXZXZXZXZXb : , 5 M # o.h. .j.B.r.u.#.&. .h.e = X O : . ZXZXZXZXZXZXZXZXZXZXZXZXZXZX",
"ZXZXZXZXZXZXZXZXZXZXZXZXZXZXZXZXZXZXZXZXZXu c.0.1.0.q.s.a.8.i.O.8 ZXZXZXZXZXZXZXZXZXZXZXZXZXZXZXZXZXZXZX",
"ZXZXZXZXZXZXZXZXZXZXZXZXZXZXZXZXZXZXZXZXZX8 R f.a.A.9.,.7.p.f.q ZXZXZXZXZXZXZXZXZXZXZXZXZXZXZXZXZXZXZXZX",
"ZXZXZXZXZXZXZXZXZXZXZXZXZXZXZXZXZXZXZXZXZXZX8 r I ) r.t.+.t y ZXZXZXZXZXZXZXZXZXZXZXZXZXZXZXZXZXZXZXZXZX",
"ZXZXZXZXZXZXZXZXZXZXZXZXZXZXZXZXZXZXZXZXZXZXZXZX3 $ q 0 5 v ZXZXZXZXZXZXZXZXZXZXZXZXZXZXZXZXZXZXZXZXZXZX",
"ZXZXZXZXZXZXZXZXZXZXZXZXZXZXZXZXZXZXZXZXZXZXZXZXZXZXZXZXZXZXZXZXZXZXZXZXZXZXZXZXZXZXZXZXZXZXZXZXZXZXZXZX",
"ZXZXZXZXZXZXZXZXZXZXZXZXZXZXZXZXZXZXZXZXZXZXZXZXZXZXZXZXZXZXZXZXZXZXZXZXZXZXZXZXZXZXZXZXZXZXZXZXZXZXZXZX",
"ZXZXZXZXZXZXZXZXZXZXZXZXZXZXZXZXZXZXZXZXZXZXZXZXZXZXZXZXZXZXZXZXZXZXZXZXZXZXZXZXZXZXZXZXZXZXZXZXZXZXZXZX",
"ZXZXZXZXZXZXZXZXZXZXZXZXZXZXZXZXZXZXZXZXZXZXZXZXZXZXZXZXZXZXZXZXZXZXZXZXZXZXZXZXZXZXZXZXZXZXZXZXZXZXZXZX",
"ZXZXZXZXZXZXZXZXZXZXZXZXZXZXZXZXZXZXZXZXZXZXZXZXZXZXZXZXZXZXZXZXZXZXZXZXZXZXZXZXZXZXZXZXZXZXZXZXZXZXZXZX",
"ZXZXZXZXZXZXZXZXZXZXZXZXZXZXZXZXZXZXZXZXZXZXZXZXZXZXZXZXZXZXZXZXZXZXZXZXZXZXZXZXZXZXZXZXZXZXZXZXZXZXZXZX",
"ZXZXZXZXZXZXZXZXZXZXZXZXZXZXZXZXZXZXZXZXZXZXZXZXZXZXZXZXZXZXZXZXZXZXZXZXZXZXZXZXZXZXZXZXZXZXZXZXZXZXZXZX",
"ZXZXZXZXZXZXZXZXZXZXZXZXZXZXZXZXZXZXZXZXZXZXZXZXZXZXZXZXZXZXZXZXZXZXZXZXZXZXZXZXZXZXZXZXZXZXZXZXZXZXZXZX",
"ZXZXZXZXZXZXZXZXZXZXZXZXZXZXZXZXZXZXZXZXZXZXZXZXZXZXZXZXZXZXZXZXZXZXZXZXZXZXZXZXZXZXZXZXZXZXZXZXZXZXZXZX",
"ZXZXZXZXZXZXZXZXZXZXZXZXZXZXZXZXZXZXZXZXZXZXZXZXZXZXZXZXZXZXZXZXZXZXZXZXZXZXZXZXZXZXZXZXZXZXZXZXZXZXZXZX"
};
