/* XPM */
static char *result[] = {
/* columns rows colors chars-per-pixel */
"52 52 239 2 ",
"   c #000100",
".  c #0D0100",
"X  c #02080D",
"o  c #1A0408",
"O  c #151806",
"+  c #030516",
"@  c #1A0514",
"#  c #141319",
"$  c #250007",
"%  c #340100",
"&  c #2F120E",
"*  c #301D00",
"=  c #38051D",
"-  c #3D1E11",
";  c #1C2F02",
":  c #362703",
">  c #3B3402",
",  c #2F3411",
"<  c #0C0327",
"1  c #1D002E",
"2  c #010A35",
"3  c #1A0333",
"4  c #0A1636",
"5  c #151A2F",
"6  c #2E1727",
"7  c #290036",
"8  c #271A37",
"9  c #30042A",
"0  c #173024",
"q  c #142D37",
"w  c #1D2321",
"e  c #262626",
"r  c #3A202D",
"t  c #5C0518",
"y  c #50100A",
"u  c #690603",
"i  c #691718",
"p  c #6C130F",
"a  c #433E00",
"s  c #5F3411",
"d  c #7F271B",
"f  c #711A20",
"g  c #51292F",
"h  c #7F3033",
"j  c #742C2B",
"k  c #334120",
"l  c #3A5234",
"z  c #4B4513",
"x  c #71520B",
"c  c #7B6600",
"v  c #67670D",
"b  c #6E6723",
"n  c #01114C",
"m  c #131944",
"M  c #0C1C53",
"N  c #092756",
"B  c #1A2858",
"V  c #15244D",
"C  c #28234F",
"Z  c #382847",
"A  c #36385A",
"S  c #3C3F4E",
"D  c #181F67",
"F  c #2E2D6D",
"G  c #491752",
"H  c #10404E",
"J  c #3B4651",
"K  c #575E4E",
"L  c #6D5C4A",
"P  c #726F42",
"I  c #575B67",
"U  c #725D66",
"Y  c #727D71",
"T  c #AE160A",
"R  c #8A2B06",
"E  c #BB2E0A",
"W  c #B73603",
"Q  c #A02C1F",
"!  c #BA2511",
"~  c #9B2B38",
"^  c #8E2B2D",
"/  c #AE3A2C",
"(  c #D01702",
")  c #FA0505",
"_  c #E81700",
"`  c #FF1C00",
"'  c #F81608",
"]  c #FF0611",
"[  c #D62B05",
"{  c #C23000",
"}  c #C7260B",
"|  c #E72503",
" . c #FF3100",
".. c #E73919",
"X. c #F9092E",
"o. c #B94B08",
"O. c #BD5400",
"+. c #A84819",
"@. c #B1511F",
"#. c #A25A0E",
"$. c #886801",
"%. c #A36005",
"&. c #9A4B20",
"*. c #AA4934",
"=. c #B95329",
"-. c #BB722C",
";. c #C84500",
":. c #C35B00",
">. c #D7560C",
",. c #CF4D11",
"<. c #D35215",
"1. c #EC4E03",
"2. c #FC4506",
"3. c #ED5200",
"4. c #FF5B01",
"5. c #F15C00",
"6. c #F25315",
"7. c #DC6507",
"8. c #C47500",
"9. c #DB7300",
"0. c #DD7E05",
"q. c #D96910",
"w. c #D77911",
"e. c #C66804",
"r. c #E96504",
"t. c #F96700",
"y. c #FC6A06",
"u. c #FF7F04",
"i. c #FB7703",
"p. c #F96517",
"a. c #ED751A",
"s. c #FA7815",
"d. c #EA6E08",
"f. c #D64E2A",
"g. c #E3573E",
"h. c #F96C2A",
"j. c #FE7628",
"k. c #FC7536",
"l. c #ED7026",
"z. c #BE7B47",
"x. c #7F8539",
"c. c #9A8C00",
"v. c #BA9007",
"b. c #AD9800",
"n. c #BBB716",
"m. c #D88903",
"M. c #C29D00",
"N. c #DD9800",
"B. c #CE880E",
"V. c #E78305",
"C. c #F58804",
"Z. c #E79A03",
"A. c #F89702",
"S. c #FE8714",
"D. c #ED931A",
"F. c #CBA701",
"G. c #DBA607",
"H. c #DBB803",
"J. c #CCB70B",
"K. c #E5AC05",
"L. c #FBA802",
"P. c #E7B800",
"I. c #FDB301",
"U. c #F4BC01",
"Y. c #FDBB00",
"T. c #F9B909",
"R. c #ECAC19",
"E. c #EAA318",
"W. c #FFAA13",
"Q. c #FBA81A",
"!. c #E8BB16",
"~. c #FFB415",
"^. c #FFBB1A",
"/. c #F7BA12",
"(. c #D19736",
"). c #FF902F",
"_. c #E4882D",
"`. c #DAA825",
"'. c #FFBB2C",
"]. c #FCB826",
"[. c #FCA933",
"{. c #F5B436",
"}. c #EFAC34",
"|. c #B6E306",
" X c #D8C500",
".X c #DAD706",
"XX c #D9DC13",
"oX c #E9C904",
"OX c #F4C303",
"+X c #FEC301",
"@X c #FDCD01",
"#X c #F6C60A",
"$X c #E8D806",
"%X c #FDD200",
"&X c #FFD008",
"*X c #EAC419",
"=X c #FFC413",
"-X c #FFCD1C",
";X c #F9C919",
":X c #E7D913",
">X c #F8D41B",
",X c #DEEB00",
"<X c #EDE503",
"1X c #F8E81B",
"2X c #FDF61B",
"3X c #FFEC07",
"4X c #FBC927",
"5X c #FFD925",
"6X c #FDC537",
"7X c #FADA3A",
"8X c #EFD334",
"9X c #FFFF3D",
"0X c #F2E938",
"qX c #888B46",
"wX c #AE904C",
"eX c #8FA75B",
"rX c #FF934B",
"tX c #CAAD43",
"yX c #FFCC47",
"uX c #FFD444",
"iX c #C4FF51",
"pX c #FFFF49",
"aX c #F8FA58",
"sX c #FFE84A",
"dX c #F9D767",
"fX c #FFD67B",
"gX c #FDFB68",
"hX c #FFFF73",
"jX c #FFF475",
"kX c #F0E871",
"lX c #CCD89A",
"zX c #FFFF85",
"xX c #FFFF88",
"cX c #F8F694",
"vX c #FFE898",
"bX c #FEFFAD",
"nX c #F4F8B0",
"mX c #FCFFC8",
"MX c None",
/* pixels */
"MXMXMXMXMXMXMXMXMXMXMXMXMXMXMXMXMXMXMXMXMXMXMXMXMXMXMXMXMXMXMXMXMXMXMXMXMXMXMXMXMXMXMXMXMXMXMXMXMXMXMXMX",
"MXMXMXMXMXMXMXMXMXMXMXMXMXMXMXMXMXMXMXMXMXMXMXMXMXMXMXMXMXMXMXMXMXMXMXMXMXMXMXMXMXMXMXMXMXMXMXMXMXMXMXMX",
"MXMXMXMXMXMXMXMXMXMXMXMXMXMXMXMXMXMXMXMXMXMXMXMXMXMXMXMXMXMXMXMXMXMXMXMXMXMXMXMXMXMXMXMXMXMXMXMXMXMXMXMX",
"MXMXMXMXMXMXMXMXMXMXMXMXMXMXMXMXMXMXMXMXMXMXMXMXMXMXMXMXMXMXMXMXMXMXMXMXMXMXMXMXMXMXMXMXMXMXMXMXMXMXMXMX",
"MXMXMXMXMXMXMXMXMXMXMXMXMXMXMXMXMXMXMXMXMXMXMXMXMXMXMXMXMXMXMXMXMXMXMXMXMXMXMXMXMXMXMXMXMXMXMXMXMXMXMXMX",
"MXMXMXMXMXMXMXMXMXMXMXMXMXMXMXMXMXMXMXMXMXMXMXMXMXMXMXMXMXMXMXMXMXMXMXMXMXMXMXMXMXMXMXMXMXMXMXMXMXMXMXMX",
"MXMXMXMXMXMXMXMXMXMXMXMXMXMXMXMXMXMXMXMXMXMXMXMXMXMXMXMXMXMXMXMXMXMXMXMXMXMXMXMXMXMXMXMXMXMXMXMXMXMXMXMX",
"MXMXMXMXMXMXMXMXMXMXMXMXMXMXMXMXMXMXMXMXMXMXMXMXMXMXMXMXMXMXMXMXMXMXMXMXMXMXMXMXMXMXMXMXMXMXMXMXMXMXMXMX",
"MXMXMXMXMXMXMXMXMXMXMXMXMXMXMXMXMXMXMXMXMXMXMXMXMXMXMXMXMXMXMXMXMXMXMXMXMXMXMXMXMXMXMXMXMXMXMXMXMXMXMXMX",
"MXMXMXMXMXMXMXMXMXMXMXMXMXMXMXMXMXMXMXMXMXMXMXMXMXMXMXMXMXMXMXMXMXMXMXMXMXMXMXMXMXMXMXMXMXMXMXMXMXMXMXMX",
"MXMXMXMXMXMXMXMXMXMXMXMXMXMXMXMXMXMXMXMXMXMXMXMXMXMXMXMXMXMXMXMXMXMXMXMXMXMXMXMXMXMXMXMXMXMXMXMXMXMXMXMX",
"MXMXMXMXMXMXMXMXMXMXMXMXMXMXMXMXMXMXMXMXMXMXMXMXMXMXMXMXMXMXMXMXMXMXMXMXMXMXMXMXMXMXMXMXMXMXMXMXMXMXMXMX",
"MXMXMXMXMXMXMXMXMXMXMXMXMXMXMXMXMXMXMXMXMXMXMXMXMXMXMXMXMXMXMXMXMXMXMXMXMXMXMXMXMXMXMXMXMXMXMXMXMXMXMXMX",
"MXMXMXMXMXMXMXMXMXMXMXMXMXMXMXMXMXMXMXMXMXMXMXMXMXMXMXMXMXMXMXMXMXMXMXMXMXMXMXMXMXMXMXMXMXMXMXMXMXMXMXMX",
"MXMXMXMXMXMXMXMXMXMXMXMXMXMXMXMXMXMXMXMXMXMXMXMXMXMXMXMXMXMXMXMXMXMXMXMXMXMXMXMXMXMXMXMXMXMXMXMXMXMXMXMX",
"MXMXMXMXMXMXMXMXMXMXMXMXMXMXMXMXMXMXMXMX4   X 4 MXMXMXMXMXMXMXMXMXMXMXMXMXMXMXMXMXMXMXMXMXMXMXMXMXMXMXMX",
"MXMXMXMXMXMXMXMXMXMXMXMXMXMXMXMXMXMX8 z tX{.gXcXK n MXMXMXMXMXl ; ; k A MXMXMXMXMXMXMXMXMXMXMXMXMXMXMXMX",
"MXMXMXMXMXMXMXMXMXMXMXMXMXMXMXMXMXO n.$X@XI.*XsXxXnX0 MXMXq z dXhXaX7Xc : A MXMXMXMXMXMXMXMXMXMXMXMXMXMX",
"MXMXMXMXMXMXMXMXMXMXMXMXMXMXMXMX* 8.H.-XA.OXQ.$XaXnX(.e J mXcXkX0.T.F.1X5Xc 4 MXMXMXMXMXMXMXMXMXMXMXMXMX",
"MXMXMXMXMXMXMXMXMXMXMXMXMXMXMX2 R [.=X#X#X>X@X;X X9XvXI cXaX{.{ [ i.@XP.U.H.wXD MXMXMXMXMXMXMXMXMXMXMXMX",
"MXMXMXMXMXMXMXMXMXMXMXMXMXMXMX= q.W.+XoX*XA.A.4XK.<XzXqXpX<X/. ._ k.oX4X^.U.H.. MXMXMXMXMXMXMXMXMXMXMXMX",
"MXMXMXMXMXMXMXMXMXMXMXMXMXMXn h e.P.P.oXW.` _ L.^.].* dXP.oX;X'.F.&XG.0XXXK.].$.4 MXMXMXMXMXMXMXMXMXMXMX",
"MXMXMXMXMXMXMXMXMXMXMXMXMXMXV i O.T.U.;X'.` | m.^.'.s }.@XoX/.R.4XU.4.t.L.+XL.%.w MXMXMXMXMXMXMXMXMXMXMX",
"MXMXMXMXMXMXMXMXMXMXMXMXMXMXB t l.i.~.!.*XQ.;XE.Y.OXu q.L.@X      n ) _ ).yXB./ 3 MXMXMXMXMXMXMXMXMXMXMX",
"MXMXMXMXMXMXMXMXMXMXMXMXMXMXN g f.5 k b v v l + Y.m.u k.  4 Y P z b , C R./.w.R 1 MXMXMXMXMXMXMXMXMXMXMX",
"MXMXMXMXMXMXMXMXMXMXMXMXMXMXMXV L $.F.1X2X2XhXeXV f.t N Y x.gX1X2X%XM.x J V.1.p F MXMXMXMXMXMXMXMXMXMXMX",
"MXMXMXMXMXMXMXMXMXMXMXMXMXMXMXa H.-X-XP.H.3X^.jXlXJ m U bXfXh.^.|.p.r.pXc.. Q 9 MXMXMXMXMXMXMXMXMXMXMXMX",
"MXMXMXMXMXMXMXMXMXMXMXMXMXMXZ v.Y.r.a.4X@XT.h.w.zXwXr kXiX<.) r.J.] 1.8.6Xz.g MXMXMXMXMXMXMXMXMXMXMXMXMX",
"MXMXMXMXMXMXMXMXMXMXMXMXMXMX& {.S.( E I.U.E.X.T Q.yX% aX|.S.) u.-X .W 6X5X[.. MXMXMXMXMXMXMXMXMXMXMXMXMX",
"MXMXMXMXMXMXMXMXMXMXMXMXMXr } B.W.2.V.!.^.%Xp.;.sXQ.[ @ @XU.7XOX*XI.^.:X XY.#.2 MXMXMXMXMXMXMXMXMXMXMXMX",
"MXMXMXMXMXMXMXMXMXMXMXMXMX% <.E.*X].~.uXD..X6X!..XZ.} = +XY.E.T.;X<X[.N.,XY.>.< MXMXMXMXMXMXMXMXMXMXMXMX",
"MXMXMXMXMXMXMXMXMXMXMXMXMX$ o.N.$X^.~.r.| 9.P.:XoXi.<.@ 2X1.' 5.7XD.| 6.yXO.E 7 MXMXMXMXMXMXMXMXMXMXMXMX",
"MXMXMXMXMXMXMXMXMXMXMXMXMX9 @.0.#XK.I.1.` t.I.oXI.s.=.X b.1.] S.P.S.( ..W l.^ 4 MXMXMXMXMXMXMXMXMXMXMXMX",
"MXMXMXMXMXMXMXMXMXMXMXMXMXC ^ p.C.K.oX8X_.!.Y. X9.h.y A q.[.a.+X,XU.C.o.j.,.- MXMXMXMXMXMXMXMXMXMXMXMXMX",
"MXMXMXMXMXMXMXMXMXMXMXMXMXMX= } h.0.N.J.B.K.i.V.>.@.# >.i.9.8.Q.M.`.V.1.p.&.X MXMXMXMXMXMXMXMXMXMXMXMXMX",
"MXMXMXMXMXMXMXMXMXMXMXMXMXMXD f -.<.4.e.q.t.p.>.g.f w R p.q.q.d.9.O.;.rX@.- MXMXMXMXMXMXMXMXMXMXMXMXMXMX",
"MXMXMXMXMXMXMXMXMXMXMXMXMXMXMXg > f.2._.-.9.-.+.u 8 MXG ~ #._.p.5.k.W *.o MXMXMXMXMXMXMXMXMXMXMXMXMXMXMX",
"MXMXMXMXMXMXMXMXMXMXMXMXMXMXMXMXB 6 i ^ ! T j 6 N MXMXMX7 o j / ~ *.^ @ MXMXMXMXMXMXMXMXMXMXMXMXMXMXMXMX",
"MXMXMXMXMXMXMXMXMXMXMXMXMXMXMXMXMXMXB < 3 8 Z MXMXMXMXMXMXMX0 $ + +   MXMXMXMXMXMXMXMXMXMXMXMXMXMXMXMXMX",
"MXMXMXMXMXMXMXMXMXMXMXMXMXMXMXMXMXMXMXMXMXMXMXMXMXMXMXMXMXMXMXMXMXMXMXMXMXMXMXMXMXMXMXMXMXMXMXMXMXMXMXMX",
"MXMXMXMXMXMXMXMXMXMXMXMXMXMXMXMXMXMXMXMXMXMXMXMXMXMXMXMXMXMXMXMXMXMXMXMXMXMXMXMXMXMXMXMXMXMXMXMXMXMXMXMX",
"MXMXMXMXMXMXMXMXMXMXMXMXMXMXMXMXMXMXMXMXMXMXMXMXMXMXMXMXMXMXMXMXMXMXMXMXMXMXMXMXMXMXMXMXMXMXMXMXMXMXMXMX",
"MXMXMXMXMXMXMXMXMXMXMXMXMXMXMXMXMXMXMXMXMXMXMXMXMXMXMXMXMXMXMXMXMXMXMXMXMXMXMXMXMXMXMXMXMXMXMXMXMXMXMXMX",
"MXMXMXMXMXMXMXMXMXMXMXMXMXMXMXMXMXMXMXMXMXMXMXMXMXMXMXMXMXMXMXMXMXMXMXMXMXMXMXMXMXMXMXMXMXMXMXMXMXMXMXMX",
"MXMXMXMXMXMXMXMXMXMXMXMXMXMXMXMXMXMXMXMXMXMXMXMXMXMXMXMXMXMXMXMXMXMXMXMXMXMXMXMXMXMXMXMXMXMXMXMXMXMXMXMX",
"MXMXMXMXMXMXMXMXMXMXMXMXMXMXMXMXMXMXMXMXMXMXMXMXMXMXMXMXMXMXMXMXMXMXMXMXMXMXMXMXMXMXMXMXMXMXMXMXMXMXMXMX",
"MXMXMXMXMXMXMXMXMXMXMXMXMXMXMXMXMXMXMXMXMXMXMXMXMXMXMXMXMXMXMXMXMXMXMXMXMXMXMXMXMXMXMXMXMXMXMXMXMXMXMXMX",
"MXMXMXMXMXMXMXMXMXMXMXMXMXMXMXMXMXMXMXMXMXMXMXMXMXMXMXMXMXMXMXMXMXMXMXMXMXMXMXMXMXMXMXMXMXMXMXMXMXMXMXMX",
"MXMXMXMXMXMXMXMXMXMXMXMXMXMXMXMXMXMXMXMXMXMXMXMXMXMXMXMXMXMXMXMXMXMXMXMXMXMXMXMXMXMXMXMXMXMXMXMXMXMXMXMX",
"MXMXMXMXMXMXMXMXMXMXMXMXMXMXMXMXMXMXMXMXMXMXMXMXMXMXMXMXMXMXMXMXMXMXMXMXMXMXMXMXMXMXMXMXMXMXMXMXMXMXMXMX",
"MXMXMXMXMXMXMXMXMXMXMXMXMXMXMXMXMXMXMXMXMXMXMXMXMXMXMXMXMXMXMXMXMXMXMXMXMXMXMXMXMXMXMXMXMXMXMXMXMXMXMXMX",
"MXMXMXMXMXMXMXMXMXMXMXMXMXMXMXMXMXMXMXMXMXMXMXMXMXMXMXMXMXMXMXMXMXMXMXMXMXMXMXMXMXMXMXMXMXMXMXMXMXMXMXMX"
};
