/* XPM */
static char *result[] = {
/* columns rows colors chars-per-pixel */
"52 52 245 2 ",
"   c #000100",
".  c #080606",
"X  c #1A0604",
"o  c #001905",
"O  c #151806",
"+  c #080815",
"@  c #160013",
"#  c #270104",
"$  c #360608",
"%  c #321906",
"&  c #3A011B",
"*  c #3D1E11",
"=  c #2F120E",
"-  c #1A2C13",
";  c #3B3402",
":  c #2E3112",
">  c #0A0226",
",  c #18022D",
"<  c #010A35",
"1  c #180635",
"2  c #081436",
"3  c #171832",
"4  c #291A38",
"5  c #300F2E",
"6  c #2A2A32",
"7  c #142B3B",
"8  c #491309",
"9  c #461818",
"0  c #550C0D",
"q  c #651616",
"w  c #721908",
"e  c #46310D",
"r  c #722A10",
"t  c #481536",
"y  c #46162E",
"u  c #6F1C29",
"i  c #49263C",
"p  c #7B3030",
"a  c #374C2D",
"s  c #4D4316",
"d  c #6D520A",
"f  c #7B6600",
"g  c #67670D",
"h  c #6E6723",
"j  c #4D582D",
"k  c #060747",
"l  c #061549",
"z  c #080056",
"x  c #001557",
"c  c #151D4A",
"v  c #261945",
"b  c #08235B",
"n  c #1A2858",
"m  c #15244D",
"M  c #28234F",
"N  c #263B5A",
"B  c #383450",
"V  c #0C1E66",
"C  c #210E77",
"Z  c #383762",
"A  c #232F6B",
"S  c #481949",
"D  c #0B4050",
"F  c #224A6E",
"G  c #6C4B49",
"H  c #5E7751",
"J  c #69784A",
"K  c #7C7F74",
"L  c #B11400",
"P  c #8B2807",
"I  c #8F330F",
"U  c #BB2E0A",
"Y  c #B73603",
"T  c #AA2D0E",
"R  c #952932",
"E  c #A9382F",
"W  c #DE0401",
"Q  c #D51804",
"!  c #C81002",
"~  c #EE0503",
"^  c #F90404",
"/  c #EB1600",
"(  c #FE1B00",
")  c #FF1208",
"_  c #D52B00",
"`  c #D83806",
"'  c #C82D0B",
"]  c #E82901",
"[  c #F82606",
"{  c #FE3401",
"}  c #E7381A",
"|  c #EF3512",
" . c #FC0827",
".. c #FF1034",
"X. c #D32B30",
"o. c #80501F",
"O. c #A84A06",
"+. c #BB4A05",
"@. c #BB5402",
"#. c #AB481E",
"$. c #B1541C",
"%. c #A25A0E",
"&. c #8F6701",
"*. c #AD6C04",
"=. c #9A4B20",
"-. c #AA4934",
";. c #BB522B",
":. c #906135",
">. c #B66D34",
",. c #BF7F28",
"<. c #CA4300",
"1. c #DD4706",
"2. c #C45B00",
"3. c #D95709",
"4. c #C94B13",
"5. c #CD5D1C",
"6. c #D4491B",
"7. c #F84504",
"8. c #FF5C00",
"9. c #F65900",
"0. c #FA4B16",
"q. c #FB5817",
"w. c #EA5007",
"e. c #DB6804",
"r. c #C27200",
"t. c #DC7803",
"y. c #D96915",
"u. c #D97816",
"i. c #CB660B",
"p. c #E86703",
"a. c #FB6600",
"s. c #FB6A07",
"d. c #EA7803",
"f. c #FD7300",
"g. c #FC7B05",
"h. c #FC6517",
"j. c #EC7519",
"k. c #F07613",
"l. c #CB5C26",
"z. c #D15134",
"x. c #F5592E",
"c. c #F1502A",
"v. c #F76D2C",
"b. c #FE7628",
"n. c #EF6F2D",
"m. c #BC5E45",
"M. c #BE7B47",
"N. c #9A8C00",
"B. c #BA9404",
"V. c #B08D00",
"C. c #BBB716",
"Z. c #B8AE35",
"A. c #C98203",
"S. c #D88608",
"D. c #DA9700",
"F. c #D18C16",
"G. c #C29D00",
"H. c #EB8205",
"J. c #F68A04",
"K. c #E99901",
"L. c #FA9803",
"P. c #FE8714",
"I. c #E89518",
"U. c #F19A1C",
"Y. c #E98918",
"T. c #CBAA05",
"R. c #DBA407",
"E. c #CCB600",
"W. c #DBB803",
"Q. c #D5B316",
"!. c #E7AA04",
"~. c #FBA703",
"^. c #E8B900",
"/. c #FDB301",
"(. c #FDBB01",
"). c #F6B906",
"_. c #ECA519",
"`. c #FEA818",
"'. c #E8BB16",
"]. c #FFB415",
"[. c #FFBA1B",
"{. c #F3B813",
"}. c #E68726",
"|. c #FC8137",
" X c #F6912E",
".X c #DAA825",
"XX c #FFB928",
"oX c #FDAB34",
"OX c #FCB633",
"+X c #F0B231",
"@X c #B6E306",
"#X c #D8C800",
"$X c #D8D605",
"%X c #D9DC13",
"&X c #E9C706",
"*X c #F5C302",
"=X c #FEC300",
"-X c #FECE01",
";X c #F7C50D",
":X c #FDD200",
">X c #F5D700",
",X c #E9C519",
"<X c #FFCD1C",
"1X c #FBC815",
"2X c #E5D716",
"3X c #FAD416",
"4X c #DEEB00",
"5X c #FAEA04",
"6X c #F8E81B",
"7X c #FBF81C",
"8X c #F0F103",
"9X c #FBC929",
"0X c #FFD925",
"qX c #FBC838",
"wX c #FBDA3C",
"eX c #ECD132",
"rX c #FDF528",
"tX c #F4EA31",
"yX c #D0CC23",
"uX c #A2914B",
"iX c #92936F",
"pX c #AFA67B",
"aX c #8D894C",
"sX c #F2944F",
"dX c #CAAD43",
"fX c #FFBE5C",
"gX c #9FC173",
"hX c #FFCC48",
"jX c #FFD346",
"kX c #FFFB4A",
"lX c #FCEB52",
"zX c #F9DA73",
"xX c #D3E96C",
"cX c #FAEB64",
"vX c #FEFB69",
"bX c #FEFC73",
"nX c #DACD6F",
"mX c #3E1385",
"MX c #2C4387",
"NX c #506288",
"BX c #F3F78C",
"VX c #FFF9AE",
"CX c #B5C5D2",
"ZX c #ECECC6",
"AX c None",
/* pixels */
"AXAXAXAXAXAXAXAXAXAXAXAXAXAXAXAXAXAXAXAXAXAXAXAXAXAXAXAXAXAXAXAXAXAXAXAXAXAXAXAXAXAXAXAXAXAXAXAXAXAXAXAX",
"AXAXAXAXAXAXAXAXAXAXAXAXAXAXAXAXAXAXAXAXAXAXAXAXAXAXAXAXAXAXAXAXAXAXAXAXAXAXAXAXAXAXAXAXAXAXAXAXAXAXAXAX",
"AXAXAXAXAXAXAXAXAXAXAXAXAXAXAXAXAXAXAXAXAXAXAXAXAXAXAXAXAXAXAXAXAXAXAXAXAXAXAXAXAXAXAXAXAXAXAXAXAXAXAXAX",
"AXAXAXAXAXAXAXAXAXAXAXAXAXAXAXAXAXAXAXAXAXAXAXAXAXAXAXAXAXAXAXAXAXAXAXAXAXAXAXAXAXAXAXAXAXAXAXAXAXAXAXAX",
"AXAXAXAXAXAXAXAXAXAXAXAXAXAXAXAXAXAXAXAXAXAXAXAXAXAXAXAXAXAXAXAXAXAXAXAXAXAXAXAXAXAXAXAXAXAXAXAXAXAXAXAX",
"AXAXAXAXAXAXAXAXAXAXAXAXAXAXAXAXAXAXAXAXAXAXAXAXAXAXAXAXAXAXAXAXAXAXAXAXAXAXAXAXAXAXAXAXAXAXAXAXAXAXAXAX",
"AXAXAXAXAXAXAXAXAXAXAXAXAXAXAXAXAXAXAXAXAXAXAXAXAXAXAXAXAXAXAXAXAXAXAXAXAXAXAXAXAXAXAXAXAXAXAXAXAXAXAXAX",
"AXAXAXAXAXAXAXAXAXAXAXAXAXAXAXAXAXAXAXAXAXAXAXAXAXAXAXAXAXAXAXAXAXAXAXAXAXAXAXAXAXAXAXAXAXAXAXAXAXAXAXAX",
"AXAXAXAXAXAXAXAXAXAXAXAXAXAXAXAXAXAXAXAXAXAXAXAXAXAXAXAXAXAXAXAXAXAXAXAXAXAXAXAXAXAXAXAXAXAXAXAXAXAXAXAX",
"AXAXAXAXAXAXAXAXAXAXAXAXAXAXAXAXAXAXAXAXAXAXAXAXAXAXAXAXAXAXAXAXAXAXAXAXAXAXAXAXAXAXAXAXAXAXAXAXAXAXAXAX",
"AXAXAXAXAXAXAXAXAXAXAXAXAXAXAXAXAXAXAXAXAXAXAXAXAXAXAXAXAXAXAXAXAXAXAXAXAXAXAXAXAXAXAXAXAXAXAXAXAXAXAXAX",
"AXAXAXAXAXAXAXAXAXAXAXAXAXAXAXAXAXAXAXAXAXAXAXAXAXAXAXAXAXAXAXAXAXAXAXAXAXAXAXAXAXAXAXAXAXAXAXAXAXAXAXAX",
"AXAXAXAXAXAXAXAXAXAXAXAXAXAXAXAXAXAXAXAXAXAXAXAXAXAXAXAXAXAXAXAXAXAXAXAXAXAXAXAXAXAXAXAXAXAXAXAXAXAXAXAX",
"AXAXAXAXAXAXAXAXAXAXAXAXAXAXAXAXAXAXAXAXAXAXAXAXA C z z MXAXAXAXAXAXAXAXAXAXAXAXAXAXAXAXAXAXAXAXAXAXAXAX",
"AXAXAXAXAXAXAXAXAXAXAXAXAXAXAXAXAXk . o 2 AX  o iXaXpXxXH - V AXa - - a Z AXAXAXAXAXAXAXAXAXAXAXAXAXAXAX",
"AXAXAXAXAXAXAXAXAXAXAXAXAXAXAX3 s dXeXvXBX  H Z.lXvX8XrXrXnXH b zXvXkXeX&.; Z AXAXAXAXAXAXAXAXAXAXAXAXAX",
"AXAXAXAXAXAXAXAXAXAXAXAXAXAXO C.&X:X/.,XlXH lX1X} K.9Xs.7.wXVXG F S./.T.6X0Xf 2 AXAXAXAXAXAXAXAXAXAXAXAX",
"AXAXAXAXAXAXAXAXAXAXAXAXAX% A.W.3XL.=X`.B cX6X2.~ ` oXX.Q I.2XbX- ' g.-X).^.W.uXA AXAXAXAXAXAXAXAXAXAXAX",
"AXAXAXAXAXAXAXAXAXAXAXAX< I `.].;X;X3XZ h OX*X(.d.t.fXI.e.P.!.7Xd l v.&X9X[.(.W.O AXAXAXAXAXAXAXAXAXAXAX",
"AXAXAXAXAXAXAXAXAXAXAXAX& 5.].=X&X,XL.& @._.T.0X#XhXD.5X-X{ [ I.*., 3XR.tX%XR.[.f 2 AXAXAXAXAXAXAXAXAXAX",
"AXAXAXAXAXAXAXAXAXAXAXl R @.&X^.&X].( # 0.^ [ L.$Xh.^ q.oX' ! |.` $ (.8.s./.=XL.%.- AXAXAXAXAXAXAXAXAXAX",
"AXAXAXAXAXAXAXAXAXAXAXm q @.).*X3XOX( # 6.~ ` !.'.x.~ e.<X~.k.}.z.X K.^ /  XhXF.E 1 AXAXAXAXAXAXAXAXAXAX",
"AXAXAXAXAXAXAXAXAXAXAXm 0 v.f.{.'.,X`.B z.6.}.wX^.`.L.).-X~.g.e.m.      x {.1Xt.P 1 AXAXAXAXAXAXAXAXAXAX",
"AXAXAXAXAXAXAXAXAXAXAXV i z.3 s h g g a q y.J.K.d.~.=X&Xe.| 0.e.$ iXJ s o.: n 3.w Z AXAXAXAXAXAXAXAXAXAX",
"AXAXAXAXAXAXAXAXAXAXAXAX7 G &.T.6X6X7XbXX O.s.7. .] *.r.Q  .c.%.> vX6XrX:XB.d B 5 AXAXAXAXAXAXAXAXAXAXAX",
"AXAXAXAXAXAXAXAXAXAXAXAX; ^.1X0X^.W.5XXXbX0 6.8. .q.S.e.{ ( X.t zXv.].@Xh.p.kXN.. AXAXAXAXAXAXAXAXAXAXAX",
"AXAXAXAXAXAXAXAXAXAXAXB B.(.p.j.9X:X).v.u.BXS I $.F.S.j.3.T u mX3.^ a.E.) | r.qXM.AXAXAXAXAXAXAXAXAXAXAX",
"AXAXAXAXAXAXAXAXAXAXAX= OXP.! U /.*X_. .L ].hXo i . - l x + D @XP.^ J.<X{ U qX0XoX. AXAXAXAXAXAXAXAXAXAX",
"AXAXAXAXAXAXAXAXAXAX9 U S.`.7.d.'.].-Xh.<.wXN > :.V.yXBXZXX l >X/.jX*X'.(.[.2X#X/.%.< AXAXAXAXAXAXAXAXAX",
"AXAXAXAXAXAXAXAXAXAX# 6._.,XXX].jXU.$XqXQ.$Xj 2X!.3X>X8XrXcXCXNX).U.;X1X5XXXR.$X(.3.> AXAXAXAXAXAXAXAXAX",
"AXAXAXAXAXAXAXAXAXAX# +.K.2X1X].a./ t.^.Z G sX7.] oX^.f.Q sXbXgXB ) p.wXY.] } hX2.T , AXAXAXAXAXAXAXAXAX",
"AXAXAXAXAXAXAXAXAXAX5 $.d.*X!.(.w.( s./.4 r u.( ( |.'.f./ [ tXxXiXk g.W.P.Q } Y n.P c AXAXAXAXAXAXAXAXAX",
"AXAXAXAXAXAXAXAXAXAXM R q.J.^.#XeX}.,XA 9 4.B.[.t.eX$X&XA.OX#XkX>.y =X4X=XJ.O.b.3.* AXAXAXAXAXAXAXAXAXAX",
"AXAXAXAXAXAXAXAXAXAXAX5 ' h.d.K.T.F.K.< P h.T./.~.wXi.~.3X*X-X!.+.u `.G..XH.w.h.=.. AXAXAXAXAXAXAXAXAXAX",
"AXAXAXAXAXAXAXAXAXAXAXV u >.3.9.O.y.a.4 P 8.0. X9XH.( ~ `.^.`.H.1.0 p.e.@.<.sX#.* AXAXAXAXAXAXAXAXAXAXAX",
"AXAXAXAXAXAXAXAXAXAXAXAXy : 4.0.sXF.t.1 I h.| ] ,X,X_ 1.jXK.` h.x.q h.9.|.' -.# AXAXAXAXAXAXAXAXAXAXAXAX",
"AXAXAXAXAXAXAXAXAXAXAXAXAXn 5 q E U L l p n.T ^ { /.U.qXG.[ ~ ' l.9 E R -.R @ AXAXAXAXAXAXAXAXAXAXAXAXAX",
"AXAXAXAXAXAXAXAXAXAXAXAXAXAXAXn > 1 5 M = #.c...c.A.a.f.*.;...x.r % # + >   AXAXAXAXAXAXAXAXAXAXAXAXAXAX",
"AXAXAXAXAXAXAXAXAXAXAXAXAXAXAXAXAXAXAXAXAXy j.y.i.i.u.j.j.e.f.$.6 AXAXAXAXAXAXAXAXAXAXAXAXAXAXAXAXAXAXAX",
"AXAXAXAXAXAXAXAXAXAXAXAXAXAXAXAXAXAXAXAXAX4 #.5.}.H.p.3.9.h.l.9 AXAXAXAXAXAXAXAXAXAXAXAXAXAXAXAXAXAXAXAX",
"AXAXAXAXAXAXAXAXAXAXAXAXAXAXAXAXAXAXAXAXAXAX7 9 P ` a.s.O.r t AXAXAXAXAXAXAXAXAXAXAXAXAXAXAXAXAXAXAXAXAX",
"AXAXAXAXAXAXAXAXAXAXAXAXAXAXAXAXAXAXAXAXAXAXAXAX4 = 8 9 4 v AXAXAXAXAXAXAXAXAXAXAXAXAXAXAXAXAXAXAXAXAXAX",
"AXAXAXAXAXAXAXAXAXAXAXAXAXAXAXAXAXAXAXAXAXAXAXAXAXAXAXAXAXAXAXAXAXAXAXAXAXAXAXAXAXAXAXAXAXAXAXAXAXAXAXAX",
"AXAXAXAXAXAXAXAXAXAXAXAXAXAXAXAXAXAXAXAXAXAXAXAXAXAXAXAXAXAXAXAXAXAXAXAXAXAXAXAXAXAXAXAXAXAXAXAXAXAXAXAX",
"AXAXAXAXAXAXAXAXAXAXAXAXAXAXAXAXAXAXAXAXAXAXAXAXAXAXAXAXAXAXAXAXAXAXAXAXAXAXAXAXAXAXAXAXAXAXAXAXAXAXAXAX",
"AXAXAXAXAXAXAXAXAXAXAXAXAXAXAXAXAXAXAXAXAXAXAXAXAXAXAXAXAXAXAXAXAXAXAXAXAXAXAXAXAXAXAXAXAXAXAXAXAXAXAXAX",
"AXAXAXAXAXAXAXAXAXAXAXAXAXAXAXAXAXAXAXAXAXAXAXAXAXAXAXAXAXAXAXAXAXAXAXAXAXAXAXAXAXAXAXAXAXAXAXAXAXAXAXAX",
"AXAXAXAXAXAXAXAXAXAXAXAXAXAXAXAXAXAXAXAXAXAXAXAXAXAXAXAXAXAXAXAXAXAXAXAXAXAXAXAXAXAXAXAXAXAXAXAXAXAXAXAX",
"AXAXAXAXAXAXAXAXAXAXAXAXAXAXAXAXAXAXAXAXAXAXAXAXAXAXAXAXAXAXAXAXAXAXAXAXAXAXAXAXAXAXAXAXAXAXAXAXAXAXAXAX",
"AXAXAXAXAXAXAXAXAXAXAXAXAXAXAXAXAXAXAXAXAXAXAXAXAXAXAXAXAXAXAXAXAXAXAXAXAXAXAXAXAXAXAXAXAXAXAXAXAXAXAXAX",
"AXAXAXAXAXAXAXAXAXAXAXAXAXAXAXAXAXAXAXAXAXAXAXAXAXAXAXAXAXAXAXAXAXAXAXAXAXAXAXAXAXAXAXAXAXAXAXAXAXAXAXAX",
"AXAXAXAXAXAXAXAXAXAXAXAXAXAXAXAXAXAXAXAXAXAXAXAXAXAXAXAXAXAXAXAXAXAXAXAXAXAXAXAXAXAXAXAXAXAXAXAXAXAXAXAX"
};
