/* XPM */
static char *result[] = {
/* columns rows colors chars-per-pixel */
"52 52 193 2 ",
"   c #010707",
".  c #151806",
"X  c #360602",
"o  c #301D00",
"O  c #2E0011",
"+  c #36001B",
"@  c #301E1C",
"#  c #1C2F02",
"$  c #223307",
"%  c #382505",
"&  c #1D002E",
"*  c #04152A",
"=  c #010734",
"-  c #190535",
";  c #0A1636",
":  c #1C1737",
">  c #300D25",
",  c #39152E",
"<  c #2E0033",
"1  c #143022",
"2  c #142D37",
"3  c #262626",
"4  c #410008",
"5  c #420612",
"6  c #590912",
"7  c #451405",
"8  c #671608",
"9  c #6A1318",
"0  c #5E2416",
"q  c #430224",
"w  c #6D1C21",
"e  c #7D1F37",
"r  c #572725",
"t  c #482939",
"y  c #64382D",
"u  c #7E2B33",
"i  c #334120",
"p  c #394B35",
"a  c #474B0E",
"s  c #574513",
"d  c #7E5601",
"f  c #7B6600",
"g  c #000442",
"h  c #01114C",
"j  c #2E1C44",
"k  c #15244D",
"l  c #0F235E",
"z  c #172657",
"x  c #2A2045",
"c  c #2D3E58",
"v  c #363A5A",
"b  c #332F62",
"n  c #373066",
"m  c #242A74",
"M  c #432973",
"N  c #3B484E",
"B  c #31407B",
"V  c #575E4E",
"C  c #8A0405",
"Z  c #A81C1D",
"A  c #B51D18",
"S  c #8F2608",
"D  c #97290E",
"F  c #843304",
"G  c #91231C",
"H  c #B83F00",
"J  c #A9281B",
"K  c #A43B26",
"L  c #F80000",
"P  c #E61400",
"I  c #FF1C00",
"U  c #F01A00",
"Y  c #D02700",
"T  c #C73600",
"R  c #CB2E1B",
"E  c #E32704",
"W  c #B84C0E",
"Q  c #BF5700",
"!  c #B65216",
"~  c #A36005",
"^  c #D65A04",
"/  c #CA5A1B",
"(  c #DE5F10",
")  c #EC4600",
"_  c #F94103",
"`  c #E05A00",
"'  c #FF5900",
"]  c #EA5F10",
"[  c #FF5418",
"{  c #C76406",
"}  c #DA6803",
"|  c #DD7E00",
" . c #D87605",
".. c #C07710",
"X. c #D47E11",
"o. c #EC6900",
"O. c #F96804",
"+. c #E17200",
"@. c #FD7500",
"#. c #FF7A0A",
"$. c #F6601B",
"%. c #FA7417",
"&. c #C04F25",
"*. c #DA472A",
"=. c #CF5726",
"-. c #CE5038",
";. c #FF5C34",
":. c #EF6325",
">. c #FC7829",
",. c #E26A3A",
"<. c #EF7637",
"1. c #9E3E42",
"2. c #B94D5B",
"3. c #BBB716",
"4. c #CB8505",
"5. c #DB8B01",
"6. c #C79C1C",
"7. c #DD9D15",
"8. c #E38500",
"9. c #E99604",
"0. c #F59503",
"q. c #FF9B00",
"w. c #EF8513",
"e. c #FF8D14",
"r. c #CDA400",
"t. c #DBA607",
"y. c #C9B100",
"u. c #DEB502",
"i. c #D7BD08",
"p. c #E7A705",
"a. c #FAA805",
"s. c #E2B203",
"d. c #EABB00",
"f. c #EDB400",
"g. c #FCB004",
"h. c #FEBB00",
"j. c #F7BA06",
"k. c #FFAB12",
"l. c #FFAA16",
"z. c #EEBE16",
"x. c #FFB215",
"c. c #FFBB1A",
"v. c #F3B813",
"b. c #D19736",
"n. c #FE9728",
"m. c #F59036",
"M. c #FFA526",
"N. c #FEBC2C",
"B. c #FBBA26",
"V. c #E1BE3C",
"C. c #F2B737",
"Z. c #CAC400",
"A. c #D4C200",
"S. c #DBC812",
"D. c #D9DC13",
"F. c #E7CD03",
"G. c #EAC907",
"H. c #F3C300",
"J. c #FEC200",
"K. c #FDCF01",
"L. c #F8C60E",
"P. c #E7D800",
"I. c #FFD008",
"U. c #EDC51C",
"Y. c #EAC215",
"T. c #FFCD1B",
"R. c #F8CC16",
"E. c #F0D71A",
"W. c #ECEA01",
"Q. c #FFE515",
"!. c #FEC42D",
"~. c #F0CE22",
"^. c #FFDE26",
"/. c #F8DA3A",
"(. c #FFFF3D",
"). c #F0EA2D",
"_. c #A2914B",
"`. c #CAAD43",
"'. c #FFCB41",
"]. c #FFE84A",
"[. c #F6F858",
"{. c #F2DD6A",
"}. c #FFE26A",
"|. c #FFFF68",
" X c #FFFF71",
".X c #FFFF85",
"XX c #FFE898",
"oX c #F5F594",
"OX c #FFF994",
"+X c #FFF6B3",
"@X c #E9FAAC",
"#X c #FCFFC8",
"$X c None",
/* pixels */
"$X$X$X$X$X$X$X$X$X$X$X$X$X$X$X$X$X$X$X$X$X$X$X$X$X$X$X$X$X$X$X$X$X$X$X$X$X$X$X$X$X$X$X$X$X$X$X$X$X$X$X$X",
"$X$X$X$X$X$X$X$X$X$X$X$X$X$X$X$X$X$X$X$X$X$X$X$X$X$X$X$X$X$X$X$X$X$X$X$X$X$X$X$X$X$X$X$X$X$X$X$X$X$X$X$X",
"$X$X$X$X$X$X$X$X$X$X$X$X$X$X$X$X$X$X$X$X$X$X$X$X$X$X$X$X$X$X$X$X$X$X$X$X$X$X$X$X$X$X$X$X$X$X$X$X$X$X$X$X",
"$X$X$X$X$X$X$X$X$X$X$X$X$X$X$X$X$X$X$X$X$X$X$X$X$X$X$X$X$X$X$X$X$X$X$X$X$X$X$X$X$X$X$X$X$X$X$X$X$X$X$X$X",
"$X$X$X$X$X$X$X$X$X$X$X$X$X$X$X$X$X$X$X$X$X$X$X$X$X$X$X$X$X$X$X$X$X$X$X$X$X$X$X$X$X$X$X$X$X$X$X$X$X$X$X$X",
"$X$X$X$X$X$X$X$X$X$X$X$X$X$X$X$X$X$X$X$X$X$X$X$X$X$X$X$X$X$X$X$X$X$X$X$X$X$X$X$X$X$X$X$X$X$X$X$X$X$X$X$X",
"$X$X$X$X$X$X$X$X$X$X$X$X$X$X$X$X$X$X$X$X$X$X$X$X$X$X$X$X$X$X$X$X$X$X$X$X$X$X$X$X$X$X$X$X$X$X$X$X$X$X$X$X",
"$X$X$X$X$X$X$X$X$X$X$X$X$X$X$X$X$X$X$X$X$X$X$X$X$X$X$X$X$X$X$X$X$X$X$X$X$X$X$X$X$X$X$X$X$X$X$X$X$X$X$X$X",
"$X$X$X$X$X$X$X$X$X$X$X$X$X$X$X$X$X$X$X$X$X$X$X$X$X$X$X$X$X$X$X$X$X$X$X$X$X$X$X$X$X$X$X$X$X$X$X$X$X$X$X$X",
"$X$X$X$X$X$X$X$X$X$X$X$X$X$X$X$X$X$X$X$X$X$X$X$X$X$X$X$X$X$X$X$X$X$X$X$X$X$X$X$X$X$X$X$X$X$X$X$X$X$X$X$X",
"$X$X$X$X$X$X$X$X$X$X$X$X$X$X$X$X$X$X$X$X$X$X$X$X$X$X$X$X$X$X$X$X$X$X$X$X$X$X$X$X$X$X$X$X$X$X$X$X$X$X$X$X",
"$X$X$X$X$X$X$X$X$X$X$X$X$X$X$X$X$X$X$X$X$X$X$X$X$X$X$X$X$X$X$X$X$X$X$X$X$X$X$X$X$X$X$X$X$X$X$X$X$X$X$X$X",
"$X$X$X$X$X$X$X$X$X$X$X$X$X$X$X$X$X$X$X$X$X$X$X$X$X$X$X$X$X$X$X$X$X$X$X$X$X$X$X$X$X$X$X$X$X$X$X$X$X$X$X$X",
"$X$X$X$X$X$X$X$X$X$X$X$X$X$X$X$X$X$X$X$X$X$X$X$X$X$X$X$X$X$X$X$X$X$X$X$X$X$X$X$X$X$X$X$X$X$X$X$X$X$X$X$X",
"$X$X$X$X$X$X$X$X$X$X$X$X$X$X$X$X$X$X$X$X$X$X$X$X$X$X$X$X$X$X$X$X$X$X$X$X$X$X$X$X$X$X$X$X$X$X$X$X$X$X$X$X",
"$X$X$X$X$X$X$X$X$X$X$X$X$X$X$X$X$X$X$X$X$X$X$X$X$X$X$X$X$X$X$X$X$X$X$X$X$X$X$X$X$X$X$X$X$X$X$X$X$X$X$X$X",
"$X$X$X$X$X$X$X$X$X$X$X$X$X$X$X$X$X$X$X$X$X$X$X$X$X$X$X$X$X$X$X$X$X$X$X$X$X$X$X$X$X$X$X$X$X$X$X$X$X$X$X$X",
"$X$X$X$X$X$X$X$X$X$X$X$X$X$X$X$X$X$X$Xv i $ # p $X$X$X$X$X$X$X$X$X$X$X$X$X$X$X$X$X$X$X$X$X$X$X$X$X$X$X$X",
"$X$X$X$X$X$X$X$X$X$X$X$X$X$X$X$X$Xv % f /.[. X{.a 2 $X$X$X$X$X$X$X$X$X$X$X$X$X$X$X$X$X$X$X$X$X$X$X$X$X$X",
"$X$X$X$X$X$X$X$X$X$X$X$X$X$X$X$X; f ^.Q.r.x.| {.OX#XN $X$X$X$X$X$X$X$X$X$X$X$X$X$X$X$X$X$X$X$X$X$X$X$X$X",
"$X$X$X$X$X$X$X$X$X$X$X$X$X$X$Xm _.u.s.d.K.#.Y T C.[.oX;     = $X$X$X$X$X$X$X$X$X$X$X$X$X$X$X$X$X$X$X$X$X",
"$X$X$X$X$X$X$X$X$X$X$X$X$X$X$X. i.J.c.!.G.>.U _ l.: s `.~. XoXV h $X$X$X$X$X$X$X$X$X$X$X$X$X$X$X$X$X$X$X",
"$X$X$X$X$X$X$X$X$X$X$X$X$X$X* d B.p.D.).t.T.r.B.. 3.F.K.f.U.]..X@X1 $X$X$X$X$X$X$X$X$X$X$X$X$X$X$X$X$X$X",
"$X$X$X$X$X$X$X$X$X$X$X$X$X$X3 ~ a.h.g.O.' j.~.o 4.u.T.q.J.l.P.[.+Xb.3 $X$X$X$X$X$X$X$X$X$X$X$X$X$X$X$X$X",
"$X$X$X$X$X$X$X$X$X$X$X$X$X$X- K X.'.n.P L p.g F M.T.L.G.E.I.T.A.(.XXQ + $X$X$X$X$X$X$X$X$X$X$X$X$X$X$X$X",
"$X$X$X$X$X$X$X$X$X$X$X$X$X$X< D X.v.v.+.] a.> ..k.j.G.U.0.0.!.s.W..X5.C B $X$X$X$X$X$X$X$X$X$X$X$X$X$X$X",
"$X$X$X$X$X$X$X$X$X$X$X$X$X$Xn 8 ` 8.y.S./.h G Q f.d.G.l.I P a.c.N.W.{ J g $X$X$X$X$X$X$X$X$X$X$X$X$X$X$X",
"$X$X$X$X$X$X$X$X$X$X$X$X$X$X$X< Z [ 8.4.n.k 9 Q j.H.R.N.I E 5.c.!.Z.m.C l $X$X$X$X$X$X$X$X$X$X$X$X$X$X$X",
"$X$X$X$X$X$X$X$X$X$X$X$X$X$X$X$Xr =.O.^ } k 6 :.@.x.z.~.l.c.p.J.H.6.@.A * $X$X$X$X$X$X$X$X$X$X$X$X$X$X$X",
"$X$X$X$X$X$X$X$X$X$X$X$X$X$X$X$X$Xr R ;.,.l t -.) e.9.s.).Q.!.h.5.,.T 1.= $X$X$X$X$X$X$X$X$X$X$X$X$X$X$X",
"$X$X$X$X$X$X$X$X$X$X$X$X$X$X$X$X$X$X: 9 -.H 2 8 <. .| a.s.9.K.7.*.[ 2.  $X$X$X$X$X$X$X$X$X$X$X$X$X$X$X$X",
"$X$X$X$X$X$X$X$X$X$X$X$X$X$X$X$X$X$X$Xj > O n 9 W %. .^ %.} { +.%.*.u n $X$X$X$X$X$X$X$X$X$X$X$X$X$X$X$X",
"$X$X$X$X$X$X$X$X$X$X$X$X$X$X$X$X$X$X$X$X$X$X$Xc y &.$.O.o.] >.>.! 0 x $X$X$X$X$X$X$X$X$X$X$X$X$X$X$X$X$X",
"$X$X$X$X$X$X$X$X$X$X$X$X$X$X$X$X$X$X$X$X$X$X$X$X$Xq G =.{ ,.=.S X $X$X$X$X$X$X$X$X$X$X$X$X$X$X$X$X$X$X$X",
"$X$X$X$X$X$X$X$X$X$X$X$X$X$X$X$X$X$X$X$X$X$X$X$X$X$X; @ 7 4 5 , $X$X$X$X$X$X$X$X$X$X$X$X$X$X$X$X$X$X$X$X",
"$X$X$X$X$X$X$X$X$X$X$X$X$X$X$X$X$X$X$X$X$X$X$X$X$X$X$X$X$X$X$X$X$X$X$X$X$X$X$X$X$X$X$X$X$X$X$X$X$X$X$X$X",
"$X$X$X$X$X$X$X$X$X$X$X$X$X$X$X$X$X$X$X$X$X$X$X$X$X$X$X$X$X$X$X$X$X$X$X$X$X$X$X$X$X$X$X$X$X$X$X$X$X$X$X$X",
"$X$X$X$X$X$X$X$X$X$X$X$X$X$X$X$X$X$X$X$X$X$X$X$X$X$X$X$X$X$X$X$X$X$X$X$X$X$X$X$X$X$X$X$X$X$X$X$X$X$X$X$X",
"$X$X$X$X$X$X$X$X$X$X$X$X$X$X$X$X$X$X$X$X$X$X$X$X$X$X$X$X$X$X$X$X$X$X$X$X$X$X$X$X$X$X$X$X$X$X$X$X$X$X$X$X",
"$X$X$X$X$X$X$X$X$X$X$X$X$X$X$X$X$X$X$X$X$X$X$X$X$X$X$X$X$X$X$X$X$X$X$X$X$X$X$X$X$X$X$X$X$X$X$X$X$X$X$X$X",
"$X$X$X$X$X$X$X$X$X$X$X$X$X$X$X$X$X$X$X$X$X$X$X$X$X$X$X$X$X$X$X$X$X$X$X$X$X$X$X$X$X$X$X$X$X$X$X$X$X$X$X$X",
"$X$X$X$X$X$X$X$X$X$X$X$X$X$X$X$X$X$X$X$X$X$X$X$X$X$X$X$X$X$X$X$X$X$X$X$X$X$X$X$X$X$X$X$X$X$X$X$X$X$X$X$X",
"$X$X$X$X$X$X$X$X$X$X$X$X$X$X$X$X$X$X$X$X$X$X$X$X$X$X$X$X$X$X$X$X$X$X$X$X$X$X$X$X$X$X$X$X$X$X$X$X$X$X$X$X",
"$X$X$X$X$X$X$X$X$X$X$X$X$X$X$X$X$X$X$X$X$X$X$X$X$X$X$X$X$X$X$X$X$X$X$X$X$X$X$X$X$X$X$X$X$X$X$X$X$X$X$X$X",
"$X$X$X$X$X$X$X$X$X$X$X$X$X$X$X$X$X$X$X$X$X$X$X$X$X$X$X$X$X$X$X$X$X$X$X$X$X$X$X$X$X$X$X$X$X$X$X$X$X$X$X$X",
"$X$X$X$X$X$X$X$X$X$X$X$X$X$X$X$X$X$X$X$X$X$X$X$X$X$X$X$X$X$X$X$X$X$X$X$X$X$X$X$X$X$X$X$X$X$X$X$X$X$X$X$X",
"$X$X$X$X$X$X$X$X$X$X$X$X$X$X$X$X$X$X$X$X$X$X$X$X$X$X$X$X$X$X$X$X$X$X$X$X$X$X$X$X$X$X$X$X$X$X$X$X$X$X$X$X",
"$X$X$X$X$X$X$X$X$X$X$X$X$X$X$X$X$X$X$X$X$X$X$X$X$X$X$X$X$X$X$X$X$X$X$X$X$X$X$X$X$X$X$X$X$X$X$X$X$X$X$X$X",
"$X$X$X$X$X$X$X$X$X$X$X$X$X$X$X$X$X$X$X$X$X$X$X$X$X$X$X$X$X$X$X$X$X$X$X$X$X$X$X$X$X$X$X$X$X$X$X$X$X$X$X$X",
"$X$X$X$X$X$X$X$X$X$X$X$X$X$X$X$X$X$X$X$X$X$X$X$X$X$X$X$X$X$X$X$X$X$X$X$X$X$X$X$X$X$X$X$X$X$X$X$X$X$X$X$X",
"$X$X$X$X$X$X$X$X$X$X$X$X$X$X$X$X$X$X$X$X$X$X$X$X$X$X$X$X$X$X$X$X$X$X$X$X$X$X$X$X$X$X$X$X$X$X$X$X$X$X$X$X",
"$X$X$X$X$X$X$X$X$X$X$X$X$X$X$X$X$X$X$X$X$X$X$X$X$X$X$X$X$X$X$X$X$X$X$X$X$X$X$X$X$X$X$X$X$X$X$X$X$X$X$X$X"
};
