/* XPM */
static char *result[] = {
/* columns rows colors chars-per-pixel */
"47 47 16 1 ",
"  c black",
". c #3E3E3E",
"X c #504032",
"o c #607273",
"O c #AC2023",
"+ c #E63C40",
"@ c #B14157",
"# c #826548",
"$ c #E8A21E",
"% c #FFDB63",
"& c #A5B5B6",
"* c #E68C88",
"= c #FCD1D6",
"- c #F7F9F9",
"; c white",
": c None",
/* pixels */
":::::::::::::::::::::::::::::::::::::::::::::::",
":::::::::::::::::::    ::::::::::::::::::::::::",
"::::::::::::::::: @*==*  ::::::::::::::::::::::",
":::::::::::::::: **  *==* :::::::::::::::::::::",
"::::::::::::::: ** :: *=== ::::::::::::::::::::",
"::::::::::::::: *@ ::: ===* :::::::::::::::::::",
"::::::::::::::::  ::::  ===* ::::::::::::::::::",
":::::::::::::::::::::   @=== ::::::::::::::::::",
":::::::::::::::::::  ***@*=== :::::::::::::::::",
":::::::::::::::::: @*****@=== :::::::::::::::::",
":::::::::::::::::: ***@***===* ::::::::::::::::",
"::::::::::::::::: *******@==== ::::::::::::::::",
"::::::::::::::::: *******===== ::::::::::::::::",
"::::::::::::::::: *****======== :::::::::::::::",
":::::::::::::::::   ***==*===== :::::::::::::::",
"::::::::::::::::: =***@===**==* :::::::::::::::",
"::::::::::::::::: @=**@*===****= ::::::::::::::",
"::::::::::::::::: @=**@  ====*== ::::::::::::::",
"::::::::::::::::: =****    ==@= :::::::::::::::",
"::::::::::::::::::   ***  +O@  ::::::::::::::::",
":::::::::::::::::::: ***====* :::::::::::::::::",
":::::::::::::::::::: **@*=== ::::::::::::::::::",
"::::::::::::::::     ***@@    :::::::::::::::::",
"::::::::::::::: *==***====*==* ::::::::::::::::",
"::::::::::::::: ===@*=====**== ::::::::::::::::",
"::::::::::::::: @=  @@*==****@ ::::::::::::::::",
":::::::::::::: =**  **@@*===@  ::::::::::::::::",
":::::::::::::: == ;;  *====== * :::::::::::::::",
":::::::::::::: %% ;;;  ====*= $ :::::::::::::::",
"::::::::::::: ... ;;;  ..*=*. . :::::::::::::::",
"::::::::::::: ... ;;; &&.%%%$& . ::::::::::::::",
"::::::::::::: ..%= ; -&--&%%$& . ::::::::::::::",
"::::::::::::: %%=@=  ----&--&&o $ :::::::::::::",
"::::::::::::: ===@  -----&--&&& * :::::::::::::",
":::::::::::::: *==  -----&-&&&& * :::::::::::::",
":::::::::::::::    &-----  &&&o  ::::::::::::::",
"::::::::::::::::: o&----&  o&&o& ::::::::::::::",
"::::::::::::::::: oo----  o ooo& ::::::::::::::",
":::::::::::::::: -oo&--&  &oooo& ::::::::::::::",
":::::::::::::::: --&ooo : o&&&&o ::::::::::::::",
":::::::::::::::: &-&oo- :: &&&o :::::::::::::::",
"::::::::::::::::: &--- :::: .. ::::::::::::::::",
"::::::::::::::::: ..  ::::: .$ ::::::::::::::::",
"::::::::::::::::: %. :::::: $XX  ::::::::::::::",
":::::::::::::::: ##% :::::: XXXXX :::::::::::::",
"::::::::::::::: ####:::::::::::::::::::::::::::",
":::::::::::::::::::::::::::::::::::::::::::::::"
};
