/* XPM */
static char *result[] = {
/* columns rows colors chars-per-pixel */
"52 52 186 2 ",
"   c #050000",
".  c #070000",
"X  c #090000",
"o  c #0A0000",
"O  c #0F0300",
"+  c #0F0104",
"@  c #120600",
"#  c #120402",
"$  c #1A0706",
"%  c #170B06",
"&  c #1E0907",
"*  c #1A0D0A",
"=  c #1E0E0D",
"-  c #170F17",
";  c #1D1412",
":  c #14101B",
">  c #11101C",
",  c #18171F",
"<  c #210702",
"1  c #251312",
"2  c #221512",
"3  c #251410",
"4  c #241412",
"5  c #261512",
"6  c #241713",
"7  c #231614",
"8  c #231616",
"9  c #251514",
"0  c #241715",
"q  c #261615",
"w  c #241717",
"e  c #271716",
"r  c #281515",
"t  c #291714",
"y  c #231815",
"u  c #241916",
"i  c #271917",
"p  c #251A17",
"a  c #281917",
"s  c #231518",
"d  c #211A1A",
"f  c #261B1C",
"g  c #03132E",
"h  c #07132F",
"j  c #06142D",
"k  c #0D152B",
"l  c #051438",
"z  c #392C2C",
"x  c #442423",
"c  c #442927",
"v  c #4B2E2B",
"b  c #483B39",
"n  c #583B39",
"m  c #603F38",
"M  c #743E3A",
"N  c #75443B",
"B  c #71453D",
"V  c #73443D",
"C  c #75443D",
"Z  c #74463E",
"A  c #79443A",
"S  c #7B483E",
"D  c #0C2C5A",
"F  c #142952",
"G  c #794842",
"H  c #7C4941",
"J  c #78605A",
"K  c #776564",
"L  c #7C6662",
"P  c #736865",
"I  c #756B67",
"U  c #746968",
"Y  c #756B6F",
"T  c #8E5A4B",
"R  c #90564E",
"E  c #95544C",
"W  c #90584F",
"Q  c #825C56",
"!  c #9B5A50",
"~  c #98655D",
"^  c #98645F",
"/  c #9A675F",
"(  c #A3695F",
")  c #AA6A5D",
"_  c #AB695F",
"`  c #9C6661",
"'  c #996D65",
"]  c #9F6D67",
"[  c #9F7369",
"{  c #AB6861",
"}  c #AB6A60",
"|  c #AC6C62",
" . c #AD6E66",
".. c #B16F63",
"X. c #A1776E",
"o. c #A97A73",
"O. c #174585",
"+. c #21559F",
"@. c #325690",
"#. c #2660AE",
"$. c #2765B9",
"%. c #2D6BBD",
"&. c #1A62C9",
"*. c #1462D0",
"=. c #1362D6",
"-. c #2579DE",
";. c #0E72F2",
":. c #0D71FA",
">. c #0E73FB",
",. c #0F74FB",
"<. c #0C73FF",
"1. c #0F73FF",
"2. c #0F74FD",
"3. c #1071F6",
"4. c #1672F5",
"5. c #1175F5",
"6. c #1576F7",
"7. c #1876F1",
"8. c #1178F3",
"9. c #1375F8",
"0. c #1173FD",
"q. c #1071FF",
"w. c #1271FF",
"e. c #1172FF",
"r. c #1173FF",
"t. c #2A7AE8",
"y. c #338AFF",
"u. c #5BAAFF",
"i. c #62A8FF",
"p. c #AC8680",
"a. c #A98C84",
"s. c #BE8D85",
"d. c #BF8E86",
"f. c #B08C88",
"g. c #B2908C",
"h. c #B09691",
"j. c #C28D86",
"k. c #C18E86",
"l. c #C79087",
"z. c #C2968E",
"x. c #D79F98",
"c. c #D1A39A",
"v. c #D0A79E",
"b. c #CDA7A2",
"n. c #CDA8A0",
"m. c #CEA9A1",
"M. c #CEAFAC",
"N. c #D1ABA3",
"B. c #D0AAA4",
"V. c #C0B0AC",
"C. c #D2B3AB",
"Z. c #D2B1AC",
"A. c #C4B1B1",
"S. c #C9BEBB",
"D. c #CBBEBB",
"F. c #D5B3B1",
"G. c #D7B6B1",
"H. c #D8B7B2",
"J. c #C9C0BE",
"K. c #E1C0BD",
"L. c #D7C9C9",
"P. c #DFD5D1",
"I. c #E7D3CE",
"U. c #E1D2D0",
"Y. c #E4D2D1",
"T. c #E9D2D0",
"R. c #E9D7D4",
"E. c #EAD8D5",
"W. c #EADAD8",
"Q. c #EBDBDA",
"!. c #EADDD9",
"~. c #EEDFD9",
"^. c #ECDCDB",
"/. c #ECE1DE",
"(. c #F6E2DE",
"). c #EFE3E3",
"_. c #EFE4E0",
"`. c #F2E7E4",
"'. c #F2E7E6",
"]. c #F7F1EC",
"[. c #FFF8F4",
"{. c #FFFBFD",
"}. c #FEFEFE",
"|. c #FFFFFE",
" X c white",
".X c None",
/* pixels */
".X.X.X.X.X.X.X.X.X.X.X.X.X.X.X.X.X.X.X.X.X.X.X.X.X.X.X.X.X.X.X.X.X.X.X.X.X.X.X.X.X.X.X.X.X.X.X.X.X.X.X.X",
".X.X.X.X.X.X.X.X.X.X.X.X.X.X.X.X.X.X.X.X.X.X.X.X.X.X.X.X.X.X.X.X.X.X.X.X.X.X.X.X.X.X.X.X.X.X.X.X.X.X.X.X",
".X.X.X.X.X.X.X.X.X.X.X.X.X.X.X.X.X.X.X.X.X.X.X.X.X.X.X.X.X.X.X.X.X.X.X.X.X.X.X.X.X.X.X.X.X.X.X.X.X.X.X.X",
".X.X.X.X.X.X.X.X.X.X.X.X.X.X.X.X.X.X.X.X.X.X.X.X.X.X.X.X.X.X.X.X.X.X.X.X.X.X.X.X.X.X.X.X.X.X.X.X.X.X.X.X",
".X.X.X.X.X.X.X.X.X.X.X.X.X.X.X.X.X.X.X.X.X.X.X.X.X.X.X.X.X.X.X.X.X.X.X.X.X.X.X.X.X.X.X.X.X.X.X.X.X.X.X.X",
".X.X.X.X.X.X.X.X.X.X.X.X.X.X.X.X.X.X.X.X.X.X.X.X.X.X.X.X.X.X.X.X.X.X.X.X.X.X.X.X.X.X.X.X.X.X.X.X.X.X.X.X",
".X.X.X.X.X.X.X.X.X.X.X.X.X.X.X.X.X.X.X.X.X.X.X.X.X.X.X.X.X.X.X.X.X.X.X.X.X.X.X.X.X.X.X.X.X.X.X.X.X.X.X.X",
".X.X.X.X.X.X.X.X.X.X.X.X.X.X.X.X.X.X.X.X.X.X.X.X.X.X.X.X.X.X.X.X.X.X.X.X.X.X.X.X.X.X.X.X.X.X.X.X.X.X.X.X",
".X.X.X.X.X.X.X.X.X.X.X.X.X.X.X.X.X.X.X.X.X.X.X.X.X.X.X.X.X.X.X.X.X.X.X.X.X.X.X.X.X.X.X.X.X.X.X.X.X.X.X.X",
".X.X.X.X.X.X.X.X.X.X.X.X.X.X.X.X.X.X.X.X.X.X.X.X.X.X.X.X.X.X.X.X.X.X.X.X.X.X.X.X.X.X.X.X.X.X.X.X.X.X.X.X",
".X.X.X.X.X.X.X.X.X.X.X.X.X.X.X.X.X.X.X.X.X.X.X.X.X.X.X.X.X.X.X.X.X.X.X.X.X.X.X.X.X.X.X.X.X.X.X.X.X.X.X.X",
".X.X.X.X.X.X.X.X.X.X.X.X.X.X.X.X.X.X.X.X.X.X.X.X.X.X.X.X.X.X.X.X.X.X.X.X.X.X.X.X.X.X.X.X.X.X.X.X.X.X.X.X",
".X.X.X.X.X.X.X.X.X.X.X.X.X.X.X.X.X.X.X.X.X.X.X.X.X.X.X.X.X.X.X.X.X.X.X.X.X.X.X.X.X.X.X.X.X.X.X.X.X.X.X.X",
".X.X.X.X.X.X.X.X.X.X.X.X.X.X.X.X.X.X.X.X.X.X.X.X.X.X.X.X.X.X.X.X.X.X.X.X.X.X.X.X.X.X.X.X.X.X.X.X.X.X.X.X",
".X.X.X.X.X.X.X.X.X.X.X.X.X.X.X.X.X.X.X.X.X.X.X.X.X.X.X.X.X.X.X.X.X.X.X.X.X.X.X.X.X.X.X.X.X.X.X.X.X.X.X.X",
".X.X.X.X.X.X.X.X.X.X.X.X.X.X.X.X.X.X.X.X.X.X.X.X.X.X.X.X.X.X.X.X.X..T./..X.X.X.X.X.X.X.X.X.X.X.X.X.X.X.X",
".X.X.X.X.X.X.X.X.X.X.X.X.X.X.X.X.X.X.X.X.X.X.X.X.X.X.X.X.X.X.X.X< x [.C. ..X.X.X.X.X.X.X.X.X.X.X.X.X.X.X",
".X.X.X.X.X.X.X.X.X.X.X.X.X.X.X.X.X.X.X.X.X.X.X.X.X.X.X.X.X.X.X.Xc f.a.(.A .X.X.X.X.X.X.X.X.X.X.X.X.X.X.X",
".X.X.X.X.X.X.X.X.X.X.X.X.X.X.X.X.X.X.X.X.X.X.X.X.X.X.X$ o.b.!.J ~.K.M v ' .X.X.X.X.X.X.X.X.X.X.X.X.X.X.X",
".X.X.X.X.X.X.X.X.X.X.X.X.X.X.X.X.X.X.X.X.X.X.X.X.X.X& x.p.Q.d Y.M.! ( c..X.X.X.X.X.X.X.X.X.X.X.X.X.X.X.X",
".X.X.X.X.X.X.X.X.X.X.X.X.X.X.X.X.X.X.X.X.X.X.X.X.Xg y.-.q _.E.L d.n .X.X.X.X.X.X.X.X.X.X.X.X.X.X.X.X.X.X",
".X.X.X.X.X.X.X.X.X.X.X.X.X.X.X.X.X.X.X.X.X.X.X.Xf Y F q.w.l F.k.Q H .X.X.X.X.X.X.X.X.X.X.X.X.X.X.X.X.X.X",
".X.X.X.X.X.X.X.X.X.X.X.X.X.X.X.X.X.X.X.X.X.X.Xu P q q 5 8.2.j ) T V .X.X.X.X.X.X.X.X.X.X.X.X.X.X.X.X.X.X",
".X.X.X.X.X.X.X.X.X.X.X.X.X.X.X.X.X.X.X.X.X.Xi U   $.7.D 1 ;.0.3 B [ .X.X.X.X.X.X.X.X.X.X.X.X.X.X.X.X.X.X",
".X.X.X.X.X.X.X.X.X.X.X.X.X.X.X.X.X.X.X.X.Xa I w 9.. {.+ #.s 1.+.] .X.X.X.X.X.X.X.X.X.X.X.X.X.X.X.X.X.X.X",
".X.X.X.X.X.X.X.X.X.X.X.X.X.X.X.X.X.X.X.Xy I 0 q ,.}.w  X:.4 @.&..X.X.X.X.X.X.X.X.X.X.X.X.X.X.X.X.X.X.X.X",
".X.X.X.X.X.X.X.X.X.X.X.X.X.X.X.X.X.X.Xp b q ; # O.- |.8 4.7 > .X.X.X.X.X.X.X.X.X.X.X.X.X.X.X.X.X.X.X.X.X",
".X.X.X.X.X.X.X.X.X.X.X.X.X.X.X.X.X.Xh u.k q 7 o L.%.<.3.U.7 .X.X.X.X.X.X.X.X.X.X.X.X.X.X.X.X.X.X.X.X.X.X",
".X.X.X.X.X.X.X.X.X.X.X.X.X.X.X.X.X, i.r.r.>.6 D.J.= * 2 7 .X.X.X.X.X.X.X.X.X.X.X.X.X.X.X.X.X.X.X.X.X.X.X",
".X.X.X.X.X.X.X.X.X.X.X.X.X.X.X.X@ z.N.r 6.r.0.e q z 7 7 .X.X.X.X.X.X.X.X.X.X.X.X.X.X.X.X.X.X.X.X.X.X.X.X",
".X.X.X.X.X.X.X.X.X.X.X.X.X.X.X% l.m.).].K t.r.>.q 7 9 .X.X.X.X.X.X.X.X.X.X.X.X.X.X.X.X.X.X.X.X.X.X.X.X.X",
".X.X.X.X.X.X.X.X.X.X.X.X.X.X.X| n.W.`.P.g.m 5.e.: 0 .X.X.X.X.X.X.X.X.X.X.X.X.X.X.X.X.X.X.X.X.X.X.X.X.X.X",
".X.X.X.X.X.X.X.X.X.X.X.X.X.X.XB.^.`.I.Z.v.{ t *.=..X.X.X.X.X.X.X.X.X.X.X.X.X.X.X.X.X.X.X.X.X.X.X.X.X.X.X",
".X.X.X.X.X.X.X.X.X.X.X.X.X.X.XA.'.R.G.s.} / N *..X.X.X.X.X.X.X.X.X.X.X.X.X.X.X.X.X.X.X.X.X.X.X.X.X.X.X.X",
".X.X.X.X.X.X.X.X.X.X.X.X.X.X.XS.V.H.j._ E Z ` .X.X.X.X.X.X.X.X.X.X.X.X.X.X.X.X.X.X.X.X.X.X.X.X.X.X.X.X.X",
".X.X.X.X.X.X.X.X.X.X.X.X.X.X.XX h.X.R G V ~ .X.X.X.X.X.X.X.X.X.X.X.X.X.X.X.X.X.X.X.X.X.X.X.X.X.X.X.X.X.X",
".X.X.X.X.X.X.X.X.X.X.X.X.X.X.X.XO W S C ^ .X.X.X.X.X.X.X.X.X.X.X.X.X.X.X.X.X.X.X.X.X.X.X.X.X.X.X.X.X.X.X",
".X.X.X.X.X.X.X.X.X.X.X.X.X.X.X.X.X.X.X.X.X.X.X.X.X.X.X.X.X.X.X.X.X.X.X.X.X.X.X.X.X.X.X.X.X.X.X.X.X.X.X.X",
".X.X.X.X.X.X.X.X.X.X.X.X.X.X.X.X.X.X.X.X.X.X.X.X.X.X.X.X.X.X.X.X.X.X.X.X.X.X.X.X.X.X.X.X.X.X.X.X.X.X.X.X",
".X.X.X.X.X.X.X.X.X.X.X.X.X.X.X.X.X.X.X.X.X.X.X.X.X.X.X.X.X.X.X.X.X.X.X.X.X.X.X.X.X.X.X.X.X.X.X.X.X.X.X.X",
".X.X.X.X.X.X.X.X.X.X.X.X.X.X.X.X.X.X.X.X.X.X.X.X.X.X.X.X.X.X.X.X.X.X.X.X.X.X.X.X.X.X.X.X.X.X.X.X.X.X.X.X",
".X.X.X.X.X.X.X.X.X.X.X.X.X.X.X.X.X.X.X.X.X.X.X.X.X.X.X.X.X.X.X.X.X.X.X.X.X.X.X.X.X.X.X.X.X.X.X.X.X.X.X.X",
".X.X.X.X.X.X.X.X.X.X.X.X.X.X.X.X.X.X.X.X.X.X.X.X.X.X.X.X.X.X.X.X.X.X.X.X.X.X.X.X.X.X.X.X.X.X.X.X.X.X.X.X",
".X.X.X.X.X.X.X.X.X.X.X.X.X.X.X.X.X.X.X.X.X.X.X.X.X.X.X.X.X.X.X.X.X.X.X.X.X.X.X.X.X.X.X.X.X.X.X.X.X.X.X.X",
".X.X.X.X.X.X.X.X.X.X.X.X.X.X.X.X.X.X.X.X.X.X.X.X.X.X.X.X.X.X.X.X.X.X.X.X.X.X.X.X.X.X.X.X.X.X.X.X.X.X.X.X",
".X.X.X.X.X.X.X.X.X.X.X.X.X.X.X.X.X.X.X.X.X.X.X.X.X.X.X.X.X.X.X.X.X.X.X.X.X.X.X.X.X.X.X.X.X.X.X.X.X.X.X.X",
".X.X.X.X.X.X.X.X.X.X.X.X.X.X.X.X.X.X.X.X.X.X.X.X.X.X.X.X.X.X.X.X.X.X.X.X.X.X.X.X.X.X.X.X.X.X.X.X.X.X.X.X",
".X.X.X.X.X.X.X.X.X.X.X.X.X.X.X.X.X.X.X.X.X.X.X.X.X.X.X.X.X.X.X.X.X.X.X.X.X.X.X.X.X.X.X.X.X.X.X.X.X.X.X.X",
".X.X.X.X.X.X.X.X.X.X.X.X.X.X.X.X.X.X.X.X.X.X.X.X.X.X.X.X.X.X.X.X.X.X.X.X.X.X.X.X.X.X.X.X.X.X.X.X.X.X.X.X",
".X.X.X.X.X.X.X.X.X.X.X.X.X.X.X.X.X.X.X.X.X.X.X.X.X.X.X.X.X.X.X.X.X.X.X.X.X.X.X.X.X.X.X.X.X.X.X.X.X.X.X.X",
".X.X.X.X.X.X.X.X.X.X.X.X.X.X.X.X.X.X.X.X.X.X.X.X.X.X.X.X.X.X.X.X.X.X.X.X.X.X.X.X.X.X.X.X.X.X.X.X.X.X.X.X",
".X.X.X.X.X.X.X.X.X.X.X.X.X.X.X.X.X.X.X.X.X.X.X.X.X.X.X.X.X.X.X.X.X.X.X.X.X.X.X.X.X.X.X.X.X.X.X.X.X.X.X.X"
};
