/* XPM */
static char *c56cb88617b94296a351f96dd8a78cdcWPe6eLxQ6CFVQqcl[] = {
/* columns rows colors chars-per-pixel */
"44 57 251 2 ",
"   c None",
".  c #010303",
"X  c #02010C",
"o  c #070904",
"O  c #170005",
"+  c #001103",
"@  c #010214",
"#  c #010D1A",
"$  c #050918",
"%  c #071619",
"&  c #191319",
"*  c #15110C",
"=  c #2C0004",
"-  c #2F1112",
";  c #10280B",
":  c #342E0C",
">  c #060927",
",  c #0A1427",
"<  c #181A29",
"1  c #041837",
"2  c #151A38",
"3  c #10052E",
"4  c #271330",
"5  c #052C3B",
"6  c #1B263A",
"7  c #13292F",
"8  c #272624",
"9  c #3A342A",
"0  c #2A3639",
"q  c #363936",
"w  c #2B2632",
"e  c #481804",
"r  c #4B270E",
"t  c #443737",
"y  c #462C2E",
"u  c #004E1E",
"i  c #014438",
"p  c #454715",
"a  c #696F12",
"s  c #5B5931",
"d  c #6E4730",
"f  c #656828",
"g  c #091148",
"h  c #2E144A",
"j  c #033A55",
"k  c #062B4D",
"l  c #272E44",
"z  c #273346",
"x  c #373C47",
"c  c #001962",
"v  c #163A64",
"b  c #123A70",
"n  c #313A63",
"m  c #473944",
"M  c #623878",
"N  c #134558",
"B  c #394649",
"V  c #184B69",
"C  c #0F4F73",
"Z  c #334E69",
"A  c #096E7D",
"S  c #48434D",
"D  c #55504F",
"F  c #645B5A",
"G  c #705257",
"H  c #5D6259",
"J  c #706A44",
"K  c #4B566E",
"L  c #6B4D6E",
"P  c #56666D",
"I  c #72686F",
"U  c #9B6F37",
"Y  c #885236",
"T  c #CA5335",
"R  c #9B3755",
"E  c #8B514D",
"W  c #9B6A4A",
"Q  c #A67451",
"!  c #A05E68",
"~  c #877366",
"^  c #857A78",
"/  c #AE776B",
"(  c #CE7753",
")  c #EB7761",
"_  c #5F9526",
"`  c #B3B11A",
"'  c #AC9928",
"]  c #CBAC29",
"[  c #BCCA29",
"{  c #E1DD3C",
"}  c #D1D931",
"|  c #AC8B4C",
" . c #9A8679",
".. c #918A68",
"X. c #B78A6C",
"o. c #A29746",
"O. c #CA9854",
"+. c #D2B34B",
"@. c #D48F70",
"#. c #CCAA73",
"$. c #E1977A",
"%. c #EAE74C",
"&. c #EAD371",
"*. c #E1D55A",
"=. c #28308E",
"-. c #1A37B4",
";. c #292CAD",
":. c #07249A",
">. c #0D528A",
",. c #2A4F88",
"<. c #0B7897",
"1. c #166C8E",
"2. c #287495",
"3. c #004AAA",
"4. c #184DBA",
"5. c #175ABD",
"6. c #1052AD",
"7. c #2758AC",
"8. c #0765A9",
"9. c #1866AD",
"0. c #116FB6",
"q. c #2778BD",
"w. c #3172B5",
"e. c #58578A",
"r. c #6E548B",
"t. c #517290",
"y. c #6E6A8C",
"u. c #526AAA",
"i. c #747DB4",
"p. c #105CC2",
"a. c #2E58D0",
"s. c #177CC7",
"d. c #077AD6",
"f. c #1B7CD8",
"g. c #0E6DCF",
"h. c #2C72D4",
"j. c #1554E4",
"k. c #335EE6",
"l. c #0D77ED",
"z. c #326EE8",
"x. c #524FCE",
"c. c #4F74CA",
"v. c #436CF2",
"b. c #6F7BD1",
"n. c #897798",
"m. c #8B74AB",
"M. c #9154A1",
"N. c #C76B90",
"B. c #0697A4",
"V. c #0383BC",
"C. c #0988A6",
"Z. c #318BB8",
"A. c #00ABBC",
"S. c #2899A4",
"D. c #5F8FB7",
"F. c #78B9B7",
"G. c #0DD4BF",
"H. c #138CC7",
"J. c #009BCD",
"K. c #1894D1",
"L. c #3193D2",
"P. c #18A8D9",
"I. c #00BFD8",
"U. c #10B0D2",
"Y. c #1395E5",
"T. c #189BF8",
"R. c #1184E3",
"E. c #2798F9",
"W. c #328FF3",
"Q. c #19A7E6",
"!. c #08ACFA",
"~. c #18A8FE",
"^. c #07BAFA",
"/. c #0BB7EC",
"(. c #25AAE9",
"). c #23AAF3",
"_. c #27B7FB",
"`. c #32B2F1",
"'. c #29AEDB",
"]. c #478BC3",
"[. c #7CA6C9",
"{. c #6DAAC3",
"}. c #408CFF",
"|. c #6CA0E1",
" X c #0FCED4",
".X c #04C4E7",
"XX c #04C6FA",
"oX c #02D5FF",
"OX c #05D4F8",
"+X c #14D6FC",
"@X c #0FD2EC",
"#X c #29CFF9",
"$X c #14ECF3",
"%X c #2BD2DA",
"&X c #8C879D",
"*X c #8E9297",
"=X c #AD908D",
"-X c #9796AA",
";X c #8C90B3",
":X c #A88CA2",
">X c #A99DAD",
",X c #92ABBC",
"<X c #AAA6B8",
"1X c #B7ADB9",
"2X c #ADACB3",
"3X c #ADA098",
"4X c #C69681",
"5X c #DB9088",
"6X c #D09293",
"7X c #CDA587",
"8X c #F9B591",
"9X c #E5B5A6",
"0X c #F4ADAD",
"qX c #B1E3A8",
"wX c #D4CC84",
"eX c #FACA99",
"rX c #FFDC99",
"tX c #EECF93",
"yX c #FAF882",
"uX c #FFFC97",
"iX c #EEE099",
"pX c #CDC7AF",
"aX c #F5CCB4",
"sX c #F4CCB0",
"dX c #F7E8AF",
"fX c #9193C8",
"gX c #AD95C4",
"hX c #AFAAC7",
"jX c #B9B4CA",
"kX c #B9A1D1",
"lX c #AAAFE7",
"zX c #C6BCC7",
"xX c #C1A2C1",
"cX c #B5D1CC",
"vX c #ADC8E9",
"bX c #B5E2FC",
"nX c #C8C6DA",
"mX c #D5C8CB",
"MX c #FBDCC4",
"NX c #EECBD0",
"BX c #FCE8CB",
"VX c #FFF8CA",
"CX c #FFF5D6",
"ZX c #F6E6D5",
"AX c #D9D7E7",
"SX c #D4D5F3",
"DX c #EDDBFF",
"FX c #E7CDFD",
"GX c #DCEBF2",
"HX c #FDF8FE",
"JX c #F0EAF1",
/* pixels */
"                                                                                        ",
"                                                                                        ",
"                            2.N i                                                       ",
"                            W.P.u O V   k H.8.                                          ",
"                            Q.$XU.l..XA + %X!.o                                         ",
"                        >.h.E.^._..X_.I.`.v.XX^.C.                                      ",
"                        j f.R.OX^.oX.Xk.E.XXx.^.I.<.                                    ",
"                        >.f.a.).^.T.XX>.9.XX_.0.oXS.% B.                                ",
"                        >.h.-.H.z.U.%X>._.c..Xs.XXU.8.@Xs.k                             ",
"                    A <.c z.a.5.^.h.0.-.I.^.p.~.h.Q.6.$XV.>                             ",
"                    V +XY.f.;.Y.s.~.T.;./.+XoXk.v.(.d.OX#Xt.V                           ",
"                    1.`.XX).>.J.$X0.W.1.).A._./.l.L.K._.k.B.V C.k                       ",
"                    1.(.g.+X0.s..X+XR.b T.L.~.@X~.5.$Xd.d.J.U.q.$                       ",
"                      K.R.W.4.W.).!.+Xg.4.E.h.K..XW.V.7.0.}.OXj 1                       ",
"                        Z.f.;.d.s.E./.j.6.8.w.x.W.4.7.d.=.4.,.v                         ",
"                    * 2 w U.Q.>.q.I.p.z.c.M u.f.l.7. X+X#XC +                           ",
"                      b :.d.E.v.5.l.C.t.( @.@.i.a.z.oXH.!.P.j                           ",
"                      q.T.!.d.!.,.=.3./ ) CXBXO.fXj.L.y.=.+X0.5                         ",
"                        >.P.`.<.J e 3.:Xr.P r.BXiXfXgXeX> 1.Y.j                         ",
"                        v ,.7.X #.U p.n.M.F.{.m.dXaXdXy @ i C                           ",
"                            C . :XVXN.( X.CXHXg.r.mXi.2X1 5                             ",
"                                h ; ( O.8X9XGX5.vX@.3.d                                 ",
"                                O * R X.pXJXaXqXZX+.^ S                                 ",
"                                a ' Q R 0XwXsX5XeX5X= 4                                 ",
"                          s o O a ` %.W E rXNXsX@.o _ o 8 &                             ",
"                      p a yX] ' W ..` *.| E W 4 = | uX' f <                             ",
"                      : *.yX+.+.uXo.L ` dX4X/ W Q +.&.[ [ >                             ",
"                      p #.7XaXrX%...e.F } aX9XO.NX&.&.U { g                             ",
"                      : r 8XeX+.} 9 e.P J wXMXeX6XtXwXn.+.O O                           ",
"                      - d @.| &.f 3 K e.r.NX9X8X/ eXpXn s #.O &                         ",
"                      & - 9XZXp 3 0 ; D I G ! 5XX.@.E B X #.6X.                         ",
"                      y e $.sX9   w B H G =X8X8X@.0X/   . S I m                         ",
"                      J eXY t w   9 G ( T ( ) O./ 6XE   q H S S                         ",
"                    < t aX- -       t ~ xXL mXpXn.>XO MXMXF @                           ",
"                    1 2 I t <       6 S.(.8. XB.].Z . 7XBX3Xx                           ",
"                    > > m & &       k 8.h.b.D.u.].[.q ~  . .                            ",
"                    , 8  .~ < 4   N Z.f.{.GXDX,Xt.GXAX& t                               ",
"                    8 D VXBX=X4 , 5 '.9.mXBXNX*XI JX2XX                                 ",
"                    9 F CXX.CXG , Z.H.[.AXmXHX&XI HX1X#                                 ",
"                      w =XeX4Xd 5 K.<.cXFXDX,Xm.y.jXzX@                                 ",
"                      8 0 d r 7 W.|.F.cXJXkX-Xz -X<X<Xy.l                               ",
"                        8 O < 2.`.L.bXAX1XzXx g <XDXAXjX$                               ",
"                          4 V #XU.0.vXJXNXmX. ;X&X<XJX<X@                               ",
"                          > 1 <.L.|.AXNX<Xl . AX&X>XHXnXK 6                             ",
"                          $ H <XD.lX>X>XSX# q :XAX&X-XnXI ,                             ",
"                          +  .NX&Xm.gXjXcX% I r.jXnX&X-X-X,                             ",
"                          X ^ HX3Xn.SXnX$ . *XfXy.hXGXnX, ,                             ",
"                          2 Z bXHXSX-X>Xh < % ,X;X,X;X@ >                               ",
"                          # C W.2.5 % X 3     # t.K K 2                                 ",
"                          # j L.D.5 ,         , z Z > >                                 ",
"                          # N w.k k             , x @                                   ",
"                        , % K v k               $ x , <                                 ",
"                        2 0 B > >               X 0 , < >                               ",
"                        l P < ,                 , 6 6 6 ,                               ",
"                          K z                                                           ",
"                                                                                        ",
"                                                                                        "
};
