/* XPM */
static char *f892da62767643908cc79ac7f9a81dbdkd8bMHf8TizhHv2n[] = {
/* columns rows colors chars-per-pixel */
"52 52 249 2 ",
"   c None",
".  c #020202",
"X  c #0C0201",
"o  c #01020D",
"O  c #050A06",
"+  c #1C0300",
"@  c #140505",
"#  c #001201",
"$  c #031906",
"%  c #151B00",
"&  c #010214",
"*  c #00051A",
"=  c #030A1D",
"-  c #070A14",
";  c #160418",
":  c #051217",
">  c #181919",
",  c #290304",
"<  c #310400",
"1  c #26071B",
"2  c #152008",
"3  c #0A271A",
"4  c #2A2C0D",
"5  c #020C23",
"6  c #060928",
"7  c #190024",
"8  c #04122B",
"9  c #071328",
"0  c #11132A",
"q  c #181B2B",
"w  c #051734",
"e  c #151D37",
"r  c #110B35",
"t  c #2C182E",
"y  c #0C2439",
"u  c #18223B",
"i  c #132D23",
"p  c #272927",
"a  c #242A3C",
"s  c #382733",
"d  c #472C16",
"f  c #571F22",
"g  c #51383C",
"h  c #1D6A3E",
"j  c #365D25",
"k  c #4D4F30",
"l  c #6E5237",
"z  c #484C11",
"x  c #031347",
"c  c #0F1245",
"v  c #251642",
"b  c #192542",
"n  c #022357",
"m  c #09374E",
"M  c #252B43",
"N  c #2B3849",
"B  c #2F3852",
"V  c #0B346D",
"C  c #4A324A",
"Z  c #582560",
"A  c #7E3A4F",
"S  c #154750",
"D  c #334451",
"F  c #054E6E",
"G  c #06417B",
"H  c #04596D",
"J  c #2C4A70",
"K  c #434757",
"L  c #535054",
"P  c #6A5C4F",
"I  c #776956",
"U  c #5D5A7A",
"Y  c #52556D",
"T  c #706D6F",
"R  c #AF6535",
"E  c #EA7734",
"W  c #89367A",
"Q  c #915152",
"!  c #AF734E",
"~  c #8F5C66",
"^  c #826562",
"/  c #B06F6B",
"(  c #A85A5A",
")  c #C55E7C",
"_  c #D37672",
"`  c #E37777",
"'  c #7E845C",
"]  c #AEAC36",
"[  c #A58E1B",
"{  c #D1AD10",
"}  c #C29037",
"|  c #E8E01B",
" . c #CBCB0B",
".. c #B88D78",
"X. c #9C895B",
"o. c #D1914E",
"O. c #CAAB49",
"+. c #EFBE57",
"@. c #CD916D",
"#. c #D5B074",
"$. c #F1A572",
"%. c #EB9C7D",
"&. c #9FC06F",
"*. c #D3D351",
"=. c #D8DA72",
"-. c #FFF86A",
";. c #DEDF67",
":. c #083781",
">. c #11358A",
",. c #1E3EAF",
"<. c #362EB7",
"1. c #302192",
"2. c #094798",
"3. c #0F5393",
"4. c #2D529C",
"5. c #076597",
"6. c #0E7490",
"7. c #306F90",
"8. c #1256B3",
"9. c #0454AC",
"0. c #2E4BAF",
"q. c #0465B5",
"w. c #097ABB",
"e. c #2F65B4",
"r. c #505B89",
"t. c #5A699A",
"y. c #506D8B",
"u. c #6A6C87",
"i. c #707292",
"p. c #6766A9",
"a. c #1658C7",
"s. c #0054D1",
"d. c #3057D1",
"f. c #0668CA",
"g. c #1174CF",
"h. c #3175D2",
"j. c #1575EB",
"k. c #2879F8",
"l. c #3071EE",
"z. c #3153E6",
"x. c #4366DC",
"c. c #607DFF",
"v. c #4B64E9",
"b. c #897384",
"n. c #8F7DAC",
"m. c #A5649C",
"M. c #C45889",
"N. c #9766C0",
"B. c #31829F",
"V. c #0E8DB9",
"C. c #288AA7",
"Z. c #1AB29B",
"A. c #748494",
"S. c #5D8DB9",
"D. c #6F8DA9",
"F. c #78ADB7",
"G. c #4AAA94",
"H. c #1798CB",
"J. c #188BD9",
"K. c #0E8CCE",
"L. c #2892D5",
"P. c #0AABD4",
"I. c #2AA3D7",
"U. c #31AACF",
"Y. c #188AFA",
"T. c #1596F7",
"R. c #0F95EE",
"E. c #2E92F1",
"W. c #01A5E6",
"Q. c #01BAE6",
"!. c #15B8EA",
"~. c #04A8F6",
"^. c #15A9FB",
"/. c #07B7F7",
"(. c #16B3F3",
"). c #25BEFF",
"_. c #31ACF4",
"`. c #6A92C3",
"'. c #70B4CE",
"]. c #4790F6",
"[. c #49B5FF",
"{. c #00C9D8",
"}. c #11D4D2",
"|. c #01DCEA",
" X c #13D6EA",
".X c #02CCFF",
"XX c #0ACAF6",
"oX c #11C8FE",
"OX c #01D3FF",
"+X c #03D9F5",
"@X c #11D6FF",
"#X c #07C6ED",
"$X c #25C3FD",
"%X c #21D8FF",
"&X c #00E2FB",
"*X c #2DE8EF",
"=X c #6ECFFF",
"-X c #938B8D",
";X c #A9928F",
":X c #8B86A6",
">X c #9D98B9",
",X c #9190B1",
"<X c #A49FA9",
"1X c #B29EAE",
"2X c #B394B2",
"3X c #9AA1BB",
"4X c #A7A4B6",
"5X c #B2AEBC",
"6X c #A3A88B",
"7X c #D99390",
"8X c #E59D91",
"9X c #CFAD9B",
"0X c #F4AA8E",
"qX c #CB97A5",
"wX c #F0B5AD",
"eX c #CBBDA2",
"rX c #BBC098",
"tX c #D6C19B",
"yX c #EBD890",
"uX c #F5D690",
"iX c #F3F58F",
"pX c #F4CEB1",
"aX c #F1EDA8",
"sX c #9A98C3",
"dX c #A896C2",
"fX c #99B2C5",
"gX c #BAB7C7",
"hX c #AEB3D0",
"jX c #C4BEDC",
"kX c #C4ABCA",
"lX c #F9B0C7",
"zX c #ABC2C7",
"xX c #BFC3C5",
"cX c #B2D6F8",
"vX c #D8D7D6",
"bX c #CDCAD0",
"nX c #F8D4CF",
"mX c #D9ECD7",
"MX c #F6EDD6",
"NX c #D6D6E4",
"BX c #DAD2FF",
"VX c #CDCCED",
"CX c #E4D8E9",
"ZX c #EFCFFB",
"AX c #D8EAFC",
"SX c #E6E6F7",
"DX c #FAEBFB",
"FX c #FFFBFE",
"GX c #F9EFE6",
/* pixels */
"                                    8 N J 8                                                             ",
"                                    b _.oXS # #     L.x                                                 ",
"                                  9 n V./..XJ.E.V c C.XXo                                               ",
"                                  y h.E./.oX~.{.+X^.d./.OX@                                             ",
"                                  y j.l.{.oXoX}.3.Y.OXl.W..X6                                           ",
"                                  y k.a.I.#X/. XV.<.Q._.l._.{.3 !.1                                     ",
"                                @ u k.0.h.J.^.].9./.h.W.d.+X}.>.oXP.#                                   ",
"                              S Z.x ].2.8.^.j.v.2.P.XXg./.g.I.2.%XW.w w                                 ",
"                              n |.[.f.0.h.P._.j.0.~.|.!.k.a..Xv..X#XG.9 m                               ",
"                              n $X/.).V R.|.a.!.H ~.(.Q.).h.~.Y./.d.H.V V.#                             ",
"                              V _.9.@XT.a. X).Q.>.E.H.I.+X#X8.OXW.l.~.W._..                             ",
"                              x K.h.f.j.K.(.!..Xl.,.T.g.h.OXE.J.0.q.j.@XG t                             ",
"                              t m H.E.4.6.T.K.E.j.0.s.g.x.Y.8.5.4.5.0.5.;                               ",
"                              > o x !.R.4.e.Q.h.d.y.U p.w.j.V *X&X+Xq.w                                 ",
"                                J V 8./.].<.g.K.B.;X0X@.i.z.E.(.Y.W.P.m                                 ",
"                                4.L.R.k._.q.1.9.) E pXMX8X2X8.H.N.>. XH.*                               ",
"                                c 3._.Q.w.h C :.m.^ e.r.uXiX'.dXaX+ F U.5                               ",
"                                  w m 9.r X...:.n.X.`.fXA.ZXuXaX5.> 7 F q                               ",
"                                    3 c.; ! MXqX/ ! DXGXf.J pXy.hX#                                     ",
"                                      e & $ D Q o.0XlXDXg.=X@.d.A                                       ",
"                                          # . Q / #.uX6XtXaX8X-X-                                       ",
"                                          k [ R M.8XyXpXo.o.aX,                                         ",
"                                      & ; l O.*.@.W pXnXbXlX1 *.6 % @                                   ",
"                                  q z ] O.-.{ { ;.[ ) Q d ; [ -.[ | &.X                                 ",
"                                e k =. .+.#.k 0 X =.o._ ! ..} yX~ +.;..                                 ",
"                                - k iXiX%.7X% ^ wX< 6XaX2 @ + 4 pXQ ! o                                 ",
"                                : 4 ] ] ` lXL l $.MXp 1 wXnXnXrX- t wXX                                 ",
"                                  p z k f ~ 9X$.o.P t.t.g eXeXp u C uXI ;                               ",
"                                    p 8 . @ l 8XnXA.S h i - O p p s ! I ;                               ",
"                                        ; 2 # k b.L d , wX8X< , ; $ X X 0                               ",
"                                        + t o + < , R 0X` _ #./ 7 :                                     ",
"                                              > ' qXN.9XnXT bXX                                         ",
"                                              & H  X6.T.g.J.5.w                                         ",
"                                              v d.J.D.S.7.'.F.D b                                       ",
"                                            # 7.E.p.GXFX<XK DXDX&                                       ",
"                                            i I.V.zXmXVXhXU bXCXo                                       ",
"                                          - 7.R.S.nXCXMX-Xb.DXxX: N                                     ",
"                                        M c P.V.hXCXAXfXfXr.3XNX- D                                     ",
"                                      m @ B.[.D.vXSX5X1Xs b.kXgXu.6                                     ",
"                                      5 6.$XK.cXDXkXgXL v :XFXVXSXo                                     ",
"                                    0 S U.(.K.F.mXgXAX& i.>X4XNXgX& B                                   ",
"                                    0 6 6.V.`.GXmXzXZ & bX>X,XvXSXu.:                                   ",
"                                    9 C hXD.dX1X<XNX7 K T jX>X4X4Xu.o                                   ",
"                                    * T vX-X<Xn.hXNXi T Y gXNX:X4XvX6                                   ",
"                                    = P FX;Xb.BXVXi . -XsXU 5XBXjXp r                                   ",
"                                    9 D BXBXSXdX1Xt   * :X,X:XsXe 9                                     ",
"                                      : r.t.Y 8         : r.t.Y 8                                       ",
"                                      w M N & B         w M N & B                                       ",
"                                      5 N *               5 N *                                         ",
"                                      = K 0 u             = K 0 u b                                     ",
"                                      * a = = 8           * a = = 8 u                                   ",
"                                      9 q a M u           9 q a M u e                                   "
};
