/* XPM */
static char *_092ccf0fc184cccbd3ea08be1f1c37aE1tQZmAe7zOJ7FTt[] = {
/* columns rows colors chars-per-pixel */
"52 52 251 2 ",
"   c None",
".  c #010303",
"X  c #02020A",
"o  c #070904",
"O  c #170005",
"+  c #001103",
"@  c #010114",
"#  c #040A18",
"$  c #18131B",
"%  c #0C1715",
"&  c #2C0004",
"*  c #2F1112",
"=  c #10280B",
"-  c #342E0C",
";  c #060A27",
":  c #0E1523",
">  c #0C142B",
",  c #031327",
"<  c #151B2F",
"1  c #1C1A26",
"2  c #041837",
"3  c #16193B",
"4  c #10052E",
"5  c #271330",
"6  c #052E3A",
"7  c #1C263A",
"8  c #13292F",
"9  c #272625",
"0  c #3A342A",
"q  c #2A3438",
"w  c #383938",
"e  c #2B2632",
"r  c #481804",
"t  c #4B270E",
"y  c #463132",
"u  c #004E1E",
"i  c #014438",
"p  c #454715",
"a  c #696F12",
"s  c #5B5931",
"d  c #6E4730",
"f  c #656828",
"g  c #091148",
"h  c #2E144A",
"j  c #033A55",
"k  c #08324E",
"l  c #2A2E42",
"z  c #243249",
"x  c #333C4A",
"c  c #001962",
"v  c #133A6B",
"b  c #313A63",
"n  c #473944",
"m  c #623878",
"M  c #0F4658",
"N  c #384545",
"B  c #184B69",
"V  c #064B6C",
"C  c #304D6B",
"Z  c #096E7D",
"A  c #48434D",
"S  c #55504F",
"D  c #645B5A",
"F  c #705257",
"G  c #5E6159",
"H  c #706A44",
"J  c #48587B",
"K  c #4D5366",
"L  c #6B4D6E",
"P  c #57676B",
"I  c #72686F",
"U  c #9B6F37",
"Y  c #885236",
"T  c #CA5335",
"R  c #9B3755",
"E  c #8B514D",
"W  c #9B6A4A",
"Q  c #A67451",
"!  c #A05E68",
"~  c #877366",
"^  c #857A78",
"/  c #AE776B",
"(  c #CE7753",
")  c #EB7761",
"_  c #5F9526",
"`  c #B3B11A",
"'  c #AC9928",
"]  c #CBAC29",
"[  c #BCCA29",
"{  c #E1DD3C",
"}  c #D1D931",
"|  c #AC8B4C",
" . c #9A8679",
".. c #918A68",
"X. c #B78A6C",
"o. c #A29746",
"O. c #CA9854",
"+. c #D2B34B",
"@. c #D48F70",
"#. c #CCAA73",
"$. c #E1977A",
"%. c #EAE74C",
"&. c #EAD371",
"*. c #E1D55A",
"=. c #28308E",
"-. c #1A37B4",
";. c #292CAD",
":. c #07249A",
">. c #0D528A",
",. c #2A4F88",
"<. c #0A7695",
"1. c #166C8E",
"2. c #28739A",
"3. c #004AAA",
"4. c #184DBA",
"5. c #175ABD",
"6. c #1052AD",
"7. c #2758AC",
"8. c #0765A9",
"9. c #1866AD",
"0. c #116FB6",
"q. c #2778BD",
"w. c #266BB9",
"e. c #58578A",
"r. c #6E548B",
"t. c #527190",
"y. c #6E6A8C",
"u. c #747DB4",
"i. c #526FAB",
"p. c #105CC2",
"a. c #2E58D0",
"s. c #177CC7",
"d. c #077AD6",
"f. c #1B7CD8",
"g. c #0E6DCF",
"h. c #357CD7",
"j. c #276ED2",
"k. c #1554E4",
"l. c #335EE6",
"z. c #0D77ED",
"x. c #326EE8",
"c. c #524FCE",
"v. c #4F74CA",
"b. c #436CF2",
"n. c #897798",
"m. c #8B74AB",
"M. c #9154A1",
"N. c #C76B90",
"B. c #0F809E",
"V. c #0697A4",
"C. c #0383BC",
"Z. c #0988A6",
"A. c #318BB8",
"S. c #00ABBC",
"D. c #2899A4",
"F. c #78B9B7",
"G. c #5E83B0",
"H. c #0DD4BF",
"J. c #138CC7",
"K. c #009BCD",
"L. c #1894D1",
"P. c #2E93D1",
"I. c #18A8D9",
"U. c #00BFD8",
"Y. c #10B0D2",
"T. c #1395E5",
"R. c #189BF8",
"E. c #1184E3",
"W. c #2798F9",
"Q. c #328DF5",
"!. c #19A7E6",
"~. c #08ACFA",
"^. c #18A8FE",
"/. c #07BAFA",
"(. c #0BB7EC",
"). c #25AAE9",
"_. c #23AAF3",
"`. c #27B7FB",
"'. c #32B2F1",
"]. c #29AEDB",
"[. c #468DC3",
"{. c #7CA7C9",
"}. c #6DAAC3",
"|. c #408CFF",
" X c #69B0EC",
".X c #0FCED4",
"XX c #04C4E7",
"oX c #04C6FA",
"OX c #02D5FF",
"+X c #05D4F8",
"@X c #14D6FC",
"#X c #0FD2EC",
"$X c #29CFF9",
"%X c #14ECF3",
"&X c #2BD2DA",
"*X c #8C879D",
"=X c #8E9297",
"-X c #AD908D",
";X c #9796AA",
":X c #8C90B3",
">X c #A88CA2",
",X c #A99DAD",
"<X c #92ABBC",
"1X c #AAA6B8",
"2X c #B8ADB9",
"3X c #ADACB3",
"4X c #ADA098",
"5X c #C69681",
"6X c #DB9088",
"7X c #D09293",
"8X c #CDA587",
"9X c #F9B591",
"0X c #E5B5A6",
"qX c #F4ADAD",
"wX c #B1E3A8",
"eX c #D4CC84",
"rX c #FACA99",
"tX c #FFDC99",
"yX c #EECF93",
"uX c #FFFC97",
"iX c #F6F08A",
"pX c #CDC7AF",
"aX c #F5CCB4",
"sX c #F4CCB0",
"dX c #F7E8AF",
"fX c #9193C8",
"gX c #AD95C4",
"hX c #AFAAC7",
"jX c #B9B4CA",
"kX c #B9A1D1",
"lX c #AAAFE7",
"zX c #C6BCC7",
"xX c #C1A2C1",
"cX c #B5D1CC",
"vX c #ADC8E9",
"bX c #B5E2FC",
"nX c #C8C6DA",
"mX c #D5C8CB",
"MX c #FBDCC4",
"NX c #EECBD0",
"BX c #FCE8CB",
"VX c #FFF8CA",
"CX c #FFF5D6",
"ZX c #F6E6D5",
"AX c #D8D6EA",
"SX c #D4D5F3",
"DX c #EDDBFF",
"FX c #E7CDFD",
"GX c #DAE6EB",
"HX c #FDF8FE",
"JX c #F0EAF1",
/* pixels */
"                                      2.M i                                                             ",
"                                      Q.I.u O B   k C.8.                                                ",
"                                      !.%XY.z.XXZ + &X~.o                                               ",
"                                  >.h.W./.`.XX`.XX'.b.oX/.Z.                                            ",
"                                  j f.E.+X/.OXXXl.Q.oXc./.U.<.                                          ",
"                                  >.f.a._./.W.oX>.9.oX`.0.OXD.% V.                                      ",
"                                  ,.j.-.J.x.Y.&X>.`.v.XXs.oXY.8.#Xs.k                                   ",
"                              Z B.c x.a.5./.j.0.-.U./.p.^.j.!.3.%XC.;                                   ",
"                              B @XT.f.;.T.s.^.R.;.(.@XOXl.b.).d.+X$Xt.B                                 ",
"                              1.'.oX_.>.K.%X0.Q.1._.S.`.(.z.P.L.`.l.V.B Z.k                             ",
"                              1.).g.@XJ.s..X@XE.v R.P.^.#X^.5.%Xd.d.K.Y.q.#                             ",
"                                L.E.Q.4.Q.).(.@Xg.4.W.j.L.XXQ.0.7.0.|.+Xj 2                             ",
"                                  A.f.;.d.s.W.(.k.6.8.q.c.W.4.7.d.=.4.,.v                               ",
"                              % 3 e Y.!.>.q.(.p.x.v.m i.f.z.7..X@X$XV +                                 ",
"                                v :.d.W.b.5.z.B.t.( @.@.u.j.x.OXJ.~.I.j                                 ",
"                                w.R.~.d.~.,.=.3...) CXBXO.fXk.P.y.=.@X0.6                               ",
"                                  >.I.'.<.H r 3.>Xr.P r.BXtXfXgXrX; 1.T.j                               ",
"                                  v ,.7.X #.U 5.n.M.F.}.m.dXaXdXy @ i V                                 ",
"                                      ,.. >XVXN.( / CXHXd.r.mXG.3X2 6                                   ",
"                                          h = ( O.9X0XGX5.vX@.3.d                                       ",
"                                          O % R X.pXJXaXwXZX+.^ A                                       ",
"                                          a ' Q R qXeXsX@.rX6X& 1                                       ",
"                                    s O O a ` %.W E tXNXsX@.o _ O 9 $                                   ",
"                                p a iX] ' H ..` *.| E Q h & | uX' f 1                                   ",
"                                - *.iX+.+.uXo.D ` dX5X/ W / +.&.] [ ;                                   ",
"                                p #.#.aXtX%...e.D } aX0XO.NX&.&.U { g                                   ",
"                                - t 9XrX+.} 0 e.P H eXMXrX7XyXeXn.+.O O                                 ",
"                                * d @.| &.f 4 K e.r.NX0X9X/ rXpXb s #.O $                               ",
"                                $ * qXZXp 4 l = K I F ! 6XX.@.E N o #.7X.                               ",
"                                y r $.sX0   q N G F -X9X9X@.qX/   o A I n                               ",
"                                H rXY y e   0 F ( T ( ) O./ 7XE   w G A A                               ",
"                              < y aX* *       y ~ xXL mXpXn.,XO MXMXD @                                 ",
"                              2 3 I y 1       7 D.).8..XV.[.C . 8XBX4Xw                                 ",
"                              , ; n $ $       k 8.P.[.h.{.[.{.w ~  . .                                  ",
"                              : 9  .~ 1 5   M A.f.}.GXDX<Xt.3Xl                                         ",
"                              9 S VXBX-X5 > 6 ].9.mXBXNX=XI GXx                                         ",
"                              0 D VXX.CXF , A.A.{.NXmXHX*XI HXG                                         ",
"                                e -XyX5Xd 6 L.<.cXFXDX<Xm.y.jXzX#                                       ",
"                                9 q d t 8 Q. XF.cXJXkX;Xz ;X1X1Xy.l                                     ",
"                                  1 O < 2.'.P.bXGX2XzXx g 1XDXAXjX#                                     ",
"                                    5 B $XY.0.vXJXNXzXX :X*X1XJX1X@                                     ",
"                                    ; , <.P. XAXNXhXl . AX*X,XHXnXK 7                                   ",
"                                    # G 1XG.lX,X,XSX# w >XAX*X;XnXI ;                                   ",
"                                    +  .NX>Xm.gXjXcX% I r.jXnX*X;X;X;                                   ",
"                                    X ^ HX4Xn.SXnX# . =XfXy.hXGXnX> >                                   ",
"                                    3 C bXHXSX;X,Xh 1 : <X:X<X:X@ ;                                     ",
"                                      # t.J J 3 X 4     # t.J J 3                                       ",
"                                      > z C ; ;         > z C ; >                                       ",
"                                        , x @             , x @                                         ",
"                                        # x : <           # x : <                                       ",
"                                        X q : < ;         X q : < ;                                     ",
"                                        : 7 7 7 >         : 7 7 7 >                                     "
};
