/* XPM */
static char *_3ad9bb9642f4059b5fce213060db143DIsS3KYFkz0eLIHQ[] = {
/* columns rows colors chars-per-pixel */
"52 52 244 2 ",
"   c None",
".  c #010202",
"X  c #01030A",
"o  c #070804",
"O  c #1B0000",
"+  c #130107",
"@  c #001103",
"#  c #010114",
"$  c #040A16",
"%  c #09181B",
"&  c #18131B",
"*  c #15110C",
"=  c #2C0004",
"-  c #132C07",
";  c #30251A",
":  c #060A27",
">  c #0E1523",
",  c #0D142B",
"<  c #021326",
"1  c #151B2E",
"2  c #1C1925",
"3  c #051736",
"4  c #171C3B",
"5  c #211427",
"6  c #291135",
"7  c #1B2539",
"8  c #102B36",
"9  c #32252B",
"0  c #2A3438",
"q  c #393A39",
"w  c #2D2A2E",
"e  c #441B00",
"r  c #462E32",
"t  c #4A241B",
"y  c #004E1E",
"u  c #014438",
"i  c #43401F",
"p  c #6B6C0F",
"a  c #585437",
"s  c #6D462C",
"d  c #696D30",
"f  c #091148",
"g  c #033A55",
"h  c #03324D",
"j  c #21324C",
"k  c #353C4A",
"l  c #2B2D41",
"z  c #001962",
"x  c #133A6B",
"c  c #31265B",
"v  c #473843",
"b  c #623878",
"n  c #384545",
"m  c #184B69",
"M  c #064B6C",
"N  c #2E4B6C",
"B  c #096E7D",
"V  c #0F435B",
"C  c #48434D",
"Z  c #55504F",
"A  c #645B5A",
"S  c #705257",
"D  c #5D6259",
"F  c #676342",
"G  c #48587B",
"H  c #555466",
"J  c #5B6465",
"K  c #516D78",
"L  c #776576",
"P  c #6F686C",
"I  c #754A78",
"U  c #9B6F37",
"Y  c #CA5335",
"T  c #9B3755",
"R  c #8B514D",
"E  c #9B6A4A",
"W  c #A67451",
"Q  c #A05E68",
"!  c #877366",
"~  c #877575",
"^  c #AE776B",
"/  c #CE7753",
"(  c #EB7761",
")  c #5F9526",
"_  c #8E9315",
"`  c #B3B11A",
"'  c #BC8B3E",
"]  c #AD9517",
"[  c #D9B53A",
"{  c #C4A821",
"}  c #BED03E",
"|  c #B9C314",
" . c #E1DD3C",
".. c #D8E130",
"X. c #898548",
"o. c #AC894E",
"O. c #BAA844",
"+. c #9A877B",
"@. c #918A68",
"#. c #B78A6C",
"$. c #CA9854",
"%. c #D0B24B",
"&. c #D58E6D",
"*. c #CFA975",
"=. c #E1977A",
"-. c #EAD153",
";. c #EAD371",
":. c #F4E854",
">. c #28308E",
",. c #1A37B4",
"<. c #292CAD",
"1. c #07249A",
"2. c #0D528A",
"3. c #2A4F88",
"4. c #137090",
"5. c #28739A",
"6. c #004AAA",
"7. c #184DBA",
"8. c #175ABD",
"9. c #1052AD",
"0. c #2758AC",
"q. c #0666A9",
"w. c #126CB5",
"e. c #2778BD",
"r. c #266BB9",
"t. c #56578F",
"y. c #6D5285",
"u. c #6E558C",
"i. c #527190",
"p. c #696888",
"a. c #726E91",
"s. c #747DB4",
"d. c #526FAB",
"f. c #105CC2",
"g. c #2E58D0",
"h. c #177CC7",
"j. c #077AD6",
"k. c #1A7BD7",
"l. c #0E6DCF",
"z. c #357DD7",
"x. c #276ED2",
"c. c #1554E4",
"v. c #335EE6",
"b. c #0D77ED",
"n. c #326EE8",
"m. c #524FCE",
"M. c #4F74CA",
"N. c #436CF2",
"B. c #897798",
"V. c #8C5FA2",
"C. c #C76B90",
"Z. c #2A8695",
"A. c #0599A4",
"S. c #0383BC",
"D. c #0988A6",
"F. c #1B98B3",
"G. c #79B7B4",
"H. c #0DD4BF",
"J. c #138CC7",
"K. c #1097D2",
"L. c #2D8FD1",
"P. c #18A8D9",
"I. c #00BFD8",
"U. c #10B1D4",
"Y. c #1395E5",
"T. c #189BF8",
"R. c #1184E3",
"E. c #2798F9",
"W. c #328DF5",
"Q. c #19A7E6",
"!. c #08ACFA",
"~. c #18A8FE",
"^. c #07BAFA",
"/. c #0BB7EC",
"(. c #25AAE9",
"). c #23AAF3",
"_. c #27B7FB",
"`. c #32B2F1",
"'. c #4591C5",
"]. c #4984C0",
"[. c #6DA8C2",
"{. c #7DA6C8",
"}. c #408CFF",
"|. c #6697DE",
" X c #0FCBD0",
".X c #04C4E7",
"XX c #04C6FA",
"oX c #02D5FF",
"OX c #05D4F8",
"+X c #14D6FC",
"@X c #0FD2EC",
"#X c #29CFF9",
"$X c #14ECF3",
"%X c #2BD2DA",
"&X c #8C889D",
"*X c #B08E89",
"=X c #9995AB",
"-X c #9798AB",
";X c #8C90AF",
":X c #AA94A7",
">X c #8AA3B9",
",X c #9BA0BE",
"<X c #AAA6B8",
"1X c #B1AFB4",
"2X c #ADA098",
"3X c #C99A80",
"4X c #DB9088",
"5X c #D09293",
"6X c #FBB48E",
"7X c #E5B5A6",
"8X c #FBB3B4",
"9X c #C6A68D",
"0X c #B1E3A8",
"qX c #D4CC84",
"wX c #F4CF94",
"eX c #FFF280",
"rX c #F9F194",
"tX c #CDC7AF",
"yX c #F3CCB2",
"uX c #F7E8AF",
"iX c #918FC1",
"pX c #9196CE",
"aX c #B8B3CD",
"sX c #B5A6D0",
"dX c #B49BC5",
"fX c #C9B9C6",
"gX c #C5BDCC",
"hX c #C1A2C1",
"jX c #B7D9D0",
"kX c #B2CDEA",
"lX c #C8C6D9",
"zX c #D3C6C8",
"xX c #FBDCC4",
"cX c #E5D1DD",
"vX c #F3CBCA",
"bX c #FCE8CB",
"nX c #FFF8CA",
"mX c #FFF5D6",
"MX c #F1E9D6",
"NX c #DCD9EF",
"BX c #DCE9F2",
"VX c #FAF3FF",
"CX c #FFFAFF",
"ZX c #EDEBED",
/* pixels */
"                                    5.V u                                                               ",
"                                    W.P.y O M   h J.q.                                                  ",
"                                    Q.$XU.b..XB @ %X!.o                                                 ",
"                                2.z.E.^._..X_.I.`.N.XX^.D.                                              ",
"                                g k.R.OX^.oX.Xv.W.XXm.^.I.4.                                            ",
"                                2.k.g.).^.E.XX2.0.XX_.w.oXF.% A.                                        ",
"                                3.x.,.J.n.U.%X2._.M..Xh.XXU.q.@Xh.h                                     ",
"                            B D.z n.g.8.^.x.w.,.I.^.w.~.z.Q.6.$XS.:                                     ",
"                            m +XY.k.<.Y.h.~.T.<./.+XoXv.N.(.j.OX#Xi.m                                   ",
"                            4.`.XX).2.K.$Xw.W.4.).U._./.b.L.J._.v.A.m D.h                               ",
"                            4.(.l.OXh.h..X+XR.x T.L.~.@X~.8.$Xj.j.K.U.e.$                               ",
"                              Y.R.W.7.W.(./.#Xl.7.E.x.K..XW.S.0.w.}.OXg 3                               ",
"                                '.k.<.j.h.E./.c.9.q.e.m.E.7.0.j.>.7.3.x                                 ",
"                            * 7 7 U.Q.2.e./.f.n.M.b d.k.b.0. X+X#XM @                                   ",
"                              x 1.j.E.N.8.b.D.i./ &.&.s.x.n.oXJ.!.P.g                                   ",
"                              r.T.!.j.!.3.>.6.^ ( mXbX$.pXc.L.a.>.+Xw.8                                 ",
"                                2.P.`.4.F e 6.:Xy.K u.bXwX{.dXwX: 4.Y.g                                 ",
"                                x 3.0.X *.U 8.B.V.G.[.V.uXyXuXt # u M                                   ",
"                                    3.X :XnXC./ ^ mXCXl.u.zX].1X3 8                                     ",
"                                        c - / $.6X7XZXf.kX&.6.s                                         ",
"                                        + * T #.tXZXyX0XMX%.~ C                                         ",
"                                        p { W T 8XqXyX4XyX4X= 5                                         ",
"                                        p | :.E R wXvXyX&.o ) o ; &                                     ",
"                                    ; d } @.` -.' R W 6 = o.rX_ d 2                                     ",
"                                  O } rX-.X.J ` uX3XQ E ^ %.;.| } :                                     ",
"                                2 d ] -.;.@.F A ..xX7X$.vX;.;.U  .f                                     ",
"                                ; eX_ %.[ ' t.J F qXxXwX5XwXqXB.O.+ +                                   ",
"                                : O.[ eX' [ 9 t.u.vX7X6X^ wXtXN a *.O &                                 ",
"                                v X.*.yXi 9 - H P S Q 4X#.&.R k o *.5X.                                 ",
"                                q o.3X3Xa w n D S *X6X6X&.8X^   o C P v                                 ",
"                                3 L 3X=., q S / Y / ( $.^ 5XR   q J C C                                 ",
"                                  2 o.yXr   r ! hXI zXtXB.:XO xXxXA $                                   ",
"                                  3 4 L r 2 ].Z.(.q. XA.].N . 9XbX2Xq                                   ",
"                                  < : v & & q.'.z.'.z.{.'.{.q ! +.+.                                    ",
"                                  > 2 +.! 2 7 Z.(.q. XA.i.1Xl                                           ",
"                                  w F nXbX*X6 , z.jX|.sXP ZXk                                           ",
"                                  9 A nX#.mXS < [.BX&X[.L CXD                                           ",
"                                    9 *XwX3Xs , zXfXsXbXj aXgXX                                         ",
"                                    2 0 s t 7 < BXcXcXy.f <X<Xa.l                                       ",
"                                      5 O 1 4.jXVX=XfXP 4 VXNXaX$                                       ",
"                                      7 W.|.=XjXfXcX=Xk &X<XZX<X#                                       ",
"                                    1 5.`.k =XVXVXcX=Xq &X=XVXlXH 7                                     ",
"                                  6 m #Xk =XVXVX=X>Xy.X NX&X=XlXL :                                     ",
"                                  : 3 : . VXcXaX&Xy.X y.aXlX&X=X-X:                                     ",
"                                        . VXfXp.iX=X2 iXp.aXNXlX, ,                                     ",
"                                        % >XaX,XfX2 % >X;X,X;X# :                                       ",
"                                          $ i.G G 4   $ i.G G 4                                         ",
"                                          , j N : :   , j N : :                                         ",
"                                            < k #       < k #                                           ",
"                                            $ k > 1     $ k > 1                                         ",
"                                            X 0 > 1 :   X 0 > 1 :                                       ",
"                                            > 7 7 7 ,   > 7 7 7 ,                                       "
};
