/* XPM */
static char *cda2c43c728a47e2f8b83f81434a8d18KOINcfN85MdzqsLK[] = {
/* columns rows colors chars-per-pixel */
"52 52 241 2 ",
"   c None",
".  c #000103",
"X  c #010409",
"o  c #080A04",
"O  c #190002",
"+  c #001106",
"@  c #000115",
"#  c #01031C",
"$  c #060B16",
"%  c #0B171C",
"&  c #151219",
"*  c #130910",
"=  c #2C0004",
"-  c #16280F",
";  c #30251A",
":  c #070927",
">  c #0C1423",
",  c #071329",
"<  c #1A1A29",
"1  c #061735",
"2  c #181D3C",
"3  c #271330",
"4  c #1B2429",
"5  c #1A2437",
"6  c #082E3C",
"7  c #32252B",
"8  c #302E34",
"9  c #441B00",
"0  c #4A2714",
"q  c #462E32",
"w  c #6D2F3C",
"e  c #004E1E",
"r  c #014438",
"t  c #43401F",
"y  c #6B6C0F",
"u  c #545436",
"i  c #6C472B",
"p  c #724132",
"a  c #6C4F3D",
"s  c #686B2E",
"d  c #033A55",
"f  c #0C2F49",
"g  c #223146",
"h  c #373D49",
"j  c #001962",
"k  c #133A6B",
"l  c #301252",
"z  c #473944",
"x  c #623878",
"c  c #184B69",
"v  c #064B6C",
"b  c #314E71",
"n  c #096E7D",
"m  c #24464E",
"M  c #5D5643",
"N  c #4A4D56",
"B  c #764E44",
"V  c #724854",
"C  c #695B59",
"Z  c #676342",
"A  c #545676",
"S  c #48587B",
"D  c #546674",
"F  c #706571",
"G  c #685767",
"H  c #9C6E30",
"J  c #CA5335",
"K  c #9B3755",
"L  c #865949",
"P  c #914952",
"I  c #9B6A4A",
"U  c #A67451",
"Y  c #A05E68",
"T  c #877577",
"R  c #877168",
"E  c #BA7971",
"W  c #A77767",
"Q  c #CE7753",
"!  c #EB7761",
"~  c #B3B11A",
"^  c #BC8B3E",
"/  c #978F1A",
"(  c #D9B53A",
")  c #C29425",
"_  c #BED03E",
"`  c #B8C832",
"'  c #B9C314",
"]  c #DBE035",
"[  c #898548",
"{  c #AA8E4D",
"}  c #948B6F",
"|  c #BF9E75",
" . c #B48369",
".. c #BAA844",
"X. c #CA9854",
"o. c #CDB24A",
"O. c #D58E6D",
"+. c #D0A875",
"@. c #E1977A",
"#. c #EAD153",
"$. c #E4D275",
"%. c #E8D84F",
"&. c #28308E",
"*. c #1A37B4",
"=. c #292CAD",
"-. c #07249A",
";. c #0D528A",
":. c #2A4F88",
">. c #0B6896",
",. c #157290",
"<. c #28739A",
"1. c #004AAA",
"2. c #184DBA",
"3. c #175ABD",
"4. c #1052AD",
"5. c #2758AC",
"6. c #0068A7",
"7. c #0B64AA",
"8. c #1668AD",
"9. c #116EB7",
"0. c #2778BD",
"q. c #2970B1",
"w. c #56578F",
"e. c #6E558C",
"r. c #4F6D91",
"t. c #6A6F95",
"y. c #5168A9",
"u. c #747DB4",
"i. c #105CC2",
"p. c #2E58D0",
"a. c #177CC7",
"s. c #077AD6",
"d. c #1A7BD7",
"f. c #0E6DCF",
"g. c #357CD7",
"h. c #276ED2",
"j. c #1554E4",
"k. c #335EE6",
"l. c #0D77ED",
"z. c #326EE8",
"x. c #524FCE",
"c. c #4F74CA",
"v. c #436CF2",
"b. c #877D99",
"n. c #8C5FA2",
"m. c #C76B90",
"M. c #0F809E",
"N. c #2A8695",
"B. c #0599A4",
"V. c #0383BC",
"C. c #0988A6",
"Z. c #1F9FBA",
"A. c #78A3B9",
"S. c #0DD4BF",
"D. c #138CC7",
"F. c #009BCD",
"G. c #1A95D6",
"H. c #2E91D3",
"J. c #18A8D9",
"K. c #00BFD8",
"L. c #10B1D4",
"P. c #1395E5",
"I. c #189BF8",
"U. c #1184E3",
"Y. c #2798F9",
"T. c #328DF5",
"R. c #19A7E6",
"E. c #08ACFA",
"W. c #18A8FE",
"Q. c #07BAFA",
"!. c #0BB7EC",
"~. c #25AAE9",
"^. c #23AAF3",
"/. c #27B7FB",
"(. c #32B2F1",
"). c #478BC3",
"_. c #7C99C1",
"`. c #7DA7C8",
"'. c #6DAAC3",
"]. c #408CFF",
"[. c #59AEF1",
"{. c #0FCBD0",
"}. c #04C4E7",
"|. c #04C6FA",
" X c #02D5FF",
".X c #05D4F8",
"XX c #14D6FC",
"oX c #0FD2EC",
"OX c #29CFF9",
"+X c #14ECF3",
"@X c #2BD2DA",
"#X c #8A8C9E",
"$X c #988F90",
"%X c #AE9088",
"&X c #9995AB",
"*X c #9998A2",
"=X c #A095B5",
"-X c #A994A5",
";X c #96A1BE",
":X c #8AA3B9",
">X c #AAA0B9",
",X c #A6ABB4",
"<X c #CB9C80",
"1X c #C09082",
"2X c #DB9088",
"3X c #D48F8F",
"4X c #FBB48E",
"5X c #E5B5A6",
"6X c #FBB3B4",
"7X c #B4D498",
"8X c #FDCB98",
"9X c #F1D193",
"0X c #FFF280",
"qX c #F9ED93",
"wX c #C7C5B3",
"eX c #F4CEB0",
"rX c #FFE7B9",
"tX c #F3E5AB",
"yX c #DEC986",
"uX c #918FC1",
"iX c #9599CB",
"pX c #AFAFCB",
"aX c #A2A9D5",
"sX c #C9B9C6",
"dX c #C1A2C1",
"fX c #B7DBD7",
"gX c #B1CAED",
"hX c #CFC5CC",
"jX c #E5D1DD",
"kX c #F9CEC8",
"lX c #FDE7C9",
"zX c #FFF8CA",
"xX c #E5E9D9",
"cX c #FFF5D5",
"vX c #FFEBDA",
"bX c #E5DFE3",
"nX c #DBE8F8",
"mX c #FBF4FF",
"MX c #FFF9FF",
"NX c #EEEFEF",
"BX c #D1D8E8",
/* pixels */
"                                    <.d r                                                               ",
"                                    T.J.e O v   f D.7.                                                  ",
"                                    R.+XL.l.}.n + @XE.o                                                 ",
"                                ;.g.Y.Q./.}./.K.(.v.|.Q.C.                                              ",
"                                d d.U..XQ. XoXk.T.|.x.Q.K.,.                                            ",
"                                ;.d.p.^.Q.Y.|.;.8.|./.9. XZ.% B.                                        ",
"                                :.h.*.D.z.L.@X;./.c.}.a.|.L.7.oXa.d                                     ",
"                            n M.j z.p.3.Q.h.9.*.K.Q.9.W.h.R.1.+XV.:                                     ",
"                            c XXP.d.=.P.a.W.I.=.!.XX Xk.v.~.s..XOXr.c                                   ",
"                            ,.(.|.^.;.F.+X8.T.>.^.F./.!.l.H.G./.k.B.c C.d                               ",
"                            ,.~.f..XD.a.}.XXU.k I.H.W.oXW.3.+Xs.s.F.L.0.#                               ",
"                              G.U.T.2.T.~.!.XXf.2.Y.h.G.}.T.V.5.9.]..Xd 1                               ",
"                                ).d.=.s.a.Y.!.j.4.7.0.x.Y.2.5.s.&.2.:.k                                 ",
"                            * 5 5 F.R.;.0.!.i.z.c.x y.h.l.5.{.XXOXv +                                   ",
"                              k -.s.Y.v.3.l.M.t.Q O.O.u.h.z. XD.E.J.d                                   ",
"                              q.I.E.s.E.:.&.1. .! cXlXX.iXj.H.t.&.XX9.6                                 ",
"                                ;.J.(.>.Z 9 1.-Xe.D e.lX9X`.dX8X: ,.P.d                                 ",
"                                k :.5.X +.H 3.b.n.A.'.n.tXeXtX0 @ r v                                   ",
"                                    :.X -XzXm.Q  .cXMXf.e.hX_.,X1 6                                     ",
"                                        l - Q X.4X5XxXi.gXO.1.i                                         ",
"                                        O * P  .wXvXeX7XxXo.T N                                         ",
"                                        y ) U K 6XyXeXO.8X2X=                                           ",
"                                        y ' %.I P 8XkXeXO.o 0 a *                                       ",
"                                    ; s _ } ~ #.{ P U 3 = { $.o./ u                                     ",
"                                  O _ qX#.[ D ~ rX1XW I W o.#.] ] s .                                   ",
"                                3 s / #.$.} Z C ] kX5XX.kX$.qX{ ` u &                                   ",
"                                ; 0X/ o.( ^ w.D Z yXlX8X3X9XtXT 7XF $                                   ",
"                                : ..( $.^ ( 7 w.e.kX5X4XW 8XrX-XrX-                                     ",
"                                z [ +.eXq 7 + N F V Y 2X .O.L R L -                                     ",
"                                8 { <X<Xu 8 h C C %X4X4XO.6XE B B 8                                     ",
"                                1 F <X@.: 8 C Q J Q ! X.E 3XL w E 8                                     ",
"                                  < { eXq   q R dXG hXsXb.>XE L B E                                     ",
"                                  1 2 F q < ).N.~.6.{.B.).b b.. 4 #                                     ",
"                                  , : z & & 7.).g.y.B.y.).`.`.8 M #                                     ",
"                                  > 4 } R < 5 N.~.6.{.>.b N.`.M | $X                                    ",
"                                  7 M zXlX$X3 , g.fX>.q._.6.N.M | NXV                                   ",
"                                  8 C cX| vXV , '.nXH.S MXjX6.%XcX<Xp                                   ",
"                                    7 %X9X<Xp , hXsXS $XxXNXsX5 i 0                                     ",
"                                    4 8 i 0 5 , $XjX$X>XA nXmXmX@                                       ",
"                                      < O < ,.fXuX&X>Xb.A iXnX&X@                                       ",
"                                      5 T.[.&X=XsX>XX &X#X$X=XmXjX+                                     ",
"                                    < <.(.h &X&XmXjX>XX T ;XBXbXb..                                     ",
"                                  3 c OXh &X:XmX&X&XA X =X=X*X=XxX*X.                                   ",
"                                  : 1 > . #X&XpX#XA &X  A b.xX&Xb.*X@                                   ",
"                                        . &XsXt.uX&X    *XNXhXpX=X,X:                                   ",
"                                        % :XpX;XsX<     % *XaXgXnXD @                                   ",
"                                          $ r.S S 2     % =X_.aXt.@                                     ",
"                                          > g b : ,       , r.b @                                       ",
"                                            , h @         # g g #                                       ",
"                                            $ h > <         4 h #                                       ",
"                                            X 8 > < :       @ N > > 5                                   ",
"                                            > 5 5 5 ,       # g > > 1                                   "
};
