/* XPM */
static char *aa79a421e9e64864ef7d794bbe3dda78hGcy2kFkROo3tUX1[] = {
/* columns rows colors chars-per-pixel */
"52 52 251 2 ",
"   c None",
".  c #010202",
"X  c #01030A",
"o  c #080803",
"O  c #170005",
"+  c #001103",
"@  c #010114",
"#  c #040A16",
"$  c #09181B",
"%  c #18131B",
"&  c #15110C",
"*  c #2C0004",
"=  c #2F1112",
"-  c #132C07",
";  c #342E0C",
":  c #070A27",
">  c #0E1523",
",  c #0D142B",
"<  c #021326",
"1  c #151B2E",
"2  c #1C1826",
"3  c #041837",
"4  c #171C3B",
"5  c #0B0036",
"6  c #271330",
"7  c #052E3A",
"8  c #1B2639",
"9  c #13292F",
"0  c #272625",
"q  c #3A342A",
"w  c #2A3438",
"e  c #383938",
"r  c #2B2632",
"t  c #481804",
"y  c #4B270E",
"u  c #463132",
"i  c #004E1E",
"p  c #014438",
"a  c #454715",
"s  c #696F12",
"d  c #5B5931",
"f  c #6E4730",
"g  c #656828",
"h  c #091148",
"j  c #033A55",
"k  c #08324E",
"l  c #243249",
"z  c #353C4A",
"x  c #2B2D41",
"c  c #001962",
"v  c #133A6B",
"b  c #31265B",
"n  c #473944",
"m  c #623878",
"M  c #384545",
"N  c #184B69",
"B  c #064B6C",
"V  c #2E4B6C",
"C  c #096E7D",
"Z  c #0F435B",
"A  c #48434D",
"S  c #55504F",
"D  c #645B5A",
"F  c #705257",
"G  c #5D6259",
"H  c #706A44",
"J  c #48587B",
"K  c #4D5366",
"L  c #6B4D6E",
"P  c #57676B",
"I  c #72676F",
"U  c #9B6F37",
"Y  c #885236",
"T  c #CA5335",
"R  c #9B3755",
"E  c #8B514D",
"W  c #9B6A4A",
"Q  c #A67451",
"!  c #A05E68",
"~  c #877366",
"^  c #877575",
"/  c #AE776B",
"(  c #CE7753",
")  c #EB7761",
"_  c #5F9526",
"`  c #B3B11A",
"'  c #AC9928",
"]  c #CBAC29",
"[  c #BED03E",
"{  c #B9C314",
"}  c #E1DD3C",
"|  c #D1D931",
" . c #AC8B4C",
".. c #9A877B",
"X. c #918A68",
"o. c #B78A6C",
"O. c #A29746",
"+. c #CA9854",
"@. c #D2B34B",
"#. c #D48F70",
"$. c #CCAA73",
"%. c #E1977A",
"&. c #EAE74C",
"*. c #EAD371",
"=. c #E1D55A",
"-. c #28308E",
";. c #1A37B4",
":. c #292CAD",
">. c #07249A",
",. c #0D528A",
"<. c #2A4F88",
"1. c #137090",
"2. c #28739A",
"3. c #004AAA",
"4. c #184DBA",
"5. c #175ABD",
"6. c #1052AD",
"7. c #2758AC",
"8. c #0765A9",
"9. c #1866AD",
"0. c #116EB7",
"q. c #2778BD",
"w. c #266BB9",
"e. c #58578A",
"r. c #6D5285",
"t. c #6E558C",
"y. c #527190",
"u. c #696888",
"i. c #726E91",
"p. c #747DB4",
"a. c #526FAB",
"s. c #105CC2",
"d. c #2E58D0",
"f. c #177CC7",
"g. c #077AD6",
"h. c #1B7CD8",
"j. c #0E6DCF",
"k. c #357DD7",
"l. c #276ED2",
"z. c #1554E4",
"x. c #335EE6",
"c. c #0D77ED",
"v. c #326EE8",
"b. c #524FCE",
"n. c #4F74CA",
"m. c #436CF2",
"M. c #897798",
"N. c #8C5FA2",
"B. c #C76B90",
"V. c #0F809E",
"C. c #2A8695",
"Z. c #0599A4",
"A. c #0383BC",
"S. c #0988A6",
"D. c #318BB8",
"F. c #00ABBC",
"G. c #26ABB2",
"H. c #79B7B4",
"J. c #0DD4BF",
"K. c #138CC7",
"L. c #009BCD",
"P. c #1894D1",
"I. c #2D8FD1",
"U. c #18A8D9",
"Y. c #00BFD8",
"T. c #10B1D4",
"R. c #1395E5",
"E. c #189BF8",
"W. c #1184E3",
"Q. c #2798F9",
"!. c #328DF5",
"~. c #19A7E6",
"^. c #08ACFA",
"/. c #18A8FE",
"(. c #07BAFA",
"). c #0BB7EC",
"_. c #25AAE9",
"`. c #23AAF3",
"'. c #27B7FB",
"]. c #32B2F1",
"[. c #29AEDB",
"{. c #4591C5",
"}. c #4984C0",
"|. c #6DA8C2",
" X c #7CA7C9",
".X c #408CFF",
"XX c #6697DE",
"oX c #0FCBD0",
"OX c #04C4E7",
"+X c #04C6FA",
"@X c #02D5FF",
"#X c #05D4F8",
"$X c #14D6FC",
"%X c #0FD2EC",
"&X c #29CFF9",
"*X c #14ECF3",
"=X c #2BD2DA",
"-X c #8C889D",
";X c #B08E89",
":X c #9995AB",
">X c #9798AB",
",X c #8C90AF",
"<X c #AA94A7",
"1X c #8AA3B9",
"2X c #9BA0BE",
"3X c #AAA6B8",
"4X c #B1AFB4",
"5X c #ADA098",
"6X c #C69681",
"7X c #DB9088",
"8X c #D09293",
"9X c #CDA587",
"0X c #F9B591",
"qX c #E5B5A6",
"wX c #F4ADAD",
"eX c #B1E3A8",
"rX c #D4CC84",
"tX c #FACA99",
"yX c #FFDC99",
"uX c #EECF93",
"iX c #FAF882",
"pX c #FFFC97",
"aX c #EEE099",
"sX c #CDC7AF",
"dX c #F5CCB4",
"fX c #F4CCB0",
"gX c #F7E8AF",
"hX c #918FC1",
"jX c #9196CE",
"kX c #B8B3CD",
"lX c #B5A6D0",
"zX c #B49BC5",
"xX c #C9B9C6",
"cX c #C5BDCC",
"vX c #C1A2C1",
"bX c #B7D9D0",
"nX c #B2CDEA",
"mX c #C8C6D9",
"MX c #D3C6C8",
"NX c #FBDCC4",
"BX c #E5D1DD",
"VX c #F3CBCA",
"CX c #FCE8CB",
"ZX c #FFF8CA",
"AX c #FFF5D6",
"SX c #F6E6D5",
"DX c #DCD9EF",
"FX c #DCE9F2",
"GX c #FAF3FF",
"HX c #FFFAFF",
"JX c #EDEBED",
/* pixels */
"                                    2.Z p                                                               ",
"                                    !.U.i O B   k K.8.                                                  ",
"                                    ~.*XT.c.OXC + =X^.o                                                 ",
"                                ,.k.Q.(.'.OX'.Y.].m.+X(.S.                                              ",
"                                j h.W.#X(.@XOXx.!.+Xb.(.Y.1.                                            ",
"                                ,.h.d.`.(.Q.+X,.9.+X'.0.@XG.$ Z.                                        ",
"                                <.l.;.K.v.T.=X,.'.n.OXf.+XT.8.%Xf.k                                     ",
"                            C V.c v.d.5.(.l.0.;.Y.(.0./.l.~.3.*XA.:                                     ",
"                            N $XR.h.:.R.f./.E.:.).$X@Xx.m._.g.#X&Xy.N                                   ",
"                            1.].+X`.,.L.*X0.!.1.`.F.'.).c.I.P.'.x.Z.N S.k                               ",
"                            1._.j.#Xf.f.OX$XW.v E.I./.%X/.5.*Xg.g.L.T.q.#                               ",
"                              P.W.!.4.!._.).$Xj.4.Q.l.P.OX!.A.7.0..X#Xj 3                               ",
"                                D.h.:.g.f.Q.).z.6.8.q.b.Q.4.7.g.-.4.<.v                                 ",
"                            & 8 r L.~.,.q.).s.v.n.m a.h.c.7.oX$X&XB +                                   ",
"                              v >.g.Q.m.5.c.V.y.( #.#.p.l.v.@XK.^.U.j                                   ",
"                              w.E.^.g.^.<.-.3./ ) AXCX+.jXz.I.i.-.$X0.7                                 ",
"                                ,.U.].1.H t 3.<Xr.P t.CXaX XzXtX: 1.R.j                                 ",
"                                v <.7.X $.U 5.M.N.H.|.N.gXdXgXu @ p B                                   ",
"                                    <.X <XZXB.( / AXHXg.t.MX}.4X3 7                                     ",
"                                        b - ( +.0XqXJXs.nX#.3.f                                         ",
"                                        O # R o.sXJXdXeXSX@.^ A                                         ",
"                                        s ' Q R wXrXfX#.tX7X* 2                                         ",
"                                  d o O s { &.W E yXVXfX#.o _ o 0 %                                     ",
"                              a s iX] ' H X.` =. .E Q 6 *  .pX' g 2                                     ",
"                              ; =.iX@.@.pXO.D ` gX6X/ W / @.*.{ [ :                                     ",
"                              a $.9XdXyX&.X.e.D | NXqX+.VX*.*.U } h                                     ",
"                              ; y 0XtX@.| q e.P H rXNXtX8XuXrXM.@.O O                                   ",
"                              = f #. .*.g , K e.t.VXqX0X/ tXsXV d $.O %                                 ",
"                              % = qXSXa 5 x - K I F ! 7Xo.#.E z o $.8X.                                 ",
"                              u t %.fXq   w M G F ;X0X0X#.wX/   o A I n                                 ",
"                              H tXY u r   q F ( T ( ) +./ 8XE   e G A A                                 ",
"                            1 u dX= =       u ~ vXL MXsXM.<XO NXNXD #                                   ",
"                            3 4 I u 2       }.C._.8.oXZ.}.V . 9XCX5Xe                                   ",
"                            < : n % %       8.{.k.{.k. X{. Xe ~ ....                                    ",
"                            > 0 ..~ 2 8     8 C._.8.oXZ.y.4Xx                                           ",
"                            0 S ZXCX;X6 ,   k 8.k.bXXXlXI JXz                                           ",
"                            q D AXo.AXF < . D.h.|.FX-X|.I HXG                                           ",
"                              r ;XuX6Xf , 7 [.9.MXxXlXCXl kXcXX                                         ",
"                              0 w f y 9 < D.D. XFXBXBXr.h 3X3Xi.x                                       ",
"                                2 O 1   7 P.1.bXGX:XxXI 4 GXDXkX#                                       ",
"                                      9 !.XX:XbXxXBX:Xz -X3XJX3X@                                       ",
"                                    1 2.].z :XGXGXBX:Xe -X:XGXmXK 8                                     ",
"                                  6 N &Xz :XGXGX:X1Xr.X DX-X:XmXI :                                     ",
"                                  : 3 : . GXBXkX-Xr.X r.kXmX-X:X>X:                                     ",
"                                        . GXxXu.hX:X2 hXu.kXDXmX, ,                                     ",
"                                        $ 1XkX2XxX2 $ 1X,X2X,X@ :                                       ",
"                                          # y.J J 4   # y.J J 4                                         ",
"                                          , l V : :   , l V : :                                         ",
"                                            < z @       < z @                                           ",
"                                            # z > 1     # z > 1                                         ",
"                                            X w > 1 :   X w > 1 :                                       ",
"                                            > 8 8 8 ,   > 8 8 8 ,                                       "
};
