
/* XPM */
static char *_dca3fded6be497aaacf09d2bba3c229DLuk6NfY1Qr7N0no[] = {
/* columns rows colors chars-per-pixel */
"52 52 233 2 ",
"   c #1B0002",
".  c #1A0205",
"X  c #240103",
"o  c #2B0003",
"O  c #250309",
"+  c #2A040C",
"@  c #3B0104",
"#  c #350308",
"$  c #33040E",
"%  c #3B040B",
"&  c #33090E",
"*  c #2C100C",
"=  c #391C0F",
"-  c #290415",
";  c #350611",
":  c #3B0612",
">  c #350912",
",  c #3D0B14",
"<  c #3D0C19",
"1  c #391517",
"2  c #3C3910",
"3  c #381928",
"4  c #321A32",
"5  c #342937",
"6  c #46030B",
"7  c #43030C",
"8  c #410614",
"9  c #420C16",
"0  c #4B0A13",
"q  c #440D19",
"w  c #4B0E1A",
"e  c #590B17",
"r  c #540D19",
"t  c #44121B",
"y  c #4C121B",
"u  c #4B191D",
"i  c #54141D",
"p  c #660F1F",
"a  c #62111E",
"s  c #45360F",
"d  c #462B17",
"f  c #4A3B17",
"g  c #4B341C",
"h  c #523D1C",
"j  c #4D1620",
"k  c #531621",
"l  c #5B1622",
"z  c #561A22",
"x  c #5C1A24",
"c  c #591C29",
"v  c #621B26",
"b  c #651824",
"n  c #641D29",
"m  c #691D2B",
"M  c #5C2329",
"N  c #4D302D",
"B  c #5B2B35",
"V  c #64232B",
"C  c #65262A",
"Z  c #6A222D",
"A  c #742729",
"S  c #6A332F",
"D  c #6D2432",
"F  c #6C2A31",
"G  c #682E3C",
"H  c #732C33",
"J  c #772A34",
"K  c #6E3434",
"L  c #753335",
"P  c #793136",
"I  c #783839",
"U  c #4E4716",
"Y  c #5C511D",
"T  c #756719",
"R  c #5A4E22",
"E  c #7E4639",
"W  c #675733",
"Q  c #716C3A",
"!  c #372E55",
"~  c #243255",
"^  c #262173",
"/  c #4B2D52",
"(  c #653843",
")  c #703446",
"_  c #473A68",
"`  c #384454",
"'  c #314E51",
"]  c #2F605D",
"[  c #355378",
"{  c #38627A",
"}  c #545456",
"|  c #65474E",
" . c #744E4F",
".. c #724952",
"X. c #766E4E",
"o. c #4B506F",
"O. c #70596D",
"+. c #4B696F",
"@. c #776265",
"#. c #872E33",
"$. c #843539",
"%. c #833B3C",
"&. c #893839",
"*. c #953A3A",
"=. c #89423F",
"-. c #8C6E37",
";. c #893D41",
":. c #8C4443",
">. c #894849",
",. c #934545",
"<. c #9C4543",
"1. c #944B46",
"2. c #994947",
"3. c #95484A",
"4. c #9C4C4B",
"5. c #96514C",
"6. c #9D534D",
"7. c #875356",
"8. c #9C5353",
"9. c #9A5854",
"0. c #A14845",
"q. c #A24E4B",
"w. c #A3524D",
"e. c #AB574B",
"r. c #A25A4D",
"t. c #B45C4B",
"y. c #A45552",
"u. c #A55D54",
"i. c #AB5854",
"p. c #AA5D55",
"a. c #B25E54",
"s. c #857C49",
"d. c #AE6357",
"f. c #AC645A",
"g. c #B26255",
"h. c #B3645B",
"j. c #BA6558",
"k. c #B56A5C",
"l. c #BC6B5E",
"z. c #AF7859",
"x. c #BC725F",
"c. c #895B62",
"v. c #84656A",
"b. c #926769",
"n. c #92716F",
"m. c #B26C62",
"M. c #BB6E61",
"N. c #BD7262",
"B. c #BD7A67",
"V. c #AD7370",
"C. c #C36958",
"Z. c #C7725F",
"A. c #C36E61",
"S. c #C37564",
"D. c #CB7662",
"F. c #C57A66",
"G. c #CA7B65",
"H. c #C37568",
"J. c #C67C69",
"K. c #CB7C6A",
"L. c #D17D65",
"P. c #D07E6C",
"I. c #60877A",
"U. c #8C8150",
"Y. c #A19156",
"T. c #908F6F",
"R. c #A89E77",
"E. c #CE816B",
"W. c #D2836D",
"Q. c #D8866D",
"!. c #C88774",
"~. c #D28471",
"^. c #D58C76",
"/. c #D6927B",
"(. c #E08B74",
"). c #395E93",
"_. c #4A788C",
"`. c #426C9E",
"'. c #686C93",
"]. c #68659A",
"[. c #3D5CD8",
"{. c #3466DE",
"}. c #3A77EA",
"|. c #4374DA",
" X c #42809A",
".X c #4E989B",
"XX c #6E8A8A",
"oX c #4F92A7",
"OX c #61A3B8",
"+X c #3B92F2",
"@X c #4381C8",
"#X c #4BADD5",
"$X c #66A2DB",
"%X c #4EABF4",
"&X c #41CDC0",
"*X c #988A8C",
"=X c #989C87",
"-X c #B3948C",
";X c #AAA788",
":X c #ABAA93",
">X c #B1AD9B",
",X c #B9B59C",
"<X c #AA9EA1",
"1X c #B6AAAC",
"2X c #B8B8A6",
"3X c #BEB9B6",
"4X c #DB9B88",
"5X c #C79893",
"6X c #D89F92",
"7X c #D0A994",
"8X c #DCA599",
"9X c #E6B39E",
"0X c #DDACA1",
"qX c #C8B8B5",
"wX c #D7B8B4",
"eX c #E6BBB2",
"rX c #CDC8B1",
"tX c #CAC9BB",
"yX c #EAC5BA",
"uX c #BBEAFE",
"iX c #BFFAFE",
"pX c #CFCDC9",
"aX c #D8D8C8",
"sX c #DFDDD4",
"dX c #EAD1CD",
"fX c #EDD2CD",
"gX c #F3D9CE",
"hX c #E7D6D7",
"jX c #E2E1DC",
"kX c #F7EBE9",
"lX c #F1F2ED",
"zX c #F7F6F3",
"xX c #FDFDFC",
/* pixels */
"~ ~ ~ ~ ~ ~ ~ ~ ~ ~ ~ ~ ~ ~ ~ ~ ~ ~ ~ ~ ~ ~ ~ ~ ~ ~ ~ ~ ~ ~ ~ ~ ~ ~ ~ ~ ~ ~ ~ ~ ~ ~ ~ ~ ~ ~ ~ ~ ~ ~ ~ ~ ",
"~ ~ ~ ~ ~ ~ ~ ~ ~ ~ ~ ~ ~ ~ ~ ~ ~ ~ ~ ~ ~ ~ ~ ~ ~ ~ ~ ~ ~ ~ ~ ~ ~ ~ ~ ~ ~ ~ ~ ~ ~ ~ ~ ~ ~ ~ ~ ~ ~ ~ ~ ~ ",
"~ ~ ~ ~ ~ ~ ~ ~ ~ ~ ~ ~ ~ ~ ~ ~ ~ ~ ~ ~ ~ ~ ~ ~ ~ ~ ~ ~ ~ ~ ~ ~ ~ ~ ~ ~ ~ ~ ~ ~ ~ ~ ~ ~ ~ ~ ~ ~ ~ ~ ~ ~ ",
"~ ~ ~ ~ ~ ~ ~ ~ ~ ~ ~ ~ ~ ~ ~ ~ ~ ~ ~ ~ ~ ~ ~ ~ ~ ~ ~ ~ ~ ~ yX4X8X0XfXxX~ ~ ~ ~ ~ ~ ~ ~ ~ ~ ~ ~ ~ ~ ~ ~ ",
"~ ~ ~ ~ ~ ~ ~ ~ ~ ~ ~ ~ ~ ~ ~ ~ ~ ~ ~ ~ ~ ~ ~ ~ ~ ~ ~ ~ ~ 6XD.D.L.e.S./.eXkX~ ~ ~ ~ ~ ~ ~ ~ ~ ~ ~ ~ ~ ~ ",
"~ ~ ~ ~ ~ ~ ~ ~ ~ ~ ~ ~ ~ ~ ~ ~ ~ ~ ~ ~ ~ ~ ~ ~ ~ ~ ~ ~ /.D.~.W.W.4.K.L.D.P.8XgX~ ~ ~ ~ ~ ~ ~ ~ ~ ~ ~ ~ ",
"~ ~ ~ ~ ~ ~ ~ ~ ~ ~ ~ ~ ~ ~ ~ ~ ~ ~ ~ ~ ~ ~ ~ ~ ~ ~ ~ 6XL.~.K.W.l.<.~.P.W.K.D.Z./.eXzX~ ~ ~ ~ ~ ~ ~ ~ ~ ",
"~ ~ ~ ~ ~ ~ ~ ~ ~ ~ ~ ~ ~ ~ ~ ~ ~ ~ ~ ~ ~ ~ ~ ~ ~ ~ ~ 5XC.~.K.~.4.S.W.K.K.K.K.~.G.A wX~ ~ ~ ~ ~ ~ ~ ~ ~ ",
"~ ~ ~ ~ ~ ~ ~ ~ ~ ~ ~ ~ ~ ~ ~ ~ ~ ~ ~ ~ ~ ~ ~ ~ ~ ~ ~ 5Xq.E.~.l.p.^.K.K.K.K.W.l.C e qX~ ~ ~ ~ ~ ~ ~ ~ ~ ",
"~ ~ ~ ~ ~ ~ ~ ~ ~ ~ ~ ~ ~ ~ ~ ~ ~ ~ ~ ~ ~ ~ ~ ~ ~ ~ 4XG.n.a.^.y.W.P.K.K.K.E.g.i 9 a <X~ ~ ~ ~ ~ ~ ~ ~ ~ ",
"~ ~ ~ ~ ~ ~ ~ ~ ~ ~ ~ ~ ~ ~ ~ ~ ~ ~ ~ ~ ~ ~ ~ ~ ~ !.E.(.!.n.a.S.^.K.K.K.K.k.n % j e -X~ ~ ~ ~ ~ ~ ~ ~ ~ ",
"~ ~ ~ ~ ~ ~ ~ ~ ~ ~ ~ ~ ~ ~ ~ ~ aX~ ~ ~ ~ ~ ~ ~ ~ w.y.f.Q.-X| *./.F.K.J.a.&.q 8 i a V.~ ~ ~ ~ ~ ~ ~ ~ ~ ",
"~ ~ ~ ~ ~ ~ ~ ~ ~ ~ ~ ~ ~ ~ ~ ~ tX2X~ ~ ~ ~ ~ ~ 7Xh.2.b %.A.=XB e.^.S.w.q.V 8 9 k a b.~ ~ ~ ~ ~ ~ ~ ~ ~ ",
"~ ~ ~ ~ ~ ~ ~ ~ ~ ~ ~ ~ ~ ~ ~ ~ 2X=X~ ~ ~ ~ ~ ~ m.h.3.m m b y.I.J g.w.4.;.9 9 $ k e ..~ ~ ~ ~ ~ ~ ~ ~ ~ ",
"~ ~ ~ ~ ~ ~ ~ ~ ~ ~ ~ ~ ~ ~ ~ ~ ;XT.jX~ ~ ~ ~ dXy.8.D m m Z a  .+.#.6.q.z 8 9 , n 0 ( ~ ~ ~ ~ ~ ~ ~ ~ ~ ",
"~ ~ ~ ~ ~ ~ ~ ~ ~ ~ ~ ~ ~ ~ ~ ~ ;XX.tX~ ~ ~ ~ -X0.8.x l n Z n #.XXF q.%.w x v Z z : B ~ ~ ~ ~ ~ ~ ~ ~ ~ ",
"~ ~ ~ ~ ~ ~ ~ ~ ~ ~ ~ ~ ~ ~ ~ tXR.s.2X>X~ ~ ~ i.w.,.D Z l n m *.b.} #.V v n m i , $ c ~ ~ ~ ~ ~ ~ ~ ~ ~ ",
"~ ~ ~ ~ ~ ~ ~ ~ ~ ~ ~ ~ ~ >X;X,XT.X.,X=X~ ~ wX<.i.,.D D n i D 0.7.] # k n n v 9 9 + j ~ ~ ~ ~ ~ ~ ~ ~ ~ ",
"~ ~ ~ ~ ~ ~ ~ ~ ~ ~ ~ ~ ~ ~ :XT.U.s.,XR.~ kXV.<.w.&.m D V w P 0.| ' # x n n l , q > ; hX~ ~ ~ ~ ~ ~ ~ ~ ",
"~ ~ ~ ~ ~ ~ ~ ~ ~ ~ ~ ~ ~ ~ gX-.Q -.z.B.p.x A y.h.h.:.D k k ,.#.` ` @ n n n y , q , X pX~ ~ ~ ~ ~ ~ ~ ~ ",
"~ ~ ~ ~ ~ ~ ~ ~ ~ ~ ~ ~ ~ wXC.r.T -.u.P $ i r.S.F.S.~.!.C c m.a +.5 0 D V Z y q q 9   3X~ ~ ~ ~ ~ ~ ~ ~ ",
"~ ~ ~ ~ ~ ~ ~ ~ ~ ~ ~ ~ fXK.j.g.-.-.i.Z $ y Z V b Z H 3.>.I >.7 _.5 i D D m q q , t   <X~ ~ ~ ~ ~ ~ ~ ~ ",
"~ ~ ~ ~ ~ ~ ~ ~ ~ ~ gX4XZ.M.Q.W.P.~.W.A.r.=.P i N :.&.P %.:.3.H .XN v c k y 8 , , t X *X~ ~ ~ ~ ~ ~ ~ ~ ",
"~ ~ ~ ~ ~ ~ ~ ~ ~ hXe.g.N.w.P H F C C V M M e +.I.#.6.k.M.M.S.k.OX3 i m y O , , , , o 7.~ ~ ~ ~ ~ ~ ~ ~ ",
"~ ~ ~ ~ ~ ~ ~ ~ ~ hX<.4.y.&.v n v 7 : : , 8 @ &X( A !.J.N.M.M.l.oX4 0 v v 9 & 8 , O F Z ~ ~ ~ ~ ~ ~ ~ ~ ",
"~ ~ ~ ~ ~ ~ ~ ~ xX0Xl.k.&.v n n Z k q 9 8 < ] &XN i k.S.J.l.M.C.XX` 7 x v k , , O S C r ~ ~ ~ ~ ~ ~ pXxX",
"~ ~ ~ ~ ~ ~ ~ ~ yXZ.K.N.$.,.$.H V l , w B @.n.9.} > 1.l.k.N.k.j.n.{ @ y v n w O K F & 0 qX~ ~ ~ ~ 2XxX~ ",
"~ ~ ~ ~ ~ ~ ~ gX^.^./.6.y.^.F.A.h.6.%.,.4.0.*.<.3.} K l.:.x.k.k.f._.> : x i , S I $ < : c.~ ~ ~ =XlX~ ~ ",
"~ ~ ~ ~ ~ ~ ~ K.D.K.K.%.N.^.!./.~.M.q.4.4.3.4.3.<.7.+.j.,.1.N.k.t.'.4 o > , H ;.> O ; K p b.~ :X3X~ ~ ~ ",
"~ ~ ~ ~ ~ zX!.S.F.K.k.,.K.N.H.J./.m.,.k.k.S.1.%.2. ._.,.p.H d.k.t.v.` o + Z H l 9 > M d.n  .zXX.xX~ ~ ~ ",
"~ ~ ~ ~ ~ 4XZ.K.S.K.f.h.F.S.S.l.S.1.8.N.S.5.9 %.<... Xi 1.%.%.l.g.9.o.o t n i l z S I 6.l ( T.T.~ ~ ~ ~ ",
"~ ~ ~ ~ 9XZ.F.S.S.F.p.S.N.S.N.M.F.H 5.4X5.: w ;.<.| oX0 u 3.F 9.k.w.+.1 : z x , 5.E L :.v j 2 ~ ~ ~ ~ ~ ",
"~ ~ ~ yXD.S.S.S.F.6.h.S.N.N.F.N.h.z r.B.M : i H *.|  Xr i 6.:.F N.e.O.5 # t , I k.K S L n d Q ~ ~ ~ ~ ~ ",
"~ ~ gXQ.K.K.F.E.w.,.J.x.S.N.g.q.,.j L n D D q q 0 +. X7 q %.S.F I r.7.! # O C p.u.K M n Z s T.~ pX~ ~ ~ ",
"~ kXS.G.M.d.h.d.$.G.S.M.p.4.=.L V z l v n V q , @ [ +X3 % y k.d.y : C o.+ u u.p.u.L g q M U @.~ >X~ ~ ~ ",
"~ dX&.3.;.J b r V u.p.2.$.V y w x n n x x x q , @ ! +X[ @ < :.k.9.z y `.3 r.p.:.H x h > d U ..tX>X~ ~ ~ ",
"~ 8Xj.h.w.,.P i : y H y : : z n v x v v v i , , % ! +X|.< w Z u.p.y.C #X} &.V i i k h 1 h f ..T.qX~ ~ ~ ",
"~ e.6.$.P H Z v , , % , y n b x v k y , $ + > q % 4 }.|.G n V 8.m.f.u.$X_.0 q : 9 9 g d R g B W sX~ ~ ~ ",
"~ 4.H i l v n , + , 9 z n v x v x & O O + + X o @ ! }./ A L y L m.m.k.V.).i c i < ; d h R t = Q ~ ~ ~ ~ ",
"~ ~ J x k w q + , y v n v x x x q $ X X X O 4 [ @X+X[.z z 3.x i ;.u.y.p.o.9 z z z w g U U + U 2X~ ~ ~ ~ ",
"~ ~ #.n n v , + , v v v x v v y : > 1 1 / '.OXOX].].].( 0 :.:.k z :.u.p._ $ x M u : g Y g  .Q zX~ ~ ~ ~ ",
"~ ~ 9.l n n q + y Z n n x z y ; y 4.d.d.m.h.a.e.t.0.A Z x F u.Z i x :.8._ O 9 1 = . g Y >Xs.,XzX~ ~ ~ ~ ",
"~ ~ ~ e x v 9   X o X X X   X z 2.p.y.6.2.,.:.:.I y < y n k 6.P m i V ) _ X + . d . f U.,Xs.sX~ ~ ~ ~ ~ ",
"~ ~ ~ ~ F H B @.*X*X<X1X3XpXpX>.n n z k z n Z x 9 9 w q y x I %.m Z r ! ).o - . g * h ;XQ tX,X~ ~ ~ ~ ~ ",
"~ ~ ~ ~ ~ ~ ~ ~ ~ ~ ~ ~ ~ ~ ~ ~ 6 r 7 X o X # x t , , , , q & F Z Z r ~ }.4 X O = h X.-.rX,XrX~ ~ ~ ~ ~ ",
"~ ~ ~ ~ ~ ~ ~ ~ ~ ~ ~ ~ ~ ~ ~ ~ c.b.n.v.v.v.c.$.t ; : > > : O + 9 , @ ! +X%X{ -   W U.R.tXs.~ ~ ~ ~ ~ ~ ",
"~ ~ ~ ~ ~ ~ ~ ~ ~ ~ ~ ~ ~ ~ ~ ~ ~ ~ ~ ~ ~ ~ ~  .$ < , , ; > - - - - - ^ {.}.%X#X[ } -.Y.T hX~ ~ ~ ~ ~ ~ ",
"~ ~ ~ ~ ~ ~ ~ ~ ~ ~ ~ ~ ~ ~ ~ ~ ~ ~ ~ ~ ~ ~ ~ ~ ~ ~ ~ ~ ~ ~ ~ ~ ~ ~ ~ ~ ~ ~ ~ uXiXiXaX7XdX~ ~ ~ ~ ~ ~ ~ ",
"~ ~ ~ ~ ~ ~ ~ ~ ~ ~ ~ ~ ~ ~ ~ ~ ~ ~ ~ ~ ~ ~ ~ ~ ~ ~ ~ ~ ~ ~ ~ ~ ~ ~ ~ ~ ~ ~ ~ ~ ~ ~ ~ ~ ~ ~ ~ ~ ~ ~ ~ ~ ",
"~ ~ ~ ~ ~ ~ ~ ~ ~ ~ ~ ~ ~ ~ ~ ~ ~ ~ ~ ~ ~ ~ ~ ~ ~ ~ ~ ~ ~ ~ ~ ~ ~ ~ ~ ~ ~ ~ ~ ~ ~ ~ ~ ~ ~ ~ ~ ~ ~ ~ ~ ~ ",
"~ ~ ~ ~ ~ ~ ~ ~ ~ ~ ~ ~ ~ ~ ~ ~ ~ ~ ~ ~ ~ ~ ~ ~ ~ ~ ~ ~ ~ ~ ~ ~ ~ ~ ~ ~ ~ ~ ~ ~ ~ ~ ~ ~ ~ ~ ~ ~ ~ ~ ~ ~ ",
"~ ~ ~ ~ ~ ~ ~ ~ ~ ~ ~ ~ ~ ~ ~ ~ ~ ~ ~ ~ ~ ~ ~ ~ ~ ~ ~ ~ ~ ~ ~ ~ ~ ~ ~ ~ ~ ~ ~ ~ ~ ~ ~ ~ ~ ~ ~ ~ ~ ~ ~ ~ "
};
